G04 #@! TF.GenerationSoftware,KiCad,Pcbnew,(5.99.0-7554-g937713dbbc)*
G04 #@! TF.CreationDate,2020-12-16T08:12:25+03:00*
G04 #@! TF.ProjectId,BioniX,42696f6e-6958-42e6-9b69-6361645f7063,rev?*
G04 #@! TF.SameCoordinates,PX6422c40PY5a995c0*
G04 #@! TF.FileFunction,Copper,L3,Inr*
G04 #@! TF.FilePolarity,Positive*
%FSLAX46Y46*%
G04 Gerber Fmt 4.6, Leading zero omitted, Abs format (unit mm)*
G04 Created by KiCad (PCBNEW (5.99.0-7554-g937713dbbc)) date 2020-12-16 08:12:25*
%MOMM*%
%LPD*%
G01*
G04 APERTURE LIST*
G04 #@! TA.AperFunction,ComponentPad*
%ADD10C,0.500000*%
G04 #@! TD*
G04 #@! TA.AperFunction,ComponentPad*
%ADD11O,1.000000X2.100000*%
G04 #@! TD*
G04 #@! TA.AperFunction,ComponentPad*
%ADD12O,1.000000X1.600000*%
G04 #@! TD*
G04 #@! TA.AperFunction,ComponentPad*
%ADD13C,0.700000*%
G04 #@! TD*
G04 #@! TA.AperFunction,ComponentPad*
%ADD14C,4.400000*%
G04 #@! TD*
G04 #@! TA.AperFunction,ViaPad*
%ADD15C,0.500000*%
G04 #@! TD*
G04 APERTURE END LIST*
D10*
G04 #@! TO.N,GND*
G04 #@! TO.C,U1*
X13730000Y24040000D03*
X17730000Y26040000D03*
X13730000Y23040000D03*
X16730000Y27040000D03*
X14730000Y23040000D03*
X17730000Y27040000D03*
G04 #@! TD*
G04 #@! TO.N,GND*
G04 #@! TO.C,U4*
X21730000Y16370000D03*
X22430000Y15970000D03*
X21030000Y15970000D03*
X21030000Y16770000D03*
X22430000Y16770000D03*
G04 #@! TD*
G04 #@! TO.N,GND*
G04 #@! TO.C,U3*
X30800000Y11840000D03*
X30800000Y11040000D03*
X30000000Y11440000D03*
X29200000Y11040000D03*
X29200000Y11840000D03*
G04 #@! TD*
D11*
G04 #@! TO.N,GND*
G04 #@! TO.C,J1*
X15680000Y6780000D03*
X24320000Y6780000D03*
D12*
X15680000Y2600000D03*
X24320000Y2600000D03*
G04 #@! TD*
D13*
G04 #@! TO.N,*
G04 #@! TO.C,H4*
X38650000Y47000000D03*
X38166726Y48166726D03*
X35833274Y45833274D03*
X37000000Y45350000D03*
X38166726Y45833274D03*
D14*
X37000000Y47000000D03*
D13*
X35350000Y47000000D03*
X35833274Y48166726D03*
X37000000Y48650000D03*
G04 #@! TD*
G04 #@! TO.N,*
G04 #@! TO.C,H1*
X4650000Y3000000D03*
X3000000Y1350000D03*
X3000000Y4650000D03*
D14*
X3000000Y3000000D03*
D13*
X4166726Y4166726D03*
X4166726Y1833274D03*
X1833274Y1833274D03*
X1350000Y3000000D03*
X1833274Y4166726D03*
G04 #@! TD*
G04 #@! TO.N,*
G04 #@! TO.C,H2*
X35833274Y4166726D03*
X35350000Y3000000D03*
X35833274Y1833274D03*
X38166726Y1833274D03*
X38166726Y4166726D03*
X38650000Y3000000D03*
X37000000Y1350000D03*
X37000000Y4650000D03*
D14*
X37000000Y3000000D03*
G04 #@! TD*
D13*
G04 #@! TO.N,*
G04 #@! TO.C,H3*
X1350000Y47000000D03*
X4166726Y45833274D03*
X4166726Y48166726D03*
X3000000Y45350000D03*
X3000000Y48650000D03*
X1833274Y45833274D03*
X1833274Y48166726D03*
X4650000Y47000000D03*
D14*
X3000000Y47000000D03*
G04 #@! TD*
D10*
G04 #@! TO.N,GND*
G04 #@! TO.C,U5*
X25514999Y23280000D03*
X26264999Y22530000D03*
X26264999Y24030000D03*
X27264999Y24030000D03*
X28014999Y23280000D03*
X26264999Y23280000D03*
X27264999Y23280000D03*
X27264999Y22530000D03*
G04 #@! TD*
D15*
G04 #@! TO.N,GND*
X4050000Y24900000D03*
X10900000Y17200000D03*
X7900000Y18950000D03*
X15250000Y17200000D03*
X12250000Y18900000D03*
X35760000Y40640000D03*
X4240000Y37700000D03*
X10870000Y45760000D03*
X18500000Y45750000D03*
X26125000Y45750000D03*
X13950000Y31775000D03*
G04 #@! TO.N,6V*
X4250000Y40700000D03*
X4250000Y39700000D03*
X3850000Y40200000D03*
X12875000Y45750000D03*
X13375000Y46150000D03*
X13875000Y45750000D03*
X21500000Y45750000D03*
X21000000Y46150000D03*
X20500000Y45750000D03*
X28625000Y46150000D03*
X28125000Y45750000D03*
X29125000Y45750000D03*
X36150000Y38125000D03*
X35750000Y38625000D03*
X35750000Y37625000D03*
G04 #@! TO.N,GND*
X10800000Y48150000D03*
X13950000Y48150000D03*
X16150000Y48150000D03*
X18400000Y48150000D03*
X21600000Y48150000D03*
X23800000Y48150000D03*
X26050000Y48150000D03*
X29200000Y48150000D03*
X31650000Y48150000D03*
X600000Y45000000D03*
X600000Y43500000D03*
X34450000Y48150000D03*
X38050000Y43250000D03*
X38050000Y40700000D03*
X38050000Y37550000D03*
X39400000Y45250000D03*
X39400000Y43750000D03*
X10250000Y49400000D03*
X11750000Y49400000D03*
X28250000Y49400000D03*
X29750000Y49400000D03*
X33500000Y14900000D03*
X34700000Y19700000D03*
X12830000Y15090000D03*
X33500000Y16100000D03*
X600000Y40500000D03*
X34250000Y600000D03*
X30900000Y25700000D03*
X29500000Y3450000D03*
X6850000Y14580000D03*
X30900000Y28700000D03*
X10250000Y600000D03*
X35750000Y49400000D03*
X16250000Y19975000D03*
X600000Y33000000D03*
X33500000Y17900000D03*
X4100000Y11400000D03*
X1700000Y21600000D03*
X500000Y21600000D03*
X4700000Y19200000D03*
X39400000Y40750000D03*
X33500000Y18500000D03*
X4700000Y15000000D03*
X11750000Y600000D03*
X11830000Y13640000D03*
X39400000Y25500000D03*
X19250000Y600000D03*
X600000Y27000000D03*
X7250000Y49400000D03*
X31500000Y29900000D03*
X25000000Y9100000D03*
X31500000Y27500000D03*
X4250000Y49400000D03*
X35300000Y19100000D03*
X31500000Y25700000D03*
X33500000Y17300000D03*
X35750000Y25430000D03*
X4700000Y19800000D03*
X6850000Y13200000D03*
X34700000Y19100000D03*
X31650000Y2400000D03*
X39400000Y37750000D03*
X9050000Y22450000D03*
X38150000Y19900000D03*
X31500000Y31100000D03*
X5750000Y49400000D03*
X16250000Y49400000D03*
X23750000Y49400000D03*
X600000Y25500000D03*
X33500000Y16700000D03*
X2900000Y11400000D03*
X28400000Y8900000D03*
X4700000Y12000000D03*
X39400000Y9250000D03*
X25700000Y8400000D03*
X17750000Y600000D03*
X20560000Y27220000D03*
X8700000Y21040000D03*
X4700000Y21600000D03*
X4700000Y18600000D03*
X17100000Y18050000D03*
X30900000Y29900000D03*
X7470000Y15110000D03*
X8750000Y49400000D03*
X4700000Y20400000D03*
X28400000Y8300000D03*
X39400000Y6250000D03*
X33500000Y15500000D03*
X600000Y37500000D03*
X1700000Y11400000D03*
X31500000Y28100000D03*
X35750000Y600000D03*
X30900000Y27500000D03*
X39400000Y7750000D03*
X30900000Y30500000D03*
X9810000Y10380000D03*
X33500000Y19700000D03*
X39400000Y33000000D03*
X6150000Y14580000D03*
X600000Y10500000D03*
X600000Y39000000D03*
X600000Y35390000D03*
X38050000Y30000000D03*
X39400000Y19750000D03*
X23750000Y600000D03*
X29500000Y4250000D03*
X39400000Y12250000D03*
X5750000Y500000D03*
X14750000Y600000D03*
X39400000Y39250000D03*
X4700000Y12600000D03*
X38200000Y44500000D03*
X30900000Y31100000D03*
X28500000Y4250000D03*
X39400000Y13750000D03*
X31530000Y13990000D03*
X33350000Y9750000D03*
X32750000Y49400000D03*
X38150000Y22350000D03*
X1100000Y11400000D03*
X2900000Y21600000D03*
X31500000Y26900000D03*
X31500000Y26300000D03*
X30300000Y31700000D03*
X31500000Y31700000D03*
X31500000Y29300000D03*
X30900000Y29300000D03*
X39400000Y35350000D03*
X600000Y31500000D03*
X600000Y7500000D03*
X28250000Y600000D03*
X4700000Y14400000D03*
X33850000Y10400000D03*
X4700000Y21000000D03*
X1100000Y21600000D03*
X39400000Y31500000D03*
X3500000Y21600000D03*
X28000000Y3850000D03*
X25000000Y8400000D03*
X29750000Y600000D03*
X33450000Y2900000D03*
X2300000Y21600000D03*
X600000Y6000000D03*
X31450000Y10640000D03*
X31250000Y49400000D03*
X4700000Y11400000D03*
X3500000Y11400000D03*
X34500000Y1800000D03*
X39400000Y27750000D03*
X4700000Y17400000D03*
X5530000Y15110000D03*
X4700000Y16200000D03*
X600000Y9000000D03*
X19250000Y49400000D03*
X34100000Y19100000D03*
X33500000Y19100000D03*
X600000Y22500000D03*
X27500000Y3450000D03*
X39400000Y10750000D03*
X12830000Y15900000D03*
X20750000Y49400000D03*
X34250000Y49400000D03*
X6150000Y13200000D03*
X32720000Y12510000D03*
X26750000Y49400000D03*
X30900000Y31700000D03*
X25000000Y7700000D03*
X39400000Y22500000D03*
X39400000Y24000000D03*
X38050000Y33150000D03*
X4700000Y16800000D03*
X31250000Y600000D03*
X26850000Y3000000D03*
X28350000Y1800000D03*
X8750000Y600000D03*
X27800000Y8300000D03*
X500000Y11400000D03*
X35760000Y33070000D03*
X29700000Y31700000D03*
X28500000Y3450000D03*
X13250000Y49400000D03*
X12410000Y14290000D03*
X39400000Y15250000D03*
X2300000Y11400000D03*
X16250000Y600000D03*
X34100000Y19700000D03*
X31500000Y30500000D03*
X30900000Y26900000D03*
X4700000Y13200000D03*
X5450000Y13200000D03*
X22250000Y600000D03*
X27800000Y8900000D03*
X4700000Y15600000D03*
X8990000Y31000000D03*
X30900000Y26300000D03*
X30900000Y28100000D03*
X4700000Y18000000D03*
X24300000Y8400000D03*
X26850000Y8850000D03*
X27500000Y4250000D03*
X4250000Y500000D03*
X25250000Y600000D03*
X7550000Y13200000D03*
X600000Y4500000D03*
X38150000Y25500000D03*
X4100000Y21600000D03*
X11500000Y4250000D03*
X600000Y24000000D03*
X39400000Y16750000D03*
X29000000Y3850000D03*
X39400000Y30000000D03*
X4250000Y30082157D03*
X35300000Y19700000D03*
X600000Y30000000D03*
X39400000Y4750000D03*
X20750000Y600000D03*
X31500000Y28700000D03*
X13550000Y29870000D03*
X39400000Y18250000D03*
G04 #@! TO.N,6V*
X28500000Y30500000D03*
X28500000Y29300000D03*
X27900000Y26300000D03*
X27900000Y28100000D03*
X27900000Y26900000D03*
X28500000Y25700000D03*
X27900000Y31700000D03*
X36260000Y17450000D03*
X28500000Y31100000D03*
X28500000Y31700000D03*
X35750000Y30057157D03*
X28500000Y28700000D03*
X27900000Y30500000D03*
X36150000Y22927157D03*
X28500000Y29900000D03*
X26700000Y31700000D03*
X27300000Y31700000D03*
X35750000Y31057157D03*
X36150000Y30557157D03*
X28500000Y26300000D03*
X27900000Y29300000D03*
X35750000Y23427157D03*
X27900000Y31100000D03*
X27900000Y29900000D03*
X28500000Y27500000D03*
X27900000Y25700000D03*
X28500000Y28100000D03*
X27900000Y28700000D03*
X28500000Y26900000D03*
X35750000Y22427157D03*
X27900000Y27500000D03*
G04 #@! TO.N,3.3V*
X18400000Y16000000D03*
X20050000Y15400000D03*
X6000000Y10390000D03*
X11240000Y15090000D03*
X18400000Y15400000D03*
X4250000Y33072157D03*
X10725000Y21450000D03*
X10875000Y22200000D03*
X9940000Y28130000D03*
X16500000Y18060000D03*
X3245000Y27181250D03*
X17800000Y15400000D03*
X20050000Y14800000D03*
X14290000Y31000000D03*
X4705000Y22681250D03*
X6325000Y25331250D03*
X20730000Y18420000D03*
X8700000Y24080000D03*
X12025000Y21825000D03*
X17800000Y16600000D03*
X12475000Y21400000D03*
X18400000Y14800000D03*
X20560000Y27860000D03*
X12910000Y29870000D03*
X8500000Y4250000D03*
X17800000Y16000000D03*
X5215000Y27181250D03*
X6325000Y24651250D03*
X11190000Y13640000D03*
X2125000Y25331250D03*
X17800000Y14800000D03*
G04 #@! TO.N,SDA*
X4250000Y32072157D03*
X10109301Y23730699D03*
G04 #@! TO.N,SCL*
X4250000Y31082157D03*
X9509300Y23729622D03*
G04 #@! TO.N,BAT_VOLT*
X19960000Y22290000D03*
X31720000Y11440000D03*
G04 #@! TO.N,VBAT*
X32600000Y8300000D03*
X27300000Y12930000D03*
X31500000Y3450000D03*
X32100000Y8700000D03*
X26750000Y12630000D03*
X26200000Y12930000D03*
X32000000Y3850000D03*
X30500000Y3450000D03*
X28240000Y13120000D03*
X32500000Y3450000D03*
X31600000Y9100000D03*
X31500000Y4250000D03*
X32500000Y4250000D03*
X31000000Y3850000D03*
X26770000Y13280000D03*
X32600000Y9100000D03*
X31600000Y8300000D03*
X30500000Y4250000D03*
G04 #@! TO.N,VUSB*
X32980000Y10540000D03*
X24970000Y12600000D03*
X28349916Y13880000D03*
G04 #@! TO.N,SERVO_Y*
X20310000Y23790000D03*
X35750000Y32060000D03*
G04 #@! TO.N,SERVO_X*
X19960000Y23290000D03*
X35760000Y24430000D03*
G04 #@! TO.N,EMG_2*
X10500000Y4250000D03*
X18280003Y20690000D03*
G04 #@! TO.N,EMG_1*
X17680000Y20690000D03*
X9500000Y4250000D03*
G04 #@! TO.N,BAT_STAT*
X20406743Y21889472D03*
X30310000Y13730000D03*
G04 #@! TO.N,D-*
X15032433Y29539950D03*
X20300000Y10871290D03*
G04 #@! TO.N,D+*
X19700000Y10871290D03*
X14432433Y29539950D03*
G04 #@! TO.N,BT_TX*
X9540000Y12150000D03*
X11500000Y24790000D03*
G04 #@! TO.N,BT_RX*
X9940000Y12600000D03*
X11160000Y25290000D03*
G04 #@! TO.N,Net-(J1-PadA7)*
X20252157Y6770000D03*
X19250000Y6770000D03*
G04 #@! TO.N,VBUS*
X32200000Y19100000D03*
X30400000Y17300000D03*
X30400000Y19100000D03*
X30400000Y19700000D03*
X30400000Y18500000D03*
X24900000Y14900000D03*
X30400000Y14900000D03*
X23200000Y18400000D03*
X26700000Y14300000D03*
X31000000Y19100000D03*
X30400000Y16100000D03*
X31000000Y19700000D03*
X30400000Y17900000D03*
X24900000Y15500000D03*
X30400000Y16700000D03*
X23200000Y17800000D03*
X32200000Y19700000D03*
X25500000Y14300000D03*
X24900000Y14300000D03*
X23300000Y15000000D03*
X31600000Y19100000D03*
X31600000Y19700000D03*
X22600000Y18400000D03*
X30400000Y15500000D03*
X26100000Y14300000D03*
G04 #@! TO.N,BT_2*
X11500000Y27790000D03*
X9140000Y12600000D03*
G04 #@! TO.N,BT_1*
X11500000Y28390000D03*
X8740000Y12150000D03*
G04 #@! TO.N,Net-(F1-Pad1)*
X17550000Y8750000D03*
X22260000Y6710000D03*
X17900000Y6550000D03*
X22450000Y8750000D03*
G04 #@! TD*
G04 #@! TA.AperFunction,Conductor*
G04 #@! TO.N,Net-(F1-Pad1)*
G36*
X24382884Y13498578D02*
G01*
X24439131Y13487390D01*
X24476104Y13480036D01*
X24502779Y13468987D01*
X24581807Y13416182D01*
X24593021Y13406979D01*
X24851461Y13148539D01*
X24872853Y13102663D01*
X24859752Y13053768D01*
X24825835Y13027198D01*
X24744319Y12995662D01*
X24739972Y12992235D01*
X24642299Y12915236D01*
X24642297Y12915234D01*
X24637955Y12911811D01*
X24560948Y12800392D01*
X24559282Y12795124D01*
X24559281Y12795122D01*
X24521775Y12676528D01*
X24520108Y12671256D01*
X24519044Y12535819D01*
X24557851Y12406058D01*
X24560924Y12401459D01*
X24599962Y12343035D01*
X24633098Y12293443D01*
X24738132Y12207932D01*
X24863666Y12157086D01*
X24923730Y12151884D01*
X24993089Y12145876D01*
X24993092Y12145876D01*
X24998601Y12145399D01*
X25131008Y12173905D01*
X25135835Y12176608D01*
X25244357Y12237383D01*
X25244360Y12237385D01*
X25249179Y12240084D01*
X25304469Y12298043D01*
X25338849Y12334082D01*
X25338851Y12334085D01*
X25342667Y12338085D01*
X25403133Y12459097D01*
X25439879Y12493908D01*
X25490407Y12496954D01*
X25521654Y12478346D01*
X25906979Y12093021D01*
X25916182Y12081807D01*
X25968987Y12002779D01*
X25980036Y11976103D01*
X25998578Y11882884D01*
X26000000Y11868448D01*
X26000000Y8875217D01*
X25982687Y8827651D01*
X25938850Y8802341D01*
X25888833Y8811228D01*
X25872467Y8820734D01*
X25872462Y8820736D01*
X25867681Y8823513D01*
X25862294Y8824762D01*
X25862293Y8824762D01*
X25741127Y8852847D01*
X25741126Y8852847D01*
X25735738Y8854096D01*
X25656481Y8848484D01*
X25606156Y8844921D01*
X25606155Y8844921D01*
X25600636Y8844530D01*
X25595474Y8842533D01*
X25500423Y8805761D01*
X25449814Y8804745D01*
X25410392Y8836498D01*
X25400604Y8886161D01*
X25407525Y8907848D01*
X25433206Y8959243D01*
X25434113Y8964692D01*
X25434114Y8964695D01*
X25454967Y9089981D01*
X25455444Y9092845D01*
X25455500Y9100000D01*
X25435364Y9233935D01*
X25376735Y9356029D01*
X25372982Y9360089D01*
X25372980Y9360092D01*
X25288553Y9451424D01*
X25288552Y9451424D01*
X25284798Y9455486D01*
X25167681Y9523513D01*
X25162294Y9524762D01*
X25162293Y9524762D01*
X25041127Y9552847D01*
X25041126Y9552847D01*
X25035738Y9554096D01*
X24956481Y9548484D01*
X24906156Y9544921D01*
X24906155Y9544921D01*
X24900636Y9544530D01*
X24774319Y9495662D01*
X24769972Y9492235D01*
X24672299Y9415236D01*
X24672297Y9415234D01*
X24667955Y9411811D01*
X24664811Y9407262D01*
X24664810Y9407261D01*
X24629401Y9356029D01*
X24590948Y9300392D01*
X24589282Y9295124D01*
X24589281Y9295122D01*
X24568201Y9228466D01*
X24550108Y9171256D01*
X24549044Y9035819D01*
X24586827Y8909482D01*
X24586827Y8909481D01*
X24587851Y8906058D01*
X24587158Y8905851D01*
X24591338Y8859920D01*
X24562450Y8818354D01*
X24513602Y8805081D01*
X24482626Y8814833D01*
X24472467Y8820734D01*
X24472462Y8820736D01*
X24467681Y8823513D01*
X24462294Y8824762D01*
X24462293Y8824762D01*
X24341127Y8852847D01*
X24341126Y8852847D01*
X24335738Y8854096D01*
X24256481Y8848484D01*
X24206156Y8844921D01*
X24206155Y8844921D01*
X24200636Y8844530D01*
X24074319Y8795662D01*
X24069972Y8792235D01*
X23972299Y8715236D01*
X23972297Y8715234D01*
X23967955Y8711811D01*
X23890948Y8600392D01*
X23889282Y8595124D01*
X23889281Y8595122D01*
X23851775Y8476528D01*
X23850108Y8471256D01*
X23849044Y8335819D01*
X23887851Y8206058D01*
X23963098Y8093443D01*
X23967387Y8089952D01*
X23967388Y8089950D01*
X23995366Y8067173D01*
X24021323Y8023716D01*
X24013274Y7973741D01*
X23982587Y7944029D01*
X23927415Y7915552D01*
X23927412Y7915550D01*
X23923450Y7913505D01*
X23920092Y7910576D01*
X23920091Y7910575D01*
X23837953Y7838921D01*
X23795711Y7802071D01*
X23793143Y7798417D01*
X23793142Y7798416D01*
X23716933Y7689981D01*
X23698240Y7663384D01*
X23696618Y7659225D01*
X23696618Y7659224D01*
X23657638Y7559243D01*
X23636665Y7505450D01*
X23636083Y7501026D01*
X23636082Y7501024D01*
X23628448Y7443035D01*
X23619500Y7375069D01*
X23619501Y6188683D01*
X23619769Y6186470D01*
X23619769Y6186467D01*
X23634330Y6066144D01*
X23634866Y6061715D01*
X23643040Y6040083D01*
X23689554Y5916987D01*
X23694784Y5903145D01*
X23729298Y5852927D01*
X23781028Y5777660D01*
X23790798Y5763444D01*
X23794134Y5760472D01*
X23914029Y5653649D01*
X23914031Y5653647D01*
X23917363Y5650679D01*
X24067172Y5571359D01*
X24149375Y5550711D01*
X24227253Y5531149D01*
X24227256Y5531149D01*
X24231578Y5530063D01*
X24318821Y5529606D01*
X24396630Y5529199D01*
X24396633Y5529199D01*
X24401088Y5529176D01*
X24405423Y5530217D01*
X24405425Y5530217D01*
X24491368Y5550850D01*
X24565918Y5568748D01*
X24716550Y5646495D01*
X24844289Y5757928D01*
X24848166Y5763444D01*
X24939193Y5892962D01*
X24939194Y5892964D01*
X24941760Y5896615D01*
X25003335Y6054549D01*
X25004279Y6061715D01*
X25015816Y6149348D01*
X25020500Y6184930D01*
X25020500Y7183891D01*
X25037813Y7231457D01*
X25078925Y7256233D01*
X25155597Y7272740D01*
X25161008Y7273905D01*
X25165835Y7276608D01*
X25274357Y7337383D01*
X25274360Y7337385D01*
X25279179Y7340084D01*
X25282994Y7344083D01*
X25368849Y7434082D01*
X25368851Y7434085D01*
X25372667Y7438085D01*
X25433206Y7559243D01*
X25434113Y7564692D01*
X25434114Y7564695D01*
X25454967Y7689981D01*
X25455444Y7692845D01*
X25455500Y7700000D01*
X25435364Y7833935D01*
X25406524Y7893994D01*
X25401541Y7944367D01*
X25430102Y7986159D01*
X25478845Y7999814D01*
X25501013Y7994614D01*
X25593666Y7957086D01*
X25653730Y7951884D01*
X25723089Y7945876D01*
X25723092Y7945876D01*
X25728601Y7945399D01*
X25861008Y7973905D01*
X25889842Y7990053D01*
X25939802Y7998189D01*
X25983305Y7972308D01*
X26000000Y7925488D01*
X26000000Y1881552D01*
X25998578Y1867116D01*
X25980036Y1773897D01*
X25968987Y1747222D01*
X25950415Y1719426D01*
X25916182Y1668193D01*
X25906979Y1656979D01*
X25843021Y1593021D01*
X25831807Y1583818D01*
X25752779Y1531013D01*
X25726104Y1519964D01*
X25689131Y1512610D01*
X25632884Y1501422D01*
X25618448Y1500000D01*
X24601815Y1500000D01*
X24554249Y1517313D01*
X24528939Y1561150D01*
X24537729Y1611000D01*
X24567875Y1639758D01*
X24712588Y1714450D01*
X24716550Y1716495D01*
X24844289Y1827928D01*
X24848166Y1833444D01*
X24939193Y1962962D01*
X24939194Y1962964D01*
X24941760Y1966615D01*
X25003335Y2124549D01*
X25004279Y2131715D01*
X25020183Y2252523D01*
X25020500Y2254930D01*
X25020500Y2941317D01*
X25005135Y3068285D01*
X24945217Y3226855D01*
X24849203Y3366556D01*
X24845871Y3369525D01*
X24845868Y3369528D01*
X24725971Y3476351D01*
X24725969Y3476353D01*
X24722637Y3479321D01*
X24572828Y3558641D01*
X24490625Y3579289D01*
X24412747Y3598851D01*
X24412744Y3598851D01*
X24408422Y3599937D01*
X24321179Y3600394D01*
X24243370Y3600801D01*
X24243367Y3600801D01*
X24238912Y3600824D01*
X24234577Y3599783D01*
X24234575Y3599783D01*
X24148632Y3579150D01*
X24074082Y3561252D01*
X23923450Y3483505D01*
X23795711Y3372071D01*
X23698240Y3233384D01*
X23636665Y3075450D01*
X23636083Y3071026D01*
X23636082Y3071024D01*
X23624184Y2980651D01*
X23619500Y2945069D01*
X23619500Y2258683D01*
X23634865Y2131715D01*
X23694783Y1973145D01*
X23697309Y1969470D01*
X23767656Y1867116D01*
X23790798Y1833444D01*
X23794134Y1830472D01*
X23914029Y1723649D01*
X23914031Y1723647D01*
X23917363Y1720679D01*
X24067172Y1641359D01*
X24066852Y1640754D01*
X24102373Y1609876D01*
X24110291Y1559880D01*
X24084221Y1516491D01*
X24037651Y1500000D01*
X15961815Y1500000D01*
X15914249Y1517313D01*
X15888939Y1561150D01*
X15897729Y1611000D01*
X15927875Y1639758D01*
X16072588Y1714450D01*
X16076550Y1716495D01*
X16204289Y1827928D01*
X16208166Y1833444D01*
X16299193Y1962962D01*
X16299194Y1962964D01*
X16301760Y1966615D01*
X16363335Y2124549D01*
X16364279Y2131715D01*
X16380183Y2252523D01*
X16380500Y2254930D01*
X16380500Y2941317D01*
X16365135Y3068285D01*
X16305217Y3226855D01*
X16209203Y3366556D01*
X16205871Y3369525D01*
X16205868Y3369528D01*
X16085971Y3476351D01*
X16085969Y3476353D01*
X16082637Y3479321D01*
X15932828Y3558641D01*
X15850625Y3579289D01*
X15772747Y3598851D01*
X15772744Y3598851D01*
X15768422Y3599937D01*
X15681179Y3600394D01*
X15603370Y3600801D01*
X15603367Y3600801D01*
X15598912Y3600824D01*
X15594577Y3599783D01*
X15594575Y3599783D01*
X15508632Y3579150D01*
X15434082Y3561252D01*
X15283450Y3483505D01*
X15155711Y3372071D01*
X15058240Y3233384D01*
X14996665Y3075450D01*
X14996083Y3071026D01*
X14996082Y3071024D01*
X14984184Y2980651D01*
X14979500Y2945069D01*
X14979500Y2258683D01*
X14994865Y2131715D01*
X15054783Y1973145D01*
X15057309Y1969470D01*
X15127656Y1867116D01*
X15150798Y1833444D01*
X15154134Y1830472D01*
X15274029Y1723649D01*
X15274031Y1723647D01*
X15277363Y1720679D01*
X15427172Y1641359D01*
X15426852Y1640754D01*
X15462373Y1609876D01*
X15470291Y1559880D01*
X15444221Y1516491D01*
X15397651Y1500000D01*
X14881552Y1500000D01*
X14867116Y1501422D01*
X14810869Y1512610D01*
X14773896Y1519964D01*
X14747221Y1531013D01*
X14668193Y1583818D01*
X14656979Y1593021D01*
X14593021Y1656979D01*
X14583818Y1668193D01*
X14549585Y1719426D01*
X14531013Y1747222D01*
X14519964Y1773897D01*
X14501422Y1867116D01*
X14500000Y1881552D01*
X14500000Y7375069D01*
X14979500Y7375069D01*
X14979501Y6188683D01*
X14979769Y6186470D01*
X14979769Y6186467D01*
X14994330Y6066144D01*
X14994866Y6061715D01*
X15003040Y6040083D01*
X15049554Y5916987D01*
X15054784Y5903145D01*
X15089298Y5852927D01*
X15141028Y5777660D01*
X15150798Y5763444D01*
X15154134Y5760472D01*
X15274029Y5653649D01*
X15274031Y5653647D01*
X15277363Y5650679D01*
X15427172Y5571359D01*
X15509375Y5550711D01*
X15587253Y5531149D01*
X15587256Y5531149D01*
X15591578Y5530063D01*
X15678821Y5529606D01*
X15756630Y5529199D01*
X15756633Y5529199D01*
X15761088Y5529176D01*
X15765423Y5530217D01*
X15765425Y5530217D01*
X15851368Y5550850D01*
X15925918Y5568748D01*
X16076550Y5646495D01*
X16204289Y5757928D01*
X16208166Y5763444D01*
X16299193Y5892962D01*
X16299194Y5892964D01*
X16301760Y5896615D01*
X16363335Y6054549D01*
X16364279Y6061715D01*
X16375816Y6149348D01*
X16380313Y6183511D01*
X16583683Y6183511D01*
X16584989Y6178637D01*
X16619646Y6049295D01*
X16619647Y6049291D01*
X16620952Y6044423D01*
X16694251Y5920481D01*
X16798180Y5820816D01*
X16802623Y5818434D01*
X16802624Y5818433D01*
X16920640Y5755154D01*
X16920642Y5755153D01*
X16925083Y5752772D01*
X17065609Y5721361D01*
X17145919Y5725570D01*
X17204372Y5728633D01*
X17204373Y5728633D01*
X17209406Y5728897D01*
X17214183Y5730505D01*
X17214185Y5730505D01*
X17254976Y5744233D01*
X17345879Y5774825D01*
X17418688Y5824306D01*
X17460803Y5852927D01*
X17460805Y5852929D01*
X17464974Y5855762D01*
X17468226Y5859611D01*
X17468229Y5859613D01*
X17554664Y5961896D01*
X17557916Y5965744D01*
X17617858Y6096669D01*
X17630841Y6178637D01*
X17631612Y6183511D01*
X22363683Y6183511D01*
X22364989Y6178637D01*
X22399646Y6049295D01*
X22399647Y6049291D01*
X22400952Y6044423D01*
X22474251Y5920481D01*
X22578180Y5820816D01*
X22582623Y5818434D01*
X22582624Y5818433D01*
X22700640Y5755154D01*
X22700642Y5755153D01*
X22705083Y5752772D01*
X22845609Y5721361D01*
X22925919Y5725570D01*
X22984372Y5728633D01*
X22984373Y5728633D01*
X22989406Y5728897D01*
X22994183Y5730505D01*
X22994185Y5730505D01*
X23034976Y5744233D01*
X23125879Y5774825D01*
X23198688Y5824306D01*
X23240803Y5852927D01*
X23240805Y5852929D01*
X23244974Y5855762D01*
X23248226Y5859611D01*
X23248229Y5859613D01*
X23334664Y5961896D01*
X23337916Y5965744D01*
X23397858Y6096669D01*
X23410841Y6178637D01*
X23419959Y6236204D01*
X23419959Y6236210D01*
X23420384Y6238890D01*
X23420500Y6250000D01*
X23400958Y6392662D01*
X23343771Y6524813D01*
X23289712Y6591570D01*
X23256326Y6632799D01*
X23256324Y6632801D01*
X23253152Y6636718D01*
X23135779Y6720131D01*
X23131032Y6721840D01*
X23131030Y6721841D01*
X23005047Y6767197D01*
X23005046Y6767197D01*
X23000297Y6768907D01*
X22995265Y6769277D01*
X22995263Y6769277D01*
X22935356Y6773676D01*
X22856690Y6779453D01*
X22851746Y6778456D01*
X22851744Y6778456D01*
X22720485Y6751990D01*
X22720484Y6751990D01*
X22715536Y6750992D01*
X22587236Y6685620D01*
X22481243Y6588153D01*
X22405364Y6465774D01*
X22365191Y6327497D01*
X22363683Y6183511D01*
X17631612Y6183511D01*
X17639959Y6236204D01*
X17639959Y6236210D01*
X17640384Y6238890D01*
X17640500Y6250000D01*
X17620958Y6392662D01*
X17563771Y6524813D01*
X17509712Y6591570D01*
X17476326Y6632799D01*
X17476324Y6632801D01*
X17473152Y6636718D01*
X17375918Y6705819D01*
X18799044Y6705819D01*
X18837851Y6576058D01*
X18840924Y6571459D01*
X18908677Y6470060D01*
X18913098Y6463443D01*
X19018132Y6377932D01*
X19143666Y6327086D01*
X19197146Y6322454D01*
X19273089Y6315876D01*
X19273092Y6315876D01*
X19278601Y6315399D01*
X19411008Y6343905D01*
X19415835Y6346608D01*
X19524357Y6407383D01*
X19524360Y6407385D01*
X19529179Y6410084D01*
X19576749Y6459950D01*
X19618849Y6504082D01*
X19618851Y6504085D01*
X19622667Y6508085D01*
X19683206Y6629243D01*
X19683635Y6631823D01*
X19714022Y6670710D01*
X19763535Y6681231D01*
X19808228Y6657464D01*
X19824128Y6629158D01*
X19840008Y6576058D01*
X19843081Y6571459D01*
X19910834Y6470060D01*
X19915255Y6463443D01*
X20020289Y6377932D01*
X20145823Y6327086D01*
X20199303Y6322454D01*
X20275246Y6315876D01*
X20275249Y6315876D01*
X20280758Y6315399D01*
X20413165Y6343905D01*
X20417992Y6346608D01*
X20526514Y6407383D01*
X20526517Y6407385D01*
X20531336Y6410084D01*
X20578906Y6459950D01*
X20621006Y6504082D01*
X20621008Y6504085D01*
X20624824Y6508085D01*
X20685363Y6629243D01*
X20686270Y6634692D01*
X20686271Y6634695D01*
X20707124Y6759981D01*
X20707601Y6762845D01*
X20707657Y6770000D01*
X20706292Y6779083D01*
X20688343Y6898466D01*
X20687521Y6903935D01*
X20628892Y7026029D01*
X20625139Y7030089D01*
X20625137Y7030092D01*
X20540710Y7121424D01*
X20540709Y7121424D01*
X20536955Y7125486D01*
X20419838Y7193513D01*
X20414451Y7194762D01*
X20414450Y7194762D01*
X20293284Y7222847D01*
X20293283Y7222847D01*
X20287895Y7224096D01*
X20208638Y7218484D01*
X20158313Y7214921D01*
X20158312Y7214921D01*
X20152793Y7214530D01*
X20026476Y7165662D01*
X20022129Y7162235D01*
X19924456Y7085236D01*
X19924454Y7085234D01*
X19920112Y7081811D01*
X19916968Y7077262D01*
X19916967Y7077261D01*
X19881558Y7026029D01*
X19843105Y6970392D01*
X19841438Y6965122D01*
X19841438Y6965121D01*
X19823877Y6909594D01*
X19793027Y6869462D01*
X19743598Y6858550D01*
X19698719Y6881962D01*
X19685978Y6904230D01*
X19685364Y6903935D01*
X19655982Y6965122D01*
X19626735Y7026029D01*
X19622982Y7030089D01*
X19622980Y7030092D01*
X19538553Y7121424D01*
X19538552Y7121424D01*
X19534798Y7125486D01*
X19417681Y7193513D01*
X19412294Y7194762D01*
X19412293Y7194762D01*
X19291127Y7222847D01*
X19291126Y7222847D01*
X19285738Y7224096D01*
X19206481Y7218484D01*
X19156156Y7214921D01*
X19156155Y7214921D01*
X19150636Y7214530D01*
X19024319Y7165662D01*
X19019972Y7162235D01*
X18922299Y7085236D01*
X18922297Y7085234D01*
X18917955Y7081811D01*
X18914811Y7077262D01*
X18914810Y7077261D01*
X18879401Y7026029D01*
X18840948Y6970392D01*
X18839282Y6965124D01*
X18839281Y6965122D01*
X18809028Y6869462D01*
X18800108Y6841256D01*
X18799044Y6705819D01*
X17375918Y6705819D01*
X17355779Y6720131D01*
X17351032Y6721840D01*
X17351030Y6721841D01*
X17225047Y6767197D01*
X17225046Y6767197D01*
X17220297Y6768907D01*
X17215265Y6769277D01*
X17215263Y6769277D01*
X17155356Y6773676D01*
X17076690Y6779453D01*
X17071746Y6778456D01*
X17071744Y6778456D01*
X16940485Y6751990D01*
X16940484Y6751990D01*
X16935536Y6750992D01*
X16807236Y6685620D01*
X16701243Y6588153D01*
X16625364Y6465774D01*
X16585191Y6327497D01*
X16583683Y6183511D01*
X16380313Y6183511D01*
X16380500Y6184930D01*
X16380500Y7371317D01*
X16365135Y7498285D01*
X16305217Y7656855D01*
X16209203Y7796556D01*
X16205871Y7799525D01*
X16205868Y7799528D01*
X16085971Y7906351D01*
X16085969Y7906353D01*
X16082637Y7909321D01*
X15960969Y7973741D01*
X15936770Y7986554D01*
X15936769Y7986554D01*
X15932828Y7988641D01*
X15840585Y8011811D01*
X15772747Y8028851D01*
X15772744Y8028851D01*
X15768422Y8029937D01*
X15681179Y8030394D01*
X15603370Y8030801D01*
X15603367Y8030801D01*
X15598912Y8030824D01*
X15594577Y8029783D01*
X15594575Y8029783D01*
X15519717Y8011811D01*
X15434082Y7991252D01*
X15283450Y7913505D01*
X15280092Y7910576D01*
X15280091Y7910575D01*
X15197953Y7838921D01*
X15155711Y7802071D01*
X15153143Y7798417D01*
X15153142Y7798416D01*
X15076933Y7689981D01*
X15058240Y7663384D01*
X15056618Y7659225D01*
X15056618Y7659224D01*
X15017638Y7559243D01*
X14996665Y7505450D01*
X14996083Y7501026D01*
X14996082Y7501024D01*
X14988448Y7443035D01*
X14979500Y7375069D01*
X14500000Y7375069D01*
X14500000Y10807109D01*
X19249044Y10807109D01*
X19287851Y10677348D01*
X19290924Y10672749D01*
X19329962Y10614325D01*
X19363098Y10564733D01*
X19468132Y10479222D01*
X19593666Y10428376D01*
X19653730Y10423174D01*
X19723089Y10417166D01*
X19723092Y10417166D01*
X19728601Y10416689D01*
X19861008Y10445195D01*
X19964605Y10503212D01*
X20014565Y10511348D01*
X20047483Y10496033D01*
X20068132Y10479222D01*
X20193666Y10428376D01*
X20253730Y10423174D01*
X20323089Y10417166D01*
X20323092Y10417166D01*
X20328601Y10416689D01*
X20461008Y10445195D01*
X20465835Y10447898D01*
X20574357Y10508673D01*
X20574360Y10508675D01*
X20579179Y10511374D01*
X20582994Y10515373D01*
X20668849Y10605372D01*
X20668851Y10605375D01*
X20672667Y10609375D01*
X20733206Y10730533D01*
X20734113Y10735982D01*
X20734114Y10735985D01*
X20754967Y10861271D01*
X20755444Y10864135D01*
X20755500Y10871290D01*
X20735364Y11005225D01*
X20676735Y11127319D01*
X20672982Y11131379D01*
X20672980Y11131382D01*
X20588553Y11222714D01*
X20588552Y11222714D01*
X20584798Y11226776D01*
X20467681Y11294803D01*
X20462294Y11296052D01*
X20462293Y11296052D01*
X20341127Y11324137D01*
X20341126Y11324137D01*
X20335738Y11325386D01*
X20256481Y11319774D01*
X20206156Y11316211D01*
X20206155Y11316211D01*
X20200636Y11315820D01*
X20074319Y11266952D01*
X20046491Y11245014D01*
X19998420Y11229164D01*
X19963512Y11239140D01*
X19921530Y11263525D01*
X19867681Y11294803D01*
X19862294Y11296052D01*
X19862293Y11296052D01*
X19741127Y11324137D01*
X19741126Y11324137D01*
X19735738Y11325386D01*
X19656481Y11319774D01*
X19606156Y11316211D01*
X19606155Y11316211D01*
X19600636Y11315820D01*
X19474319Y11266952D01*
X19469972Y11263525D01*
X19372299Y11186526D01*
X19372297Y11186524D01*
X19367955Y11183101D01*
X19364811Y11178552D01*
X19364810Y11178551D01*
X19329401Y11127319D01*
X19290948Y11071682D01*
X19289282Y11066414D01*
X19289281Y11066412D01*
X19268201Y10999756D01*
X19250108Y10942546D01*
X19249044Y10807109D01*
X14500000Y10807109D01*
X14500000Y13118448D01*
X14501422Y13132884D01*
X14519964Y13226103D01*
X14531013Y13252779D01*
X14583818Y13331807D01*
X14593021Y13343021D01*
X14656979Y13406979D01*
X14668193Y13416182D01*
X14747221Y13468987D01*
X14773896Y13480036D01*
X14810869Y13487390D01*
X14867116Y13498578D01*
X14881552Y13500000D01*
X24368448Y13500000D01*
X24382884Y13498578D01*
G37*
G04 #@! TD.AperFunction*
G04 #@! TD*
G04 #@! TA.AperFunction,Conductor*
G04 #@! TO.N,VBAT*
G36*
X27972493Y13479410D02*
G01*
X28019760Y13434082D01*
X28019763Y13434080D01*
X28023401Y13430591D01*
X28156284Y13359340D01*
X28211807Y13346929D01*
X28298514Y13327547D01*
X28298518Y13327547D01*
X28303433Y13326448D01*
X28394174Y13331203D01*
X28448972Y13334075D01*
X28448973Y13334075D01*
X28454006Y13334339D01*
X28458783Y13335947D01*
X28458785Y13335947D01*
X28592131Y13380823D01*
X28592133Y13380824D01*
X28596911Y13382432D01*
X28721618Y13467183D01*
X28727178Y13473763D01*
X28771101Y13498920D01*
X28783699Y13500000D01*
X29764410Y13500000D01*
X29811976Y13482687D01*
X29828105Y13463669D01*
X29844310Y13436268D01*
X29874658Y13384952D01*
X29898883Y13361721D01*
X29979844Y13284082D01*
X29979847Y13284080D01*
X29983485Y13280591D01*
X30116368Y13209340D01*
X30171891Y13196929D01*
X30258598Y13177547D01*
X30258602Y13177547D01*
X30263517Y13176448D01*
X30354258Y13181203D01*
X30409056Y13184075D01*
X30409057Y13184075D01*
X30414090Y13184339D01*
X30418867Y13185947D01*
X30418869Y13185947D01*
X30552215Y13230823D01*
X30552217Y13230824D01*
X30556995Y13232432D01*
X30627859Y13280591D01*
X30677531Y13314348D01*
X30677533Y13314350D01*
X30681702Y13317183D01*
X30684954Y13321032D01*
X30684957Y13321034D01*
X30775768Y13428495D01*
X30779024Y13432348D01*
X30790222Y13456806D01*
X30825762Y13492847D01*
X30857504Y13500000D01*
X31260598Y13500000D01*
X31295566Y13491217D01*
X31331924Y13471722D01*
X31331929Y13471720D01*
X31336368Y13469340D01*
X31391891Y13456929D01*
X31478598Y13437547D01*
X31478602Y13437547D01*
X31483517Y13436448D01*
X31574258Y13441203D01*
X31629056Y13444075D01*
X31629057Y13444075D01*
X31634090Y13444339D01*
X31638867Y13445947D01*
X31638869Y13445947D01*
X31772211Y13490822D01*
X31776995Y13492432D01*
X31777629Y13492863D01*
X31808057Y13500000D01*
X38159870Y13500000D01*
X38174306Y13498578D01*
X38203119Y13492847D01*
X38229258Y13487648D01*
X38255932Y13476599D01*
X38302519Y13445471D01*
X38313733Y13436268D01*
X38436269Y13313732D01*
X38445471Y13302519D01*
X38461716Y13278208D01*
X38476600Y13255932D01*
X38487649Y13229256D01*
X38498579Y13174305D01*
X38500001Y13159869D01*
X38500001Y7590131D01*
X38498579Y7575695D01*
X38487649Y7520744D01*
X38476600Y7494068D01*
X38445472Y7447482D01*
X38436269Y7436268D01*
X36451463Y5451462D01*
X36417542Y5432114D01*
X36225758Y5382872D01*
X35933210Y5267044D01*
X35657486Y5115464D01*
X35655612Y5114102D01*
X35655605Y5114098D01*
X35433380Y4952641D01*
X35402934Y4930521D01*
X35401244Y4928934D01*
X35401238Y4928929D01*
X35202484Y4742286D01*
X35173569Y4715133D01*
X35172091Y4713346D01*
X35172085Y4713340D01*
X35030079Y4541683D01*
X34973008Y4472696D01*
X34804414Y4207034D01*
X34803421Y4204924D01*
X34803420Y4204922D01*
X34682755Y3948495D01*
X34670445Y3922336D01*
X34573215Y3623093D01*
X34572779Y3620805D01*
X34572778Y3620803D01*
X34565723Y3583820D01*
X34545360Y3545360D01*
X34081467Y3081466D01*
X34035592Y3060075D01*
X33986697Y3073176D01*
X33961228Y3104404D01*
X33954532Y3119878D01*
X33925155Y3187764D01*
X33854447Y3275081D01*
X33833440Y3301023D01*
X33833438Y3301025D01*
X33830266Y3304942D01*
X33763016Y3352734D01*
X33711472Y3389365D01*
X33711469Y3389366D01*
X33707361Y3392286D01*
X33586797Y3435692D01*
X33570242Y3441652D01*
X33565495Y3443361D01*
X33560466Y3443730D01*
X33560463Y3443731D01*
X33484335Y3449321D01*
X33415120Y3454404D01*
X33410176Y3453407D01*
X33410174Y3453407D01*
X33305968Y3432395D01*
X33267315Y3424601D01*
X33132969Y3356148D01*
X33129257Y3352735D01*
X33129256Y3352734D01*
X33073021Y3301023D01*
X33021980Y3254089D01*
X32942525Y3125942D01*
X32900459Y2981149D01*
X32900406Y2976107D01*
X32900406Y2976106D01*
X32899877Y2925598D01*
X32898880Y2830377D01*
X32900186Y2825503D01*
X32936599Y2689607D01*
X32936600Y2689603D01*
X32937905Y2684735D01*
X32940471Y2680395D01*
X32940472Y2680394D01*
X32995597Y2587183D01*
X33014658Y2554952D01*
X33059016Y2512414D01*
X33119844Y2454082D01*
X33119847Y2454080D01*
X33123485Y2450591D01*
X33127926Y2448210D01*
X33127934Y2448204D01*
X33248603Y2383502D01*
X33282342Y2345767D01*
X33283932Y2295173D01*
X33265960Y2265960D01*
X32563732Y1563732D01*
X32552519Y1554530D01*
X32534854Y1542726D01*
X32505932Y1523401D01*
X32479257Y1512352D01*
X32456592Y1507844D01*
X32424305Y1501422D01*
X32409869Y1500000D01*
X28933215Y1500000D01*
X28885649Y1517313D01*
X28860339Y1561150D01*
X28865932Y1604803D01*
X28881791Y1639443D01*
X28890654Y1695404D01*
X28904955Y1785692D01*
X28904956Y1785699D01*
X28905378Y1788366D01*
X28905500Y1800000D01*
X28885037Y1949385D01*
X28825155Y2087764D01*
X28750145Y2180394D01*
X28733440Y2201023D01*
X28733438Y2201025D01*
X28730266Y2204942D01*
X28663016Y2252734D01*
X28611472Y2289365D01*
X28611469Y2289366D01*
X28607361Y2292286D01*
X28515098Y2325503D01*
X28501560Y2330377D01*
X31098880Y2330377D01*
X31100186Y2325503D01*
X31136599Y2189607D01*
X31136600Y2189603D01*
X31137905Y2184735D01*
X31140471Y2180395D01*
X31140472Y2180394D01*
X31197991Y2083135D01*
X31214658Y2054952D01*
X31249960Y2021099D01*
X31319844Y1954082D01*
X31319847Y1954080D01*
X31323485Y1950591D01*
X31456368Y1879340D01*
X31510826Y1867167D01*
X31598598Y1847547D01*
X31598602Y1847547D01*
X31603517Y1846448D01*
X31694258Y1851203D01*
X31749056Y1854075D01*
X31749057Y1854075D01*
X31754090Y1854339D01*
X31758867Y1855947D01*
X31758869Y1855947D01*
X31892215Y1900823D01*
X31892217Y1900824D01*
X31896995Y1902432D01*
X31972900Y1954017D01*
X32017531Y1984348D01*
X32017533Y1984350D01*
X32021702Y1987183D01*
X32024954Y1991032D01*
X32024957Y1991034D01*
X32115768Y2098495D01*
X32119024Y2102348D01*
X32121786Y2108379D01*
X32179690Y2234855D01*
X32181791Y2239443D01*
X32189698Y2289365D01*
X32204955Y2385692D01*
X32204956Y2385699D01*
X32205378Y2388366D01*
X32205500Y2400000D01*
X32185037Y2549385D01*
X32125155Y2687764D01*
X32053192Y2776631D01*
X32033440Y2801023D01*
X32033438Y2801025D01*
X32030266Y2804942D01*
X31958212Y2856148D01*
X31911472Y2889365D01*
X31911469Y2889366D01*
X31907361Y2892286D01*
X31765495Y2943361D01*
X31760466Y2943730D01*
X31760463Y2943731D01*
X31684335Y2949321D01*
X31615120Y2954404D01*
X31610176Y2953407D01*
X31610174Y2953407D01*
X31551089Y2941493D01*
X31467315Y2924601D01*
X31332969Y2856148D01*
X31329257Y2852735D01*
X31329256Y2852734D01*
X31273021Y2801023D01*
X31221980Y2754089D01*
X31142525Y2625942D01*
X31100459Y2481149D01*
X31100406Y2476107D01*
X31100406Y2476106D01*
X31100090Y2445883D01*
X31098880Y2330377D01*
X28501560Y2330377D01*
X28470242Y2341652D01*
X28465495Y2343361D01*
X28460466Y2343730D01*
X28460463Y2343731D01*
X28384335Y2349321D01*
X28315120Y2354404D01*
X28310176Y2353407D01*
X28310174Y2353407D01*
X28205968Y2332395D01*
X28167315Y2324601D01*
X28032969Y2256148D01*
X28029257Y2252735D01*
X28029256Y2252734D01*
X27976041Y2203800D01*
X27921980Y2154089D01*
X27842525Y2025942D01*
X27800459Y1881149D01*
X27800406Y1876107D01*
X27800406Y1876106D01*
X27800029Y1840131D01*
X27798880Y1730377D01*
X27835650Y1593151D01*
X27831238Y1542726D01*
X27795445Y1506933D01*
X27764171Y1500000D01*
X26840131Y1500000D01*
X26825695Y1501422D01*
X26793408Y1507844D01*
X26770743Y1512352D01*
X26744068Y1523401D01*
X26715147Y1542726D01*
X26697481Y1554530D01*
X26686268Y1563732D01*
X26563732Y1686268D01*
X26554529Y1697482D01*
X26523401Y1744068D01*
X26512352Y1770744D01*
X26501422Y1825695D01*
X26500000Y1840131D01*
X26500000Y2439538D01*
X26517313Y2487104D01*
X26561150Y2512414D01*
X26608969Y2504755D01*
X26641741Y2487183D01*
X26656368Y2479340D01*
X26695880Y2470508D01*
X26798598Y2447547D01*
X26798602Y2447547D01*
X26803517Y2446448D01*
X26894258Y2451203D01*
X26949056Y2454075D01*
X26949057Y2454075D01*
X26954090Y2454339D01*
X26958867Y2455947D01*
X26958869Y2455947D01*
X27092215Y2500823D01*
X27092217Y2500824D01*
X27096995Y2502432D01*
X27180669Y2559297D01*
X27217531Y2584348D01*
X27217533Y2584350D01*
X27221702Y2587183D01*
X27224954Y2591032D01*
X27224957Y2591034D01*
X27315768Y2698495D01*
X27319024Y2702348D01*
X27336008Y2739443D01*
X27367333Y2807864D01*
X27381791Y2839443D01*
X27382562Y2844312D01*
X27412857Y2884807D01*
X27453587Y2895114D01*
X27453517Y2896448D01*
X27599056Y2904075D01*
X27599057Y2904075D01*
X27604090Y2904339D01*
X27608867Y2905947D01*
X27608869Y2905947D01*
X27742215Y2950823D01*
X27742217Y2950824D01*
X27746995Y2952432D01*
X27809349Y2994808D01*
X27867531Y3034348D01*
X27867533Y3034350D01*
X27871702Y3037183D01*
X27874954Y3041032D01*
X27874957Y3041034D01*
X27941585Y3119878D01*
X27985511Y3145034D01*
X28035330Y3136070D01*
X28058598Y3112964D01*
X28058957Y3113248D01*
X28061342Y3110239D01*
X28061801Y3109783D01*
X28064658Y3104952D01*
X28089149Y3081466D01*
X28169844Y3004082D01*
X28169847Y3004080D01*
X28173485Y3000591D01*
X28306368Y2929340D01*
X28361891Y2916929D01*
X28448598Y2897547D01*
X28448602Y2897547D01*
X28453517Y2896448D01*
X28544258Y2901203D01*
X28599056Y2904075D01*
X28599057Y2904075D01*
X28604090Y2904339D01*
X28608867Y2905947D01*
X28608869Y2905947D01*
X28742215Y2950823D01*
X28742217Y2950824D01*
X28746995Y2952432D01*
X28809349Y2994808D01*
X28867531Y3034348D01*
X28867533Y3034350D01*
X28871702Y3037183D01*
X28874954Y3041032D01*
X28874957Y3041034D01*
X28941585Y3119878D01*
X28985511Y3145034D01*
X29035330Y3136070D01*
X29058598Y3112964D01*
X29058957Y3113248D01*
X29061342Y3110239D01*
X29061801Y3109783D01*
X29064658Y3104952D01*
X29089149Y3081466D01*
X29169844Y3004082D01*
X29169847Y3004080D01*
X29173485Y3000591D01*
X29306368Y2929340D01*
X29361891Y2916929D01*
X29448598Y2897547D01*
X29448602Y2897547D01*
X29453517Y2896448D01*
X29544258Y2901203D01*
X29599056Y2904075D01*
X29599057Y2904075D01*
X29604090Y2904339D01*
X29608867Y2905947D01*
X29608869Y2905947D01*
X29742215Y2950823D01*
X29742217Y2950824D01*
X29746995Y2952432D01*
X29809349Y2994808D01*
X29867531Y3034348D01*
X29867533Y3034350D01*
X29871702Y3037183D01*
X29874954Y3041032D01*
X29874957Y3041034D01*
X29965768Y3148495D01*
X29969024Y3152348D01*
X29983120Y3183135D01*
X30006211Y3233571D01*
X30031791Y3289443D01*
X30048080Y3392286D01*
X30054955Y3435692D01*
X30054956Y3435699D01*
X30055378Y3438366D01*
X30055500Y3450000D01*
X30035037Y3599385D01*
X29975155Y3737764D01*
X29921945Y3803473D01*
X29905465Y3851335D01*
X29922933Y3897807D01*
X29965768Y3948495D01*
X29969024Y3952348D01*
X30031791Y4089443D01*
X30045422Y4175503D01*
X30054955Y4235692D01*
X30054956Y4235699D01*
X30055378Y4238366D01*
X30055500Y4250000D01*
X30035037Y4399385D01*
X29975155Y4537764D01*
X29880266Y4654942D01*
X29808212Y4706148D01*
X29761472Y4739365D01*
X29761469Y4739366D01*
X29757361Y4742286D01*
X29615495Y4793361D01*
X29610466Y4793730D01*
X29610463Y4793731D01*
X29534335Y4799321D01*
X29465120Y4804404D01*
X29460176Y4803407D01*
X29460174Y4803407D01*
X29355968Y4782395D01*
X29317315Y4774601D01*
X29182969Y4706148D01*
X29179257Y4702735D01*
X29179256Y4702734D01*
X29123021Y4651023D01*
X29071980Y4604089D01*
X29069321Y4599801D01*
X29069318Y4599797D01*
X29061573Y4587305D01*
X29021794Y4556001D01*
X28971200Y4557591D01*
X28941172Y4579729D01*
X28924922Y4599797D01*
X28880266Y4654942D01*
X28808212Y4706148D01*
X28761472Y4739365D01*
X28761469Y4739366D01*
X28757361Y4742286D01*
X28615495Y4793361D01*
X28610466Y4793730D01*
X28610463Y4793731D01*
X28534335Y4799321D01*
X28465120Y4804404D01*
X28460176Y4803407D01*
X28460174Y4803407D01*
X28355968Y4782395D01*
X28317315Y4774601D01*
X28182969Y4706148D01*
X28179257Y4702735D01*
X28179256Y4702734D01*
X28123021Y4651023D01*
X28071980Y4604089D01*
X28069321Y4599801D01*
X28069318Y4599797D01*
X28061573Y4587305D01*
X28021794Y4556001D01*
X27971200Y4557591D01*
X27941172Y4579729D01*
X27924922Y4599797D01*
X27880266Y4654942D01*
X27808212Y4706148D01*
X27761472Y4739365D01*
X27761469Y4739366D01*
X27757361Y4742286D01*
X27615495Y4793361D01*
X27610466Y4793730D01*
X27610463Y4793731D01*
X27534335Y4799321D01*
X27465120Y4804404D01*
X27460176Y4803407D01*
X27460174Y4803407D01*
X27355968Y4782395D01*
X27317315Y4774601D01*
X27182969Y4706148D01*
X27179257Y4702735D01*
X27179256Y4702734D01*
X27123021Y4651023D01*
X27071980Y4604089D01*
X26992525Y4475942D01*
X26950459Y4331149D01*
X26948880Y4180377D01*
X26950186Y4175503D01*
X26986599Y4039607D01*
X26986600Y4039603D01*
X26987905Y4034735D01*
X26990471Y4030395D01*
X26990472Y4030394D01*
X27055688Y3920120D01*
X27064658Y3904952D01*
X27068301Y3901459D01*
X27071433Y3897507D01*
X27069753Y3896175D01*
X27088481Y3858130D01*
X27076414Y3808971D01*
X27074509Y3806414D01*
X27071980Y3804089D01*
X26992525Y3675942D01*
X26991118Y3671099D01*
X26970965Y3601732D01*
X26941069Y3560884D01*
X26894483Y3548576D01*
X26874898Y3550014D01*
X26815120Y3554404D01*
X26810176Y3553407D01*
X26810174Y3553407D01*
X26705968Y3532395D01*
X26667315Y3524601D01*
X26662818Y3522310D01*
X26662819Y3522310D01*
X26607595Y3494172D01*
X26557354Y3488003D01*
X26514901Y3515572D01*
X26500000Y3560106D01*
X26500000Y8289538D01*
X26517313Y8337104D01*
X26561150Y8362414D01*
X26608969Y8354755D01*
X26645389Y8335227D01*
X26656368Y8329340D01*
X26711891Y8316929D01*
X26798598Y8297547D01*
X26798602Y8297547D01*
X26803517Y8296448D01*
X26894258Y8301203D01*
X26949056Y8304075D01*
X26949057Y8304075D01*
X26954090Y8304339D01*
X26958867Y8305947D01*
X26958869Y8305947D01*
X27092215Y8350823D01*
X27092217Y8350824D01*
X27096995Y8352432D01*
X27134185Y8377707D01*
X27183256Y8390123D01*
X27228829Y8368093D01*
X27249579Y8321922D01*
X27249774Y8315731D01*
X27248880Y8230377D01*
X27250186Y8225503D01*
X27286599Y8089607D01*
X27286600Y8089603D01*
X27287905Y8084735D01*
X27290471Y8080395D01*
X27290472Y8080394D01*
X27352203Y7976013D01*
X27364658Y7954952D01*
X27395383Y7925488D01*
X27469844Y7854082D01*
X27469847Y7854080D01*
X27473485Y7850591D01*
X27606368Y7779340D01*
X27661891Y7766929D01*
X27748598Y7747547D01*
X27748602Y7747547D01*
X27753517Y7746448D01*
X27844258Y7751203D01*
X27899056Y7754075D01*
X27899057Y7754075D01*
X27904090Y7754339D01*
X27908867Y7755947D01*
X27908869Y7755947D01*
X28042215Y7800823D01*
X28042217Y7800824D01*
X28046995Y7802432D01*
X28061221Y7812100D01*
X28110293Y7824518D01*
X28137785Y7816113D01*
X28201922Y7781723D01*
X28201928Y7781721D01*
X28206368Y7779340D01*
X28261891Y7766929D01*
X28348598Y7747547D01*
X28348602Y7747547D01*
X28353517Y7746448D01*
X28444258Y7751203D01*
X28499056Y7754075D01*
X28499057Y7754075D01*
X28504090Y7754339D01*
X28508867Y7755947D01*
X28508869Y7755947D01*
X28642215Y7800823D01*
X28642217Y7800824D01*
X28646995Y7802432D01*
X28717859Y7850591D01*
X28767531Y7884348D01*
X28767533Y7884350D01*
X28771702Y7887183D01*
X28774954Y7891032D01*
X28774957Y7891034D01*
X28865768Y7998495D01*
X28869024Y8002348D01*
X28931791Y8139443D01*
X28945422Y8225503D01*
X28954955Y8285692D01*
X28954956Y8285699D01*
X28955378Y8288366D01*
X28955500Y8300000D01*
X28935037Y8449385D01*
X28882016Y8571909D01*
X28879014Y8622439D01*
X28882647Y8632103D01*
X28929690Y8734855D01*
X28931791Y8739443D01*
X28938274Y8780377D01*
X28954955Y8885692D01*
X28954956Y8885699D01*
X28955378Y8888366D01*
X28955500Y8900000D01*
X28935037Y9049385D01*
X28875155Y9187764D01*
X28818389Y9257864D01*
X28783440Y9301023D01*
X28783438Y9301025D01*
X28780266Y9304942D01*
X28738888Y9334348D01*
X28661472Y9389365D01*
X28661469Y9389366D01*
X28657361Y9392286D01*
X28515495Y9443361D01*
X28510466Y9443730D01*
X28510463Y9443731D01*
X28434335Y9449321D01*
X28365120Y9454404D01*
X28360176Y9453407D01*
X28360174Y9453407D01*
X28255968Y9432395D01*
X28217315Y9424601D01*
X28176950Y9404034D01*
X28137602Y9383985D01*
X28087361Y9377816D01*
X28066119Y9387363D01*
X28065943Y9387027D01*
X28061472Y9389365D01*
X28057361Y9392286D01*
X27915495Y9443361D01*
X27910466Y9443730D01*
X27910463Y9443731D01*
X27834335Y9449321D01*
X27765120Y9454404D01*
X27760176Y9453407D01*
X27760174Y9453407D01*
X27655968Y9432395D01*
X27617315Y9424601D01*
X27556003Y9393361D01*
X27501465Y9365572D01*
X27482969Y9356148D01*
X27479257Y9352735D01*
X27479256Y9352734D01*
X27426347Y9304082D01*
X27371980Y9254089D01*
X27369321Y9249801D01*
X27369318Y9249797D01*
X27365696Y9243955D01*
X27325916Y9212653D01*
X27275322Y9214244D01*
X27245296Y9236382D01*
X27233443Y9251020D01*
X27233439Y9251024D01*
X27230266Y9254942D01*
X27165424Y9301023D01*
X27111472Y9339365D01*
X27111469Y9339366D01*
X27107361Y9342286D01*
X27102123Y9344172D01*
X26970242Y9391652D01*
X26965495Y9393361D01*
X26960466Y9393730D01*
X26960463Y9393731D01*
X26884335Y9399321D01*
X26815120Y9404404D01*
X26810176Y9403407D01*
X26810174Y9403407D01*
X26713854Y9383985D01*
X26667315Y9374601D01*
X26631099Y9356148D01*
X26607595Y9344172D01*
X26557354Y9338003D01*
X26514901Y9365572D01*
X26500000Y9410106D01*
X26500000Y11770377D01*
X28648880Y11770377D01*
X28650186Y11765503D01*
X28686599Y11629607D01*
X28686600Y11629603D01*
X28687905Y11624735D01*
X28764658Y11494952D01*
X28768301Y11491459D01*
X28771433Y11487507D01*
X28769753Y11486175D01*
X28788481Y11448130D01*
X28776414Y11398971D01*
X28774509Y11396414D01*
X28771980Y11394089D01*
X28692525Y11265942D01*
X28650459Y11121149D01*
X28648880Y10970377D01*
X28650186Y10965503D01*
X28686599Y10829607D01*
X28686600Y10829603D01*
X28687905Y10824735D01*
X28690471Y10820395D01*
X28690472Y10820394D01*
X28747855Y10723365D01*
X28764658Y10694952D01*
X28768302Y10691458D01*
X28869844Y10594082D01*
X28869847Y10594080D01*
X28873485Y10590591D01*
X29006368Y10519340D01*
X29061891Y10506929D01*
X29148598Y10487547D01*
X29148602Y10487547D01*
X29153517Y10486448D01*
X29244258Y10491203D01*
X29299056Y10494075D01*
X29299057Y10494075D01*
X29304090Y10494339D01*
X29308867Y10495947D01*
X29308869Y10495947D01*
X29442215Y10540823D01*
X29442217Y10540824D01*
X29446995Y10542432D01*
X29517859Y10590591D01*
X29567531Y10624348D01*
X29567533Y10624350D01*
X29571702Y10627183D01*
X29574954Y10631032D01*
X29574957Y10631034D01*
X29665768Y10738495D01*
X29669024Y10742348D01*
X29673024Y10751083D01*
X29730340Y10876273D01*
X29765882Y10912315D01*
X29813766Y10917686D01*
X29948598Y10887547D01*
X29948602Y10887547D01*
X29953517Y10886448D01*
X30044258Y10891203D01*
X30099056Y10894075D01*
X30099057Y10894075D01*
X30104090Y10894339D01*
X30108867Y10895947D01*
X30108869Y10895947D01*
X30173464Y10917686D01*
X30180907Y10920191D01*
X30231511Y10918954D01*
X30269481Y10885479D01*
X30275988Y10869209D01*
X30286599Y10829607D01*
X30286600Y10829603D01*
X30287905Y10824735D01*
X30290471Y10820395D01*
X30290472Y10820394D01*
X30347855Y10723365D01*
X30364658Y10694952D01*
X30368302Y10691458D01*
X30469844Y10594082D01*
X30469847Y10594080D01*
X30473485Y10590591D01*
X30606368Y10519340D01*
X30661891Y10506929D01*
X30748598Y10487547D01*
X30748602Y10487547D01*
X30753517Y10486448D01*
X30859204Y10491987D01*
X30907610Y10477187D01*
X30934554Y10437241D01*
X30936599Y10429607D01*
X30936600Y10429604D01*
X30937905Y10424735D01*
X30940471Y10420395D01*
X30940472Y10420394D01*
X30999612Y10320394D01*
X31014658Y10294952D01*
X31018302Y10291458D01*
X31119844Y10194082D01*
X31119847Y10194080D01*
X31123485Y10190591D01*
X31256368Y10119340D01*
X31311860Y10106936D01*
X31398598Y10087547D01*
X31398602Y10087547D01*
X31403517Y10086448D01*
X31494258Y10091203D01*
X31549056Y10094075D01*
X31549057Y10094075D01*
X31554090Y10094339D01*
X31558867Y10095947D01*
X31558869Y10095947D01*
X31692215Y10140823D01*
X31692217Y10140824D01*
X31696995Y10142432D01*
X31769134Y10191458D01*
X31817531Y10224348D01*
X31817533Y10224350D01*
X31821702Y10227183D01*
X31824954Y10231032D01*
X31824957Y10231034D01*
X31915768Y10338495D01*
X31919024Y10342348D01*
X31938869Y10385692D01*
X31962469Y10437241D01*
X31977640Y10470377D01*
X32428880Y10470377D01*
X32430186Y10465503D01*
X32466599Y10329607D01*
X32466600Y10329603D01*
X32467905Y10324735D01*
X32470471Y10320395D01*
X32470472Y10320394D01*
X32525597Y10227183D01*
X32544658Y10194952D01*
X32548302Y10191458D01*
X32649844Y10094082D01*
X32649847Y10094080D01*
X32653485Y10090591D01*
X32657928Y10088209D01*
X32657929Y10088208D01*
X32738637Y10044933D01*
X32786368Y10019340D01*
X32786248Y10019116D01*
X32822713Y9988087D01*
X32831158Y9938177D01*
X32829436Y9930888D01*
X32800459Y9831149D01*
X32798880Y9680377D01*
X32800186Y9675503D01*
X32836599Y9539607D01*
X32836600Y9539603D01*
X32837905Y9534735D01*
X32840471Y9530395D01*
X32840472Y9530394D01*
X32904393Y9422310D01*
X32914658Y9404952D01*
X32942955Y9377816D01*
X33019844Y9304082D01*
X33019847Y9304080D01*
X33023485Y9300591D01*
X33156368Y9229340D01*
X33211891Y9216929D01*
X33298598Y9197547D01*
X33298602Y9197547D01*
X33303517Y9196448D01*
X33394258Y9201203D01*
X33449056Y9204075D01*
X33449057Y9204075D01*
X33454090Y9204339D01*
X33458867Y9205947D01*
X33458869Y9205947D01*
X33592215Y9250823D01*
X33592217Y9250824D01*
X33596995Y9252432D01*
X33668494Y9301023D01*
X33717531Y9334348D01*
X33717533Y9334350D01*
X33721702Y9337183D01*
X33724954Y9341032D01*
X33724957Y9341034D01*
X33815768Y9448495D01*
X33819024Y9452348D01*
X33881791Y9589443D01*
X33895422Y9675503D01*
X33904955Y9735692D01*
X33904956Y9735699D01*
X33905378Y9738366D01*
X33905500Y9750000D01*
X33902246Y9773755D01*
X33912943Y9823230D01*
X33952939Y9854254D01*
X33953061Y9854285D01*
X33954090Y9854339D01*
X33956644Y9855198D01*
X33956646Y9855199D01*
X34092215Y9900823D01*
X34092217Y9900824D01*
X34096995Y9902432D01*
X34159349Y9944808D01*
X34217531Y9984348D01*
X34217533Y9984350D01*
X34221702Y9987183D01*
X34224954Y9991032D01*
X34224957Y9991034D01*
X34315768Y10098495D01*
X34319024Y10102348D01*
X34326301Y10118241D01*
X34379690Y10234855D01*
X34381791Y10239443D01*
X34391271Y10299297D01*
X34404955Y10385692D01*
X34404956Y10385699D01*
X34405378Y10388366D01*
X34405500Y10400000D01*
X34385037Y10549385D01*
X34325155Y10687764D01*
X34273880Y10751083D01*
X34233440Y10801023D01*
X34233438Y10801025D01*
X34230266Y10804942D01*
X34190099Y10833487D01*
X34111472Y10889365D01*
X34111469Y10889366D01*
X34107361Y10892286D01*
X34051729Y10912315D01*
X33970242Y10941652D01*
X33965495Y10943361D01*
X33960466Y10943730D01*
X33960463Y10943731D01*
X33884335Y10949321D01*
X33815120Y10954404D01*
X33810176Y10953407D01*
X33810174Y10953407D01*
X33734852Y10938219D01*
X33667315Y10924601D01*
X33532969Y10856148D01*
X33529251Y10852730D01*
X33525370Y10850032D01*
X33476430Y10837102D01*
X33430629Y10858654D01*
X33425628Y10864227D01*
X33363440Y10941023D01*
X33363438Y10941025D01*
X33360266Y10944942D01*
X33288212Y10996148D01*
X33241472Y11029365D01*
X33241469Y11029366D01*
X33237361Y11032286D01*
X33095495Y11083361D01*
X33090466Y11083730D01*
X33090463Y11083731D01*
X33014335Y11089321D01*
X32945120Y11094404D01*
X32940176Y11093407D01*
X32940174Y11093407D01*
X32835968Y11072395D01*
X32797315Y11064601D01*
X32792818Y11062310D01*
X32792819Y11062310D01*
X32677267Y11003433D01*
X32662969Y10996148D01*
X32659257Y10992735D01*
X32659256Y10992734D01*
X32586246Y10925598D01*
X32551980Y10894089D01*
X32549320Y10889799D01*
X32542899Y10879443D01*
X32472525Y10765942D01*
X32430459Y10621149D01*
X32430406Y10616107D01*
X32430406Y10616106D01*
X32430139Y10590591D01*
X32428880Y10470377D01*
X31977640Y10470377D01*
X31981791Y10479443D01*
X31991513Y10540823D01*
X32004955Y10625692D01*
X32004956Y10625699D01*
X32005378Y10628366D01*
X32005500Y10640000D01*
X31985037Y10789385D01*
X31954071Y10860943D01*
X31951069Y10911473D01*
X31980391Y10951536D01*
X32087531Y11024348D01*
X32087533Y11024350D01*
X32091702Y11027183D01*
X32094954Y11031032D01*
X32094957Y11031034D01*
X32185768Y11138495D01*
X32189024Y11142348D01*
X32251791Y11279443D01*
X32269270Y11389800D01*
X32274955Y11425692D01*
X32274956Y11425699D01*
X32275378Y11428366D01*
X32275500Y11440000D01*
X32255037Y11589385D01*
X32195155Y11727764D01*
X32100266Y11844942D01*
X32028212Y11896148D01*
X31981472Y11929365D01*
X31981469Y11929366D01*
X31977361Y11932286D01*
X31899897Y11960175D01*
X31840242Y11981652D01*
X31835495Y11983361D01*
X31830466Y11983730D01*
X31830463Y11983731D01*
X31753465Y11989385D01*
X31685120Y11994404D01*
X31680176Y11993407D01*
X31680174Y11993407D01*
X31579167Y11973040D01*
X31537315Y11964601D01*
X31444185Y11917149D01*
X31393945Y11910980D01*
X31351492Y11938548D01*
X31337276Y11973040D01*
X31335722Y11984383D01*
X31335037Y11989385D01*
X31275155Y12127764D01*
X31180266Y12244942D01*
X31113016Y12292734D01*
X31061472Y12329365D01*
X31061469Y12329366D01*
X31057361Y12332286D01*
X30915495Y12383361D01*
X30910466Y12383730D01*
X30910463Y12383731D01*
X30834335Y12389321D01*
X30765120Y12394404D01*
X30760176Y12393407D01*
X30760174Y12393407D01*
X30655968Y12372395D01*
X30617315Y12364601D01*
X30557246Y12333994D01*
X30489758Y12299607D01*
X30482969Y12296148D01*
X30479257Y12292735D01*
X30479256Y12292734D01*
X30423021Y12241023D01*
X30371980Y12194089D01*
X30292525Y12065942D01*
X30291118Y12061099D01*
X30276027Y12009155D01*
X30246131Y11968307D01*
X30196973Y11956233D01*
X30179899Y11960175D01*
X30120245Y11981651D01*
X30120244Y11981651D01*
X30115495Y11983361D01*
X30110466Y11983730D01*
X30110463Y11983731D01*
X30033465Y11989385D01*
X29965120Y11994404D01*
X29960176Y11993407D01*
X29960174Y11993407D01*
X29915422Y11984383D01*
X29817315Y11964601D01*
X29817240Y11964975D01*
X29769732Y11965637D01*
X29731413Y11998712D01*
X29728095Y12005426D01*
X29726482Y12009155D01*
X29675155Y12127764D01*
X29580266Y12244942D01*
X29513016Y12292734D01*
X29461472Y12329365D01*
X29461469Y12329366D01*
X29457361Y12332286D01*
X29315495Y12383361D01*
X29310466Y12383730D01*
X29310463Y12383731D01*
X29234335Y12389321D01*
X29165120Y12394404D01*
X29160176Y12393407D01*
X29160174Y12393407D01*
X29055968Y12372395D01*
X29017315Y12364601D01*
X28957246Y12333994D01*
X28889758Y12299607D01*
X28882969Y12296148D01*
X28879257Y12292735D01*
X28879256Y12292734D01*
X28823021Y12241023D01*
X28771980Y12194089D01*
X28692525Y12065942D01*
X28650459Y11921149D01*
X28650406Y11916107D01*
X28650406Y11916106D01*
X28649661Y11844942D01*
X28648880Y11770377D01*
X26500000Y11770377D01*
X26500000Y12250000D01*
X26309623Y12440377D01*
X32168880Y12440377D01*
X32170186Y12435503D01*
X32206599Y12299607D01*
X32206600Y12299603D01*
X32207905Y12294735D01*
X32210471Y12290395D01*
X32210472Y12290394D01*
X32269964Y12189799D01*
X32284658Y12164952D01*
X32328265Y12123135D01*
X32389844Y12064082D01*
X32389847Y12064080D01*
X32393485Y12060591D01*
X32526368Y11989340D01*
X32581891Y11976929D01*
X32668598Y11957547D01*
X32668602Y11957547D01*
X32673517Y11956448D01*
X32764258Y11961203D01*
X32819056Y11964075D01*
X32819057Y11964075D01*
X32824090Y11964339D01*
X32828867Y11965947D01*
X32828869Y11965947D01*
X32962215Y12010823D01*
X32962217Y12010824D01*
X32966995Y12012432D01*
X33038606Y12061099D01*
X33087531Y12094348D01*
X33087533Y12094350D01*
X33091702Y12097183D01*
X33094954Y12101032D01*
X33094957Y12101034D01*
X33185768Y12208495D01*
X33189024Y12212348D01*
X33202153Y12241023D01*
X33227391Y12296148D01*
X33251791Y12349443D01*
X33258754Y12393407D01*
X33274955Y12495692D01*
X33274956Y12495699D01*
X33275378Y12498366D01*
X33275500Y12510000D01*
X33255037Y12659385D01*
X33195155Y12797764D01*
X33138680Y12867505D01*
X33103440Y12911023D01*
X33103438Y12911025D01*
X33100266Y12914942D01*
X33028212Y12966148D01*
X32981472Y12999365D01*
X32981469Y12999366D01*
X32977361Y13002286D01*
X32835495Y13053361D01*
X32830466Y13053730D01*
X32830463Y13053731D01*
X32754335Y13059321D01*
X32685120Y13064404D01*
X32680176Y13063407D01*
X32680174Y13063407D01*
X32575968Y13042395D01*
X32537315Y13034601D01*
X32402969Y12966148D01*
X32399257Y12962735D01*
X32399256Y12962734D01*
X32343021Y12911023D01*
X32291980Y12864089D01*
X32212525Y12735942D01*
X32170459Y12591149D01*
X32168880Y12440377D01*
X26309623Y12440377D01*
X25597613Y13152387D01*
X25586844Y13166048D01*
X25560988Y13208241D01*
X25551914Y13223049D01*
X25541237Y13255908D01*
X25536699Y13313578D01*
X25542104Y13347701D01*
X25564240Y13401143D01*
X25584548Y13429095D01*
X25625030Y13463669D01*
X25628537Y13466664D01*
X25659319Y13482348D01*
X25694614Y13490822D01*
X25724326Y13497955D01*
X25741600Y13500000D01*
X27921274Y13500000D01*
X27972493Y13479410D01*
G37*
G04 #@! TD.AperFunction*
G04 #@! TD*
G04 #@! TA.AperFunction,Conductor*
G04 #@! TO.N,6V*
G36*
X10400816Y48482687D02*
G01*
X10426126Y48438850D01*
X10417336Y48389000D01*
X10414126Y48383927D01*
X10390948Y48350392D01*
X10389282Y48345124D01*
X10389281Y48345122D01*
X10352106Y48227574D01*
X10350108Y48221256D01*
X10349044Y48085819D01*
X10387851Y47956058D01*
X10390924Y47951459D01*
X10439984Y47878036D01*
X10463098Y47843443D01*
X10568132Y47757932D01*
X10693666Y47707086D01*
X10753730Y47701884D01*
X10823089Y47695876D01*
X10823092Y47695876D01*
X10828601Y47695399D01*
X10961008Y47723905D01*
X10965835Y47726608D01*
X11074357Y47787383D01*
X11074360Y47787385D01*
X11079179Y47790084D01*
X11134469Y47848043D01*
X11168849Y47884082D01*
X11168851Y47884085D01*
X11172667Y47888085D01*
X11233206Y48009243D01*
X11234113Y48014692D01*
X11234114Y48014695D01*
X11254967Y48139981D01*
X11255444Y48142845D01*
X11255500Y48150000D01*
X11235364Y48283935D01*
X11182527Y48393967D01*
X11177544Y48444340D01*
X11206105Y48486132D01*
X11249235Y48500000D01*
X13503250Y48500000D01*
X13550816Y48482687D01*
X13576126Y48438850D01*
X13567336Y48389000D01*
X13564126Y48383927D01*
X13540948Y48350392D01*
X13539282Y48345124D01*
X13539281Y48345122D01*
X13502106Y48227574D01*
X13500108Y48221256D01*
X13499044Y48085819D01*
X13537851Y47956058D01*
X13540924Y47951459D01*
X13589984Y47878036D01*
X13613098Y47843443D01*
X13718132Y47757932D01*
X13843666Y47707086D01*
X13903730Y47701884D01*
X13973089Y47695876D01*
X13973092Y47695876D01*
X13978601Y47695399D01*
X14111008Y47723905D01*
X14115835Y47726608D01*
X14224357Y47787383D01*
X14224360Y47787385D01*
X14229179Y47790084D01*
X14284469Y47848043D01*
X14318849Y47884082D01*
X14318851Y47884085D01*
X14322667Y47888085D01*
X14383206Y48009243D01*
X14384113Y48014692D01*
X14384114Y48014695D01*
X14404967Y48139981D01*
X14405444Y48142845D01*
X14405500Y48150000D01*
X14385364Y48283935D01*
X14332527Y48393967D01*
X14327544Y48444340D01*
X14356105Y48486132D01*
X14399235Y48500000D01*
X15703250Y48500000D01*
X15750816Y48482687D01*
X15776126Y48438850D01*
X15767336Y48389000D01*
X15764126Y48383927D01*
X15740948Y48350392D01*
X15739282Y48345124D01*
X15739281Y48345122D01*
X15702106Y48227574D01*
X15700108Y48221256D01*
X15699044Y48085819D01*
X15737851Y47956058D01*
X15740924Y47951459D01*
X15789984Y47878036D01*
X15813098Y47843443D01*
X15918132Y47757932D01*
X16043666Y47707086D01*
X16103730Y47701884D01*
X16173089Y47695876D01*
X16173092Y47695876D01*
X16178601Y47695399D01*
X16311008Y47723905D01*
X16315835Y47726608D01*
X16424357Y47787383D01*
X16424360Y47787385D01*
X16429179Y47790084D01*
X16484469Y47848043D01*
X16518849Y47884082D01*
X16518851Y47884085D01*
X16522667Y47888085D01*
X16583206Y48009243D01*
X16584113Y48014692D01*
X16584114Y48014695D01*
X16604967Y48139981D01*
X16605444Y48142845D01*
X16605500Y48150000D01*
X16585364Y48283935D01*
X16532527Y48393967D01*
X16527544Y48444340D01*
X16556105Y48486132D01*
X16599235Y48500000D01*
X17953250Y48500000D01*
X18000816Y48482687D01*
X18026126Y48438850D01*
X18017336Y48389000D01*
X18014126Y48383927D01*
X17990948Y48350392D01*
X17989282Y48345124D01*
X17989281Y48345122D01*
X17952106Y48227574D01*
X17950108Y48221256D01*
X17949044Y48085819D01*
X17987851Y47956058D01*
X17990924Y47951459D01*
X18039984Y47878036D01*
X18063098Y47843443D01*
X18168132Y47757932D01*
X18293666Y47707086D01*
X18353730Y47701884D01*
X18423089Y47695876D01*
X18423092Y47695876D01*
X18428601Y47695399D01*
X18561008Y47723905D01*
X18565835Y47726608D01*
X18674357Y47787383D01*
X18674360Y47787385D01*
X18679179Y47790084D01*
X18734469Y47848043D01*
X18768849Y47884082D01*
X18768851Y47884085D01*
X18772667Y47888085D01*
X18833206Y48009243D01*
X18834113Y48014692D01*
X18834114Y48014695D01*
X18854967Y48139981D01*
X18855444Y48142845D01*
X18855500Y48150000D01*
X18835364Y48283935D01*
X18782527Y48393967D01*
X18777544Y48444340D01*
X18806105Y48486132D01*
X18849235Y48500000D01*
X21153250Y48500000D01*
X21200816Y48482687D01*
X21226126Y48438850D01*
X21217336Y48389000D01*
X21214126Y48383927D01*
X21190948Y48350392D01*
X21189282Y48345124D01*
X21189281Y48345122D01*
X21152106Y48227574D01*
X21150108Y48221256D01*
X21149044Y48085819D01*
X21187851Y47956058D01*
X21190924Y47951459D01*
X21239984Y47878036D01*
X21263098Y47843443D01*
X21368132Y47757932D01*
X21493666Y47707086D01*
X21553730Y47701884D01*
X21623089Y47695876D01*
X21623092Y47695876D01*
X21628601Y47695399D01*
X21761008Y47723905D01*
X21765835Y47726608D01*
X21874357Y47787383D01*
X21874360Y47787385D01*
X21879179Y47790084D01*
X21934469Y47848043D01*
X21968849Y47884082D01*
X21968851Y47884085D01*
X21972667Y47888085D01*
X22033206Y48009243D01*
X22034113Y48014692D01*
X22034114Y48014695D01*
X22054967Y48139981D01*
X22055444Y48142845D01*
X22055500Y48150000D01*
X22035364Y48283935D01*
X21982527Y48393967D01*
X21977544Y48444340D01*
X22006105Y48486132D01*
X22049235Y48500000D01*
X23353250Y48500000D01*
X23400816Y48482687D01*
X23426126Y48438850D01*
X23417336Y48389000D01*
X23414126Y48383927D01*
X23390948Y48350392D01*
X23389282Y48345124D01*
X23389281Y48345122D01*
X23352106Y48227574D01*
X23350108Y48221256D01*
X23349044Y48085819D01*
X23387851Y47956058D01*
X23390924Y47951459D01*
X23439984Y47878036D01*
X23463098Y47843443D01*
X23568132Y47757932D01*
X23693666Y47707086D01*
X23753730Y47701884D01*
X23823089Y47695876D01*
X23823092Y47695876D01*
X23828601Y47695399D01*
X23961008Y47723905D01*
X23965835Y47726608D01*
X24074357Y47787383D01*
X24074360Y47787385D01*
X24079179Y47790084D01*
X24134469Y47848043D01*
X24168849Y47884082D01*
X24168851Y47884085D01*
X24172667Y47888085D01*
X24233206Y48009243D01*
X24234113Y48014692D01*
X24234114Y48014695D01*
X24254967Y48139981D01*
X24255444Y48142845D01*
X24255500Y48150000D01*
X24235364Y48283935D01*
X24182527Y48393967D01*
X24177544Y48444340D01*
X24206105Y48486132D01*
X24249235Y48500000D01*
X25603250Y48500000D01*
X25650816Y48482687D01*
X25676126Y48438850D01*
X25667336Y48389000D01*
X25664126Y48383927D01*
X25640948Y48350392D01*
X25639282Y48345124D01*
X25639281Y48345122D01*
X25602106Y48227574D01*
X25600108Y48221256D01*
X25599044Y48085819D01*
X25637851Y47956058D01*
X25640924Y47951459D01*
X25689984Y47878036D01*
X25713098Y47843443D01*
X25818132Y47757932D01*
X25943666Y47707086D01*
X26003730Y47701884D01*
X26073089Y47695876D01*
X26073092Y47695876D01*
X26078601Y47695399D01*
X26211008Y47723905D01*
X26215835Y47726608D01*
X26324357Y47787383D01*
X26324360Y47787385D01*
X26329179Y47790084D01*
X26384469Y47848043D01*
X26418849Y47884082D01*
X26418851Y47884085D01*
X26422667Y47888085D01*
X26483206Y48009243D01*
X26484113Y48014692D01*
X26484114Y48014695D01*
X26504967Y48139981D01*
X26505444Y48142845D01*
X26505500Y48150000D01*
X26485364Y48283935D01*
X26432527Y48393967D01*
X26427544Y48444340D01*
X26456105Y48486132D01*
X26499235Y48500000D01*
X28753250Y48500000D01*
X28800816Y48482687D01*
X28826126Y48438850D01*
X28817336Y48389000D01*
X28814126Y48383927D01*
X28790948Y48350392D01*
X28789282Y48345124D01*
X28789281Y48345122D01*
X28752106Y48227574D01*
X28750108Y48221256D01*
X28749044Y48085819D01*
X28787851Y47956058D01*
X28790924Y47951459D01*
X28839984Y47878036D01*
X28863098Y47843443D01*
X28968132Y47757932D01*
X29093666Y47707086D01*
X29153730Y47701884D01*
X29223089Y47695876D01*
X29223092Y47695876D01*
X29228601Y47695399D01*
X29361008Y47723905D01*
X29365835Y47726608D01*
X29474357Y47787383D01*
X29474360Y47787385D01*
X29479179Y47790084D01*
X29534469Y47848043D01*
X29568849Y47884082D01*
X29568851Y47884085D01*
X29572667Y47888085D01*
X29633206Y48009243D01*
X29634113Y48014692D01*
X29634114Y48014695D01*
X29654967Y48139981D01*
X29655444Y48142845D01*
X29655500Y48150000D01*
X29635364Y48283935D01*
X29582527Y48393967D01*
X29577544Y48444340D01*
X29606105Y48486132D01*
X29649235Y48500000D01*
X31203250Y48500000D01*
X31250816Y48482687D01*
X31276126Y48438850D01*
X31267336Y48389000D01*
X31264126Y48383927D01*
X31240948Y48350392D01*
X31239282Y48345124D01*
X31239281Y48345122D01*
X31202106Y48227574D01*
X31200108Y48221256D01*
X31199044Y48085819D01*
X31237851Y47956058D01*
X31240924Y47951459D01*
X31289984Y47878036D01*
X31313098Y47843443D01*
X31418132Y47757932D01*
X31543666Y47707086D01*
X31603730Y47701884D01*
X31673089Y47695876D01*
X31673092Y47695876D01*
X31678601Y47695399D01*
X31811008Y47723905D01*
X31815835Y47726608D01*
X31924357Y47787383D01*
X31924360Y47787385D01*
X31929179Y47790084D01*
X31984469Y47848043D01*
X32018849Y47884082D01*
X32018851Y47884085D01*
X32022667Y47888085D01*
X32083206Y48009243D01*
X32084113Y48014692D01*
X32084114Y48014695D01*
X32104967Y48139981D01*
X32105444Y48142845D01*
X32105500Y48150000D01*
X32085364Y48283935D01*
X32032527Y48393967D01*
X32027544Y48444340D01*
X32056105Y48486132D01*
X32099235Y48500000D01*
X32368449Y48500000D01*
X32382885Y48498578D01*
X32439132Y48487390D01*
X32476105Y48480036D01*
X32502779Y48468987D01*
X32547883Y48438850D01*
X32581808Y48416182D01*
X32593022Y48406979D01*
X34685649Y46314352D01*
X34702523Y46288243D01*
X34807905Y46010092D01*
X34809350Y46006277D01*
X34953374Y45735978D01*
X35130575Y45486170D01*
X35338082Y45260903D01*
X35572531Y45063828D01*
X35830120Y44898141D01*
X36106675Y44766527D01*
X36278527Y44710191D01*
X36307801Y44692200D01*
X37587218Y43412783D01*
X37608610Y43366907D01*
X37605448Y43338146D01*
X37601776Y43326535D01*
X37601774Y43326525D01*
X37600108Y43321256D01*
X37599044Y43185819D01*
X37637851Y43056058D01*
X37713098Y42943443D01*
X37818132Y42857932D01*
X37943666Y42807086D01*
X38003730Y42801884D01*
X38073089Y42795876D01*
X38073092Y42795876D01*
X38078601Y42795399D01*
X38142881Y42809238D01*
X38193025Y42802323D01*
X38210780Y42789221D01*
X38406980Y42593021D01*
X38416183Y42581807D01*
X38468988Y42502779D01*
X38480037Y42476103D01*
X38498579Y42382884D01*
X38500001Y42368448D01*
X38500001Y41065839D01*
X38482688Y41018273D01*
X38438851Y40992963D01*
X38389001Y41001753D01*
X38371661Y41015608D01*
X38338553Y41051424D01*
X38338552Y41051424D01*
X38334798Y41055486D01*
X38217681Y41123513D01*
X38212294Y41124762D01*
X38212293Y41124762D01*
X38091127Y41152847D01*
X38091126Y41152847D01*
X38085738Y41154096D01*
X38006481Y41148484D01*
X37956156Y41144921D01*
X37956155Y41144921D01*
X37950636Y41144530D01*
X37824319Y41095662D01*
X37819972Y41092235D01*
X37722299Y41015236D01*
X37722297Y41015234D01*
X37717955Y41011811D01*
X37714811Y41007262D01*
X37714810Y41007261D01*
X37679401Y40956029D01*
X37640948Y40900392D01*
X37639282Y40895124D01*
X37639281Y40895122D01*
X37602532Y40778921D01*
X37600108Y40771256D01*
X37599044Y40635819D01*
X37637851Y40506058D01*
X37713098Y40393443D01*
X37818132Y40307932D01*
X37823261Y40305854D01*
X37823262Y40305854D01*
X37895468Y40276608D01*
X37943666Y40257086D01*
X38003730Y40251884D01*
X38073089Y40245876D01*
X38073092Y40245876D01*
X38078601Y40245399D01*
X38211008Y40273905D01*
X38215835Y40276608D01*
X38324357Y40337383D01*
X38324360Y40337385D01*
X38329179Y40340084D01*
X38343602Y40355203D01*
X38372457Y40385451D01*
X38417817Y40407918D01*
X38467006Y40395972D01*
X38497008Y40355203D01*
X38500001Y40334372D01*
X38500001Y37915839D01*
X38482688Y37868273D01*
X38438851Y37842963D01*
X38389001Y37851753D01*
X38371661Y37865608D01*
X38338553Y37901424D01*
X38338552Y37901424D01*
X38334798Y37905486D01*
X38217681Y37973513D01*
X38212294Y37974762D01*
X38212293Y37974762D01*
X38091127Y38002847D01*
X38091126Y38002847D01*
X38085738Y38004096D01*
X38006481Y37998484D01*
X37956156Y37994921D01*
X37956155Y37994921D01*
X37950636Y37994530D01*
X37824319Y37945662D01*
X37819972Y37942235D01*
X37722299Y37865236D01*
X37722297Y37865234D01*
X37717955Y37861811D01*
X37714811Y37857262D01*
X37714810Y37857261D01*
X37679401Y37806029D01*
X37640948Y37750392D01*
X37639282Y37745124D01*
X37639281Y37745122D01*
X37603038Y37630521D01*
X37600108Y37621256D01*
X37600065Y37615726D01*
X37599245Y37511359D01*
X37599044Y37485819D01*
X37637851Y37356058D01*
X37640924Y37351459D01*
X37704301Y37256609D01*
X37713098Y37243443D01*
X37818132Y37157932D01*
X37943666Y37107086D01*
X38003730Y37101884D01*
X38073089Y37095876D01*
X38073092Y37095876D01*
X38078601Y37095399D01*
X38211008Y37123905D01*
X38215835Y37126608D01*
X38324357Y37187383D01*
X38324360Y37187385D01*
X38329179Y37190084D01*
X38372457Y37235451D01*
X38417817Y37257918D01*
X38467006Y37245972D01*
X38497008Y37205203D01*
X38500001Y37184372D01*
X38500001Y33515839D01*
X38482688Y33468273D01*
X38438851Y33442963D01*
X38389001Y33451753D01*
X38371661Y33465608D01*
X38338553Y33501424D01*
X38338552Y33501424D01*
X38334798Y33505486D01*
X38217681Y33573513D01*
X38212294Y33574762D01*
X38212293Y33574762D01*
X38091127Y33602847D01*
X38091126Y33602847D01*
X38085738Y33604096D01*
X38006481Y33598484D01*
X37956156Y33594921D01*
X37956155Y33594921D01*
X37950636Y33594530D01*
X37824319Y33545662D01*
X37819972Y33542235D01*
X37722299Y33465236D01*
X37722297Y33465234D01*
X37717955Y33461811D01*
X37714811Y33457262D01*
X37714810Y33457261D01*
X37679401Y33406029D01*
X37640948Y33350392D01*
X37639282Y33345124D01*
X37639281Y33345122D01*
X37613981Y33265122D01*
X37600108Y33221256D01*
X37600065Y33215726D01*
X37599480Y33141256D01*
X37599044Y33085819D01*
X37637851Y32956058D01*
X37713098Y32843443D01*
X37818132Y32757932D01*
X37943666Y32707086D01*
X38003730Y32701884D01*
X38073089Y32695876D01*
X38073092Y32695876D01*
X38078601Y32695399D01*
X38211008Y32723905D01*
X38215835Y32726608D01*
X38324357Y32787383D01*
X38324360Y32787385D01*
X38329179Y32790084D01*
X38332994Y32794083D01*
X38372457Y32835451D01*
X38417817Y32857918D01*
X38467006Y32845972D01*
X38497008Y32805203D01*
X38500001Y32784372D01*
X38500001Y30365839D01*
X38482688Y30318273D01*
X38438851Y30292963D01*
X38389001Y30301753D01*
X38371661Y30315608D01*
X38338553Y30351424D01*
X38338552Y30351424D01*
X38334798Y30355486D01*
X38217681Y30423513D01*
X38212294Y30424762D01*
X38212293Y30424762D01*
X38091127Y30452847D01*
X38091126Y30452847D01*
X38085738Y30454096D01*
X38006481Y30448484D01*
X37956156Y30444921D01*
X37956155Y30444921D01*
X37950636Y30444530D01*
X37824319Y30395662D01*
X37819972Y30392235D01*
X37722299Y30315236D01*
X37722297Y30315234D01*
X37717955Y30311811D01*
X37714811Y30307262D01*
X37714810Y30307261D01*
X37670076Y30242537D01*
X37640948Y30200392D01*
X37639282Y30195124D01*
X37639281Y30195122D01*
X37601775Y30076528D01*
X37600108Y30071256D01*
X37599579Y30003935D01*
X37599088Y29941400D01*
X37599044Y29935819D01*
X37637851Y29806058D01*
X37640924Y29801459D01*
X37693856Y29722241D01*
X37713098Y29693443D01*
X37818132Y29607932D01*
X37943666Y29557086D01*
X38003730Y29551884D01*
X38073089Y29545876D01*
X38073092Y29545876D01*
X38078601Y29545399D01*
X38211008Y29573905D01*
X38256192Y29599209D01*
X38324357Y29637383D01*
X38324360Y29637385D01*
X38329179Y29640084D01*
X38344421Y29656062D01*
X38372457Y29685451D01*
X38417817Y29707918D01*
X38467006Y29695972D01*
X38497008Y29655203D01*
X38500001Y29634372D01*
X38500001Y25946174D01*
X38482688Y25898608D01*
X38438851Y25873298D01*
X38388834Y25882185D01*
X38322466Y25920734D01*
X38322464Y25920735D01*
X38317681Y25923513D01*
X38312294Y25924762D01*
X38312293Y25924762D01*
X38191127Y25952847D01*
X38191126Y25952847D01*
X38185738Y25954096D01*
X38106481Y25948484D01*
X38056156Y25944921D01*
X38056155Y25944921D01*
X38050636Y25944530D01*
X37924319Y25895662D01*
X37919972Y25892235D01*
X37822299Y25815236D01*
X37822297Y25815234D01*
X37817955Y25811811D01*
X37814811Y25807262D01*
X37814810Y25807261D01*
X37744092Y25704941D01*
X37740948Y25700392D01*
X37739282Y25695124D01*
X37739281Y25695122D01*
X37718851Y25630521D01*
X37700108Y25571256D01*
X37699596Y25506058D01*
X37699101Y25443035D01*
X37699044Y25435819D01*
X37737851Y25306058D01*
X37740924Y25301459D01*
X37799688Y25213513D01*
X37813098Y25193443D01*
X37918132Y25107932D01*
X37923261Y25105854D01*
X37923262Y25105854D01*
X37995468Y25076608D01*
X38043666Y25057086D01*
X38103730Y25051884D01*
X38173089Y25045876D01*
X38173092Y25045876D01*
X38178601Y25045399D01*
X38311008Y25073905D01*
X38389844Y25118055D01*
X38439804Y25126191D01*
X38483306Y25100310D01*
X38500001Y25053490D01*
X38500001Y22796174D01*
X38482688Y22748608D01*
X38438851Y22723298D01*
X38388834Y22732185D01*
X38322466Y22770734D01*
X38322464Y22770735D01*
X38317681Y22773513D01*
X38312294Y22774762D01*
X38312293Y22774762D01*
X38191127Y22802847D01*
X38191126Y22802847D01*
X38185738Y22804096D01*
X38106481Y22798484D01*
X38056156Y22794921D01*
X38056155Y22794921D01*
X38050636Y22794530D01*
X37924319Y22745662D01*
X37919972Y22742235D01*
X37822299Y22665236D01*
X37822297Y22665234D01*
X37817955Y22661811D01*
X37814811Y22657262D01*
X37814810Y22657261D01*
X37773220Y22597086D01*
X37740948Y22550392D01*
X37739282Y22545124D01*
X37739281Y22545122D01*
X37705332Y22437775D01*
X37700108Y22421256D01*
X37699857Y22389243D01*
X37699403Y22331459D01*
X37699044Y22285819D01*
X37737851Y22156058D01*
X37740924Y22151459D01*
X37808717Y22050000D01*
X37813098Y22043443D01*
X37918132Y21957932D01*
X37923261Y21955854D01*
X37923262Y21955854D01*
X37995468Y21926608D01*
X38043666Y21907086D01*
X38103730Y21901884D01*
X38173089Y21895876D01*
X38173092Y21895876D01*
X38178601Y21895399D01*
X38311008Y21923905D01*
X38389844Y21968055D01*
X38439804Y21976191D01*
X38483306Y21950310D01*
X38500001Y21903490D01*
X38500001Y20346174D01*
X38482688Y20298608D01*
X38438851Y20273298D01*
X38388834Y20282185D01*
X38322466Y20320734D01*
X38322464Y20320735D01*
X38317681Y20323513D01*
X38312294Y20324762D01*
X38312293Y20324762D01*
X38191127Y20352847D01*
X38191126Y20352847D01*
X38185738Y20354096D01*
X38106481Y20348484D01*
X38056156Y20344921D01*
X38056155Y20344921D01*
X38050636Y20344530D01*
X37924319Y20295662D01*
X37919972Y20292235D01*
X37822299Y20215236D01*
X37822297Y20215234D01*
X37817955Y20211811D01*
X37740948Y20100392D01*
X37739282Y20095124D01*
X37739281Y20095122D01*
X37701775Y19976528D01*
X37700108Y19971256D01*
X37699044Y19835819D01*
X37737851Y19706058D01*
X37740924Y19701459D01*
X37762985Y19668443D01*
X37813098Y19593443D01*
X37918132Y19507932D01*
X38043666Y19457086D01*
X38103730Y19451884D01*
X38173089Y19445876D01*
X38173092Y19445876D01*
X38178601Y19445399D01*
X38311008Y19473905D01*
X38389844Y19518055D01*
X38439804Y19526191D01*
X38483306Y19500310D01*
X38500001Y19453490D01*
X38500001Y14381552D01*
X38498579Y14367116D01*
X38480037Y14273897D01*
X38468988Y14247221D01*
X38416183Y14168193D01*
X38406980Y14156979D01*
X38343022Y14093021D01*
X38331808Y14083818D01*
X38252780Y14031013D01*
X38226105Y14019964D01*
X38189132Y14012610D01*
X38132885Y14001422D01*
X38118449Y14000000D01*
X33631553Y14000000D01*
X33617117Y14001422D01*
X33560870Y14012610D01*
X33523897Y14019964D01*
X33497222Y14031013D01*
X33418194Y14083818D01*
X33406980Y14093021D01*
X33343022Y14156979D01*
X33333819Y14168193D01*
X33281014Y14247221D01*
X33269965Y14273897D01*
X33251423Y14367116D01*
X33250001Y14381552D01*
X33250001Y14405464D01*
X33267314Y14453030D01*
X33311151Y14478340D01*
X33351781Y14474051D01*
X33393666Y14457086D01*
X33453730Y14451884D01*
X33523089Y14445876D01*
X33523092Y14445876D01*
X33528601Y14445399D01*
X33661008Y14473905D01*
X33665835Y14476608D01*
X33774357Y14537383D01*
X33774360Y14537385D01*
X33779179Y14540084D01*
X33784850Y14546029D01*
X33868849Y14634082D01*
X33868851Y14634085D01*
X33872667Y14638085D01*
X33933206Y14759243D01*
X33934113Y14764692D01*
X33934114Y14764695D01*
X33950864Y14865328D01*
X33955444Y14892845D01*
X33955500Y14900000D01*
X33935364Y15033935D01*
X33929658Y15045819D01*
X33879129Y15151044D01*
X33879128Y15151045D01*
X33876735Y15156029D01*
X33873977Y15159012D01*
X33861715Y15207465D01*
X33873058Y15237890D01*
X33872667Y15238085D01*
X33874495Y15241744D01*
X33933206Y15359243D01*
X33934113Y15364692D01*
X33934114Y15364695D01*
X33950890Y15465486D01*
X33955444Y15492845D01*
X33955500Y15500000D01*
X33954308Y15507932D01*
X33942936Y15583568D01*
X33935364Y15633935D01*
X33921195Y15663443D01*
X33879129Y15751044D01*
X33879128Y15751045D01*
X33876735Y15756029D01*
X33873977Y15759012D01*
X33861715Y15807465D01*
X33873058Y15837890D01*
X33872667Y15838085D01*
X33874495Y15841744D01*
X33933206Y15959243D01*
X33934113Y15964692D01*
X33934114Y15964695D01*
X33949851Y16059243D01*
X33955444Y16092845D01*
X33955500Y16100000D01*
X33935364Y16233935D01*
X33925016Y16255486D01*
X33879129Y16351044D01*
X33879128Y16351045D01*
X33876735Y16356029D01*
X33873977Y16359012D01*
X33861715Y16407465D01*
X33873058Y16437890D01*
X33872667Y16438085D01*
X33874495Y16441744D01*
X33933206Y16559243D01*
X33934113Y16564692D01*
X33934114Y16564695D01*
X33949851Y16659243D01*
X33955444Y16692845D01*
X33955500Y16700000D01*
X33935364Y16833935D01*
X33931849Y16841256D01*
X33879129Y16951044D01*
X33879128Y16951045D01*
X33876735Y16956029D01*
X33873977Y16959012D01*
X33861715Y17007465D01*
X33873058Y17037890D01*
X33872667Y17038085D01*
X33874495Y17041744D01*
X33933206Y17159243D01*
X33934113Y17164692D01*
X33934114Y17164695D01*
X33954967Y17289981D01*
X33955444Y17292845D01*
X33955500Y17300000D01*
X33935364Y17433935D01*
X33887345Y17533935D01*
X33879129Y17551044D01*
X33879128Y17551045D01*
X33876735Y17556029D01*
X33873977Y17559012D01*
X33861715Y17607465D01*
X33873058Y17637890D01*
X33872667Y17638085D01*
X33874495Y17641744D01*
X33933206Y17759243D01*
X33934113Y17764692D01*
X33934114Y17764695D01*
X33954967Y17889981D01*
X33955444Y17892845D01*
X33955500Y17900000D01*
X33954111Y17909243D01*
X33943911Y17977086D01*
X33935364Y18033935D01*
X33931086Y18042845D01*
X33879129Y18151044D01*
X33879128Y18151045D01*
X33876735Y18156029D01*
X33873977Y18159012D01*
X33861715Y18207465D01*
X33873058Y18237890D01*
X33872667Y18238085D01*
X33874495Y18241744D01*
X33933206Y18359243D01*
X33934113Y18364692D01*
X33934114Y18364695D01*
X33952226Y18473513D01*
X33955444Y18492845D01*
X33955500Y18500000D01*
X33945024Y18569682D01*
X33955073Y18619294D01*
X33994660Y18650840D01*
X34024586Y18654408D01*
X34048752Y18652315D01*
X34123089Y18645876D01*
X34123092Y18645876D01*
X34128601Y18645399D01*
X34261008Y18673905D01*
X34293307Y18691993D01*
X34318057Y18705854D01*
X34364605Y18731922D01*
X34414565Y18740058D01*
X34447483Y18724743D01*
X34468132Y18707932D01*
X34473261Y18705854D01*
X34473262Y18705854D01*
X34552141Y18673905D01*
X34593666Y18657086D01*
X34653730Y18651884D01*
X34723089Y18645876D01*
X34723092Y18645876D01*
X34728601Y18645399D01*
X34861008Y18673905D01*
X34893307Y18691993D01*
X34918057Y18705854D01*
X34964605Y18731922D01*
X35014565Y18740058D01*
X35047483Y18724743D01*
X35068132Y18707932D01*
X35073261Y18705854D01*
X35073262Y18705854D01*
X35152141Y18673905D01*
X35193666Y18657086D01*
X35253730Y18651884D01*
X35323089Y18645876D01*
X35323092Y18645876D01*
X35328601Y18645399D01*
X35461008Y18673905D01*
X35465835Y18676608D01*
X35574357Y18737383D01*
X35574360Y18737385D01*
X35579179Y18740084D01*
X35582994Y18744083D01*
X35668849Y18834082D01*
X35668851Y18834085D01*
X35672667Y18838085D01*
X35733206Y18959243D01*
X35734113Y18964692D01*
X35734114Y18964695D01*
X35754967Y19089981D01*
X35755444Y19092845D01*
X35755500Y19100000D01*
X35735364Y19233935D01*
X35687345Y19333935D01*
X35679129Y19351044D01*
X35679128Y19351045D01*
X35676735Y19356029D01*
X35673977Y19359012D01*
X35661715Y19407465D01*
X35673058Y19437890D01*
X35672667Y19438085D01*
X35674495Y19441744D01*
X35733206Y19559243D01*
X35734113Y19564692D01*
X35734114Y19564695D01*
X35754967Y19689981D01*
X35755444Y19692845D01*
X35755500Y19700000D01*
X35735364Y19833935D01*
X35676735Y19956029D01*
X35672982Y19960089D01*
X35672980Y19960092D01*
X35588553Y20051424D01*
X35588552Y20051424D01*
X35584798Y20055486D01*
X35467681Y20123513D01*
X35462294Y20124762D01*
X35462293Y20124762D01*
X35341127Y20152847D01*
X35341126Y20152847D01*
X35335738Y20154096D01*
X35256481Y20148484D01*
X35206156Y20144921D01*
X35206155Y20144921D01*
X35200636Y20144530D01*
X35074319Y20095662D01*
X35046491Y20073724D01*
X34998420Y20057874D01*
X34963512Y20067850D01*
X34944813Y20078711D01*
X34867681Y20123513D01*
X34862294Y20124762D01*
X34862293Y20124762D01*
X34741127Y20152847D01*
X34741126Y20152847D01*
X34735738Y20154096D01*
X34656481Y20148484D01*
X34606156Y20144921D01*
X34606155Y20144921D01*
X34600636Y20144530D01*
X34474319Y20095662D01*
X34446491Y20073724D01*
X34398420Y20057874D01*
X34363512Y20067850D01*
X34344813Y20078711D01*
X34267681Y20123513D01*
X34262294Y20124762D01*
X34262293Y20124762D01*
X34141127Y20152847D01*
X34141126Y20152847D01*
X34135738Y20154096D01*
X34056481Y20148484D01*
X34006156Y20144921D01*
X34006155Y20144921D01*
X34000636Y20144530D01*
X33874319Y20095662D01*
X33846491Y20073724D01*
X33798420Y20057874D01*
X33763512Y20067850D01*
X33744813Y20078711D01*
X33667681Y20123513D01*
X33662294Y20124762D01*
X33662293Y20124762D01*
X33541127Y20152847D01*
X33541126Y20152847D01*
X33535738Y20154096D01*
X33456481Y20148484D01*
X33406156Y20144921D01*
X33406155Y20144921D01*
X33400636Y20144530D01*
X33395474Y20142533D01*
X33350701Y20125212D01*
X33300092Y20124196D01*
X33260670Y20155949D01*
X33250001Y20194227D01*
X33250001Y20500000D01*
X32750001Y21000000D01*
X26381553Y21000000D01*
X26367117Y21001422D01*
X26310870Y21012610D01*
X26273897Y21019964D01*
X26247222Y21031013D01*
X26168194Y21083818D01*
X26156980Y21093021D01*
X26093022Y21156979D01*
X26083819Y21168193D01*
X26031014Y21247221D01*
X26019965Y21273897D01*
X26001423Y21367116D01*
X26000001Y21381552D01*
X26000001Y22041539D01*
X26017314Y22089105D01*
X26061151Y22114415D01*
X26101781Y22110126D01*
X26158665Y22087086D01*
X26218729Y22081884D01*
X26288088Y22075876D01*
X26288091Y22075876D01*
X26293600Y22075399D01*
X26426007Y22103905D01*
X26430834Y22106608D01*
X26539356Y22167383D01*
X26539359Y22167385D01*
X26544178Y22170084D01*
X26565891Y22192845D01*
X26633848Y22264082D01*
X26633850Y22264085D01*
X26637666Y22268085D01*
X26698205Y22389243D01*
X26698207Y22389255D01*
X26727893Y22427251D01*
X26777406Y22437775D01*
X26822100Y22414010D01*
X26838004Y22385698D01*
X26845154Y22361791D01*
X26852850Y22336058D01*
X26855923Y22331459D01*
X26918146Y22238336D01*
X26928097Y22223443D01*
X27033131Y22137932D01*
X27038260Y22135854D01*
X27038261Y22135854D01*
X27091192Y22114415D01*
X27158665Y22087086D01*
X27218729Y22081884D01*
X27288088Y22075876D01*
X27288091Y22075876D01*
X27293600Y22075399D01*
X27426007Y22103905D01*
X27430834Y22106608D01*
X27539356Y22167383D01*
X27539359Y22167385D01*
X27544178Y22170084D01*
X27565891Y22192845D01*
X27633848Y22264082D01*
X27633850Y22264085D01*
X27637666Y22268085D01*
X27698205Y22389243D01*
X27699112Y22394692D01*
X27699113Y22394695D01*
X27719966Y22519981D01*
X27720443Y22522845D01*
X27720499Y22530000D01*
X27718922Y22540493D01*
X27703147Y22645418D01*
X27700363Y22663935D01*
X27692609Y22680084D01*
X27659703Y22748608D01*
X27641734Y22786029D01*
X27637981Y22790089D01*
X27637979Y22790092D01*
X27590170Y22841811D01*
X27577959Y22855021D01*
X27558384Y22901700D01*
X27573395Y22950043D01*
X27578758Y22956332D01*
X27584157Y22961991D01*
X27629517Y22984456D01*
X27678706Y22972508D01*
X27684417Y22968298D01*
X27783131Y22887932D01*
X27788260Y22885854D01*
X27788261Y22885854D01*
X27867140Y22853905D01*
X27908665Y22837086D01*
X27968729Y22831884D01*
X28038088Y22825876D01*
X28038091Y22825876D01*
X28043600Y22825399D01*
X28176007Y22853905D01*
X28180834Y22856608D01*
X28289356Y22917383D01*
X28289359Y22917385D01*
X28294178Y22920084D01*
X28297993Y22924083D01*
X28383848Y23014082D01*
X28383850Y23014085D01*
X28387666Y23018085D01*
X28448205Y23139243D01*
X28449112Y23144692D01*
X28449113Y23144695D01*
X28469966Y23269981D01*
X28470443Y23272845D01*
X28470469Y23276098D01*
X28470476Y23277099D01*
X28470499Y23280000D01*
X28450363Y23413935D01*
X28442609Y23430084D01*
X28411870Y23494096D01*
X28391734Y23536029D01*
X28387981Y23540089D01*
X28387979Y23540092D01*
X28303552Y23631424D01*
X28303551Y23631424D01*
X28299797Y23635486D01*
X28182680Y23703513D01*
X28177293Y23704762D01*
X28177292Y23704762D01*
X28056126Y23732847D01*
X28056125Y23732847D01*
X28050737Y23734096D01*
X27971480Y23728484D01*
X27921155Y23724921D01*
X27921154Y23724921D01*
X27915635Y23724530D01*
X27789318Y23675662D01*
X27758915Y23651694D01*
X27683002Y23591849D01*
X27634929Y23575997D01*
X27587914Y23594754D01*
X27582854Y23599726D01*
X27577964Y23605015D01*
X27558385Y23651694D01*
X27573391Y23700037D01*
X27578755Y23706329D01*
X27633845Y23764079D01*
X27633846Y23764081D01*
X27637666Y23768085D01*
X27698205Y23889243D01*
X27699112Y23894692D01*
X27699113Y23894695D01*
X27712740Y23976564D01*
X27720443Y24022845D01*
X27720499Y24030000D01*
X27719307Y24037932D01*
X27703147Y24145418D01*
X27700363Y24163935D01*
X27641734Y24286029D01*
X27637981Y24290089D01*
X27637979Y24290092D01*
X27553552Y24381424D01*
X27553551Y24381424D01*
X27549797Y24385486D01*
X27432680Y24453513D01*
X27427293Y24454762D01*
X27427292Y24454762D01*
X27306126Y24482847D01*
X27306125Y24482847D01*
X27300737Y24484096D01*
X27221480Y24478484D01*
X27171155Y24474921D01*
X27171154Y24474921D01*
X27165635Y24474530D01*
X27039318Y24425662D01*
X27034971Y24422235D01*
X26937298Y24345236D01*
X26937296Y24345234D01*
X26932954Y24341811D01*
X26929810Y24337262D01*
X26929809Y24337261D01*
X26896622Y24289243D01*
X26855947Y24230392D01*
X26854281Y24225124D01*
X26854279Y24225120D01*
X26837813Y24173052D01*
X26806963Y24132920D01*
X26757535Y24122006D01*
X26712655Y24145418D01*
X26701688Y24164571D01*
X26700363Y24163935D01*
X26670965Y24225155D01*
X26641734Y24286029D01*
X26637981Y24290089D01*
X26637979Y24290092D01*
X26553552Y24381424D01*
X26553551Y24381424D01*
X26549797Y24385486D01*
X26432680Y24453513D01*
X26427293Y24454762D01*
X26427292Y24454762D01*
X26306126Y24482847D01*
X26306125Y24482847D01*
X26300737Y24484096D01*
X26221480Y24478484D01*
X26171155Y24474921D01*
X26171154Y24474921D01*
X26165635Y24474530D01*
X26104129Y24450735D01*
X26100701Y24449409D01*
X26050092Y24448393D01*
X26010671Y24480145D01*
X26000001Y24518424D01*
X26000001Y31635819D01*
X29249044Y31635819D01*
X29287851Y31506058D01*
X29290924Y31501459D01*
X29353729Y31407465D01*
X29363098Y31393443D01*
X29468132Y31307932D01*
X29593666Y31257086D01*
X29653730Y31251884D01*
X29723089Y31245876D01*
X29723092Y31245876D01*
X29728601Y31245399D01*
X29861008Y31273905D01*
X29964605Y31331922D01*
X30014565Y31340058D01*
X30047483Y31324743D01*
X30068132Y31307932D01*
X30193666Y31257086D01*
X30253730Y31251884D01*
X30323089Y31245876D01*
X30323092Y31245876D01*
X30328601Y31245399D01*
X30361863Y31252560D01*
X30412007Y31245647D01*
X30445976Y31208119D01*
X30450194Y31171529D01*
X30450108Y31171256D01*
X30449044Y31035819D01*
X30487851Y30906058D01*
X30490924Y30901459D01*
X30531305Y30841024D01*
X30543336Y30791856D01*
X30530652Y30757839D01*
X30490948Y30700392D01*
X30489282Y30695124D01*
X30489281Y30695122D01*
X30468201Y30628466D01*
X30450108Y30571256D01*
X30450065Y30565726D01*
X30449097Y30442533D01*
X30449044Y30435819D01*
X30487851Y30306058D01*
X30490924Y30301459D01*
X30531305Y30241024D01*
X30543336Y30191856D01*
X30530652Y30157839D01*
X30490948Y30100392D01*
X30489282Y30095124D01*
X30489281Y30095122D01*
X30454290Y29984480D01*
X30450108Y29971256D01*
X30449830Y29935819D01*
X30449313Y29870000D01*
X30449044Y29835819D01*
X30487851Y29706058D01*
X30490924Y29701459D01*
X30531305Y29641024D01*
X30543336Y29591856D01*
X30530652Y29557839D01*
X30497647Y29510084D01*
X30490948Y29500392D01*
X30489282Y29495124D01*
X30489281Y29495122D01*
X30464068Y29415399D01*
X30450108Y29371256D01*
X30450065Y29365726D01*
X30449376Y29278035D01*
X30449044Y29235819D01*
X30487851Y29106058D01*
X30490924Y29101459D01*
X30531305Y29041024D01*
X30543336Y28991856D01*
X30530652Y28957839D01*
X30490948Y28900392D01*
X30489282Y28895124D01*
X30489281Y28895122D01*
X30468201Y28828466D01*
X30450108Y28771256D01*
X30449044Y28635819D01*
X30487851Y28506058D01*
X30490924Y28501459D01*
X30531305Y28441024D01*
X30543336Y28391856D01*
X30530652Y28357839D01*
X30508522Y28325819D01*
X30490948Y28300392D01*
X30489282Y28295124D01*
X30489281Y28295122D01*
X30451775Y28176528D01*
X30450108Y28171256D01*
X30450065Y28165726D01*
X30449280Y28065819D01*
X30449044Y28035819D01*
X30487851Y27906058D01*
X30490924Y27901459D01*
X30531305Y27841024D01*
X30543336Y27791856D01*
X30530652Y27757839D01*
X30503977Y27719243D01*
X30490948Y27700392D01*
X30489282Y27695124D01*
X30489281Y27695122D01*
X30451775Y27576528D01*
X30450108Y27571256D01*
X30449864Y27540183D01*
X30449262Y27463513D01*
X30449044Y27435819D01*
X30487851Y27306058D01*
X30490924Y27301459D01*
X30531305Y27241024D01*
X30543336Y27191856D01*
X30530652Y27157839D01*
X30498457Y27111256D01*
X30490948Y27100392D01*
X30489282Y27095124D01*
X30489281Y27095122D01*
X30451775Y26976528D01*
X30450108Y26971256D01*
X30450065Y26965726D01*
X30449235Y26860084D01*
X30449044Y26835819D01*
X30487851Y26706058D01*
X30490924Y26701459D01*
X30531305Y26641024D01*
X30543336Y26591856D01*
X30530652Y26557839D01*
X30490948Y26500392D01*
X30489282Y26495124D01*
X30489281Y26495122D01*
X30468201Y26428466D01*
X30450108Y26371256D01*
X30449044Y26235819D01*
X30487851Y26106058D01*
X30490924Y26101459D01*
X30531305Y26041024D01*
X30543336Y25991856D01*
X30530652Y25957839D01*
X30520074Y25942533D01*
X30490948Y25900392D01*
X30489282Y25895124D01*
X30489281Y25895122D01*
X30451775Y25776528D01*
X30450108Y25771256D01*
X30449811Y25733443D01*
X30449101Y25643061D01*
X30449044Y25635819D01*
X30487851Y25506058D01*
X30490924Y25501459D01*
X30531090Y25441347D01*
X30563098Y25393443D01*
X30668132Y25307932D01*
X30673261Y25305854D01*
X30673262Y25305854D01*
X30730069Y25282845D01*
X30793666Y25257086D01*
X30853730Y25251884D01*
X30923089Y25245876D01*
X30923092Y25245876D01*
X30928601Y25245399D01*
X31061008Y25273905D01*
X31079565Y25284297D01*
X31118421Y25306058D01*
X31164605Y25331922D01*
X31214565Y25340058D01*
X31247483Y25324743D01*
X31268132Y25307932D01*
X31273261Y25305854D01*
X31273262Y25305854D01*
X31330069Y25282845D01*
X31393666Y25257086D01*
X31453730Y25251884D01*
X31523089Y25245876D01*
X31523092Y25245876D01*
X31528601Y25245399D01*
X31661008Y25273905D01*
X31676972Y25282845D01*
X31774357Y25337383D01*
X31774360Y25337385D01*
X31779179Y25340084D01*
X31799376Y25361256D01*
X31803728Y25365819D01*
X35299044Y25365819D01*
X35337851Y25236058D01*
X35348151Y25220643D01*
X35403834Y25137308D01*
X35413098Y25123443D01*
X35518132Y25037932D01*
X35620858Y24996324D01*
X35658444Y24962422D01*
X35665446Y24912290D01*
X35638584Y24869386D01*
X35619776Y24858723D01*
X35593525Y24848567D01*
X35534319Y24825662D01*
X35529972Y24822235D01*
X35432299Y24745236D01*
X35432297Y24745234D01*
X35427955Y24741811D01*
X35424811Y24737262D01*
X35424810Y24737261D01*
X35389401Y24686029D01*
X35350948Y24630392D01*
X35349282Y24625124D01*
X35349281Y24625122D01*
X35315537Y24518424D01*
X35310108Y24501256D01*
X35309763Y24457308D01*
X35309167Y24381424D01*
X35309044Y24365819D01*
X35347851Y24236058D01*
X35350924Y24231459D01*
X35416766Y24132920D01*
X35423098Y24123443D01*
X35528132Y24037932D01*
X35533261Y24035854D01*
X35533262Y24035854D01*
X35558213Y24025748D01*
X35653666Y23987086D01*
X35713730Y23981884D01*
X35783089Y23975876D01*
X35783092Y23975876D01*
X35788601Y23975399D01*
X35921008Y24003905D01*
X35954828Y24022845D01*
X36034357Y24067383D01*
X36034360Y24067385D01*
X36039179Y24070084D01*
X36042994Y24074083D01*
X36128849Y24164082D01*
X36128851Y24164085D01*
X36132667Y24168085D01*
X36193206Y24289243D01*
X36194113Y24294692D01*
X36194114Y24294695D01*
X36214967Y24419981D01*
X36215444Y24422845D01*
X36215500Y24430000D01*
X36211395Y24457308D01*
X36203784Y24507932D01*
X36195364Y24563935D01*
X36181195Y24593443D01*
X36159757Y24638085D01*
X36136735Y24686029D01*
X36132982Y24690089D01*
X36132980Y24690092D01*
X36048553Y24781424D01*
X36048552Y24781424D01*
X36044798Y24785486D01*
X35927681Y24853513D01*
X35922294Y24854762D01*
X35922293Y24854762D01*
X35905773Y24858591D01*
X35863344Y24886197D01*
X35848587Y24934617D01*
X35868406Y24981195D01*
X35900875Y24999603D01*
X35900428Y25000787D01*
X35905598Y25002740D01*
X35911008Y25003905D01*
X35948128Y25024693D01*
X36024357Y25067383D01*
X36024360Y25067385D01*
X36029179Y25070084D01*
X36058013Y25100310D01*
X36118849Y25164082D01*
X36118851Y25164085D01*
X36122667Y25168085D01*
X36183206Y25289243D01*
X36184113Y25294692D01*
X36184114Y25294695D01*
X36201316Y25398043D01*
X36205444Y25422845D01*
X36205500Y25430000D01*
X36204285Y25438085D01*
X36186186Y25558466D01*
X36185364Y25563935D01*
X36181849Y25571256D01*
X36147368Y25643061D01*
X36126735Y25686029D01*
X36122982Y25690089D01*
X36122980Y25690092D01*
X36038553Y25781424D01*
X36038552Y25781424D01*
X36034798Y25785486D01*
X35917681Y25853513D01*
X35912294Y25854762D01*
X35912293Y25854762D01*
X35791127Y25882847D01*
X35791126Y25882847D01*
X35785738Y25884096D01*
X35706481Y25878484D01*
X35656156Y25874921D01*
X35656155Y25874921D01*
X35650636Y25874530D01*
X35524319Y25825662D01*
X35519972Y25822235D01*
X35422299Y25745236D01*
X35422297Y25745234D01*
X35417955Y25741811D01*
X35414811Y25737262D01*
X35414810Y25737261D01*
X35344699Y25635819D01*
X35340948Y25630392D01*
X35339282Y25625124D01*
X35339281Y25625122D01*
X35303303Y25511359D01*
X35300108Y25501256D01*
X35300065Y25495726D01*
X35299234Y25389950D01*
X35299044Y25365819D01*
X31803728Y25365819D01*
X31868849Y25434082D01*
X31868851Y25434085D01*
X31872667Y25438085D01*
X31933206Y25559243D01*
X31934113Y25564692D01*
X31934114Y25564695D01*
X31953320Y25680084D01*
X31955444Y25692845D01*
X31955500Y25700000D01*
X31953469Y25713513D01*
X31936608Y25825662D01*
X31935364Y25833935D01*
X31925016Y25855486D01*
X31879129Y25951044D01*
X31879128Y25951045D01*
X31876735Y25956029D01*
X31873977Y25959012D01*
X31861715Y26007465D01*
X31873058Y26037890D01*
X31872667Y26038085D01*
X31873624Y26040000D01*
X31933206Y26159243D01*
X31934113Y26164692D01*
X31934114Y26164695D01*
X31954967Y26289981D01*
X31955444Y26292845D01*
X31955500Y26300000D01*
X31935364Y26433935D01*
X31905983Y26495122D01*
X31879129Y26551044D01*
X31879128Y26551045D01*
X31876735Y26556029D01*
X31873977Y26559012D01*
X31861715Y26607465D01*
X31873058Y26637890D01*
X31872667Y26638085D01*
X31933206Y26759243D01*
X31934113Y26764692D01*
X31934114Y26764695D01*
X31949991Y26860084D01*
X31955444Y26892845D01*
X31955500Y26900000D01*
X31935364Y27033935D01*
X31913608Y27079243D01*
X31879129Y27151044D01*
X31879128Y27151045D01*
X31876735Y27156029D01*
X31873977Y27159012D01*
X31861715Y27207465D01*
X31873058Y27237890D01*
X31872667Y27238085D01*
X31873820Y27240392D01*
X31933206Y27359243D01*
X31934113Y27364692D01*
X31934114Y27364695D01*
X31954967Y27489981D01*
X31955444Y27492845D01*
X31955500Y27500000D01*
X31950718Y27531811D01*
X31936186Y27628466D01*
X31935364Y27633935D01*
X31905983Y27695122D01*
X31879129Y27751044D01*
X31879128Y27751045D01*
X31876735Y27756029D01*
X31873977Y27759012D01*
X31861715Y27807465D01*
X31873058Y27837890D01*
X31872667Y27838085D01*
X31933206Y27959243D01*
X31934113Y27964692D01*
X31934114Y27964695D01*
X31950042Y28060392D01*
X31955444Y28092845D01*
X31955500Y28100000D01*
X31952066Y28122845D01*
X31940277Y28201256D01*
X31935364Y28233935D01*
X31905983Y28295122D01*
X31879129Y28351044D01*
X31879128Y28351045D01*
X31876735Y28356029D01*
X31873977Y28359012D01*
X31861715Y28407465D01*
X31873058Y28437890D01*
X31872667Y28438085D01*
X31933206Y28559243D01*
X31934113Y28564692D01*
X31934114Y28564695D01*
X31954967Y28689981D01*
X31955444Y28692845D01*
X31955500Y28700000D01*
X31935364Y28833935D01*
X31905983Y28895122D01*
X31879129Y28951044D01*
X31879128Y28951045D01*
X31876735Y28956029D01*
X31873977Y28959012D01*
X31861715Y29007465D01*
X31873058Y29037890D01*
X31872667Y29038085D01*
X31933206Y29159243D01*
X31934113Y29164692D01*
X31934114Y29164695D01*
X31954967Y29289981D01*
X31955444Y29292845D01*
X31955500Y29300000D01*
X31935364Y29433935D01*
X31930577Y29443905D01*
X31879129Y29551044D01*
X31879128Y29551045D01*
X31876735Y29556029D01*
X31873977Y29559012D01*
X31861715Y29607465D01*
X31873058Y29637890D01*
X31872667Y29638085D01*
X31873666Y29640084D01*
X31933206Y29759243D01*
X31934113Y29764692D01*
X31934114Y29764695D01*
X31949851Y29859243D01*
X31955444Y29892845D01*
X31955500Y29900000D01*
X31950912Y29930521D01*
X31942799Y29984480D01*
X31935364Y30033935D01*
X31905983Y30095122D01*
X31879129Y30151044D01*
X31879128Y30151045D01*
X31876735Y30156029D01*
X31873977Y30159012D01*
X31861715Y30207465D01*
X31873058Y30237890D01*
X31872667Y30238085D01*
X31933206Y30359243D01*
X31934113Y30364692D01*
X31934114Y30364695D01*
X31954967Y30489981D01*
X31955444Y30492845D01*
X31955500Y30500000D01*
X31935364Y30633935D01*
X31932412Y30640084D01*
X31879129Y30751044D01*
X31879128Y30751045D01*
X31876735Y30756029D01*
X31873977Y30759012D01*
X31861715Y30807465D01*
X31873058Y30837890D01*
X31872667Y30838085D01*
X31933206Y30959243D01*
X31934113Y30964692D01*
X31934114Y30964695D01*
X31947499Y31045111D01*
X31955444Y31092845D01*
X31955500Y31100000D01*
X31935364Y31233935D01*
X31926421Y31252560D01*
X31879129Y31351044D01*
X31879128Y31351045D01*
X31876735Y31356029D01*
X31873977Y31359012D01*
X31861715Y31407465D01*
X31873058Y31437890D01*
X31872667Y31438085D01*
X31874495Y31441744D01*
X31933206Y31559243D01*
X31934113Y31564692D01*
X31934114Y31564695D01*
X31954967Y31689981D01*
X31955444Y31692845D01*
X31955500Y31700000D01*
X31953874Y31710819D01*
X31943995Y31776528D01*
X31935364Y31833935D01*
X31876735Y31956029D01*
X31872982Y31960089D01*
X31872980Y31960092D01*
X31839955Y31995819D01*
X35299044Y31995819D01*
X35337851Y31866058D01*
X35340924Y31861459D01*
X35404891Y31765726D01*
X35413098Y31753443D01*
X35518132Y31667932D01*
X35523261Y31665854D01*
X35523262Y31665854D01*
X35638538Y31619163D01*
X35643666Y31617086D01*
X35703730Y31611884D01*
X35773089Y31605876D01*
X35773092Y31605876D01*
X35778601Y31605399D01*
X35911008Y31633905D01*
X35932716Y31646062D01*
X36024357Y31697383D01*
X36024360Y31697385D01*
X36029179Y31700084D01*
X36091678Y31765600D01*
X36118849Y31794082D01*
X36118851Y31794085D01*
X36122667Y31798085D01*
X36183206Y31919243D01*
X36184113Y31924692D01*
X36184114Y31924695D01*
X36204967Y32049981D01*
X36205444Y32052845D01*
X36205500Y32060000D01*
X36200654Y32092237D01*
X36193092Y32142533D01*
X36185364Y32193935D01*
X36173074Y32219530D01*
X36129129Y32311043D01*
X36126735Y32316029D01*
X36122982Y32320089D01*
X36122980Y32320092D01*
X36038553Y32411424D01*
X36038552Y32411424D01*
X36034798Y32415486D01*
X35917681Y32483513D01*
X35912294Y32484762D01*
X35912293Y32484762D01*
X35883037Y32491543D01*
X35840608Y32519149D01*
X35825851Y32567569D01*
X35845670Y32614147D01*
X35884171Y32635974D01*
X35915597Y32642740D01*
X35921008Y32643905D01*
X35925835Y32646608D01*
X36034357Y32707383D01*
X36034360Y32707385D01*
X36039179Y32710084D01*
X36054942Y32726608D01*
X36128849Y32804082D01*
X36128851Y32804085D01*
X36132667Y32808085D01*
X36193206Y32929243D01*
X36194113Y32934692D01*
X36194114Y32934695D01*
X36214967Y33059981D01*
X36215444Y33062845D01*
X36215500Y33070000D01*
X36195364Y33203935D01*
X36136735Y33326029D01*
X36132982Y33330089D01*
X36132980Y33330092D01*
X36048553Y33421424D01*
X36048552Y33421424D01*
X36044798Y33425486D01*
X35927681Y33493513D01*
X35922294Y33494762D01*
X35922293Y33494762D01*
X35801127Y33522847D01*
X35801126Y33522847D01*
X35795738Y33524096D01*
X35716481Y33518484D01*
X35666156Y33514921D01*
X35666155Y33514921D01*
X35660636Y33514530D01*
X35655474Y33512533D01*
X35626759Y33501424D01*
X35534319Y33465662D01*
X35529972Y33462235D01*
X35432299Y33385236D01*
X35432297Y33385234D01*
X35427955Y33381811D01*
X35424811Y33377262D01*
X35424810Y33377261D01*
X35390892Y33328186D01*
X35350948Y33270392D01*
X35349282Y33265124D01*
X35349281Y33265122D01*
X35328201Y33198466D01*
X35310108Y33141256D01*
X35309044Y33005819D01*
X35347851Y32876058D01*
X35350924Y32871459D01*
X35409114Y32784372D01*
X35423098Y32763443D01*
X35528132Y32677932D01*
X35533261Y32675854D01*
X35533262Y32675854D01*
X35633714Y32635167D01*
X35671301Y32601264D01*
X35678302Y32551131D01*
X35651441Y32508228D01*
X35632634Y32497566D01*
X35524319Y32455662D01*
X35519972Y32452235D01*
X35422299Y32375236D01*
X35422297Y32375234D01*
X35417955Y32371811D01*
X35414811Y32367262D01*
X35414810Y32367261D01*
X35379401Y32316029D01*
X35340948Y32260392D01*
X35339282Y32255124D01*
X35339281Y32255122D01*
X35303674Y32142533D01*
X35300108Y32131256D01*
X35299759Y32086811D01*
X35299140Y32007976D01*
X35299044Y31995819D01*
X31839955Y31995819D01*
X31788553Y32051424D01*
X31788552Y32051424D01*
X31784798Y32055486D01*
X31667681Y32123513D01*
X31662294Y32124762D01*
X31662293Y32124762D01*
X31541127Y32152847D01*
X31541126Y32152847D01*
X31535738Y32154096D01*
X31456481Y32148484D01*
X31406156Y32144921D01*
X31406155Y32144921D01*
X31400636Y32144530D01*
X31274319Y32095662D01*
X31246491Y32073724D01*
X31198420Y32057874D01*
X31163512Y32067850D01*
X31121530Y32092235D01*
X31067681Y32123513D01*
X31062294Y32124762D01*
X31062293Y32124762D01*
X30941127Y32152847D01*
X30941126Y32152847D01*
X30935738Y32154096D01*
X30856481Y32148484D01*
X30806156Y32144921D01*
X30806155Y32144921D01*
X30800636Y32144530D01*
X30674319Y32095662D01*
X30646491Y32073724D01*
X30598420Y32057874D01*
X30563512Y32067850D01*
X30521530Y32092235D01*
X30467681Y32123513D01*
X30462294Y32124762D01*
X30462293Y32124762D01*
X30341127Y32152847D01*
X30341126Y32152847D01*
X30335738Y32154096D01*
X30256481Y32148484D01*
X30206156Y32144921D01*
X30206155Y32144921D01*
X30200636Y32144530D01*
X30074319Y32095662D01*
X30046491Y32073724D01*
X29998420Y32057874D01*
X29963512Y32067850D01*
X29921530Y32092235D01*
X29867681Y32123513D01*
X29862294Y32124762D01*
X29862293Y32124762D01*
X29741127Y32152847D01*
X29741126Y32152847D01*
X29735738Y32154096D01*
X29656481Y32148484D01*
X29606156Y32144921D01*
X29606155Y32144921D01*
X29600636Y32144530D01*
X29474319Y32095662D01*
X29469972Y32092235D01*
X29372299Y32015236D01*
X29372297Y32015234D01*
X29367955Y32011811D01*
X29364811Y32007262D01*
X29364810Y32007261D01*
X29329401Y31956029D01*
X29290948Y31900392D01*
X29289282Y31895124D01*
X29289281Y31895122D01*
X29260158Y31803035D01*
X29250108Y31771256D01*
X29249044Y31635819D01*
X26000001Y31635819D01*
X26000001Y34500000D01*
X25500001Y35000000D01*
X1881552Y35000000D01*
X1867116Y35001422D01*
X1810869Y35012610D01*
X1773896Y35019964D01*
X1747221Y35031013D01*
X1668193Y35083818D01*
X1656979Y35093021D01*
X1593021Y35156979D01*
X1583818Y35168193D01*
X1531013Y35247221D01*
X1519964Y35273897D01*
X1501422Y35367116D01*
X1500000Y35381552D01*
X1500000Y37635819D01*
X3789044Y37635819D01*
X3827851Y37506058D01*
X3830924Y37501459D01*
X3892541Y37409243D01*
X3903098Y37393443D01*
X4008132Y37307932D01*
X4133666Y37257086D01*
X4193730Y37251884D01*
X4263089Y37245876D01*
X4263092Y37245876D01*
X4268601Y37245399D01*
X4401008Y37273905D01*
X4405835Y37276608D01*
X4514357Y37337383D01*
X4514360Y37337385D01*
X4519179Y37340084D01*
X4530030Y37351459D01*
X4608849Y37434082D01*
X4608851Y37434085D01*
X4612667Y37438085D01*
X4673206Y37559243D01*
X4674113Y37564692D01*
X4674114Y37564695D01*
X4694967Y37689981D01*
X4695444Y37692845D01*
X4695500Y37700000D01*
X4675364Y37833935D01*
X4660334Y37865236D01*
X4641267Y37904941D01*
X4616735Y37956029D01*
X4612982Y37960089D01*
X4612980Y37960092D01*
X4528553Y38051424D01*
X4528552Y38051424D01*
X4524798Y38055486D01*
X4407681Y38123513D01*
X4402294Y38124762D01*
X4402293Y38124762D01*
X4281127Y38152847D01*
X4281126Y38152847D01*
X4275738Y38154096D01*
X4196481Y38148484D01*
X4146156Y38144921D01*
X4146155Y38144921D01*
X4140636Y38144530D01*
X4014319Y38095662D01*
X4009972Y38092235D01*
X3912299Y38015236D01*
X3912297Y38015234D01*
X3907955Y38011811D01*
X3904811Y38007262D01*
X3904810Y38007261D01*
X3869401Y37956029D01*
X3830948Y37900392D01*
X3829282Y37895124D01*
X3829281Y37895122D01*
X3808201Y37828466D01*
X3790108Y37771256D01*
X3789044Y37635819D01*
X1500000Y37635819D01*
X1500000Y40575819D01*
X35309044Y40575819D01*
X35347851Y40446058D01*
X35350924Y40441459D01*
X35418661Y40340084D01*
X35423098Y40333443D01*
X35528132Y40247932D01*
X35533261Y40245854D01*
X35533262Y40245854D01*
X35605468Y40216608D01*
X35653666Y40197086D01*
X35713730Y40191884D01*
X35783089Y40185876D01*
X35783092Y40185876D01*
X35788601Y40185399D01*
X35921008Y40213905D01*
X35977245Y40245399D01*
X36034357Y40277383D01*
X36034360Y40277385D01*
X36039179Y40280084D01*
X36042994Y40284083D01*
X36128849Y40374082D01*
X36128851Y40374085D01*
X36132667Y40378085D01*
X36193206Y40499243D01*
X36194113Y40504692D01*
X36194114Y40504695D01*
X36214967Y40629981D01*
X36215444Y40632845D01*
X36215468Y40635819D01*
X36215477Y40637099D01*
X36215500Y40640000D01*
X36195364Y40773935D01*
X36136735Y40896029D01*
X36132982Y40900089D01*
X36132980Y40900092D01*
X36048553Y40991424D01*
X36048552Y40991424D01*
X36044798Y40995486D01*
X35927681Y41063513D01*
X35922294Y41064762D01*
X35922293Y41064762D01*
X35801127Y41092847D01*
X35801126Y41092847D01*
X35795738Y41094096D01*
X35716481Y41088484D01*
X35666156Y41084921D01*
X35666155Y41084921D01*
X35660636Y41084530D01*
X35534319Y41035662D01*
X35529972Y41032235D01*
X35432299Y40955236D01*
X35432297Y40955234D01*
X35427955Y40951811D01*
X35424811Y40947262D01*
X35424810Y40947261D01*
X35385955Y40891043D01*
X35350948Y40840392D01*
X35349282Y40835124D01*
X35349281Y40835122D01*
X35329083Y40771256D01*
X35310108Y40711256D01*
X35309044Y40575819D01*
X1500000Y40575819D01*
X1500000Y42368448D01*
X1501422Y42382884D01*
X1519964Y42476103D01*
X1531013Y42502779D01*
X1583818Y42581807D01*
X1593021Y42593021D01*
X3692024Y44692023D01*
X3721053Y44709934D01*
X3889454Y44765791D01*
X3901116Y44769659D01*
X3903228Y44770673D01*
X3903235Y44770676D01*
X4166565Y44897126D01*
X4177209Y44902237D01*
X4179185Y44903518D01*
X4179189Y44903520D01*
X4417358Y45057894D01*
X4434219Y45068823D01*
X4667978Y45266714D01*
X4874697Y45492705D01*
X5017713Y45695819D01*
X10419044Y45695819D01*
X10457851Y45566058D01*
X10460924Y45561459D01*
X10512626Y45484082D01*
X10533098Y45453443D01*
X10638132Y45367932D01*
X10643261Y45365854D01*
X10643262Y45365854D01*
X10749707Y45322740D01*
X10763666Y45317086D01*
X10823730Y45311884D01*
X10893089Y45305876D01*
X10893092Y45305876D01*
X10898601Y45305399D01*
X11031008Y45333905D01*
X11070201Y45355854D01*
X11144357Y45397383D01*
X11144360Y45397385D01*
X11149179Y45400084D01*
X11152994Y45404083D01*
X11238849Y45494082D01*
X11238851Y45494085D01*
X11242667Y45498085D01*
X11303206Y45619243D01*
X11304113Y45624692D01*
X11304114Y45624695D01*
X11314287Y45685819D01*
X18049044Y45685819D01*
X18087851Y45556058D01*
X18090924Y45551459D01*
X18153343Y45458043D01*
X18163098Y45443443D01*
X18268132Y45357932D01*
X18273261Y45355854D01*
X18273262Y45355854D01*
X18388538Y45309163D01*
X18393666Y45307086D01*
X18453730Y45301884D01*
X18523089Y45295876D01*
X18523092Y45295876D01*
X18528601Y45295399D01*
X18661008Y45323905D01*
X18665835Y45326608D01*
X18774357Y45387383D01*
X18774360Y45387385D01*
X18779179Y45390084D01*
X18786142Y45397383D01*
X18868849Y45484082D01*
X18868851Y45484085D01*
X18872667Y45488085D01*
X18933206Y45609243D01*
X18934113Y45614692D01*
X18934114Y45614695D01*
X18945952Y45685819D01*
X25674044Y45685819D01*
X25712851Y45556058D01*
X25715924Y45551459D01*
X25778343Y45458043D01*
X25788098Y45443443D01*
X25893132Y45357932D01*
X25898261Y45355854D01*
X25898262Y45355854D01*
X26013538Y45309163D01*
X26018666Y45307086D01*
X26078730Y45301884D01*
X26148089Y45295876D01*
X26148092Y45295876D01*
X26153601Y45295399D01*
X26286008Y45323905D01*
X26290835Y45326608D01*
X26399357Y45387383D01*
X26399360Y45387385D01*
X26404179Y45390084D01*
X26411142Y45397383D01*
X26493849Y45484082D01*
X26493851Y45484085D01*
X26497667Y45488085D01*
X26558206Y45609243D01*
X26559113Y45614692D01*
X26559114Y45614695D01*
X26573537Y45701347D01*
X26580444Y45742845D01*
X26580500Y45750000D01*
X26578566Y45762868D01*
X26561186Y45878466D01*
X26560364Y45883935D01*
X26501735Y46006029D01*
X26497982Y46010089D01*
X26497980Y46010092D01*
X26413553Y46101424D01*
X26413552Y46101424D01*
X26409798Y46105486D01*
X26292681Y46173513D01*
X26287294Y46174762D01*
X26287293Y46174762D01*
X26166127Y46202847D01*
X26166126Y46202847D01*
X26160738Y46204096D01*
X26081481Y46198484D01*
X26031156Y46194921D01*
X26031155Y46194921D01*
X26025636Y46194530D01*
X25899319Y46145662D01*
X25894972Y46142235D01*
X25797299Y46065236D01*
X25797297Y46065234D01*
X25792955Y46061811D01*
X25789811Y46057262D01*
X25789810Y46057261D01*
X25722859Y45960392D01*
X25715948Y45950392D01*
X25714282Y45945124D01*
X25714281Y45945122D01*
X25676775Y45826528D01*
X25675108Y45821256D01*
X25675065Y45815726D01*
X25674123Y45695819D01*
X25674044Y45685819D01*
X18945952Y45685819D01*
X18948537Y45701347D01*
X18955444Y45742845D01*
X18955500Y45750000D01*
X18953566Y45762868D01*
X18936186Y45878466D01*
X18935364Y45883935D01*
X18876735Y46006029D01*
X18872982Y46010089D01*
X18872980Y46010092D01*
X18788553Y46101424D01*
X18788552Y46101424D01*
X18784798Y46105486D01*
X18667681Y46173513D01*
X18662294Y46174762D01*
X18662293Y46174762D01*
X18541127Y46202847D01*
X18541126Y46202847D01*
X18535738Y46204096D01*
X18456481Y46198484D01*
X18406156Y46194921D01*
X18406155Y46194921D01*
X18400636Y46194530D01*
X18274319Y46145662D01*
X18269972Y46142235D01*
X18172299Y46065236D01*
X18172297Y46065234D01*
X18167955Y46061811D01*
X18164811Y46057262D01*
X18164810Y46057261D01*
X18097859Y45960392D01*
X18090948Y45950392D01*
X18089282Y45945124D01*
X18089281Y45945122D01*
X18051775Y45826528D01*
X18050108Y45821256D01*
X18050065Y45815726D01*
X18049123Y45695819D01*
X18049044Y45685819D01*
X11314287Y45685819D01*
X11322636Y45735978D01*
X11325444Y45752845D01*
X11325500Y45760000D01*
X11305364Y45893935D01*
X11246735Y46016029D01*
X11242982Y46020089D01*
X11242980Y46020092D01*
X11158553Y46111424D01*
X11158552Y46111424D01*
X11154798Y46115486D01*
X11037681Y46183513D01*
X11032294Y46184762D01*
X11032293Y46184762D01*
X10911127Y46212847D01*
X10911126Y46212847D01*
X10905738Y46214096D01*
X10826481Y46208484D01*
X10776156Y46204921D01*
X10776155Y46204921D01*
X10770636Y46204530D01*
X10644319Y46155662D01*
X10639972Y46152235D01*
X10542299Y46075236D01*
X10542297Y46075234D01*
X10537955Y46071811D01*
X10534811Y46067262D01*
X10534810Y46067261D01*
X10499477Y46016138D01*
X10460948Y45960392D01*
X10459282Y45955124D01*
X10459281Y45955122D01*
X10438345Y45888921D01*
X10420108Y45831256D01*
X10419986Y45815726D01*
X10419401Y45741204D01*
X10419044Y45695819D01*
X5017713Y45695819D01*
X5045990Y45735978D01*
X5049670Y45741204D01*
X5049671Y45741205D01*
X5051026Y45743130D01*
X5052410Y45745748D01*
X5187296Y46001043D01*
X5194105Y46013930D01*
X5215804Y46071811D01*
X5253929Y46173513D01*
X5296526Y46287140D01*
X5313490Y46313489D01*
X7406980Y48406979D01*
X7418194Y48416182D01*
X7452119Y48438850D01*
X7497223Y48468987D01*
X7523897Y48480036D01*
X7560870Y48487390D01*
X7617117Y48498578D01*
X7631553Y48500000D01*
X10353250Y48500000D01*
X10400816Y48482687D01*
G37*
G04 #@! TD.AperFunction*
G04 #@! TD*
G04 #@! TA.AperFunction,Conductor*
G04 #@! TO.N,3.3V*
G36*
X25132885Y34498578D02*
G01*
X25189132Y34487390D01*
X25226105Y34480036D01*
X25252780Y34468987D01*
X25331808Y34416182D01*
X25343022Y34406979D01*
X25406980Y34343021D01*
X25416183Y34331807D01*
X25468988Y34252779D01*
X25480037Y34226103D01*
X25498579Y34132884D01*
X25500001Y34118448D01*
X25500001Y23799449D01*
X25482688Y23751883D01*
X25438851Y23726573D01*
X25431227Y23725634D01*
X25421156Y23724921D01*
X25421155Y23724921D01*
X25415635Y23724530D01*
X25289318Y23675662D01*
X25284971Y23672235D01*
X25187298Y23595236D01*
X25187296Y23595234D01*
X25182954Y23591811D01*
X25179810Y23587262D01*
X25179809Y23587261D01*
X25115418Y23494096D01*
X25105947Y23480392D01*
X25104281Y23475124D01*
X25104280Y23475122D01*
X25066774Y23356528D01*
X25065107Y23351256D01*
X25064605Y23287346D01*
X25064122Y23225819D01*
X25064043Y23215819D01*
X25102850Y23086058D01*
X25105923Y23081459D01*
X25172816Y22981347D01*
X25178097Y22973443D01*
X25283131Y22887932D01*
X25288260Y22885854D01*
X25288261Y22885854D01*
X25403536Y22839163D01*
X25403539Y22839162D01*
X25408665Y22837086D01*
X25423536Y22835798D01*
X25432388Y22835031D01*
X25478282Y22813678D01*
X25499714Y22767819D01*
X25500001Y22761307D01*
X25500001Y21381552D01*
X25498579Y21367116D01*
X25480037Y21273897D01*
X25468988Y21247222D01*
X25423351Y21178921D01*
X25416183Y21168193D01*
X25406980Y21156979D01*
X25343022Y21093021D01*
X25331809Y21083819D01*
X25278013Y21047873D01*
X25252780Y21031013D01*
X25226105Y21019964D01*
X25194069Y21013592D01*
X25132885Y21001422D01*
X25118449Y21000000D01*
X22000000Y21000000D01*
X21500000Y20500000D01*
X21500000Y17114204D01*
X21482687Y17066638D01*
X21438850Y17041328D01*
X21389000Y17050118D01*
X21371660Y17063973D01*
X21318553Y17121424D01*
X21318552Y17121424D01*
X21314798Y17125486D01*
X21197681Y17193513D01*
X21192294Y17194762D01*
X21192293Y17194762D01*
X21071127Y17222847D01*
X21071126Y17222847D01*
X21065738Y17224096D01*
X20986481Y17218484D01*
X20936156Y17214921D01*
X20936155Y17214921D01*
X20930636Y17214530D01*
X20804319Y17165662D01*
X20799972Y17162235D01*
X20702299Y17085236D01*
X20702297Y17085234D01*
X20697955Y17081811D01*
X20694811Y17077262D01*
X20694810Y17077261D01*
X20680136Y17056029D01*
X20620948Y16970392D01*
X20619282Y16965124D01*
X20619281Y16965122D01*
X20597873Y16897429D01*
X20580108Y16841256D01*
X20579044Y16705819D01*
X20617851Y16576058D01*
X20620924Y16571459D01*
X20668760Y16499868D01*
X20693098Y16463443D01*
X20697387Y16459951D01*
X20697389Y16459949D01*
X20737203Y16427535D01*
X20763159Y16384078D01*
X20755109Y16334103D01*
X20736295Y16312036D01*
X20702299Y16285236D01*
X20702297Y16285234D01*
X20697955Y16281811D01*
X20694811Y16277262D01*
X20694810Y16277261D01*
X20639406Y16197099D01*
X20620948Y16170392D01*
X20619282Y16165124D01*
X20619281Y16165122D01*
X20585796Y16059243D01*
X20580108Y16041256D01*
X20579044Y15905819D01*
X20617851Y15776058D01*
X20620924Y15771459D01*
X20669418Y15698883D01*
X20693098Y15663443D01*
X20798132Y15577932D01*
X20803261Y15575854D01*
X20803262Y15575854D01*
X20833257Y15563705D01*
X20923666Y15527086D01*
X20983730Y15521884D01*
X21053089Y15515876D01*
X21053092Y15515876D01*
X21058601Y15515399D01*
X21191008Y15543905D01*
X21195835Y15546608D01*
X21304357Y15607383D01*
X21304360Y15607385D01*
X21309179Y15610084D01*
X21312993Y15614082D01*
X21312998Y15614086D01*
X21372456Y15676415D01*
X21417815Y15698883D01*
X21467004Y15686938D01*
X21497007Y15646169D01*
X21500000Y15625337D01*
X21500000Y14381552D01*
X21498578Y14367116D01*
X21480036Y14273897D01*
X21468987Y14247222D01*
X21416182Y14168193D01*
X21406979Y14156979D01*
X21343021Y14093021D01*
X21331808Y14083819D01*
X21272340Y14044083D01*
X21252779Y14031013D01*
X21226104Y14019964D01*
X21189131Y14012610D01*
X21132884Y14001422D01*
X21118448Y14000000D01*
X14500000Y14000000D01*
X14000000Y13500000D01*
X14000000Y1881552D01*
X13998578Y1867116D01*
X13980036Y1773897D01*
X13968987Y1747221D01*
X13916182Y1668193D01*
X13906979Y1656979D01*
X13843021Y1593021D01*
X13831807Y1583818D01*
X13752779Y1531013D01*
X13726104Y1519964D01*
X13689131Y1512610D01*
X13632884Y1501422D01*
X13618448Y1500000D01*
X7631552Y1500000D01*
X7617116Y1501422D01*
X7560869Y1512610D01*
X7523896Y1519964D01*
X7497221Y1531013D01*
X7418193Y1583818D01*
X7406979Y1593021D01*
X5307882Y3692118D01*
X5289930Y3721270D01*
X5232649Y3894982D01*
X5232647Y3894987D01*
X5231910Y3897222D01*
X5099814Y4173546D01*
X5091890Y4185819D01*
X9049044Y4185819D01*
X9087851Y4056058D01*
X9090924Y4051459D01*
X9129962Y3993035D01*
X9163098Y3943443D01*
X9268132Y3857932D01*
X9393666Y3807086D01*
X9453730Y3801884D01*
X9523089Y3795876D01*
X9523092Y3795876D01*
X9528601Y3795399D01*
X9661008Y3823905D01*
X9665835Y3826608D01*
X9774357Y3887383D01*
X9774360Y3887385D01*
X9779179Y3890084D01*
X9782994Y3894083D01*
X9868849Y3984082D01*
X9868851Y3984085D01*
X9872667Y3988085D01*
X9933206Y4109243D01*
X9933208Y4109255D01*
X9962894Y4147251D01*
X10012407Y4157775D01*
X10057101Y4134010D01*
X10073005Y4105698D01*
X10087851Y4056058D01*
X10090924Y4051459D01*
X10129962Y3993035D01*
X10163098Y3943443D01*
X10268132Y3857932D01*
X10393666Y3807086D01*
X10453730Y3801884D01*
X10523089Y3795876D01*
X10523092Y3795876D01*
X10528601Y3795399D01*
X10661008Y3823905D01*
X10665835Y3826608D01*
X10774357Y3887383D01*
X10774360Y3887385D01*
X10779179Y3890084D01*
X10782994Y3894083D01*
X10868849Y3984082D01*
X10868851Y3984085D01*
X10872667Y3988085D01*
X10933206Y4109243D01*
X10933208Y4109255D01*
X10962894Y4147251D01*
X11012407Y4157775D01*
X11057101Y4134010D01*
X11073005Y4105698D01*
X11087851Y4056058D01*
X11090924Y4051459D01*
X11129962Y3993035D01*
X11163098Y3943443D01*
X11268132Y3857932D01*
X11393666Y3807086D01*
X11453730Y3801884D01*
X11523089Y3795876D01*
X11523092Y3795876D01*
X11528601Y3795399D01*
X11661008Y3823905D01*
X11665835Y3826608D01*
X11774357Y3887383D01*
X11774360Y3887385D01*
X11779179Y3890084D01*
X11782994Y3894083D01*
X11868849Y3984082D01*
X11868851Y3984085D01*
X11872667Y3988085D01*
X11933206Y4109243D01*
X11934113Y4114692D01*
X11934114Y4114695D01*
X11954967Y4239981D01*
X11955444Y4242845D01*
X11955500Y4250000D01*
X11935364Y4383935D01*
X11876735Y4506029D01*
X11872982Y4510089D01*
X11872980Y4510092D01*
X11788553Y4601424D01*
X11788552Y4601424D01*
X11784798Y4605486D01*
X11667681Y4673513D01*
X11662294Y4674762D01*
X11662293Y4674762D01*
X11541127Y4702847D01*
X11541126Y4702847D01*
X11535738Y4704096D01*
X11456481Y4698484D01*
X11406156Y4694921D01*
X11406155Y4694921D01*
X11400636Y4694530D01*
X11274319Y4645662D01*
X11269972Y4642235D01*
X11172299Y4565236D01*
X11172297Y4565234D01*
X11167955Y4561811D01*
X11164811Y4557262D01*
X11164810Y4557261D01*
X11129401Y4506029D01*
X11090948Y4450392D01*
X11089282Y4445124D01*
X11089280Y4445120D01*
X11072814Y4393052D01*
X11041964Y4352920D01*
X10992536Y4342006D01*
X10947656Y4365418D01*
X10936689Y4384571D01*
X10935364Y4383935D01*
X10913787Y4428868D01*
X10876735Y4506029D01*
X10872982Y4510089D01*
X10872980Y4510092D01*
X10788553Y4601424D01*
X10788552Y4601424D01*
X10784798Y4605486D01*
X10667681Y4673513D01*
X10662294Y4674762D01*
X10662293Y4674762D01*
X10541127Y4702847D01*
X10541126Y4702847D01*
X10535738Y4704096D01*
X10456481Y4698484D01*
X10406156Y4694921D01*
X10406155Y4694921D01*
X10400636Y4694530D01*
X10274319Y4645662D01*
X10269972Y4642235D01*
X10172299Y4565236D01*
X10172297Y4565234D01*
X10167955Y4561811D01*
X10164811Y4557262D01*
X10164810Y4557261D01*
X10129401Y4506029D01*
X10090948Y4450392D01*
X10089282Y4445124D01*
X10089280Y4445120D01*
X10072814Y4393052D01*
X10041964Y4352920D01*
X9992536Y4342006D01*
X9947656Y4365418D01*
X9936689Y4384571D01*
X9935364Y4383935D01*
X9913787Y4428868D01*
X9876735Y4506029D01*
X9872982Y4510089D01*
X9872980Y4510092D01*
X9788553Y4601424D01*
X9788552Y4601424D01*
X9784798Y4605486D01*
X9667681Y4673513D01*
X9662294Y4674762D01*
X9662293Y4674762D01*
X9541127Y4702847D01*
X9541126Y4702847D01*
X9535738Y4704096D01*
X9456481Y4698484D01*
X9406156Y4694921D01*
X9406155Y4694921D01*
X9400636Y4694530D01*
X9274319Y4645662D01*
X9269972Y4642235D01*
X9172299Y4565236D01*
X9172297Y4565234D01*
X9167955Y4561811D01*
X9164811Y4557262D01*
X9164810Y4557261D01*
X9129401Y4506029D01*
X9090948Y4450392D01*
X9089282Y4445124D01*
X9089281Y4445122D01*
X9068201Y4378466D01*
X9050108Y4321256D01*
X9049044Y4185819D01*
X5091890Y4185819D01*
X4933678Y4430846D01*
X4827038Y4557261D01*
X4737716Y4663146D01*
X4737714Y4663148D01*
X4736194Y4664950D01*
X4734461Y4666541D01*
X4734455Y4666547D01*
X4599738Y4790208D01*
X4510565Y4872064D01*
X4260448Y5048829D01*
X4258375Y5049929D01*
X4258370Y5049932D01*
X3991975Y5191279D01*
X3991974Y5191279D01*
X3989898Y5192381D01*
X3712315Y5296993D01*
X3686087Y5313913D01*
X1593021Y7406979D01*
X1583818Y7418193D01*
X1531013Y7497221D01*
X1519964Y7523897D01*
X1501422Y7617116D01*
X1500000Y7631552D01*
X1500000Y10315819D01*
X9359044Y10315819D01*
X9397851Y10186058D01*
X9400924Y10181459D01*
X9439962Y10123035D01*
X9473098Y10073443D01*
X9578132Y9987932D01*
X9703666Y9937086D01*
X9763730Y9931884D01*
X9833089Y9925876D01*
X9833092Y9925876D01*
X9838601Y9925399D01*
X9971008Y9953905D01*
X9975835Y9956608D01*
X10084357Y10017383D01*
X10084360Y10017385D01*
X10089179Y10020084D01*
X10144469Y10078043D01*
X10178849Y10114082D01*
X10178851Y10114085D01*
X10182667Y10118085D01*
X10243206Y10239243D01*
X10244113Y10244692D01*
X10244114Y10244695D01*
X10264967Y10369981D01*
X10265444Y10372845D01*
X10265500Y10380000D01*
X10245364Y10513935D01*
X10186735Y10636029D01*
X10182982Y10640089D01*
X10182980Y10640092D01*
X10098553Y10731424D01*
X10098552Y10731424D01*
X10094798Y10735486D01*
X9977681Y10803513D01*
X9972294Y10804762D01*
X9972293Y10804762D01*
X9851127Y10832847D01*
X9851126Y10832847D01*
X9845738Y10834096D01*
X9766481Y10828484D01*
X9716156Y10824921D01*
X9716155Y10824921D01*
X9710636Y10824530D01*
X9584319Y10775662D01*
X9579972Y10772235D01*
X9482299Y10695236D01*
X9482297Y10695234D01*
X9477955Y10691811D01*
X9474811Y10687262D01*
X9474810Y10687261D01*
X9439401Y10636029D01*
X9400948Y10580392D01*
X9399282Y10575124D01*
X9399281Y10575122D01*
X9378201Y10508466D01*
X9360108Y10451256D01*
X9359044Y10315819D01*
X1500000Y10315819D01*
X1500000Y10886550D01*
X1517313Y10934116D01*
X1561150Y10959426D01*
X1590069Y10958543D01*
X1593666Y10957086D01*
X1644318Y10952699D01*
X1723089Y10945876D01*
X1723092Y10945876D01*
X1728601Y10945399D01*
X1861008Y10973905D01*
X1964605Y11031922D01*
X2014565Y11040058D01*
X2047483Y11024743D01*
X2068132Y11007932D01*
X2193666Y10957086D01*
X2253730Y10951884D01*
X2323089Y10945876D01*
X2323092Y10945876D01*
X2328601Y10945399D01*
X2461008Y10973905D01*
X2564605Y11031922D01*
X2614565Y11040058D01*
X2647483Y11024743D01*
X2668132Y11007932D01*
X2793666Y10957086D01*
X2853730Y10951884D01*
X2923089Y10945876D01*
X2923092Y10945876D01*
X2928601Y10945399D01*
X3061008Y10973905D01*
X3164605Y11031922D01*
X3214565Y11040058D01*
X3247483Y11024743D01*
X3268132Y11007932D01*
X3393666Y10957086D01*
X3453730Y10951884D01*
X3523089Y10945876D01*
X3523092Y10945876D01*
X3528601Y10945399D01*
X3661008Y10973905D01*
X3764605Y11031922D01*
X3814565Y11040058D01*
X3847483Y11024743D01*
X3868132Y11007932D01*
X3993666Y10957086D01*
X4053730Y10951884D01*
X4123089Y10945876D01*
X4123092Y10945876D01*
X4128601Y10945399D01*
X4261008Y10973905D01*
X4364605Y11031922D01*
X4414565Y11040058D01*
X4447483Y11024743D01*
X4468132Y11007932D01*
X4593666Y10957086D01*
X4653730Y10951884D01*
X4723089Y10945876D01*
X4723092Y10945876D01*
X4728601Y10945399D01*
X4861008Y10973905D01*
X4865835Y10976608D01*
X4974357Y11037383D01*
X4974360Y11037385D01*
X4979179Y11040084D01*
X4982994Y11044083D01*
X5068849Y11134082D01*
X5068851Y11134085D01*
X5072667Y11138085D01*
X5133206Y11259243D01*
X5134113Y11264692D01*
X5134114Y11264695D01*
X5154967Y11389981D01*
X5155444Y11392845D01*
X5155500Y11400000D01*
X5135364Y11533935D01*
X5076735Y11656029D01*
X5073977Y11659012D01*
X5061715Y11707465D01*
X5073058Y11737890D01*
X5072667Y11738085D01*
X5074495Y11741744D01*
X5133206Y11859243D01*
X5134113Y11864692D01*
X5134114Y11864695D01*
X5154967Y11989981D01*
X5155444Y11992845D01*
X5155500Y12000000D01*
X5154111Y12009243D01*
X5142598Y12085819D01*
X8289044Y12085819D01*
X8327851Y11956058D01*
X8330924Y11951459D01*
X8397291Y11852134D01*
X8403098Y11843443D01*
X8508132Y11757932D01*
X8513261Y11755854D01*
X8513262Y11755854D01*
X8557132Y11738085D01*
X8633666Y11707086D01*
X8693730Y11701884D01*
X8763089Y11695876D01*
X8763092Y11695876D01*
X8768601Y11695399D01*
X8901008Y11723905D01*
X8905835Y11726608D01*
X9014357Y11787383D01*
X9014360Y11787385D01*
X9019179Y11790084D01*
X9022994Y11794083D01*
X9022998Y11794086D01*
X9084550Y11858610D01*
X9129909Y11881078D01*
X9179099Y11869133D01*
X9196210Y11852051D01*
X9196302Y11852134D01*
X9198037Y11850228D01*
X9199622Y11848645D01*
X9203098Y11843443D01*
X9308132Y11757932D01*
X9313261Y11755854D01*
X9313262Y11755854D01*
X9357132Y11738085D01*
X9433666Y11707086D01*
X9493730Y11701884D01*
X9563089Y11695876D01*
X9563092Y11695876D01*
X9568601Y11695399D01*
X9701008Y11723905D01*
X9705835Y11726608D01*
X9814357Y11787383D01*
X9814360Y11787385D01*
X9819179Y11790084D01*
X9870081Y11843443D01*
X9908849Y11884082D01*
X9908851Y11884085D01*
X9912667Y11888085D01*
X9973206Y12009243D01*
X9988626Y12101881D01*
X10013513Y12145958D01*
X10046046Y12162072D01*
X10095597Y12172740D01*
X10101008Y12173905D01*
X10105835Y12176608D01*
X10214357Y12237383D01*
X10214360Y12237385D01*
X10219179Y12240084D01*
X10276210Y12299868D01*
X10308849Y12334082D01*
X10308851Y12334085D01*
X10312667Y12338085D01*
X10373206Y12459243D01*
X10374113Y12464692D01*
X10374114Y12464695D01*
X10394967Y12589981D01*
X10395444Y12592845D01*
X10395500Y12600000D01*
X10375364Y12733935D01*
X10316735Y12856029D01*
X10312982Y12860089D01*
X10312980Y12860092D01*
X10228553Y12951424D01*
X10228552Y12951424D01*
X10224798Y12955486D01*
X10107681Y13023513D01*
X10102294Y13024762D01*
X10102293Y13024762D01*
X9981127Y13052847D01*
X9981126Y13052847D01*
X9975738Y13054096D01*
X9896481Y13048484D01*
X9846156Y13044921D01*
X9846155Y13044921D01*
X9840636Y13044530D01*
X9714319Y12995662D01*
X9709972Y12992235D01*
X9612299Y12915236D01*
X9612297Y12915234D01*
X9607955Y12911811D01*
X9604811Y12907262D01*
X9604810Y12907261D01*
X9599386Y12899413D01*
X9558099Y12870127D01*
X9507647Y12874231D01*
X9484173Y12891255D01*
X9424798Y12955486D01*
X9307681Y13023513D01*
X9302294Y13024762D01*
X9302293Y13024762D01*
X9181127Y13052847D01*
X9181126Y13052847D01*
X9175738Y13054096D01*
X9096481Y13048484D01*
X9046156Y13044921D01*
X9046155Y13044921D01*
X9040636Y13044530D01*
X8914319Y12995662D01*
X8909972Y12992235D01*
X8812299Y12915236D01*
X8812297Y12915234D01*
X8807955Y12911811D01*
X8804811Y12907262D01*
X8804810Y12907261D01*
X8771508Y12859077D01*
X8730948Y12800392D01*
X8729282Y12795124D01*
X8729281Y12795122D01*
X8697157Y12693546D01*
X8690108Y12671256D01*
X8690065Y12665729D01*
X8690047Y12663440D01*
X8689448Y12661833D01*
X8689199Y12660262D01*
X8688881Y12660312D01*
X8672364Y12616010D01*
X8639895Y12596445D01*
X8640636Y12594530D01*
X8514319Y12545662D01*
X8509972Y12542235D01*
X8412299Y12465236D01*
X8412297Y12465234D01*
X8407955Y12461811D01*
X8404811Y12457262D01*
X8404810Y12457261D01*
X8334092Y12354941D01*
X8330948Y12350392D01*
X8329282Y12345124D01*
X8329281Y12345122D01*
X8297327Y12244083D01*
X8290108Y12221256D01*
X8289757Y12176608D01*
X8289265Y12113893D01*
X8289044Y12085819D01*
X5142598Y12085819D01*
X5136186Y12128466D01*
X5135364Y12133935D01*
X5131086Y12142845D01*
X5079129Y12251044D01*
X5079128Y12251045D01*
X5076735Y12256029D01*
X5073977Y12259012D01*
X5061715Y12307465D01*
X5073058Y12337890D01*
X5072667Y12338085D01*
X5074495Y12341744D01*
X5078817Y12350392D01*
X5084807Y12362382D01*
X5133206Y12459243D01*
X5134113Y12464692D01*
X5134114Y12464695D01*
X5154967Y12589981D01*
X5155444Y12592845D01*
X5155500Y12600000D01*
X5153094Y12616010D01*
X5137439Y12720136D01*
X5147488Y12769747D01*
X5187076Y12801293D01*
X5238397Y12799724D01*
X5343666Y12757086D01*
X5403730Y12751884D01*
X5473089Y12745876D01*
X5473092Y12745876D01*
X5478601Y12745399D01*
X5611008Y12773905D01*
X5648894Y12795122D01*
X5724357Y12837383D01*
X5724360Y12837385D01*
X5729179Y12840084D01*
X5732998Y12844087D01*
X5747299Y12859077D01*
X5792659Y12881544D01*
X5841848Y12869598D01*
X5847561Y12865386D01*
X5918132Y12807932D01*
X5923261Y12805854D01*
X5923262Y12805854D01*
X5995468Y12776608D01*
X6043666Y12757086D01*
X6103730Y12751884D01*
X6173089Y12745876D01*
X6173092Y12745876D01*
X6178601Y12745399D01*
X6311008Y12773905D01*
X6348894Y12795122D01*
X6424357Y12837383D01*
X6424360Y12837385D01*
X6429179Y12840084D01*
X6432998Y12844087D01*
X6447299Y12859077D01*
X6492659Y12881544D01*
X6541848Y12869598D01*
X6547561Y12865386D01*
X6618132Y12807932D01*
X6623261Y12805854D01*
X6623262Y12805854D01*
X6695468Y12776608D01*
X6743666Y12757086D01*
X6803730Y12751884D01*
X6873089Y12745876D01*
X6873092Y12745876D01*
X6878601Y12745399D01*
X7011008Y12773905D01*
X7048894Y12795122D01*
X7124357Y12837383D01*
X7124360Y12837385D01*
X7129179Y12840084D01*
X7132998Y12844087D01*
X7147299Y12859077D01*
X7192659Y12881544D01*
X7241848Y12869598D01*
X7247561Y12865386D01*
X7318132Y12807932D01*
X7323261Y12805854D01*
X7323262Y12805854D01*
X7395468Y12776608D01*
X7443666Y12757086D01*
X7503730Y12751884D01*
X7573089Y12745876D01*
X7573092Y12745876D01*
X7578601Y12745399D01*
X7711008Y12773905D01*
X7748894Y12795122D01*
X7824357Y12837383D01*
X7824360Y12837385D01*
X7829179Y12840084D01*
X7832998Y12844087D01*
X7918849Y12934082D01*
X7918851Y12934085D01*
X7922667Y12938085D01*
X7983206Y13059243D01*
X7984113Y13064692D01*
X7984114Y13064695D01*
X8001958Y13171901D01*
X8005444Y13192845D01*
X8005500Y13200000D01*
X7985364Y13333935D01*
X7926735Y13456029D01*
X7922982Y13460089D01*
X7922980Y13460092D01*
X7838553Y13551424D01*
X7838552Y13551424D01*
X7834798Y13555486D01*
X7799793Y13575819D01*
X11379044Y13575819D01*
X11417851Y13446058D01*
X11420924Y13441459D01*
X11489438Y13338921D01*
X11493098Y13333443D01*
X11598132Y13247932D01*
X11603261Y13245854D01*
X11603262Y13245854D01*
X11675468Y13216608D01*
X11723666Y13197086D01*
X11783730Y13191884D01*
X11853089Y13185876D01*
X11853092Y13185876D01*
X11858601Y13185399D01*
X11926421Y13200000D01*
X11985597Y13212740D01*
X11991008Y13213905D01*
X11995835Y13216608D01*
X12104357Y13277383D01*
X12104360Y13277385D01*
X12109179Y13280084D01*
X12118600Y13289960D01*
X12198849Y13374082D01*
X12198851Y13374085D01*
X12202667Y13378085D01*
X12263206Y13499243D01*
X12264113Y13504692D01*
X12264114Y13504695D01*
X12279587Y13597659D01*
X12285444Y13632845D01*
X12285500Y13640000D01*
X12284819Y13644530D01*
X12267672Y13758587D01*
X12277721Y13808198D01*
X12317309Y13839744D01*
X12347235Y13843312D01*
X12433089Y13835876D01*
X12433092Y13835876D01*
X12438601Y13835399D01*
X12504804Y13849652D01*
X12565597Y13862740D01*
X12571008Y13863905D01*
X12579747Y13868799D01*
X12684357Y13927383D01*
X12684360Y13927385D01*
X12689179Y13930084D01*
X12708163Y13949984D01*
X12778849Y14024082D01*
X12778851Y14024085D01*
X12782667Y14028085D01*
X12843206Y14149243D01*
X12844113Y14154692D01*
X12844114Y14154695D01*
X12859209Y14245385D01*
X12865444Y14282845D01*
X12865500Y14290000D01*
X12861880Y14314082D01*
X12850469Y14389981D01*
X12845364Y14423935D01*
X12794337Y14530198D01*
X12789354Y14580571D01*
X12817915Y14622363D01*
X12855281Y14635687D01*
X12858601Y14635399D01*
X12956910Y14656564D01*
X12985597Y14662740D01*
X12991008Y14663905D01*
X12995835Y14666608D01*
X13104357Y14727383D01*
X13104360Y14727385D01*
X13109179Y14730084D01*
X13122546Y14744096D01*
X13198849Y14824082D01*
X13198851Y14824085D01*
X13202667Y14828085D01*
X13263206Y14949243D01*
X13264113Y14954692D01*
X13264114Y14954695D01*
X13284967Y15079981D01*
X13285444Y15082845D01*
X13285500Y15090000D01*
X13284653Y15095638D01*
X13266186Y15218466D01*
X13265364Y15223935D01*
X13206735Y15346029D01*
X13202982Y15350089D01*
X13202980Y15350092D01*
X13114798Y15445486D01*
X13117534Y15448015D01*
X13097476Y15477241D01*
X13102361Y15527624D01*
X13115587Y15546800D01*
X13198846Y15634079D01*
X13198847Y15634081D01*
X13202667Y15638085D01*
X13263206Y15759243D01*
X13264113Y15764692D01*
X13264114Y15764695D01*
X13284967Y15889981D01*
X13285444Y15892845D01*
X13285500Y15900000D01*
X13265364Y16033935D01*
X13261849Y16041256D01*
X13209129Y16151043D01*
X13206735Y16156029D01*
X13202982Y16160089D01*
X13202980Y16160092D01*
X13118553Y16251424D01*
X13118552Y16251424D01*
X13114798Y16255486D01*
X12997681Y16323513D01*
X12992294Y16324762D01*
X12992293Y16324762D01*
X12871127Y16352847D01*
X12871126Y16352847D01*
X12865738Y16354096D01*
X12793202Y16348960D01*
X12736156Y16344921D01*
X12736155Y16344921D01*
X12730636Y16344530D01*
X12725474Y16342533D01*
X12703684Y16334103D01*
X12604319Y16295662D01*
X12599972Y16292235D01*
X12502299Y16215236D01*
X12502297Y16215234D01*
X12497955Y16211811D01*
X12494811Y16207262D01*
X12494810Y16207261D01*
X12459401Y16156029D01*
X12420948Y16100392D01*
X12419282Y16095124D01*
X12419281Y16095122D01*
X12386275Y15990757D01*
X12380108Y15971256D01*
X12379846Y15937890D01*
X12379164Y15851044D01*
X12379044Y15835819D01*
X12417851Y15706058D01*
X12420924Y15701459D01*
X12488717Y15600000D01*
X12493098Y15593443D01*
X12497387Y15589952D01*
X12497388Y15589950D01*
X12512150Y15577932D01*
X12529626Y15563705D01*
X12543443Y15552456D01*
X12569400Y15508999D01*
X12561351Y15459024D01*
X12542536Y15436956D01*
X12502299Y15405236D01*
X12502297Y15405234D01*
X12497955Y15401811D01*
X12494811Y15397262D01*
X12494810Y15397261D01*
X12453911Y15338085D01*
X12420948Y15290392D01*
X12419282Y15285124D01*
X12419281Y15285122D01*
X12399351Y15222103D01*
X12380108Y15161256D01*
X12380065Y15155726D01*
X12379151Y15039416D01*
X12379044Y15025819D01*
X12417851Y14896058D01*
X12420924Y14891459D01*
X12445282Y14855004D01*
X12457313Y14805835D01*
X12434925Y14760437D01*
X12388979Y14740077D01*
X12358076Y14737889D01*
X12316157Y14734921D01*
X12316156Y14734921D01*
X12310636Y14734530D01*
X12184319Y14685662D01*
X12179972Y14682235D01*
X12082299Y14605236D01*
X12082297Y14605234D01*
X12077955Y14601811D01*
X12074811Y14597262D01*
X12074810Y14597261D01*
X12057935Y14572845D01*
X12000948Y14490392D01*
X11999282Y14485124D01*
X11999281Y14485122D01*
X11966497Y14381459D01*
X11960108Y14361256D01*
X11959675Y14306089D01*
X11959102Y14233164D01*
X11959044Y14225819D01*
X11961567Y14217383D01*
X11971818Y14183106D01*
X11968861Y14132573D01*
X11934113Y14095765D01*
X11884212Y14089814D01*
X11871127Y14092847D01*
X11871126Y14092847D01*
X11865738Y14094096D01*
X11805263Y14089814D01*
X11736156Y14084921D01*
X11736155Y14084921D01*
X11730636Y14084530D01*
X11604319Y14035662D01*
X11599972Y14032235D01*
X11502299Y13955236D01*
X11502297Y13955234D01*
X11497955Y13951811D01*
X11494811Y13947262D01*
X11494810Y13947261D01*
X11443168Y13872542D01*
X11420948Y13840392D01*
X11419282Y13835124D01*
X11419281Y13835122D01*
X11381775Y13716528D01*
X11380108Y13711256D01*
X11379833Y13676193D01*
X11379216Y13597659D01*
X11379044Y13575819D01*
X7799793Y13575819D01*
X7717681Y13623513D01*
X7712294Y13624762D01*
X7712293Y13624762D01*
X7591127Y13652847D01*
X7591126Y13652847D01*
X7585738Y13654096D01*
X7506481Y13648484D01*
X7456156Y13644921D01*
X7456155Y13644921D01*
X7450636Y13644530D01*
X7324319Y13595662D01*
X7319972Y13592235D01*
X7246926Y13534650D01*
X7198853Y13518798D01*
X7151838Y13537555D01*
X7146774Y13542531D01*
X7138554Y13551423D01*
X7138553Y13551424D01*
X7134798Y13555486D01*
X7017681Y13623513D01*
X7012294Y13624762D01*
X7012293Y13624762D01*
X6891127Y13652847D01*
X6891126Y13652847D01*
X6885738Y13654096D01*
X6806481Y13648484D01*
X6756156Y13644921D01*
X6756155Y13644921D01*
X6750636Y13644530D01*
X6624319Y13595662D01*
X6619972Y13592235D01*
X6546926Y13534650D01*
X6498853Y13518798D01*
X6451838Y13537555D01*
X6446774Y13542531D01*
X6438554Y13551423D01*
X6438553Y13551424D01*
X6434798Y13555486D01*
X6317681Y13623513D01*
X6312294Y13624762D01*
X6312293Y13624762D01*
X6191127Y13652847D01*
X6191126Y13652847D01*
X6185738Y13654096D01*
X6106481Y13648484D01*
X6056156Y13644921D01*
X6056155Y13644921D01*
X6050636Y13644530D01*
X5924319Y13595662D01*
X5919972Y13592235D01*
X5846926Y13534650D01*
X5798853Y13518798D01*
X5751838Y13537555D01*
X5746774Y13542531D01*
X5738554Y13551423D01*
X5738553Y13551424D01*
X5734798Y13555486D01*
X5617681Y13623513D01*
X5612294Y13624762D01*
X5612293Y13624762D01*
X5491127Y13652847D01*
X5491126Y13652847D01*
X5485738Y13654096D01*
X5406481Y13648484D01*
X5356156Y13644921D01*
X5356155Y13644921D01*
X5350636Y13644530D01*
X5224319Y13595662D01*
X5219972Y13592235D01*
X5118003Y13511849D01*
X5069930Y13495997D01*
X5022915Y13514754D01*
X5017850Y13519730D01*
X4984798Y13555486D01*
X4867681Y13623513D01*
X4862294Y13624762D01*
X4862293Y13624762D01*
X4741127Y13652847D01*
X4741126Y13652847D01*
X4735738Y13654096D01*
X4656481Y13648484D01*
X4606156Y13644921D01*
X4606155Y13644921D01*
X4600636Y13644530D01*
X4595474Y13642533D01*
X4500700Y13605868D01*
X4450091Y13604852D01*
X4410670Y13636604D01*
X4400000Y13674883D01*
X4400000Y13925716D01*
X4417313Y13973282D01*
X4461150Y13998592D01*
X4501781Y13994303D01*
X4593666Y13957086D01*
X4653730Y13951884D01*
X4723089Y13945876D01*
X4723092Y13945876D01*
X4728601Y13945399D01*
X4820551Y13965195D01*
X4855597Y13972740D01*
X4861008Y13973905D01*
X4866808Y13977153D01*
X4974357Y14037383D01*
X4974360Y14037385D01*
X4979179Y14040084D01*
X4997596Y14059390D01*
X5068849Y14134082D01*
X5068851Y14134085D01*
X5072667Y14138085D01*
X5133206Y14259243D01*
X5134113Y14264692D01*
X5134114Y14264695D01*
X5147499Y14345111D01*
X5155444Y14392845D01*
X5155500Y14400000D01*
X5148781Y14444695D01*
X5138884Y14510521D01*
X5135364Y14533935D01*
X5110416Y14585890D01*
X5079129Y14651044D01*
X5079128Y14651045D01*
X5076735Y14656029D01*
X5073977Y14659012D01*
X5061715Y14707465D01*
X5073058Y14737889D01*
X5072667Y14738085D01*
X5089421Y14771615D01*
X5126166Y14806424D01*
X5176693Y14809471D01*
X5202335Y14795923D01*
X5298132Y14717932D01*
X5303261Y14715854D01*
X5303262Y14715854D01*
X5418538Y14669163D01*
X5423666Y14667086D01*
X5473844Y14662740D01*
X5553089Y14655876D01*
X5553092Y14655876D01*
X5558601Y14655399D01*
X5610084Y14666483D01*
X5660227Y14659568D01*
X5694196Y14622040D01*
X5699655Y14593559D01*
X5699044Y14515819D01*
X5737851Y14386058D01*
X5740924Y14381459D01*
X5806816Y14282845D01*
X5813098Y14273443D01*
X5918132Y14187932D01*
X5923261Y14185854D01*
X5923262Y14185854D01*
X6025863Y14144297D01*
X6043666Y14137086D01*
X6103730Y14131884D01*
X6173089Y14125876D01*
X6173092Y14125876D01*
X6178601Y14125399D01*
X6311008Y14153905D01*
X6327895Y14163362D01*
X6424357Y14217383D01*
X6424360Y14217385D01*
X6429179Y14220084D01*
X6432998Y14224087D01*
X6447299Y14239077D01*
X6492659Y14261544D01*
X6541848Y14249598D01*
X6547561Y14245386D01*
X6618132Y14187932D01*
X6623261Y14185854D01*
X6623262Y14185854D01*
X6725863Y14144297D01*
X6743666Y14137086D01*
X6803730Y14131884D01*
X6873089Y14125876D01*
X6873092Y14125876D01*
X6878601Y14125399D01*
X7011008Y14153905D01*
X7027895Y14163362D01*
X7124357Y14217383D01*
X7124360Y14217385D01*
X7129179Y14220084D01*
X7134650Y14225819D01*
X7218849Y14314082D01*
X7218851Y14314085D01*
X7222667Y14318085D01*
X7283206Y14439243D01*
X7284113Y14444692D01*
X7284114Y14444695D01*
X7304967Y14569981D01*
X7305444Y14572845D01*
X7305500Y14580000D01*
X7305069Y14582870D01*
X7304863Y14585774D01*
X7306502Y14585890D01*
X7315492Y14630158D01*
X7355096Y14661683D01*
X7384986Y14665239D01*
X7493089Y14655876D01*
X7493092Y14655876D01*
X7498601Y14655399D01*
X7631008Y14683905D01*
X7635835Y14686608D01*
X7744357Y14747383D01*
X7744360Y14747385D01*
X7749179Y14750084D01*
X7802925Y14806424D01*
X7838849Y14844082D01*
X7838851Y14844085D01*
X7842667Y14848085D01*
X7884283Y14931372D01*
X7921031Y14966184D01*
X7971558Y14969230D01*
X7987479Y14962382D01*
X8000000Y14955153D01*
X8000000Y14950000D01*
X9000000Y14950000D01*
X9000000Y16526000D01*
X9017313Y16573566D01*
X9061150Y16598876D01*
X9074000Y16600000D01*
X15850000Y16600000D01*
X15850000Y17985819D01*
X16649044Y17985819D01*
X16687851Y17856058D01*
X16690924Y17851459D01*
X16729962Y17793035D01*
X16763098Y17743443D01*
X16868132Y17657932D01*
X16873261Y17655854D01*
X16873262Y17655854D01*
X16945468Y17626608D01*
X16993666Y17607086D01*
X17053730Y17601884D01*
X17123089Y17595876D01*
X17123092Y17595876D01*
X17128601Y17595399D01*
X17261008Y17623905D01*
X17265835Y17626608D01*
X17374357Y17687383D01*
X17374360Y17687385D01*
X17379179Y17690084D01*
X17382994Y17694083D01*
X17468849Y17784082D01*
X17468851Y17784085D01*
X17472667Y17788085D01*
X17533206Y17909243D01*
X17534113Y17914692D01*
X17534114Y17914695D01*
X17554967Y18039981D01*
X17555444Y18042845D01*
X17555500Y18050000D01*
X17535364Y18183935D01*
X17476735Y18306029D01*
X17472982Y18310089D01*
X17472980Y18310092D01*
X17388553Y18401424D01*
X17388552Y18401424D01*
X17384798Y18405486D01*
X17267681Y18473513D01*
X17262294Y18474762D01*
X17262293Y18474762D01*
X17141127Y18502847D01*
X17141126Y18502847D01*
X17135738Y18504096D01*
X17056481Y18498484D01*
X17006156Y18494921D01*
X17006155Y18494921D01*
X17000636Y18494530D01*
X16874319Y18445662D01*
X16869972Y18442235D01*
X16772299Y18365236D01*
X16772297Y18365234D01*
X16767955Y18361811D01*
X16764811Y18357262D01*
X16764810Y18357261D01*
X16730394Y18307465D01*
X16690948Y18250392D01*
X16689282Y18245124D01*
X16689281Y18245122D01*
X16654118Y18133935D01*
X16650108Y18121256D01*
X16650065Y18115726D01*
X16649133Y17997099D01*
X16649044Y17985819D01*
X15850000Y17985819D01*
X15850000Y19400000D01*
X15124000Y19400000D01*
X15076434Y19417313D01*
X15051124Y19461150D01*
X15050000Y19474000D01*
X15050000Y19910819D01*
X15799044Y19910819D01*
X15837851Y19781058D01*
X15840924Y19776459D01*
X15879962Y19718035D01*
X15913098Y19668443D01*
X16018132Y19582932D01*
X16143666Y19532086D01*
X16203730Y19526884D01*
X16273089Y19520876D01*
X16273092Y19520876D01*
X16278601Y19520399D01*
X16377746Y19541744D01*
X16405597Y19547740D01*
X16411008Y19548905D01*
X16415835Y19551608D01*
X16524357Y19612383D01*
X16524360Y19612385D01*
X16529179Y19615084D01*
X16532994Y19619083D01*
X16618849Y19709082D01*
X16618851Y19709085D01*
X16622667Y19713085D01*
X16683206Y19834243D01*
X16684113Y19839692D01*
X16684114Y19839695D01*
X16699800Y19933935D01*
X16705444Y19967845D01*
X16705500Y19975000D01*
X16685364Y20108935D01*
X16669229Y20142537D01*
X16629129Y20226043D01*
X16626735Y20231029D01*
X16622982Y20235089D01*
X16622980Y20235092D01*
X16538553Y20326424D01*
X16538552Y20326424D01*
X16534798Y20330486D01*
X16417681Y20398513D01*
X16412294Y20399762D01*
X16412293Y20399762D01*
X16291127Y20427847D01*
X16291126Y20427847D01*
X16285738Y20429096D01*
X16214925Y20424082D01*
X16156156Y20419921D01*
X16156155Y20419921D01*
X16150636Y20419530D01*
X16024319Y20370662D01*
X16004349Y20354919D01*
X15922299Y20290236D01*
X15922297Y20290234D01*
X15917955Y20286811D01*
X15914811Y20282262D01*
X15914810Y20282261D01*
X15879401Y20231029D01*
X15840948Y20175392D01*
X15839282Y20170124D01*
X15839281Y20170122D01*
X15801775Y20051528D01*
X15800108Y20046256D01*
X15800065Y20040726D01*
X15799183Y19928466D01*
X15799044Y19910819D01*
X15050000Y19910819D01*
X15050000Y20071865D01*
X15068692Y20121028D01*
X15517394Y20625819D01*
X17229044Y20625819D01*
X17267851Y20496058D01*
X17270924Y20491459D01*
X17336816Y20392845D01*
X17343098Y20383443D01*
X17448132Y20297932D01*
X17453261Y20295854D01*
X17453262Y20295854D01*
X17555863Y20254297D01*
X17573666Y20247086D01*
X17633730Y20241884D01*
X17703089Y20235876D01*
X17703092Y20235876D01*
X17708601Y20235399D01*
X17841008Y20263905D01*
X17944607Y20321923D01*
X17994567Y20330059D01*
X18027484Y20314745D01*
X18048135Y20297932D01*
X18053264Y20295854D01*
X18053265Y20295854D01*
X18155866Y20254297D01*
X18173669Y20247086D01*
X18233733Y20241884D01*
X18303092Y20235876D01*
X18303095Y20235876D01*
X18308604Y20235399D01*
X18441011Y20263905D01*
X18448811Y20268273D01*
X18554360Y20327383D01*
X18554363Y20327385D01*
X18559182Y20330084D01*
X18594443Y20367047D01*
X18648852Y20424082D01*
X18648854Y20424085D01*
X18652670Y20428085D01*
X18713209Y20549243D01*
X18714116Y20554692D01*
X18714117Y20554695D01*
X18734970Y20679981D01*
X18735447Y20682845D01*
X18735503Y20690000D01*
X18734145Y20699037D01*
X18716189Y20818466D01*
X18715367Y20823935D01*
X18656738Y20946029D01*
X18652985Y20950089D01*
X18652983Y20950092D01*
X18568556Y21041424D01*
X18568555Y21041424D01*
X18564801Y21045486D01*
X18447684Y21113513D01*
X18442297Y21114762D01*
X18442296Y21114762D01*
X18321130Y21142847D01*
X18321129Y21142847D01*
X18315741Y21144096D01*
X18242654Y21138921D01*
X18186159Y21134921D01*
X18186158Y21134921D01*
X18180639Y21134530D01*
X18054322Y21085662D01*
X18049975Y21082235D01*
X18026495Y21063725D01*
X17978422Y21047873D01*
X17943514Y21057849D01*
X17892192Y21087659D01*
X17847681Y21113513D01*
X17842294Y21114762D01*
X17842293Y21114762D01*
X17721127Y21142847D01*
X17721126Y21142847D01*
X17715738Y21144096D01*
X17642651Y21138921D01*
X17586156Y21134921D01*
X17586155Y21134921D01*
X17580636Y21134530D01*
X17454319Y21085662D01*
X17449972Y21082235D01*
X17352299Y21005236D01*
X17352297Y21005234D01*
X17347955Y21001811D01*
X17344811Y20997262D01*
X17344810Y20997261D01*
X17309401Y20946029D01*
X17270948Y20890392D01*
X17269282Y20885124D01*
X17269281Y20885122D01*
X17235430Y20778085D01*
X17230108Y20761256D01*
X17229627Y20700000D01*
X17229218Y20647932D01*
X17229044Y20625819D01*
X15517394Y20625819D01*
X15840970Y20989841D01*
X15850000Y21000000D01*
X15850000Y22050000D01*
X14750000Y22050000D01*
X14750000Y21079944D01*
X14732687Y21032378D01*
X14729177Y21028483D01*
X14011430Y20286811D01*
X13286857Y19538085D01*
X13271812Y19522539D01*
X13226292Y19500397D01*
X13218635Y19500000D01*
X7350000Y19500000D01*
X7350000Y16600000D01*
X7926000Y16600000D01*
X7973566Y16582687D01*
X7998876Y16538850D01*
X8000000Y16526000D01*
X8000000Y15371912D01*
X7982687Y15324346D01*
X7938850Y15299036D01*
X7889000Y15307826D01*
X7859292Y15339880D01*
X7849131Y15361041D01*
X7849128Y15361045D01*
X7846735Y15366029D01*
X7842982Y15370089D01*
X7842980Y15370092D01*
X7758553Y15461424D01*
X7758552Y15461424D01*
X7754798Y15465486D01*
X7637681Y15533513D01*
X7632294Y15534762D01*
X7632293Y15534762D01*
X7511127Y15562847D01*
X7511126Y15562847D01*
X7505738Y15564096D01*
X7426481Y15558484D01*
X7376156Y15554921D01*
X7376155Y15554921D01*
X7370636Y15554530D01*
X7244319Y15505662D01*
X7231112Y15495250D01*
X7142299Y15425236D01*
X7142297Y15425234D01*
X7137955Y15421811D01*
X7134811Y15417262D01*
X7134810Y15417261D01*
X7080088Y15338085D01*
X7060948Y15310392D01*
X7059282Y15305124D01*
X7059281Y15305122D01*
X7038201Y15238466D01*
X7020108Y15181256D01*
X7019726Y15132605D01*
X7019435Y15095638D01*
X7001749Y15048210D01*
X6957714Y15023245D01*
X6928730Y15024131D01*
X6885738Y15034096D01*
X6806481Y15028484D01*
X6756156Y15024921D01*
X6756155Y15024921D01*
X6750636Y15024530D01*
X6624319Y14975662D01*
X6603088Y14958925D01*
X6546926Y14914650D01*
X6498853Y14898798D01*
X6451838Y14917555D01*
X6446774Y14922531D01*
X6438554Y14931423D01*
X6438553Y14931424D01*
X6434798Y14935486D01*
X6317681Y15003513D01*
X6312294Y15004762D01*
X6312293Y15004762D01*
X6191127Y15032847D01*
X6191126Y15032847D01*
X6185738Y15034096D01*
X6153563Y15031818D01*
X6064413Y15025506D01*
X6015743Y15039416D01*
X5987401Y15081356D01*
X5985691Y15102843D01*
X5985444Y15102845D01*
X5985466Y15105666D01*
X5985500Y15110000D01*
X5978626Y15155726D01*
X5966186Y15238466D01*
X5965364Y15243935D01*
X5906735Y15366029D01*
X5902982Y15370089D01*
X5902980Y15370092D01*
X5818553Y15461424D01*
X5818552Y15461424D01*
X5814798Y15465486D01*
X5697681Y15533513D01*
X5692294Y15534762D01*
X5692293Y15534762D01*
X5571127Y15562847D01*
X5571126Y15562847D01*
X5565738Y15564096D01*
X5486481Y15558484D01*
X5436156Y15554921D01*
X5436155Y15554921D01*
X5430636Y15554530D01*
X5304319Y15505662D01*
X5291197Y15495317D01*
X5266470Y15475824D01*
X5218397Y15459972D01*
X5171382Y15478729D01*
X5147423Y15523318D01*
X5147661Y15546087D01*
X5149066Y15554530D01*
X5155444Y15592845D01*
X5155500Y15600000D01*
X5135364Y15733935D01*
X5125587Y15754297D01*
X5079129Y15851044D01*
X5079128Y15851045D01*
X5076735Y15856029D01*
X5073977Y15859012D01*
X5061715Y15907465D01*
X5073058Y15937890D01*
X5072667Y15938085D01*
X5074495Y15941744D01*
X5133206Y16059243D01*
X5134113Y16064692D01*
X5134114Y16064695D01*
X5149992Y16160092D01*
X5155444Y16192845D01*
X5155500Y16200000D01*
X5154409Y16207261D01*
X5138656Y16312036D01*
X5135364Y16333935D01*
X5131236Y16342533D01*
X5079129Y16451044D01*
X5079128Y16451045D01*
X5076735Y16456029D01*
X5073977Y16459012D01*
X5061715Y16507465D01*
X5073058Y16537890D01*
X5072667Y16538085D01*
X5074495Y16541744D01*
X5133206Y16659243D01*
X5134113Y16664692D01*
X5134114Y16664695D01*
X5148139Y16748960D01*
X5155444Y16792845D01*
X5155500Y16800000D01*
X5135364Y16933935D01*
X5083795Y17041328D01*
X5079129Y17051044D01*
X5079128Y17051045D01*
X5076735Y17056029D01*
X5073977Y17059012D01*
X5061715Y17107465D01*
X5073058Y17137890D01*
X5072667Y17138085D01*
X5074495Y17141744D01*
X5133206Y17259243D01*
X5134113Y17264692D01*
X5134114Y17264695D01*
X5154967Y17389981D01*
X5155444Y17392845D01*
X5155500Y17400000D01*
X5135364Y17533935D01*
X5100467Y17606609D01*
X5079129Y17651044D01*
X5079128Y17651045D01*
X5076735Y17656029D01*
X5073977Y17659012D01*
X5061715Y17707465D01*
X5073058Y17737890D01*
X5072667Y17738085D01*
X5074495Y17741744D01*
X5133206Y17859243D01*
X5134113Y17864692D01*
X5134114Y17864695D01*
X5147499Y17945111D01*
X5155444Y17992845D01*
X5155500Y18000000D01*
X5135364Y18133935D01*
X5113981Y18178466D01*
X5079129Y18251044D01*
X5079128Y18251045D01*
X5076735Y18256029D01*
X5073977Y18259012D01*
X5061715Y18307465D01*
X5073058Y18337890D01*
X5072667Y18338085D01*
X5074495Y18341744D01*
X5133206Y18459243D01*
X5134113Y18464692D01*
X5134114Y18464695D01*
X5154967Y18589981D01*
X5155444Y18592845D01*
X5155500Y18600000D01*
X5135364Y18733935D01*
X5076735Y18856029D01*
X5073977Y18859012D01*
X5061715Y18907465D01*
X5073058Y18937890D01*
X5072667Y18938085D01*
X5074495Y18941744D01*
X5133206Y19059243D01*
X5134113Y19064692D01*
X5134114Y19064695D01*
X5154967Y19189981D01*
X5155444Y19192845D01*
X5155500Y19200000D01*
X5135364Y19333935D01*
X5109906Y19386952D01*
X5079129Y19451044D01*
X5079128Y19451045D01*
X5076735Y19456029D01*
X5073977Y19459012D01*
X5061715Y19507465D01*
X5073058Y19537890D01*
X5072667Y19538085D01*
X5074495Y19541744D01*
X5078074Y19548905D01*
X5095076Y19582932D01*
X5133206Y19659243D01*
X5134113Y19664692D01*
X5134114Y19664695D01*
X5147499Y19745111D01*
X5155444Y19792845D01*
X5155500Y19800000D01*
X5151096Y19829297D01*
X5136186Y19928466D01*
X5135364Y19933935D01*
X5084084Y20040726D01*
X5079129Y20051044D01*
X5079128Y20051045D01*
X5076735Y20056029D01*
X5073977Y20059012D01*
X5061715Y20107465D01*
X5073058Y20137890D01*
X5072667Y20138085D01*
X5074495Y20141744D01*
X5133206Y20259243D01*
X5134113Y20264692D01*
X5134114Y20264695D01*
X5151181Y20367235D01*
X5155444Y20392845D01*
X5155500Y20400000D01*
X5153451Y20413633D01*
X5140466Y20500000D01*
X5135364Y20533935D01*
X5103605Y20600074D01*
X5079129Y20651044D01*
X5079128Y20651045D01*
X5076735Y20656029D01*
X5073977Y20659012D01*
X5061715Y20707465D01*
X5073058Y20737890D01*
X5072667Y20738085D01*
X5074495Y20741744D01*
X5133206Y20859243D01*
X5134113Y20864692D01*
X5134114Y20864695D01*
X5152609Y20975819D01*
X8249044Y20975819D01*
X8287851Y20846058D01*
X8290924Y20841459D01*
X8357022Y20742537D01*
X8363098Y20733443D01*
X8468132Y20647932D01*
X8473261Y20645854D01*
X8473262Y20645854D01*
X8509079Y20631347D01*
X8593666Y20597086D01*
X8653730Y20591884D01*
X8723089Y20585876D01*
X8723092Y20585876D01*
X8728601Y20585399D01*
X8861008Y20613905D01*
X8912770Y20642893D01*
X8974357Y20677383D01*
X8974360Y20677385D01*
X8979179Y20680084D01*
X8987030Y20688314D01*
X9068849Y20774082D01*
X9068851Y20774085D01*
X9072667Y20778085D01*
X9133206Y20899243D01*
X9134113Y20904692D01*
X9134114Y20904695D01*
X9154967Y21029981D01*
X9155444Y21032845D01*
X9155500Y21040000D01*
X9154317Y21047873D01*
X9136186Y21168466D01*
X9135364Y21173935D01*
X9076735Y21296029D01*
X9072982Y21300089D01*
X9072980Y21300092D01*
X8988553Y21391424D01*
X8988552Y21391424D01*
X8984798Y21395486D01*
X8867681Y21463513D01*
X8862294Y21464762D01*
X8862293Y21464762D01*
X8741127Y21492847D01*
X8741126Y21492847D01*
X8735738Y21494096D01*
X8656481Y21488484D01*
X8606156Y21484921D01*
X8606155Y21484921D01*
X8600636Y21484530D01*
X8474319Y21435662D01*
X8469972Y21432235D01*
X8372299Y21355236D01*
X8372297Y21355234D01*
X8367955Y21351811D01*
X8364811Y21347262D01*
X8364810Y21347261D01*
X8332055Y21299868D01*
X8290948Y21240392D01*
X8289282Y21235124D01*
X8289281Y21235122D01*
X8251775Y21116528D01*
X8250108Y21111256D01*
X8249627Y21050000D01*
X8249178Y20992845D01*
X8249044Y20975819D01*
X5152609Y20975819D01*
X5154967Y20989981D01*
X5155444Y20992845D01*
X5155500Y21000000D01*
X5150838Y21031013D01*
X5143137Y21082235D01*
X5135364Y21133935D01*
X5131085Y21142847D01*
X5079129Y21251044D01*
X5079128Y21251045D01*
X5076735Y21256029D01*
X5073977Y21259012D01*
X5061715Y21307465D01*
X5073058Y21337890D01*
X5072667Y21338085D01*
X5074495Y21341744D01*
X5079526Y21351811D01*
X5099319Y21391424D01*
X5133206Y21459243D01*
X5134113Y21464692D01*
X5134114Y21464695D01*
X5154967Y21589981D01*
X5155444Y21592845D01*
X5155500Y21600000D01*
X5135364Y21733935D01*
X5076735Y21856029D01*
X5072982Y21860089D01*
X5072980Y21860092D01*
X4988553Y21951424D01*
X4988552Y21951424D01*
X4984798Y21955486D01*
X4867681Y22023513D01*
X4862294Y22024762D01*
X4862293Y22024762D01*
X4741127Y22052847D01*
X4741126Y22052847D01*
X4735738Y22054096D01*
X4656481Y22048484D01*
X4606156Y22044921D01*
X4606155Y22044921D01*
X4600636Y22044530D01*
X4474319Y21995662D01*
X4446491Y21973724D01*
X4398420Y21957874D01*
X4363512Y21967850D01*
X4342680Y21979950D01*
X4267681Y22023513D01*
X4262294Y22024762D01*
X4262293Y22024762D01*
X4141127Y22052847D01*
X4141126Y22052847D01*
X4135738Y22054096D01*
X4056481Y22048484D01*
X4006156Y22044921D01*
X4006155Y22044921D01*
X4000636Y22044530D01*
X3874319Y21995662D01*
X3846491Y21973724D01*
X3798420Y21957874D01*
X3763512Y21967850D01*
X3742680Y21979950D01*
X3667681Y22023513D01*
X3662294Y22024762D01*
X3662293Y22024762D01*
X3541127Y22052847D01*
X3541126Y22052847D01*
X3535738Y22054096D01*
X3456481Y22048484D01*
X3406156Y22044921D01*
X3406155Y22044921D01*
X3400636Y22044530D01*
X3274319Y21995662D01*
X3246491Y21973724D01*
X3198420Y21957874D01*
X3163512Y21967850D01*
X3142680Y21979950D01*
X3067681Y22023513D01*
X3062294Y22024762D01*
X3062293Y22024762D01*
X2941127Y22052847D01*
X2941126Y22052847D01*
X2935738Y22054096D01*
X2856481Y22048484D01*
X2806156Y22044921D01*
X2806155Y22044921D01*
X2800636Y22044530D01*
X2674319Y21995662D01*
X2646491Y21973724D01*
X2598420Y21957874D01*
X2563512Y21967850D01*
X2542680Y21979950D01*
X2467681Y22023513D01*
X2462294Y22024762D01*
X2462293Y22024762D01*
X2341127Y22052847D01*
X2341126Y22052847D01*
X2335738Y22054096D01*
X2256481Y22048484D01*
X2206156Y22044921D01*
X2206155Y22044921D01*
X2200636Y22044530D01*
X2074319Y21995662D01*
X2046491Y21973724D01*
X1998420Y21957874D01*
X1963512Y21967850D01*
X1942680Y21979950D01*
X1867681Y22023513D01*
X1862294Y22024762D01*
X1862293Y22024762D01*
X1741127Y22052847D01*
X1741126Y22052847D01*
X1735738Y22054096D01*
X1688199Y22050730D01*
X1606152Y22044921D01*
X1606149Y22044920D01*
X1600636Y22044530D01*
X1595478Y22042535D01*
X1590144Y22041342D01*
X1539947Y22047860D01*
X1505683Y22085120D01*
X1500000Y22113559D01*
X1500000Y22385819D01*
X8599044Y22385819D01*
X8637851Y22256058D01*
X8640924Y22251459D01*
X8679962Y22193035D01*
X8713098Y22143443D01*
X8818132Y22057932D01*
X8823261Y22055854D01*
X8823262Y22055854D01*
X8902141Y22023905D01*
X8943666Y22007086D01*
X9003730Y22001884D01*
X9073089Y21995876D01*
X9073092Y21995876D01*
X9078601Y21995399D01*
X9211008Y22023905D01*
X9219022Y22028393D01*
X9324357Y22087383D01*
X9324360Y22087385D01*
X9329179Y22090084D01*
X9385920Y22149564D01*
X9418849Y22184082D01*
X9418851Y22184085D01*
X9422667Y22188085D01*
X9483206Y22309243D01*
X9484113Y22314692D01*
X9484114Y22314695D01*
X9504967Y22439981D01*
X9505444Y22442845D01*
X9505500Y22450000D01*
X9498744Y22494941D01*
X9486186Y22578466D01*
X9485364Y22583935D01*
X9475136Y22605236D01*
X9429129Y22701043D01*
X9426735Y22706029D01*
X9422982Y22710089D01*
X9422980Y22710092D01*
X9338553Y22801424D01*
X9338552Y22801424D01*
X9334798Y22805486D01*
X9217681Y22873513D01*
X9212294Y22874762D01*
X9212293Y22874762D01*
X9091127Y22902847D01*
X9091126Y22902847D01*
X9085738Y22904096D01*
X9006481Y22898484D01*
X8956156Y22894921D01*
X8956155Y22894921D01*
X8950636Y22894530D01*
X8824319Y22845662D01*
X8812835Y22836609D01*
X8722299Y22765236D01*
X8722297Y22765234D01*
X8717955Y22761811D01*
X8714811Y22757262D01*
X8714810Y22757261D01*
X8659603Y22677383D01*
X8640948Y22650392D01*
X8639282Y22645124D01*
X8639281Y22645122D01*
X8601775Y22526528D01*
X8600108Y22521256D01*
X8599866Y22490392D01*
X8599383Y22428921D01*
X8599044Y22385819D01*
X1500000Y22385819D01*
X1500000Y23665441D01*
X9058344Y23665441D01*
X9097151Y23535680D01*
X9100224Y23531081D01*
X9166271Y23432235D01*
X9172398Y23423065D01*
X9277432Y23337554D01*
X9402966Y23286708D01*
X9463030Y23281506D01*
X9532389Y23275498D01*
X9532392Y23275498D01*
X9537901Y23275021D01*
X9670308Y23303527D01*
X9774689Y23361983D01*
X9824649Y23370119D01*
X9857566Y23354805D01*
X9866833Y23347261D01*
X9877433Y23338631D01*
X10002967Y23287785D01*
X10060003Y23282845D01*
X10132390Y23276575D01*
X10132393Y23276575D01*
X10137902Y23276098D01*
X10230479Y23296029D01*
X10264898Y23303439D01*
X10270309Y23304604D01*
X10275136Y23307307D01*
X10383658Y23368082D01*
X10383661Y23368084D01*
X10388480Y23370783D01*
X10392295Y23374782D01*
X10478150Y23464781D01*
X10478152Y23464784D01*
X10481968Y23468784D01*
X10542507Y23589942D01*
X10543414Y23595391D01*
X10543415Y23595394D01*
X10558177Y23684083D01*
X10564745Y23723544D01*
X10564801Y23730699D01*
X10544665Y23864634D01*
X10491275Y23975819D01*
X13279044Y23975819D01*
X13317851Y23846058D01*
X13320924Y23841459D01*
X13380777Y23751883D01*
X13393098Y23733443D01*
X13498132Y23647932D01*
X13503261Y23645854D01*
X13503262Y23645854D01*
X13595972Y23608303D01*
X13633559Y23574400D01*
X13640561Y23524268D01*
X13613699Y23481364D01*
X13594893Y23470702D01*
X13504319Y23435662D01*
X13499972Y23432235D01*
X13402299Y23355236D01*
X13402297Y23355234D01*
X13397955Y23351811D01*
X13394811Y23347262D01*
X13394810Y23347261D01*
X13352296Y23285748D01*
X13320948Y23240392D01*
X13319282Y23235124D01*
X13319281Y23235122D01*
X13290557Y23144297D01*
X13280108Y23111256D01*
X13279952Y23091359D01*
X13279104Y22983443D01*
X13279044Y22975819D01*
X13317851Y22846058D01*
X13320924Y22841459D01*
X13385322Y22745081D01*
X13393098Y22733443D01*
X13498132Y22647932D01*
X13503261Y22645854D01*
X13503262Y22645854D01*
X13575468Y22616608D01*
X13623666Y22597086D01*
X13683730Y22591884D01*
X13753089Y22585876D01*
X13753092Y22585876D01*
X13758601Y22585399D01*
X13891008Y22613905D01*
X13940147Y22641424D01*
X14004357Y22677383D01*
X14004360Y22677385D01*
X14009179Y22680084D01*
X14064469Y22738043D01*
X14098849Y22774082D01*
X14098851Y22774085D01*
X14102667Y22778085D01*
X14163206Y22899243D01*
X14163208Y22899255D01*
X14192894Y22937251D01*
X14242407Y22947775D01*
X14287101Y22924010D01*
X14303005Y22895698D01*
X14303424Y22894297D01*
X14317851Y22846058D01*
X14320924Y22841459D01*
X14385322Y22745081D01*
X14393098Y22733443D01*
X14498132Y22647932D01*
X14503261Y22645854D01*
X14503262Y22645854D01*
X14575468Y22616608D01*
X14623666Y22597086D01*
X14683730Y22591884D01*
X14753089Y22585876D01*
X14753092Y22585876D01*
X14758601Y22585399D01*
X14891008Y22613905D01*
X14940147Y22641424D01*
X15004357Y22677383D01*
X15004360Y22677385D01*
X15009179Y22680084D01*
X15064469Y22738043D01*
X15098849Y22774082D01*
X15098851Y22774085D01*
X15102667Y22778085D01*
X15163206Y22899243D01*
X15164113Y22904692D01*
X15164114Y22904695D01*
X15183985Y23024082D01*
X15185444Y23032845D01*
X15185500Y23040000D01*
X15165364Y23173935D01*
X15145252Y23215819D01*
X15140450Y23225819D01*
X19509044Y23225819D01*
X19547851Y23096058D01*
X19550924Y23091459D01*
X19590089Y23032845D01*
X19623098Y22983443D01*
X19728132Y22897932D01*
X19733261Y22895854D01*
X19733262Y22895854D01*
X19825972Y22858303D01*
X19863559Y22824400D01*
X19870561Y22774268D01*
X19843699Y22731364D01*
X19824893Y22720702D01*
X19734319Y22685662D01*
X19729972Y22682235D01*
X19632299Y22605236D01*
X19632297Y22605234D01*
X19627955Y22601811D01*
X19624811Y22597262D01*
X19624810Y22597261D01*
X19554092Y22494941D01*
X19550948Y22490392D01*
X19549282Y22485124D01*
X19549281Y22485122D01*
X19512314Y22368232D01*
X19510108Y22361256D01*
X19509661Y22304297D01*
X19509282Y22256058D01*
X19509044Y22225819D01*
X19547851Y22096058D01*
X19550924Y22091459D01*
X19614934Y21995662D01*
X19623098Y21983443D01*
X19728132Y21897932D01*
X19733261Y21895854D01*
X19733262Y21895854D01*
X19848537Y21849163D01*
X19848540Y21849162D01*
X19853666Y21847086D01*
X19901710Y21842925D01*
X19947604Y21821573D01*
X19966220Y21790406D01*
X19994594Y21695530D01*
X19997667Y21690931D01*
X20065120Y21589981D01*
X20069841Y21582915D01*
X20174875Y21497404D01*
X20180004Y21495326D01*
X20180005Y21495326D01*
X20211590Y21482533D01*
X20300409Y21446558D01*
X20360473Y21441356D01*
X20429832Y21435348D01*
X20429835Y21435348D01*
X20435344Y21434871D01*
X20501548Y21449124D01*
X20562340Y21462212D01*
X20567751Y21463377D01*
X20572578Y21466080D01*
X20681100Y21526855D01*
X20681103Y21526857D01*
X20685922Y21529556D01*
X20741212Y21587515D01*
X20775592Y21623554D01*
X20775594Y21623557D01*
X20779410Y21627557D01*
X20839949Y21748715D01*
X20840856Y21754164D01*
X20840857Y21754167D01*
X20856323Y21847086D01*
X20862187Y21882317D01*
X20862243Y21889472D01*
X20842107Y22023407D01*
X20823851Y22061426D01*
X20798816Y22113559D01*
X20783478Y22145501D01*
X20779725Y22149561D01*
X20779723Y22149564D01*
X20695296Y22240896D01*
X20695295Y22240896D01*
X20691541Y22244958D01*
X20574424Y22312985D01*
X20569037Y22314234D01*
X20569036Y22314234D01*
X20455174Y22340626D01*
X20412745Y22368232D01*
X20398705Y22401713D01*
X20396186Y22418466D01*
X20395364Y22423935D01*
X20384890Y22445748D01*
X20339129Y22541043D01*
X20336735Y22546029D01*
X20332982Y22550089D01*
X20332980Y22550092D01*
X20248553Y22641424D01*
X20248552Y22641424D01*
X20244798Y22645486D01*
X20127681Y22713513D01*
X20110586Y22717475D01*
X20068159Y22745081D01*
X20053402Y22793502D01*
X20073221Y22840079D01*
X20111722Y22861906D01*
X20121008Y22863905D01*
X20133204Y22870735D01*
X20234357Y22927383D01*
X20234360Y22927385D01*
X20239179Y22930084D01*
X20246016Y22937251D01*
X20328849Y23024082D01*
X20328851Y23024085D01*
X20332667Y23028085D01*
X20393206Y23149243D01*
X20394113Y23154692D01*
X20394114Y23154695D01*
X20409135Y23244941D01*
X20415444Y23282845D01*
X20415491Y23288785D01*
X20415500Y23290000D01*
X20416216Y23289994D01*
X20429364Y23336018D01*
X20463120Y23361804D01*
X20465598Y23362740D01*
X20471008Y23363905D01*
X20532359Y23398263D01*
X20584357Y23427383D01*
X20584360Y23427385D01*
X20589179Y23430084D01*
X20622260Y23464762D01*
X20678849Y23524082D01*
X20678851Y23524085D01*
X20682667Y23528085D01*
X20743206Y23649243D01*
X20744113Y23654692D01*
X20744114Y23654695D01*
X20763985Y23774082D01*
X20765444Y23782845D01*
X20765500Y23790000D01*
X20764080Y23799449D01*
X20749076Y23899243D01*
X20745364Y23923935D01*
X20740261Y23934563D01*
X20689129Y24041043D01*
X20686735Y24046029D01*
X20682982Y24050089D01*
X20682980Y24050092D01*
X20598553Y24141424D01*
X20598552Y24141424D01*
X20594798Y24145486D01*
X20477681Y24213513D01*
X20472294Y24214762D01*
X20472293Y24214762D01*
X20351127Y24242847D01*
X20351126Y24242847D01*
X20345738Y24244096D01*
X20266481Y24238484D01*
X20216156Y24234921D01*
X20216155Y24234921D01*
X20210636Y24234530D01*
X20084319Y24185662D01*
X20079972Y24182235D01*
X19982299Y24105236D01*
X19982297Y24105234D01*
X19977955Y24101811D01*
X19974811Y24097262D01*
X19974810Y24097261D01*
X19939401Y24046029D01*
X19900948Y23990392D01*
X19899282Y23985124D01*
X19899281Y23985122D01*
X19870557Y23894297D01*
X19860108Y23861256D01*
X19859989Y23846058D01*
X19859503Y23784228D01*
X19841817Y23736799D01*
X19812205Y23715794D01*
X19780461Y23703513D01*
X19734319Y23685662D01*
X19729972Y23682235D01*
X19632299Y23605236D01*
X19632297Y23605234D01*
X19627955Y23601811D01*
X19624811Y23597262D01*
X19624810Y23597261D01*
X19579070Y23531081D01*
X19550948Y23490392D01*
X19549282Y23485124D01*
X19549281Y23485122D01*
X19511775Y23366528D01*
X19510108Y23361256D01*
X19509596Y23296029D01*
X19509431Y23275021D01*
X19509044Y23225819D01*
X15140450Y23225819D01*
X15116306Y23276098D01*
X15106735Y23296029D01*
X15102982Y23300089D01*
X15102980Y23300092D01*
X15018553Y23391424D01*
X15018552Y23391424D01*
X15014798Y23395486D01*
X14897681Y23463513D01*
X14892294Y23464762D01*
X14892293Y23464762D01*
X14771127Y23492847D01*
X14771126Y23492847D01*
X14765738Y23494096D01*
X14686481Y23488484D01*
X14636156Y23484921D01*
X14636155Y23484921D01*
X14630636Y23484530D01*
X14504319Y23435662D01*
X14499972Y23432235D01*
X14402299Y23355236D01*
X14402297Y23355234D01*
X14397955Y23351811D01*
X14394811Y23347262D01*
X14394810Y23347261D01*
X14352296Y23285748D01*
X14320948Y23240392D01*
X14319282Y23235124D01*
X14319280Y23235120D01*
X14302814Y23183052D01*
X14271964Y23142920D01*
X14222536Y23132006D01*
X14177656Y23155418D01*
X14166689Y23174571D01*
X14165364Y23173935D01*
X14160986Y23183052D01*
X14106735Y23296029D01*
X14102982Y23300089D01*
X14102980Y23300092D01*
X14018553Y23391424D01*
X14018552Y23391424D01*
X14014798Y23395486D01*
X13897681Y23463513D01*
X13880586Y23467475D01*
X13838159Y23495081D01*
X13823402Y23543502D01*
X13843221Y23590079D01*
X13881722Y23611906D01*
X13891008Y23613905D01*
X13945277Y23644297D01*
X14004357Y23677383D01*
X14004360Y23677385D01*
X14009179Y23680084D01*
X14047906Y23720680D01*
X14098849Y23774082D01*
X14098851Y23774085D01*
X14102667Y23778085D01*
X14163206Y23899243D01*
X14164113Y23904692D01*
X14164114Y23904695D01*
X14184967Y24029981D01*
X14185444Y24032845D01*
X14185500Y24040000D01*
X14178557Y24086185D01*
X14173193Y24121857D01*
X14165364Y24173935D01*
X14161379Y24182235D01*
X14109129Y24291043D01*
X14106735Y24296029D01*
X14102982Y24300089D01*
X14102980Y24300092D01*
X14018553Y24391424D01*
X14018552Y24391424D01*
X14014798Y24395486D01*
X13897681Y24463513D01*
X13892294Y24464762D01*
X13892293Y24464762D01*
X13771127Y24492847D01*
X13771126Y24492847D01*
X13765738Y24494096D01*
X13686481Y24488484D01*
X13636156Y24484921D01*
X13636155Y24484921D01*
X13630636Y24484530D01*
X13504319Y24435662D01*
X13499972Y24432235D01*
X13402299Y24355236D01*
X13402297Y24355234D01*
X13397955Y24351811D01*
X13394811Y24347262D01*
X13394810Y24347261D01*
X13359401Y24296029D01*
X13320948Y24240392D01*
X13319282Y24235124D01*
X13319281Y24235122D01*
X13281775Y24116528D01*
X13280108Y24111256D01*
X13279596Y24046029D01*
X13279091Y23981742D01*
X13279044Y23975819D01*
X10491275Y23975819D01*
X10486036Y23986728D01*
X10482283Y23990788D01*
X10482281Y23990791D01*
X10397854Y24082123D01*
X10397853Y24082123D01*
X10394099Y24086185D01*
X10276982Y24154212D01*
X10271595Y24155461D01*
X10271594Y24155461D01*
X10150428Y24183546D01*
X10150427Y24183546D01*
X10145039Y24184795D01*
X10065782Y24179183D01*
X10015457Y24175620D01*
X10015456Y24175620D01*
X10009937Y24175229D01*
X9883620Y24126361D01*
X9864460Y24111256D01*
X9855007Y24103804D01*
X9806935Y24087951D01*
X9772028Y24097928D01*
X9676981Y24153135D01*
X9671594Y24154384D01*
X9671593Y24154384D01*
X9550427Y24182469D01*
X9550426Y24182469D01*
X9545038Y24183718D01*
X9465781Y24178106D01*
X9415456Y24174543D01*
X9415455Y24174543D01*
X9409936Y24174152D01*
X9283619Y24125284D01*
X9279272Y24121857D01*
X9181599Y24044858D01*
X9181597Y24044856D01*
X9177255Y24041433D01*
X9100248Y23930014D01*
X9098582Y23924746D01*
X9098581Y23924744D01*
X9076754Y23855726D01*
X9059408Y23800878D01*
X9059023Y23751883D01*
X9058438Y23677383D01*
X9058344Y23665441D01*
X1500000Y23665441D01*
X1500000Y24835819D01*
X3599044Y24835819D01*
X3637851Y24706058D01*
X3640924Y24701459D01*
X3707809Y24601359D01*
X3713098Y24593443D01*
X3818132Y24507932D01*
X3823261Y24505854D01*
X3823262Y24505854D01*
X3853257Y24493705D01*
X3943666Y24457086D01*
X4003730Y24451884D01*
X4073089Y24445876D01*
X4073092Y24445876D01*
X4078601Y24445399D01*
X4211008Y24473905D01*
X4215835Y24476608D01*
X4324357Y24537383D01*
X4324360Y24537385D01*
X4329179Y24540084D01*
X4376749Y24589950D01*
X4418849Y24634082D01*
X4418851Y24634085D01*
X4422667Y24638085D01*
X4483206Y24759243D01*
X4484113Y24764692D01*
X4484114Y24764695D01*
X4498074Y24848567D01*
X4505444Y24892845D01*
X4505500Y24900000D01*
X4485364Y25033935D01*
X4477606Y25050092D01*
X4433748Y25141424D01*
X4426735Y25156029D01*
X4422982Y25160089D01*
X4422980Y25160092D01*
X4362223Y25225819D01*
X10709044Y25225819D01*
X10747851Y25096058D01*
X10750924Y25091459D01*
X10793015Y25028466D01*
X10823098Y24983443D01*
X10928132Y24897932D01*
X10933261Y24895854D01*
X10933262Y24895854D01*
X11003396Y24867447D01*
X11040983Y24833544D01*
X11049613Y24798279D01*
X11049268Y24754297D01*
X11049044Y24725819D01*
X11087851Y24596058D01*
X11090924Y24591459D01*
X11129962Y24533035D01*
X11163098Y24483443D01*
X11268132Y24397932D01*
X11273261Y24395854D01*
X11273262Y24395854D01*
X11345468Y24366608D01*
X11393666Y24347086D01*
X11453730Y24341884D01*
X11523089Y24335876D01*
X11523092Y24335876D01*
X11528601Y24335399D01*
X11661008Y24363905D01*
X11710147Y24391424D01*
X11774357Y24427383D01*
X11774360Y24427385D01*
X11779179Y24430084D01*
X11839052Y24492847D01*
X11868849Y24524082D01*
X11868851Y24524085D01*
X11872667Y24528085D01*
X11933206Y24649243D01*
X11934113Y24654692D01*
X11934114Y24654695D01*
X11954967Y24779981D01*
X11955444Y24782845D01*
X11955500Y24790000D01*
X11948612Y24835819D01*
X11939586Y24895854D01*
X11935364Y24923935D01*
X11876735Y25046029D01*
X11872982Y25050089D01*
X11872980Y25050092D01*
X11788553Y25141424D01*
X11788552Y25141424D01*
X11784798Y25145486D01*
X11667681Y25213513D01*
X11662291Y25214762D01*
X11662211Y25214794D01*
X11624358Y25248401D01*
X11615454Y25284183D01*
X11615477Y25287102D01*
X11615500Y25290000D01*
X11595364Y25423935D01*
X11536735Y25546029D01*
X11532982Y25550089D01*
X11532980Y25550092D01*
X11448553Y25641424D01*
X11448552Y25641424D01*
X11444798Y25645486D01*
X11327681Y25713513D01*
X11322294Y25714762D01*
X11322293Y25714762D01*
X11201127Y25742847D01*
X11201126Y25742847D01*
X11195738Y25744096D01*
X11116481Y25738484D01*
X11066156Y25734921D01*
X11066155Y25734921D01*
X11060636Y25734530D01*
X10934319Y25685662D01*
X10929972Y25682235D01*
X10832299Y25605236D01*
X10832297Y25605234D01*
X10827955Y25601811D01*
X10824811Y25597262D01*
X10824810Y25597261D01*
X10789401Y25546029D01*
X10750948Y25490392D01*
X10749282Y25485124D01*
X10749281Y25485122D01*
X10728201Y25418466D01*
X10710108Y25361256D01*
X10709790Y25320735D01*
X10709503Y25284183D01*
X10709044Y25225819D01*
X4362223Y25225819D01*
X4338553Y25251424D01*
X4338552Y25251424D01*
X4334798Y25255486D01*
X4217681Y25323513D01*
X4212294Y25324762D01*
X4212293Y25324762D01*
X4091127Y25352847D01*
X4091126Y25352847D01*
X4085738Y25354096D01*
X4006481Y25348484D01*
X3956156Y25344921D01*
X3956155Y25344921D01*
X3950636Y25344530D01*
X3824319Y25295662D01*
X3819972Y25292235D01*
X3722299Y25215236D01*
X3722297Y25215234D01*
X3717955Y25211811D01*
X3714811Y25207262D01*
X3714810Y25207261D01*
X3669307Y25141424D01*
X3640948Y25100392D01*
X3639282Y25095124D01*
X3639281Y25095122D01*
X3601775Y24976528D01*
X3600108Y24971256D01*
X3599044Y24835819D01*
X1500000Y24835819D01*
X1500000Y26975819D01*
X16279044Y26975819D01*
X16317851Y26846058D01*
X16320924Y26841459D01*
X16371746Y26765399D01*
X16393098Y26733443D01*
X16498132Y26647932D01*
X16623666Y26597086D01*
X16683730Y26591884D01*
X16753089Y26585876D01*
X16753092Y26585876D01*
X16758601Y26585399D01*
X16824804Y26599652D01*
X16885597Y26612740D01*
X16891008Y26613905D01*
X16895835Y26616608D01*
X17004357Y26677383D01*
X17004360Y26677385D01*
X17009179Y26680084D01*
X17064469Y26738043D01*
X17098849Y26774082D01*
X17098851Y26774085D01*
X17102667Y26778085D01*
X17163206Y26899243D01*
X17163208Y26899255D01*
X17192894Y26937251D01*
X17242407Y26947775D01*
X17287101Y26924010D01*
X17303005Y26895698D01*
X17317851Y26846058D01*
X17320924Y26841459D01*
X17371746Y26765399D01*
X17393098Y26733443D01*
X17498132Y26647932D01*
X17503261Y26645854D01*
X17503262Y26645854D01*
X17595972Y26608303D01*
X17633559Y26574400D01*
X17640561Y26524268D01*
X17613699Y26481364D01*
X17594893Y26470702D01*
X17504319Y26435662D01*
X17499972Y26432235D01*
X17402299Y26355236D01*
X17402297Y26355234D01*
X17397955Y26351811D01*
X17394811Y26347262D01*
X17394810Y26347261D01*
X17359401Y26296029D01*
X17320948Y26240392D01*
X17319282Y26235124D01*
X17319281Y26235122D01*
X17298201Y26168466D01*
X17280108Y26111256D01*
X17279044Y25975819D01*
X17317851Y25846058D01*
X17320924Y25841459D01*
X17359962Y25783035D01*
X17393098Y25733443D01*
X17498132Y25647932D01*
X17503261Y25645854D01*
X17503262Y25645854D01*
X17575468Y25616608D01*
X17623666Y25597086D01*
X17683730Y25591884D01*
X17753089Y25585876D01*
X17753092Y25585876D01*
X17758601Y25585399D01*
X17891008Y25613905D01*
X17940147Y25641424D01*
X18004357Y25677383D01*
X18004360Y25677385D01*
X18009179Y25680084D01*
X18069052Y25742847D01*
X18098849Y25774082D01*
X18098851Y25774085D01*
X18102667Y25778085D01*
X18163206Y25899243D01*
X18164113Y25904692D01*
X18164114Y25904695D01*
X18184967Y26029981D01*
X18185444Y26032845D01*
X18185500Y26040000D01*
X18165364Y26173935D01*
X18106735Y26296029D01*
X18102982Y26300089D01*
X18102980Y26300092D01*
X18018553Y26391424D01*
X18018552Y26391424D01*
X18014798Y26395486D01*
X17897681Y26463513D01*
X17880586Y26467475D01*
X17838159Y26495081D01*
X17823402Y26543502D01*
X17843221Y26590079D01*
X17881722Y26611906D01*
X17891008Y26613905D01*
X17895835Y26616608D01*
X18004357Y26677383D01*
X18004360Y26677385D01*
X18009179Y26680084D01*
X18064469Y26738043D01*
X18098849Y26774082D01*
X18098851Y26774085D01*
X18102667Y26778085D01*
X18163206Y26899243D01*
X18164113Y26904692D01*
X18164114Y26904695D01*
X18184967Y27029981D01*
X18185444Y27032845D01*
X18185500Y27040000D01*
X18178781Y27084695D01*
X18168148Y27155418D01*
X18168088Y27155819D01*
X20109044Y27155819D01*
X20147851Y27026058D01*
X20150924Y27021459D01*
X20189962Y26963035D01*
X20223098Y26913443D01*
X20328132Y26827932D01*
X20453666Y26777086D01*
X20513730Y26771884D01*
X20583089Y26765876D01*
X20583092Y26765876D01*
X20588601Y26765399D01*
X20721008Y26793905D01*
X20725835Y26796608D01*
X20834357Y26857383D01*
X20834360Y26857385D01*
X20839179Y26860084D01*
X20871812Y26894292D01*
X20928849Y26954082D01*
X20928851Y26954085D01*
X20932667Y26958085D01*
X20993206Y27079243D01*
X20994113Y27084692D01*
X20994114Y27084695D01*
X21014967Y27209981D01*
X21015444Y27212845D01*
X21015500Y27220000D01*
X20995364Y27353935D01*
X20990577Y27363905D01*
X20939129Y27471043D01*
X20936735Y27476029D01*
X20932982Y27480089D01*
X20932980Y27480092D01*
X20848553Y27571424D01*
X20848552Y27571424D01*
X20844798Y27575486D01*
X20727681Y27643513D01*
X20722294Y27644762D01*
X20722293Y27644762D01*
X20601127Y27672847D01*
X20601126Y27672847D01*
X20595738Y27674096D01*
X20516481Y27668484D01*
X20466156Y27664921D01*
X20466155Y27664921D01*
X20460636Y27664530D01*
X20455474Y27662533D01*
X20406310Y27643513D01*
X20334319Y27615662D01*
X20329972Y27612235D01*
X20232299Y27535236D01*
X20232297Y27535234D01*
X20227955Y27531811D01*
X20224811Y27527262D01*
X20224810Y27527261D01*
X20159133Y27432235D01*
X20150948Y27420392D01*
X20149282Y27415124D01*
X20149281Y27415122D01*
X20124437Y27336564D01*
X20110108Y27291256D01*
X20109044Y27155819D01*
X18168088Y27155819D01*
X18165364Y27173935D01*
X18106735Y27296029D01*
X18102982Y27300089D01*
X18102980Y27300092D01*
X18018553Y27391424D01*
X18018552Y27391424D01*
X18014798Y27395486D01*
X17897681Y27463513D01*
X17892294Y27464762D01*
X17892293Y27464762D01*
X17771127Y27492847D01*
X17771126Y27492847D01*
X17765738Y27494096D01*
X17686481Y27488484D01*
X17636156Y27484921D01*
X17636155Y27484921D01*
X17630636Y27484530D01*
X17504319Y27435662D01*
X17499972Y27432235D01*
X17402299Y27355236D01*
X17402297Y27355234D01*
X17397955Y27351811D01*
X17394811Y27347262D01*
X17394810Y27347261D01*
X17355955Y27291043D01*
X17320948Y27240392D01*
X17319282Y27235124D01*
X17319280Y27235120D01*
X17302814Y27183052D01*
X17271964Y27142920D01*
X17222536Y27132006D01*
X17177656Y27155418D01*
X17166689Y27174571D01*
X17165364Y27173935D01*
X17146680Y27212845D01*
X17106735Y27296029D01*
X17102982Y27300089D01*
X17102980Y27300092D01*
X17018553Y27391424D01*
X17018552Y27391424D01*
X17014798Y27395486D01*
X16897681Y27463513D01*
X16892294Y27464762D01*
X16892293Y27464762D01*
X16771127Y27492847D01*
X16771126Y27492847D01*
X16765738Y27494096D01*
X16686481Y27488484D01*
X16636156Y27484921D01*
X16636155Y27484921D01*
X16630636Y27484530D01*
X16504319Y27435662D01*
X16499972Y27432235D01*
X16402299Y27355236D01*
X16402297Y27355234D01*
X16397955Y27351811D01*
X16394811Y27347262D01*
X16394810Y27347261D01*
X16355955Y27291043D01*
X16320948Y27240392D01*
X16319282Y27235124D01*
X16319281Y27235122D01*
X16290122Y27142920D01*
X16280108Y27111256D01*
X16279857Y27079243D01*
X16279403Y27021459D01*
X16279044Y26975819D01*
X1500000Y26975819D01*
X1500000Y28325819D01*
X11049044Y28325819D01*
X11087851Y28196058D01*
X11090924Y28191459D01*
X11131305Y28131024D01*
X11143336Y28081856D01*
X11130652Y28047839D01*
X11090948Y27990392D01*
X11089282Y27985124D01*
X11089281Y27985122D01*
X11068201Y27918466D01*
X11050108Y27861256D01*
X11049044Y27725819D01*
X11087851Y27596058D01*
X11090924Y27591459D01*
X11130780Y27531811D01*
X11163098Y27483443D01*
X11268132Y27397932D01*
X11273261Y27395854D01*
X11273262Y27395854D01*
X11345468Y27366608D01*
X11393666Y27347086D01*
X11453730Y27341884D01*
X11523089Y27335876D01*
X11523092Y27335876D01*
X11528601Y27335399D01*
X11661008Y27363905D01*
X11710147Y27391424D01*
X11774357Y27427383D01*
X11774360Y27427385D01*
X11779179Y27430084D01*
X11818252Y27471043D01*
X11868849Y27524082D01*
X11868851Y27524085D01*
X11872667Y27528085D01*
X11933206Y27649243D01*
X11934113Y27654692D01*
X11934114Y27654695D01*
X11954967Y27779981D01*
X11955444Y27782845D01*
X11955500Y27790000D01*
X11935364Y27923935D01*
X11905983Y27985122D01*
X11879129Y28041044D01*
X11879128Y28041045D01*
X11876735Y28046029D01*
X11873977Y28049012D01*
X11861715Y28097465D01*
X11873058Y28127890D01*
X11872667Y28128085D01*
X11933206Y28249243D01*
X11934113Y28254692D01*
X11934114Y28254695D01*
X11954967Y28379981D01*
X11955444Y28382845D01*
X11955500Y28390000D01*
X11935364Y28523935D01*
X11876735Y28646029D01*
X11872982Y28650089D01*
X11872980Y28650092D01*
X11788553Y28741424D01*
X11788552Y28741424D01*
X11784798Y28745486D01*
X11667681Y28813513D01*
X11662294Y28814762D01*
X11662293Y28814762D01*
X11541127Y28842847D01*
X11541126Y28842847D01*
X11535738Y28844096D01*
X11456481Y28838484D01*
X11406156Y28834921D01*
X11406155Y28834921D01*
X11400636Y28834530D01*
X11274319Y28785662D01*
X11269972Y28782235D01*
X11172299Y28705236D01*
X11172297Y28705234D01*
X11167955Y28701811D01*
X11164811Y28697262D01*
X11164810Y28697261D01*
X11129401Y28646029D01*
X11090948Y28590392D01*
X11089282Y28585124D01*
X11089281Y28585122D01*
X11068201Y28518466D01*
X11050108Y28461256D01*
X11049044Y28325819D01*
X1500000Y28325819D01*
X1500000Y32007976D01*
X3799044Y32007976D01*
X3837851Y31878215D01*
X3840924Y31873616D01*
X3908756Y31772099D01*
X3913098Y31765600D01*
X4018132Y31680089D01*
X4103344Y31645575D01*
X4140931Y31611672D01*
X4147933Y31561540D01*
X4121071Y31518636D01*
X4102263Y31507973D01*
X4024319Y31477819D01*
X4019972Y31474392D01*
X3922299Y31397393D01*
X3922297Y31397391D01*
X3917955Y31393968D01*
X3914811Y31389419D01*
X3914810Y31389418D01*
X3861172Y31311811D01*
X3840948Y31282549D01*
X3839282Y31277281D01*
X3839281Y31277279D01*
X3801775Y31158685D01*
X3800108Y31153413D01*
X3799955Y31133935D01*
X3799463Y31071256D01*
X3799044Y31017976D01*
X3837851Y30888215D01*
X3840924Y30883616D01*
X3895820Y30801459D01*
X3913098Y30775600D01*
X4018132Y30690089D01*
X4023261Y30688011D01*
X4023262Y30688011D01*
X4115972Y30650460D01*
X4153559Y30616557D01*
X4160561Y30566425D01*
X4133699Y30523521D01*
X4114893Y30512859D01*
X4024319Y30477819D01*
X4019972Y30474392D01*
X3922299Y30397393D01*
X3922297Y30397391D01*
X3917955Y30393968D01*
X3914811Y30389419D01*
X3914810Y30389418D01*
X3879401Y30338186D01*
X3840948Y30282549D01*
X3839282Y30277281D01*
X3839281Y30277279D01*
X3818201Y30210623D01*
X3800108Y30153413D01*
X3800065Y30147883D01*
X3799492Y30074941D01*
X3799044Y30017976D01*
X3837851Y29888215D01*
X3840924Y29883616D01*
X3902813Y29790993D01*
X3913098Y29775600D01*
X4018132Y29690089D01*
X4023261Y29688011D01*
X4023262Y29688011D01*
X4095468Y29658765D01*
X4143666Y29639243D01*
X4203730Y29634041D01*
X4273089Y29628033D01*
X4273092Y29628033D01*
X4278601Y29627556D01*
X4411008Y29656062D01*
X4433068Y29668416D01*
X4524357Y29719540D01*
X4524360Y29719542D01*
X4529179Y29722241D01*
X4535859Y29729243D01*
X4608908Y29805819D01*
X13099044Y29805819D01*
X13137851Y29676058D01*
X13140924Y29671459D01*
X13169481Y29628721D01*
X13213098Y29563443D01*
X13318132Y29477932D01*
X13323261Y29475854D01*
X13323262Y29475854D01*
X13395468Y29446608D01*
X13443666Y29427086D01*
X13503730Y29421884D01*
X13573089Y29415876D01*
X13573092Y29415876D01*
X13578601Y29415399D01*
X13711008Y29443905D01*
X13715835Y29446608D01*
X13824357Y29507383D01*
X13824360Y29507385D01*
X13829179Y29510084D01*
X13854003Y29536107D01*
X13899361Y29558574D01*
X13948551Y29546629D01*
X13978554Y29505860D01*
X13981545Y29484448D01*
X13981477Y29475769D01*
X14020284Y29346008D01*
X14023357Y29341409D01*
X14062395Y29282985D01*
X14095531Y29233393D01*
X14200565Y29147882D01*
X14326099Y29097036D01*
X14386163Y29091834D01*
X14455522Y29085826D01*
X14455525Y29085826D01*
X14461034Y29085349D01*
X14593441Y29113855D01*
X14697038Y29171872D01*
X14746998Y29180008D01*
X14779916Y29164693D01*
X14800565Y29147882D01*
X14926099Y29097036D01*
X14986163Y29091834D01*
X15055522Y29085826D01*
X15055525Y29085826D01*
X15061034Y29085349D01*
X15193441Y29113855D01*
X15198268Y29116558D01*
X15306790Y29177333D01*
X15306793Y29177335D01*
X15311612Y29180034D01*
X15315427Y29184033D01*
X15401282Y29274032D01*
X15401284Y29274035D01*
X15405100Y29278035D01*
X15465639Y29399193D01*
X15466546Y29404642D01*
X15466547Y29404645D01*
X15487400Y29529931D01*
X15487877Y29532795D01*
X15487933Y29539950D01*
X15483710Y29568043D01*
X15470652Y29654897D01*
X15467797Y29673885D01*
X15409168Y29795979D01*
X15405415Y29800039D01*
X15405413Y29800042D01*
X15320986Y29891374D01*
X15320985Y29891374D01*
X15317231Y29895436D01*
X15200114Y29963463D01*
X15194727Y29964712D01*
X15194726Y29964712D01*
X15073560Y29992797D01*
X15073559Y29992797D01*
X15068171Y29994046D01*
X14988914Y29988434D01*
X14938589Y29984871D01*
X14938588Y29984871D01*
X14933069Y29984480D01*
X14806752Y29935612D01*
X14778924Y29913674D01*
X14730853Y29897824D01*
X14695945Y29907800D01*
X14677246Y29918661D01*
X14600114Y29963463D01*
X14594727Y29964712D01*
X14594726Y29964712D01*
X14473560Y29992797D01*
X14473559Y29992797D01*
X14468171Y29994046D01*
X14388914Y29988434D01*
X14338589Y29984871D01*
X14338588Y29984871D01*
X14333069Y29984480D01*
X14206752Y29935612D01*
X14121742Y29868595D01*
X14118056Y29865689D01*
X14069983Y29849838D01*
X14022968Y29868595D01*
X13999065Y29912802D01*
X13986187Y29998465D01*
X13986186Y29998469D01*
X13985364Y30003935D01*
X13926735Y30126029D01*
X13922982Y30130089D01*
X13922980Y30130092D01*
X13838553Y30221424D01*
X13838552Y30221424D01*
X13834798Y30225486D01*
X13717681Y30293513D01*
X13712294Y30294762D01*
X13712293Y30294762D01*
X13591127Y30322847D01*
X13591126Y30322847D01*
X13585738Y30324096D01*
X13506481Y30318484D01*
X13456156Y30314921D01*
X13456155Y30314921D01*
X13450636Y30314530D01*
X13324319Y30265662D01*
X13319972Y30262235D01*
X13222299Y30185236D01*
X13222297Y30185234D01*
X13217955Y30181811D01*
X13214811Y30177262D01*
X13214810Y30177261D01*
X13179401Y30126029D01*
X13140948Y30070392D01*
X13139282Y30065124D01*
X13139281Y30065122D01*
X13101775Y29946528D01*
X13100108Y29941256D01*
X13099845Y29907800D01*
X13099126Y29816239D01*
X13099044Y29805819D01*
X4608908Y29805819D01*
X4618849Y29816239D01*
X4618851Y29816242D01*
X4622667Y29820242D01*
X4683206Y29941400D01*
X4684113Y29946849D01*
X4684114Y29946852D01*
X4703799Y30065122D01*
X4705444Y30075002D01*
X4705500Y30082157D01*
X4685364Y30216092D01*
X4626735Y30338186D01*
X4622982Y30342246D01*
X4622980Y30342249D01*
X4538553Y30433581D01*
X4538552Y30433581D01*
X4534798Y30437643D01*
X4417681Y30505670D01*
X4400586Y30509632D01*
X4358159Y30537238D01*
X4343402Y30585659D01*
X4363221Y30632236D01*
X4401722Y30654063D01*
X4411008Y30656062D01*
X4415835Y30658765D01*
X4524357Y30719540D01*
X4524360Y30719542D01*
X4529179Y30722241D01*
X4540475Y30734082D01*
X4618849Y30816239D01*
X4618851Y30816242D01*
X4622667Y30820242D01*
X4680417Y30935819D01*
X8539044Y30935819D01*
X8577851Y30806058D01*
X8580924Y30801459D01*
X8635661Y30719540D01*
X8653098Y30693443D01*
X8758132Y30607932D01*
X8883666Y30557086D01*
X8943730Y30551884D01*
X9013089Y30545876D01*
X9013092Y30545876D01*
X9018601Y30545399D01*
X9151008Y30573905D01*
X9155835Y30576608D01*
X9264357Y30637383D01*
X9264360Y30637385D01*
X9269179Y30640084D01*
X9316749Y30689950D01*
X9358849Y30734082D01*
X9358851Y30734085D01*
X9362667Y30738085D01*
X9423206Y30859243D01*
X9424113Y30864692D01*
X9424114Y30864695D01*
X9444967Y30989981D01*
X9445444Y30992845D01*
X9445500Y31000000D01*
X9442798Y31017976D01*
X9433788Y31077905D01*
X9425364Y31133935D01*
X9366735Y31256029D01*
X9362982Y31260089D01*
X9362980Y31260092D01*
X9278553Y31351424D01*
X9278552Y31351424D01*
X9274798Y31355486D01*
X9157681Y31423513D01*
X9152294Y31424762D01*
X9152293Y31424762D01*
X9031127Y31452847D01*
X9031126Y31452847D01*
X9025738Y31454096D01*
X8946481Y31448484D01*
X8896156Y31444921D01*
X8896155Y31444921D01*
X8890636Y31444530D01*
X8764319Y31395662D01*
X8759972Y31392235D01*
X8662299Y31315236D01*
X8662297Y31315234D01*
X8657955Y31311811D01*
X8654811Y31307262D01*
X8654810Y31307261D01*
X8619401Y31256029D01*
X8580948Y31200392D01*
X8579282Y31195124D01*
X8579281Y31195122D01*
X8541775Y31076528D01*
X8540108Y31071256D01*
X8539648Y31012678D01*
X8539088Y30941400D01*
X8539044Y30935819D01*
X4680417Y30935819D01*
X4683206Y30941400D01*
X4684113Y30946849D01*
X4684114Y30946852D01*
X4704967Y31072138D01*
X4705444Y31075002D01*
X4705500Y31082157D01*
X4685364Y31216092D01*
X4666187Y31256029D01*
X4629129Y31333200D01*
X4626735Y31338186D01*
X4622982Y31342246D01*
X4622980Y31342249D01*
X4538553Y31433581D01*
X4538552Y31433581D01*
X4534798Y31437643D01*
X4417681Y31505670D01*
X4412295Y31506918D01*
X4408556Y31508399D01*
X4370704Y31542006D01*
X4363310Y31592082D01*
X4389834Y31635196D01*
X4407774Y31645366D01*
X4411008Y31646062D01*
X4517180Y31705521D01*
X4524357Y31709540D01*
X4524360Y31709542D01*
X4526640Y31710819D01*
X13499044Y31710819D01*
X13537851Y31581058D01*
X13540924Y31576459D01*
X13605499Y31479816D01*
X13613098Y31468443D01*
X13718132Y31382932D01*
X13723261Y31380854D01*
X13723262Y31380854D01*
X13828606Y31338186D01*
X13843666Y31332086D01*
X13903730Y31326884D01*
X13973089Y31320876D01*
X13973092Y31320876D01*
X13978601Y31320399D01*
X14111008Y31348905D01*
X14115835Y31351608D01*
X14224357Y31412383D01*
X14224360Y31412385D01*
X14229179Y31415084D01*
X14237220Y31423513D01*
X14318849Y31509082D01*
X14318851Y31509085D01*
X14322667Y31513085D01*
X14383206Y31634243D01*
X14384113Y31639692D01*
X14384114Y31639695D01*
X14404967Y31764981D01*
X14405444Y31767845D01*
X14405500Y31775000D01*
X14400804Y31806239D01*
X14389982Y31878215D01*
X14385364Y31908935D01*
X14376952Y31926454D01*
X14329129Y32026043D01*
X14326735Y32031029D01*
X14322982Y32035089D01*
X14322980Y32035092D01*
X14238553Y32126424D01*
X14238552Y32126424D01*
X14234798Y32130486D01*
X14117681Y32198513D01*
X14112294Y32199762D01*
X14112293Y32199762D01*
X13991127Y32227847D01*
X13991126Y32227847D01*
X13985738Y32229096D01*
X13906481Y32223484D01*
X13856156Y32219921D01*
X13856155Y32219921D01*
X13850636Y32219530D01*
X13724319Y32170662D01*
X13719972Y32167235D01*
X13622299Y32090236D01*
X13622297Y32090234D01*
X13617955Y32086811D01*
X13614811Y32082262D01*
X13614810Y32082261D01*
X13579401Y32031029D01*
X13540948Y31975392D01*
X13539282Y31970124D01*
X13539281Y31970122D01*
X13501775Y31851528D01*
X13500108Y31846256D01*
X13500065Y31840726D01*
X13499511Y31770200D01*
X13499044Y31710819D01*
X4526640Y31710819D01*
X4529179Y31712241D01*
X4576749Y31762107D01*
X4618849Y31806239D01*
X4618851Y31806242D01*
X4622667Y31810242D01*
X4683206Y31931400D01*
X4684113Y31936849D01*
X4684114Y31936852D01*
X4704967Y32062138D01*
X4705444Y32065002D01*
X4705500Y32072157D01*
X4685364Y32206092D01*
X4678724Y32219921D01*
X4629129Y32323200D01*
X4626735Y32328186D01*
X4622982Y32332246D01*
X4622980Y32332249D01*
X4538553Y32423581D01*
X4538552Y32423581D01*
X4534798Y32427643D01*
X4417681Y32495670D01*
X4412294Y32496919D01*
X4412293Y32496919D01*
X4291127Y32525004D01*
X4291126Y32525004D01*
X4285738Y32526253D01*
X4206481Y32520641D01*
X4156156Y32517078D01*
X4156155Y32517078D01*
X4150636Y32516687D01*
X4024319Y32467819D01*
X4019972Y32464392D01*
X3922299Y32387393D01*
X3922297Y32387391D01*
X3917955Y32383968D01*
X3914811Y32379419D01*
X3914810Y32379418D01*
X3879401Y32328186D01*
X3840948Y32272549D01*
X3839282Y32267281D01*
X3839281Y32267279D01*
X3807642Y32167235D01*
X3800108Y32143413D01*
X3799044Y32007976D01*
X1500000Y32007976D01*
X1500000Y34118448D01*
X1501422Y34132884D01*
X1519964Y34226103D01*
X1531013Y34252779D01*
X1583818Y34331807D01*
X1593021Y34343021D01*
X1656979Y34406979D01*
X1668193Y34416182D01*
X1747221Y34468987D01*
X1773896Y34480036D01*
X1810869Y34487390D01*
X1867116Y34498578D01*
X1881552Y34500000D01*
X25118449Y34500000D01*
X25132885Y34498578D01*
G37*
G04 #@! TD.AperFunction*
G04 #@! TD*
G04 #@! TA.AperFunction,Conductor*
G04 #@! TO.N,VBUS*
G36*
X32424306Y20498578D02*
G01*
X32456593Y20492156D01*
X32479258Y20487648D01*
X32505933Y20476599D01*
X32552519Y20445471D01*
X32563733Y20436268D01*
X32686269Y20313732D01*
X32695472Y20302518D01*
X32726600Y20255932D01*
X32737649Y20229256D01*
X32748579Y20174305D01*
X32750001Y20159869D01*
X32750001Y14340131D01*
X32748579Y14325695D01*
X32737946Y14272235D01*
X32737649Y14270744D01*
X32726600Y14244068D01*
X32695472Y14197482D01*
X32686269Y14186268D01*
X32563733Y14063732D01*
X32552520Y14054530D01*
X32506484Y14023769D01*
X32505933Y14023401D01*
X32479258Y14012352D01*
X32475250Y14011555D01*
X32424306Y14001422D01*
X32409870Y14000000D01*
X32047704Y14000000D01*
X32000138Y14017313D01*
X31974526Y14062998D01*
X31966186Y14118465D01*
X31965364Y14123935D01*
X31957606Y14140092D01*
X31913748Y14231424D01*
X31906735Y14246029D01*
X31902982Y14250089D01*
X31902980Y14250092D01*
X31818553Y14341424D01*
X31818552Y14341424D01*
X31814798Y14345486D01*
X31697681Y14413513D01*
X31692294Y14414762D01*
X31692293Y14414762D01*
X31571127Y14442847D01*
X31571126Y14442847D01*
X31565738Y14444096D01*
X31486481Y14438484D01*
X31436156Y14434921D01*
X31436155Y14434921D01*
X31430636Y14434530D01*
X31304319Y14385662D01*
X31299972Y14382235D01*
X31202299Y14305236D01*
X31202297Y14305234D01*
X31197955Y14301811D01*
X31194811Y14297262D01*
X31194810Y14297261D01*
X31149307Y14231424D01*
X31120948Y14190392D01*
X31119282Y14185124D01*
X31119281Y14185122D01*
X31115300Y14172533D01*
X31080108Y14061256D01*
X31080103Y14060578D01*
X31056583Y14018150D01*
X31008036Y14000000D01*
X30706188Y14000000D01*
X30658622Y14017313D01*
X30651853Y14023765D01*
X30594798Y14085486D01*
X30477681Y14153513D01*
X30472294Y14154762D01*
X30472293Y14154762D01*
X30351127Y14182847D01*
X30351126Y14182847D01*
X30345738Y14184096D01*
X30266481Y14178484D01*
X30216156Y14174921D01*
X30216155Y14174921D01*
X30210636Y14174530D01*
X30084319Y14125662D01*
X30079972Y14122235D01*
X29982299Y14045236D01*
X29982297Y14045234D01*
X29977955Y14041811D01*
X29974811Y14037262D01*
X29974810Y14037261D01*
X29971123Y14031926D01*
X29929837Y14002640D01*
X29910248Y14000000D01*
X28838527Y14000000D01*
X28790961Y14017313D01*
X28771819Y14041967D01*
X28770249Y14045236D01*
X28726651Y14136029D01*
X28722898Y14140089D01*
X28722896Y14140092D01*
X28638469Y14231424D01*
X28638468Y14231424D01*
X28634714Y14235486D01*
X28517597Y14303513D01*
X28512210Y14304762D01*
X28512209Y14304762D01*
X28391043Y14332847D01*
X28391042Y14332847D01*
X28385654Y14334096D01*
X28306397Y14328484D01*
X28256072Y14324921D01*
X28256071Y14324921D01*
X28250552Y14324530D01*
X28124235Y14275662D01*
X28119888Y14272235D01*
X28022215Y14195236D01*
X28022213Y14195234D01*
X28017871Y14191811D01*
X28014727Y14187262D01*
X28014726Y14187261D01*
X27969784Y14122235D01*
X27940864Y14080392D01*
X27939196Y14075117D01*
X27931786Y14051687D01*
X27900936Y14011555D01*
X27861230Y14000000D01*
X22340131Y14000000D01*
X22325695Y14001422D01*
X22274751Y14011555D01*
X22270743Y14012352D01*
X22244068Y14023401D01*
X22243518Y14023769D01*
X22197481Y14054530D01*
X22186268Y14063732D01*
X22063732Y14186268D01*
X22054529Y14197482D01*
X22023401Y14244068D01*
X22012352Y14270744D01*
X22012056Y14272235D01*
X22001422Y14325695D01*
X22000000Y14340131D01*
X22000000Y15583568D01*
X22017313Y15631134D01*
X22061150Y15656444D01*
X22111000Y15647654D01*
X22120720Y15640955D01*
X22198132Y15577932D01*
X22323666Y15527086D01*
X22383730Y15521884D01*
X22453089Y15515876D01*
X22453092Y15515876D01*
X22458601Y15515399D01*
X22591008Y15543905D01*
X22595835Y15546608D01*
X22704357Y15607383D01*
X22704360Y15607385D01*
X22709179Y15610084D01*
X22729260Y15631134D01*
X22798849Y15704082D01*
X22798851Y15704085D01*
X22802667Y15708085D01*
X22863206Y15829243D01*
X22864113Y15834692D01*
X22864114Y15834695D01*
X22884967Y15959981D01*
X22885444Y15962845D01*
X22885500Y15970000D01*
X22884308Y15977932D01*
X22866186Y16098466D01*
X22865364Y16103935D01*
X22806735Y16226029D01*
X22719487Y16320414D01*
X22699912Y16367095D01*
X22714923Y16415437D01*
X22720283Y16421723D01*
X22798846Y16504079D01*
X22798847Y16504081D01*
X22802667Y16508085D01*
X22863206Y16629243D01*
X22864113Y16634692D01*
X22864114Y16634695D01*
X22884967Y16759981D01*
X22885444Y16762845D01*
X22885500Y16770000D01*
X22865364Y16903935D01*
X22806735Y17026029D01*
X22802982Y17030089D01*
X22802980Y17030092D01*
X22718553Y17121424D01*
X22718552Y17121424D01*
X22714798Y17125486D01*
X22597681Y17193513D01*
X22592294Y17194762D01*
X22592293Y17194762D01*
X22471127Y17222847D01*
X22471126Y17222847D01*
X22465738Y17224096D01*
X22386481Y17218484D01*
X22336156Y17214921D01*
X22336155Y17214921D01*
X22330636Y17214530D01*
X22204319Y17165662D01*
X22119812Y17099042D01*
X22071740Y17083191D01*
X22024725Y17101948D01*
X22000766Y17146538D01*
X22000000Y17157156D01*
X22000000Y20159869D01*
X22001422Y20174305D01*
X22012352Y20229256D01*
X22023401Y20255932D01*
X22054529Y20302518D01*
X22063732Y20313732D01*
X22186268Y20436268D01*
X22197482Y20445471D01*
X22244068Y20476599D01*
X22270743Y20487648D01*
X22293408Y20492156D01*
X22325695Y20498578D01*
X22340131Y20500000D01*
X32409870Y20500000D01*
X32424306Y20498578D01*
G37*
G04 #@! TD.AperFunction*
G04 #@! TD*
M02*
