G04 #@! TF.GenerationSoftware,KiCad,Pcbnew,(5.99.0-7554-g937713dbbc)*
G04 #@! TF.CreationDate,2020-12-16T08:12:25+03:00*
G04 #@! TF.ProjectId,BioniX,42696f6e-6958-42e6-9b69-6361645f7063,rev?*
G04 #@! TF.SameCoordinates,PX6422c40PY5a995c0*
G04 #@! TF.FileFunction,Soldermask,Top*
G04 #@! TF.FilePolarity,Negative*
%FSLAX46Y46*%
G04 Gerber Fmt 4.6, Leading zero omitted, Abs format (unit mm)*
G04 Created by KiCad (PCBNEW (5.99.0-7554-g937713dbbc)) date 2020-12-16 08:12:25*
%MOMM*%
%LPD*%
G01*
G04 APERTURE LIST*
G04 Aperture macros list*
%AMRoundRect*
0 Rectangle with rounded corners*
0 $1 Rounding radius*
0 $2 $3 $4 $5 $6 $7 $8 $9 X,Y pos of 4 corners*
0 Add a 4 corners polygon primitive as box body*
4,1,4,$2,$3,$4,$5,$6,$7,$8,$9,$2,$3,0*
0 Add four circle primitives for the rounded corners*
1,1,$1+$1,$2,$3,0*
1,1,$1+$1,$4,$5,0*
1,1,$1+$1,$6,$7,0*
1,1,$1+$1,$8,$9,0*
0 Add four rect primitives between the rounded corners*
20,1,$1+$1,$2,$3,$4,$5,0*
20,1,$1+$1,$4,$5,$6,$7,0*
20,1,$1+$1,$6,$7,$8,$9,0*
20,1,$1+$1,$8,$9,$2,$3,0*%
G04 Aperture macros list end*
%ADD10RoundRect,0.100000X-0.100000X0.130000X-0.100000X-0.130000X0.100000X-0.130000X0.100000X0.130000X0*%
%ADD11RoundRect,0.249600X-0.350400X-0.650400X0.350400X-0.650400X0.350400X0.650400X-0.350400X0.650400X0*%
%ADD12RoundRect,0.150000X-0.150000X-0.625000X0.150000X-0.625000X0.150000X0.625000X-0.150000X0.625000X0*%
%ADD13RoundRect,0.140000X-0.140000X-0.170000X0.140000X-0.170000X0.140000X0.170000X-0.140000X0.170000X0*%
%ADD14RoundRect,0.225000X0.250000X-0.225000X0.250000X0.225000X-0.250000X0.225000X-0.250000X-0.225000X0*%
%ADD15RoundRect,0.062500X0.062500X-0.375000X0.062500X0.375000X-0.062500X0.375000X-0.062500X-0.375000X0*%
%ADD16RoundRect,0.062500X0.375000X-0.062500X0.375000X0.062500X-0.375000X0.062500X-0.375000X-0.062500X0*%
%ADD17RoundRect,0.392000X2.408000X-2.408000X2.408000X2.408000X-2.408000X2.408000X-2.408000X-2.408000X0*%
%ADD18RoundRect,0.135000X-0.185000X0.135000X-0.185000X-0.135000X0.185000X-0.135000X0.185000X0.135000X0*%
%ADD19RoundRect,0.100000X0.130000X0.100000X-0.130000X0.100000X-0.130000X-0.100000X0.130000X-0.100000X0*%
%ADD20RoundRect,0.100000X0.100000X-0.130000X0.100000X0.130000X-0.100000X0.130000X-0.100000X-0.130000X0*%
%ADD21RoundRect,0.160000X0.290000X0.240000X-0.290000X0.240000X-0.290000X-0.240000X0.290000X-0.240000X0*%
%ADD22RoundRect,0.100000X-0.130000X-0.100000X0.130000X-0.100000X0.130000X0.100000X-0.130000X0.100000X0*%
%ADD23RoundRect,0.140000X0.140000X0.170000X-0.140000X0.170000X-0.140000X-0.170000X0.140000X-0.170000X0*%
%ADD24RoundRect,0.048000X0.072000X-0.252000X0.072000X0.252000X-0.072000X0.252000X-0.072000X-0.252000X0*%
%ADD25RoundRect,0.048000X0.252000X0.072000X-0.252000X0.072000X-0.252000X-0.072000X0.252000X-0.072000X0*%
%ADD26RoundRect,0.247500X0.952500X-0.577500X0.952500X0.577500X-0.952500X0.577500X-0.952500X-0.577500X0*%
%ADD27C,0.257000*%
%ADD28RoundRect,0.135000X0.185000X-0.135000X0.185000X0.135000X-0.185000X0.135000X-0.185000X-0.135000X0*%
%ADD29RoundRect,0.147500X0.172500X-0.147500X0.172500X0.147500X-0.172500X0.147500X-0.172500X-0.147500X0*%
%ADD30RoundRect,0.249600X0.350400X0.650400X-0.350400X0.650400X-0.350400X-0.650400X0.350400X-0.650400X0*%
%ADD31RoundRect,0.150000X0.150000X0.625000X-0.150000X0.625000X-0.150000X-0.625000X0.150000X-0.625000X0*%
%ADD32RoundRect,0.140000X0.170000X-0.140000X0.170000X0.140000X-0.170000X0.140000X-0.170000X-0.140000X0*%
%ADD33RoundRect,0.080000X0.170000X0.120000X-0.170000X0.120000X-0.170000X-0.120000X0.170000X-0.120000X0*%
%ADD34RoundRect,0.190000X0.385000X0.285000X-0.385000X0.285000X-0.385000X-0.285000X0.385000X-0.285000X0*%
%ADD35RoundRect,0.096000X0.304000X0.144000X-0.304000X0.144000X-0.304000X-0.144000X0.304000X-0.144000X0*%
%ADD36RoundRect,0.250000X-0.325000X-1.100000X0.325000X-1.100000X0.325000X1.100000X-0.325000X1.100000X0*%
%ADD37RoundRect,0.140000X-0.170000X0.140000X-0.170000X-0.140000X0.170000X-0.140000X0.170000X0.140000X0*%
%ADD38RoundRect,0.060000X0.090000X-0.265000X0.090000X0.265000X-0.090000X0.265000X-0.090000X-0.265000X0*%
%ADD39RoundRect,0.232500X1.007500X-0.542500X1.007500X0.542500X-1.007500X0.542500X-1.007500X-0.542500X0*%
%ADD40C,0.650000*%
%ADD41RoundRect,0.150000X-0.150000X-0.575000X0.150000X-0.575000X0.150000X0.575000X-0.150000X0.575000X0*%
%ADD42RoundRect,0.075000X-0.075000X-0.650000X0.075000X-0.650000X0.075000X0.650000X-0.075000X0.650000X0*%
%ADD43O,1.000000X2.100000*%
%ADD44O,1.000000X1.600000*%
%ADD45RoundRect,0.249600X-0.650400X0.350400X-0.650400X-0.350400X0.650400X-0.350400X0.650400X0.350400X0*%
%ADD46RoundRect,0.150000X-0.625000X0.150000X-0.625000X-0.150000X0.625000X-0.150000X0.625000X0.150000X0*%
%ADD47RoundRect,0.147500X-0.172500X0.147500X-0.172500X-0.147500X0.172500X-0.147500X0.172500X0.147500X0*%
%ADD48RoundRect,0.180000X0.420000X2.170000X-0.420000X2.170000X-0.420000X-2.170000X0.420000X-2.170000X0*%
%ADD49RoundRect,0.150000X0.150000X-0.150000X0.150000X0.150000X-0.150000X0.150000X-0.150000X-0.150000X0*%
%ADD50RoundRect,0.249600X0.650400X-0.350400X0.650400X0.350400X-0.650400X0.350400X-0.650400X-0.350400X0*%
%ADD51RoundRect,0.150000X0.625000X-0.150000X0.625000X0.150000X-0.625000X0.150000X-0.625000X-0.150000X0*%
%ADD52RoundRect,0.135000X0.135000X0.185000X-0.135000X0.185000X-0.135000X-0.185000X0.135000X-0.185000X0*%
%ADD53C,0.700000*%
%ADD54C,4.400000*%
%ADD55RoundRect,0.218750X0.256250X-0.218750X0.256250X0.218750X-0.256250X0.218750X-0.256250X-0.218750X0*%
%ADD56RoundRect,0.187500X0.187500X-0.187500X0.187500X0.187500X-0.187500X0.187500X-0.187500X-0.187500X0*%
%ADD57RoundRect,0.150000X0.225000X-0.150000X0.225000X0.150000X-0.225000X0.150000X-0.225000X-0.150000X0*%
%ADD58RoundRect,0.250000X-0.475000X0.250000X-0.475000X-0.250000X0.475000X-0.250000X0.475000X0.250000X0*%
%ADD59RoundRect,0.250000X-0.325000X-0.650000X0.325000X-0.650000X0.325000X0.650000X-0.325000X0.650000X0*%
%ADD60RoundRect,0.225000X0.225000X0.250000X-0.225000X0.250000X-0.225000X-0.250000X0.225000X-0.250000X0*%
%ADD61C,0.800000*%
%ADD62RoundRect,0.250000X0.375000X0.850000X-0.375000X0.850000X-0.375000X-0.850000X0.375000X-0.850000X0*%
%ADD63RoundRect,0.080000X-0.080000X0.080000X-0.080000X-0.080000X0.080000X-0.080000X0.080000X0.080000X0*%
%ADD64RoundRect,0.080000X-0.080000X-0.080000X0.080000X-0.080000X0.080000X0.080000X-0.080000X0.080000X0*%
%ADD65RoundRect,0.218750X-0.256250X0.218750X-0.256250X-0.218750X0.256250X-0.218750X0.256250X0.218750X0*%
%ADD66RoundRect,0.250000X-0.750000X0.250000X-0.750000X-0.250000X0.750000X-0.250000X0.750000X0.250000X0*%
%ADD67RoundRect,0.175000X-0.175000X-1.225000X0.175000X-1.225000X0.175000X1.225000X-0.175000X1.225000X0*%
%ADD68RoundRect,0.050400X0.249600X-0.069600X0.249600X0.069600X-0.249600X0.069600X-0.249600X-0.069600X0*%
%ADD69RoundRect,0.050400X0.069600X-0.249600X0.069600X0.249600X-0.069600X0.249600X-0.069600X-0.249600X0*%
%ADD70RoundRect,0.050000X0.250000X-0.050000X0.250000X0.050000X-0.250000X0.050000X-0.250000X-0.050000X0*%
%ADD71RoundRect,0.105000X0.245000X0.270000X-0.245000X0.270000X-0.245000X-0.270000X0.245000X-0.270000X0*%
%ADD72RoundRect,0.220000X1.330000X-0.880000X1.330000X0.880000X-1.330000X0.880000X-1.330000X-0.880000X0*%
%ADD73RoundRect,0.125000X0.125000X-0.275000X0.125000X0.275000X-0.125000X0.275000X-0.125000X-0.275000X0*%
G04 APERTURE END LIST*
D10*
G04 #@! TO.C,R53*
X25900000Y29810000D03*
X25900000Y29170000D03*
G04 #@! TD*
D11*
G04 #@! TO.C,J3*
X32800000Y1505000D03*
X27200000Y1505000D03*
D12*
X28500000Y5380000D03*
X29500000Y5380000D03*
X30500000Y5380000D03*
X31500000Y5380000D03*
G04 #@! TD*
D13*
G04 #@! TO.C,C53*
X28650000Y20780000D03*
X29610000Y20780000D03*
G04 #@! TD*
D14*
G04 #@! TO.C,C40*
X24105000Y15130000D03*
X24105000Y16680000D03*
G04 #@! TD*
D15*
G04 #@! TO.C,U1*
X12980000Y21602500D03*
X13480000Y21602500D03*
X13980000Y21602500D03*
X14480000Y21602500D03*
X14980000Y21602500D03*
X15480000Y21602500D03*
X15980000Y21602500D03*
X16480000Y21602500D03*
X16980000Y21602500D03*
X17480000Y21602500D03*
X17980000Y21602500D03*
X18480000Y21602500D03*
D16*
X19167500Y22290000D03*
X19167500Y22790000D03*
X19167500Y23290000D03*
X19167500Y23790000D03*
X19167500Y24290000D03*
X19167500Y24790000D03*
X19167500Y25290000D03*
X19167500Y25790000D03*
X19167500Y26290000D03*
X19167500Y26790000D03*
X19167500Y27290000D03*
X19167500Y27790000D03*
D15*
X18480000Y28477500D03*
X17980000Y28477500D03*
X17480000Y28477500D03*
X16980000Y28477500D03*
X16480000Y28477500D03*
X15980000Y28477500D03*
X15480000Y28477500D03*
X14980000Y28477500D03*
X14480000Y28477500D03*
X13980000Y28477500D03*
X13480000Y28477500D03*
X12980000Y28477500D03*
D16*
X12292500Y27790000D03*
X12292500Y27290000D03*
X12292500Y26790000D03*
X12292500Y26290000D03*
X12292500Y25790000D03*
X12292500Y25290000D03*
X12292500Y24790000D03*
X12292500Y24290000D03*
X12292500Y23790000D03*
X12292500Y23290000D03*
X12292500Y22790000D03*
X12292500Y22290000D03*
D17*
X15730000Y25040000D03*
G04 #@! TD*
D18*
G04 #@! TO.C,R3*
X14450000Y5110000D03*
X14450000Y4090000D03*
G04 #@! TD*
D19*
G04 #@! TO.C,R11*
X20970000Y25790000D03*
X20330000Y25790000D03*
G04 #@! TD*
D10*
G04 #@! TO.C,R62*
X5775000Y25971250D03*
X5775000Y25331250D03*
G04 #@! TD*
D19*
G04 #@! TO.C,R31*
X29570000Y13770000D03*
X28930000Y13770000D03*
G04 #@! TD*
D20*
G04 #@! TO.C,C26*
X5530000Y13890000D03*
X5530000Y14530000D03*
G04 #@! TD*
D19*
G04 #@! TO.C,R60*
X3885000Y26631250D03*
X3245000Y26631250D03*
G04 #@! TD*
D21*
G04 #@! TO.C,Y2*
X10040000Y18600000D03*
X8640000Y18600000D03*
X8640000Y17500000D03*
X10040000Y17500000D03*
G04 #@! TD*
D22*
G04 #@! TO.C,R10*
X9620000Y24940000D03*
X10260000Y24940000D03*
G04 #@! TD*
D23*
G04 #@! TO.C,C57*
X24600000Y27490000D03*
X23640000Y27490000D03*
G04 #@! TD*
D24*
G04 #@! TO.C,U4*
X20730000Y14970000D03*
X21230000Y14970000D03*
X21730000Y14970000D03*
X22230000Y14970000D03*
X22730000Y14970000D03*
X22730000Y17770000D03*
X22230000Y17770000D03*
X21730000Y17770000D03*
X21230000Y17770000D03*
X20730000Y17770000D03*
D25*
X20330000Y16120000D03*
X23130000Y16620000D03*
X20330000Y16620000D03*
X23130000Y16120000D03*
D26*
X21730000Y16370000D03*
G04 #@! TD*
D23*
G04 #@! TO.C,C60*
X4705000Y23341250D03*
X3745000Y23341250D03*
G04 #@! TD*
D27*
G04 #@! TO.C,U2*
X8340000Y15090000D03*
X8740000Y15090000D03*
X9140000Y15090000D03*
X9540000Y15090000D03*
X9940000Y15090000D03*
X10340000Y15090000D03*
X9140000Y14690000D03*
X9540000Y14690000D03*
X10340000Y14690000D03*
X8340000Y14490000D03*
X9140000Y14290000D03*
X9540000Y14290000D03*
X9940000Y14290000D03*
X10340000Y14290000D03*
X8340000Y13890000D03*
X9140000Y13890000D03*
X9540000Y13890000D03*
X8340000Y13490000D03*
X8740000Y13490000D03*
X9540000Y13490000D03*
X9940000Y13490000D03*
X10340000Y13490000D03*
X8340000Y13090000D03*
X8740000Y13090000D03*
X9140000Y13090000D03*
X9540000Y13090000D03*
X9940000Y13090000D03*
X10340000Y13090000D03*
G04 #@! TD*
D28*
G04 #@! TO.C,R52*
X25430000Y26550000D03*
X25430000Y27570000D03*
G04 #@! TD*
D23*
G04 #@! TO.C,C58*
X24600000Y26640000D03*
X23640000Y26640000D03*
G04 #@! TD*
D29*
G04 #@! TO.C,D50*
X37660000Y12295000D03*
X37660000Y13265000D03*
G04 #@! TD*
D30*
G04 #@! TO.C,J11*
X15170000Y48502843D03*
X9570000Y48502843D03*
D31*
X13870000Y44627843D03*
X12870000Y44627843D03*
X11870000Y44627843D03*
X10870000Y44627843D03*
G04 #@! TD*
D32*
G04 #@! TO.C,C55*
X22940000Y22530000D03*
X22940000Y23490000D03*
G04 #@! TD*
D19*
G04 #@! TO.C,R5*
X26600000Y11770000D03*
X25960000Y11770000D03*
G04 #@! TD*
D33*
G04 #@! TO.C,Q1*
X27750000Y12580000D03*
X27750000Y13230000D03*
X27750000Y13880000D03*
X25790000Y13880000D03*
X25790000Y13230000D03*
X25790000Y12580000D03*
D34*
X26770000Y12905000D03*
D35*
X26770000Y13930000D03*
G04 #@! TD*
D36*
G04 #@! TO.C,C59*
X26969999Y27000000D03*
X29919999Y27000000D03*
G04 #@! TD*
D10*
G04 #@! TO.C,C61*
X5775000Y24651250D03*
X5775000Y24011250D03*
G04 #@! TD*
D37*
G04 #@! TO.C,C10*
X11400000Y21470000D03*
X11400000Y20510000D03*
G04 #@! TD*
D38*
G04 #@! TO.C,U3*
X29000000Y9890000D03*
X29500000Y9890000D03*
X30000000Y9890000D03*
X30500000Y9890000D03*
X31000000Y9890000D03*
X31000000Y12990000D03*
X30500000Y12990000D03*
X30000000Y12990000D03*
X29500000Y12990000D03*
X29000000Y12990000D03*
D39*
X30000000Y11440000D03*
G04 #@! TD*
D40*
G04 #@! TO.C,J1*
X17110000Y6250000D03*
X22890000Y6250000D03*
D41*
X16750000Y7695000D03*
X17550000Y7695000D03*
D42*
X18750000Y7695000D03*
X19750000Y7695000D03*
X20250000Y7695000D03*
X21250000Y7695000D03*
D41*
X23250000Y7695000D03*
X22450000Y7695000D03*
D42*
X21750000Y7695000D03*
X20750000Y7695000D03*
X19250000Y7695000D03*
X18250000Y7695000D03*
D43*
X15680000Y6780000D03*
X24320000Y6780000D03*
D44*
X15680000Y2600000D03*
X24320000Y2600000D03*
G04 #@! TD*
D45*
G04 #@! TO.C,J5*
X1505000Y28775000D03*
X1505000Y34375000D03*
D46*
X5380000Y33075000D03*
X5380000Y32075000D03*
X5380000Y31075000D03*
X5380000Y30075000D03*
G04 #@! TD*
D22*
G04 #@! TO.C,C24*
X9540000Y15900000D03*
X10180000Y15900000D03*
G04 #@! TD*
D47*
G04 #@! TO.C,D30*
X37660000Y10565000D03*
X37660000Y9595000D03*
G04 #@! TD*
D20*
G04 #@! TO.C,R1*
X20330000Y9380000D03*
X20330000Y10020000D03*
G04 #@! TD*
D22*
G04 #@! TO.C,R61*
X4565000Y26631250D03*
X5205000Y26631250D03*
G04 #@! TD*
G04 #@! TO.C,C13*
X12910000Y29370000D03*
X13550000Y29370000D03*
G04 #@! TD*
D48*
G04 #@! TO.C,L5*
X29445000Y17380000D03*
X26135000Y17380000D03*
G04 #@! TD*
D49*
G04 #@! TO.C,SW1*
X9490000Y25720000D03*
X10390000Y25720000D03*
X10390000Y28820000D03*
X9490000Y28820000D03*
G04 #@! TD*
D50*
G04 #@! TO.C,J7*
X38505000Y34362843D03*
X38505000Y28762843D03*
D51*
X34630000Y30062843D03*
X34630000Y31062843D03*
X34630000Y32062843D03*
X34630000Y33062843D03*
G04 #@! TD*
D52*
G04 #@! TO.C,R51*
X24630000Y25780000D03*
X23610000Y25780000D03*
G04 #@! TD*
D30*
G04 #@! TO.C,J13*
X24820000Y48502843D03*
X30420000Y48502843D03*
D31*
X29120000Y44627843D03*
X28120000Y44627843D03*
X27120000Y44627843D03*
X26120000Y44627843D03*
G04 #@! TD*
D13*
G04 #@! TO.C,C27*
X11240000Y15090000D03*
X12200000Y15090000D03*
G04 #@! TD*
D10*
G04 #@! TO.C,R33*
X32180000Y12490000D03*
X32180000Y11850000D03*
G04 #@! TD*
G04 #@! TO.C,C12*
X20060000Y27860000D03*
X20060000Y27220000D03*
G04 #@! TD*
D11*
G04 #@! TO.C,J4*
X12800000Y1505000D03*
X7200000Y1505000D03*
D12*
X8500000Y5380000D03*
X9500000Y5380000D03*
X10500000Y5380000D03*
X11500000Y5380000D03*
G04 #@! TD*
D53*
G04 #@! TO.C,H4*
X38650000Y47000000D03*
X38166726Y48166726D03*
X35833274Y45833274D03*
X37000000Y45350000D03*
X38166726Y45833274D03*
D54*
X37000000Y47000000D03*
D53*
X35350000Y47000000D03*
X35833274Y48166726D03*
X37000000Y48650000D03*
G04 #@! TD*
D20*
G04 #@! TO.C,C25*
X7470000Y13890000D03*
X7470000Y14530000D03*
G04 #@! TD*
D13*
G04 #@! TO.C,C23*
X11240000Y15900000D03*
X12200000Y15900000D03*
G04 #@! TD*
D50*
G04 #@! TO.C,J6*
X38505000Y21130000D03*
X38505000Y26730000D03*
D51*
X34630000Y22430000D03*
X34630000Y23430000D03*
X34630000Y24430000D03*
X34630000Y25430000D03*
G04 #@! TD*
D10*
G04 #@! TO.C,R63*
X2675000Y25971250D03*
X2675000Y25331250D03*
G04 #@! TD*
D22*
G04 #@! TO.C,C28*
X11190000Y13090000D03*
X11830000Y13090000D03*
G04 #@! TD*
D55*
G04 #@! TO.C,F1*
X22450000Y9512500D03*
X22450000Y11087500D03*
G04 #@! TD*
D56*
G04 #@! TO.C,D2*
X24130000Y13775000D03*
D57*
X24130000Y12650000D03*
G04 #@! TD*
D53*
G04 #@! TO.C,H1*
X4650000Y3000000D03*
X3000000Y1350000D03*
X3000000Y4650000D03*
D54*
X3000000Y3000000D03*
D53*
X4166726Y4166726D03*
X4166726Y1833274D03*
X1833274Y1833274D03*
X1350000Y3000000D03*
X1833274Y4166726D03*
G04 #@! TD*
D10*
G04 #@! TO.C,R12*
X16500000Y19230000D03*
X16500000Y18590000D03*
G04 #@! TD*
D37*
G04 #@! TO.C,C56*
X29750000Y22550000D03*
X29750000Y21590000D03*
G04 #@! TD*
D20*
G04 #@! TO.C,C14*
X11400000Y22220000D03*
X11400000Y22860000D03*
G04 #@! TD*
D45*
G04 #@! TO.C,J10*
X1495000Y36395000D03*
X1495000Y41995000D03*
D46*
X5370000Y40695000D03*
X5370000Y39695000D03*
X5370000Y38695000D03*
X5370000Y37695000D03*
G04 #@! TD*
D58*
G04 #@! TO.C,C1*
X23975000Y11250000D03*
X23975000Y9350000D03*
G04 #@! TD*
D59*
G04 #@! TO.C,C51*
X31465000Y17600000D03*
X34415000Y17600000D03*
G04 #@! TD*
D22*
G04 #@! TO.C,C22*
X11190000Y14290000D03*
X11830000Y14290000D03*
G04 #@! TD*
D53*
G04 #@! TO.C,H2*
X35833274Y4166726D03*
X35350000Y3000000D03*
X35833274Y1833274D03*
X38166726Y1833274D03*
X38166726Y4166726D03*
X38650000Y3000000D03*
X37000000Y1350000D03*
X37000000Y4650000D03*
D54*
X37000000Y3000000D03*
G04 #@! TD*
D60*
G04 #@! TO.C,C31*
X30775000Y8800000D03*
X29225000Y8800000D03*
G04 #@! TD*
D10*
G04 #@! TO.C,C110*
X15355000Y18375000D03*
X15355000Y17735000D03*
G04 #@! TD*
D22*
G04 #@! TO.C,L2*
X6180000Y13890000D03*
X6820000Y13890000D03*
G04 #@! TD*
D52*
G04 #@! TO.C,R54*
X25900000Y28390000D03*
X24880000Y28390000D03*
G04 #@! TD*
D10*
G04 #@! TO.C,R32*
X32180000Y11030000D03*
X32180000Y10390000D03*
G04 #@! TD*
D14*
G04 #@! TO.C,C30*
X27570000Y9995000D03*
X27570000Y11545000D03*
G04 #@! TD*
D23*
G04 #@! TO.C,C16*
X17210000Y19980000D03*
X16250000Y19980000D03*
G04 #@! TD*
D21*
G04 #@! TO.C,Y1*
X14505000Y18605000D03*
X13105000Y18605000D03*
X13105000Y17505000D03*
X14505000Y17505000D03*
G04 #@! TD*
D61*
G04 #@! TO.C,J9*
X13550000Y31000000D03*
X12280000Y31000000D03*
X11010000Y31000000D03*
X9740000Y31000000D03*
G04 #@! TD*
D19*
G04 #@! TO.C,C15*
X17050000Y20710000D03*
X16410000Y20710000D03*
G04 #@! TD*
D32*
G04 #@! TO.C,C54*
X23780000Y22530000D03*
X23780000Y23490000D03*
G04 #@! TD*
D20*
G04 #@! TO.C,C19*
X12255000Y17735000D03*
X12255000Y18375000D03*
G04 #@! TD*
G04 #@! TO.C,R55*
X36260000Y16230000D03*
X36260000Y16870000D03*
G04 #@! TD*
D10*
G04 #@! TO.C,R30*
X32980000Y11760000D03*
X32980000Y11120000D03*
G04 #@! TD*
D20*
G04 #@! TO.C,C21*
X10890000Y17730000D03*
X10890000Y18370000D03*
G04 #@! TD*
D62*
G04 #@! TO.C,L4*
X22805000Y13200000D03*
X20655000Y13200000D03*
G04 #@! TD*
D63*
G04 #@! TO.C,U6*
X4975000Y25753750D03*
X4475000Y25753750D03*
X3975000Y25753750D03*
X3475000Y25753750D03*
D64*
X3462500Y25241250D03*
X3462500Y24741250D03*
D63*
X3475000Y24228750D03*
X3975000Y24228750D03*
X4475000Y24228750D03*
X4975000Y24228750D03*
D64*
X4987500Y24741250D03*
X4987500Y25241250D03*
G04 #@! TD*
D10*
G04 #@! TO.C,C18*
X17100000Y19230000D03*
X17100000Y18590000D03*
G04 #@! TD*
D14*
G04 #@! TO.C,C41*
X19330000Y15120000D03*
X19330000Y16670000D03*
G04 #@! TD*
D30*
G04 #@! TO.C,J12*
X17195000Y48502843D03*
X22795000Y48502843D03*
D31*
X21495000Y44627843D03*
X20495000Y44627843D03*
X19495000Y44627843D03*
X18495000Y44627843D03*
G04 #@! TD*
D10*
G04 #@! TO.C,C20*
X7790000Y18370000D03*
X7790000Y17730000D03*
G04 #@! TD*
D20*
G04 #@! TO.C,R2*
X19670000Y9380000D03*
X19670000Y10020000D03*
G04 #@! TD*
D52*
G04 #@! TO.C,R50*
X26520000Y20780000D03*
X25500000Y20780000D03*
G04 #@! TD*
D22*
G04 #@! TO.C,C52*
X27260000Y20780000D03*
X27900000Y20780000D03*
G04 #@! TD*
D53*
G04 #@! TO.C,H3*
X1350000Y47000000D03*
X4166726Y45833274D03*
X4166726Y48166726D03*
X3000000Y45350000D03*
X3000000Y48650000D03*
X1833274Y45833274D03*
X1833274Y48166726D03*
X4650000Y47000000D03*
D54*
X3000000Y47000000D03*
G04 #@! TD*
D36*
G04 #@! TO.C,C510*
X26969999Y30000000D03*
X29919999Y30000000D03*
G04 #@! TD*
D18*
G04 #@! TO.C,R4*
X25550000Y5110000D03*
X25550000Y4090000D03*
G04 #@! TD*
D59*
G04 #@! TO.C,C50*
X31465000Y15495000D03*
X34415000Y15495000D03*
G04 #@! TD*
D65*
G04 #@! TO.C,FB1*
X17980000Y19157500D03*
X17980000Y17582500D03*
G04 #@! TD*
D19*
G04 #@! TO.C,C11*
X12880000Y20710000D03*
X12240000Y20710000D03*
G04 #@! TD*
D66*
G04 #@! TO.C,ANT1*
X1785000Y13890000D03*
X1785000Y19090000D03*
D67*
X2635000Y16490000D03*
X935000Y16490000D03*
G04 #@! TD*
D50*
G04 #@! TO.C,J14*
X38510000Y36327843D03*
X38510000Y41927843D03*
D51*
X34635000Y37627843D03*
X34635000Y38627843D03*
X34635000Y39627843D03*
X34635000Y40627843D03*
G04 #@! TD*
D61*
G04 #@! TO.C,J8*
X6000000Y11210000D03*
X7270000Y11210000D03*
X8540000Y11210000D03*
X9810000Y11210000D03*
G04 #@! TD*
D13*
G04 #@! TO.C,C17*
X20720000Y26540000D03*
X21680000Y26540000D03*
G04 #@! TD*
D68*
G04 #@! TO.C,U5*
X24614999Y22530000D03*
D69*
X25014999Y21630000D03*
X25514999Y21630000D03*
X26014999Y21630000D03*
X26514999Y21630000D03*
X27014999Y21630000D03*
X27514999Y21630000D03*
X28014999Y21630000D03*
X28514999Y21630000D03*
D68*
X28914999Y22530000D03*
X28914999Y24030000D03*
D69*
X28514999Y24930000D03*
X28014999Y24930000D03*
X27514999Y24930000D03*
X27014999Y24930000D03*
X26514999Y24930000D03*
X26014999Y24930000D03*
X25514999Y24930000D03*
X25014999Y24930000D03*
D68*
X24614999Y24030000D03*
D70*
X24614999Y23005000D03*
D71*
X28470000Y23280000D03*
D70*
X28914999Y23005000D03*
D72*
X26764999Y23280000D03*
D70*
X28914999Y23555000D03*
D71*
X25065000Y23280000D03*
D70*
X24614999Y23555000D03*
G04 #@! TD*
D73*
G04 #@! TO.C,D3*
X7100000Y21800000D03*
X7900000Y21800000D03*
X8700000Y21800000D03*
X8700000Y23325000D03*
X7900000Y23325000D03*
X7100000Y23325000D03*
G04 #@! TD*
M02*
