G04 #@! TF.GenerationSoftware,KiCad,Pcbnew,(5.99.0-7554-g937713dbbc)*
G04 #@! TF.CreationDate,2020-12-16T08:12:25+03:00*
G04 #@! TF.ProjectId,BioniX,42696f6e-6958-42e6-9b69-6361645f7063,rev?*
G04 #@! TF.SameCoordinates,PX6422c40PY5a995c0*
G04 #@! TF.FileFunction,Copper,L2,Inr*
G04 #@! TF.FilePolarity,Positive*
%FSLAX46Y46*%
G04 Gerber Fmt 4.6, Leading zero omitted, Abs format (unit mm)*
G04 Created by KiCad (PCBNEW (5.99.0-7554-g937713dbbc)) date 2020-12-16 08:12:25*
%MOMM*%
%LPD*%
G01*
G04 APERTURE LIST*
G04 #@! TA.AperFunction,ComponentPad*
%ADD10C,0.500000*%
G04 #@! TD*
G04 #@! TA.AperFunction,ComponentPad*
%ADD11O,1.000000X2.100000*%
G04 #@! TD*
G04 #@! TA.AperFunction,ComponentPad*
%ADD12O,1.000000X1.600000*%
G04 #@! TD*
G04 #@! TA.AperFunction,ComponentPad*
%ADD13C,0.700000*%
G04 #@! TD*
G04 #@! TA.AperFunction,ComponentPad*
%ADD14C,4.400000*%
G04 #@! TD*
G04 #@! TA.AperFunction,ViaPad*
%ADD15C,0.500000*%
G04 #@! TD*
G04 APERTURE END LIST*
D10*
G04 #@! TO.N,GND*
G04 #@! TO.C,U1*
X13730000Y24040000D03*
X17730000Y26040000D03*
X13730000Y23040000D03*
X16730000Y27040000D03*
X14730000Y23040000D03*
X17730000Y27040000D03*
G04 #@! TD*
G04 #@! TO.N,GND*
G04 #@! TO.C,U4*
X21730000Y16370000D03*
X22430000Y15970000D03*
X21030000Y15970000D03*
X21030000Y16770000D03*
X22430000Y16770000D03*
G04 #@! TD*
G04 #@! TO.N,GND*
G04 #@! TO.C,U3*
X30800000Y11840000D03*
X30800000Y11040000D03*
X30000000Y11440000D03*
X29200000Y11040000D03*
X29200000Y11840000D03*
G04 #@! TD*
D11*
G04 #@! TO.N,GND*
G04 #@! TO.C,J1*
X15680000Y6780000D03*
X24320000Y6780000D03*
D12*
X15680000Y2600000D03*
X24320000Y2600000D03*
G04 #@! TD*
D13*
G04 #@! TO.N,*
G04 #@! TO.C,H4*
X38650000Y47000000D03*
X38166726Y48166726D03*
X35833274Y45833274D03*
X37000000Y45350000D03*
X38166726Y45833274D03*
D14*
X37000000Y47000000D03*
D13*
X35350000Y47000000D03*
X35833274Y48166726D03*
X37000000Y48650000D03*
G04 #@! TD*
G04 #@! TO.N,*
G04 #@! TO.C,H1*
X4650000Y3000000D03*
X3000000Y1350000D03*
X3000000Y4650000D03*
D14*
X3000000Y3000000D03*
D13*
X4166726Y4166726D03*
X4166726Y1833274D03*
X1833274Y1833274D03*
X1350000Y3000000D03*
X1833274Y4166726D03*
G04 #@! TD*
G04 #@! TO.N,*
G04 #@! TO.C,H2*
X35833274Y4166726D03*
X35350000Y3000000D03*
X35833274Y1833274D03*
X38166726Y1833274D03*
X38166726Y4166726D03*
X38650000Y3000000D03*
X37000000Y1350000D03*
X37000000Y4650000D03*
D14*
X37000000Y3000000D03*
G04 #@! TD*
D13*
G04 #@! TO.N,*
G04 #@! TO.C,H3*
X1350000Y47000000D03*
X4166726Y45833274D03*
X4166726Y48166726D03*
X3000000Y45350000D03*
X3000000Y48650000D03*
X1833274Y45833274D03*
X1833274Y48166726D03*
X4650000Y47000000D03*
D14*
X3000000Y47000000D03*
G04 #@! TD*
D10*
G04 #@! TO.N,GND*
G04 #@! TO.C,U5*
X25514999Y23280000D03*
X26264999Y22530000D03*
X26264999Y24030000D03*
X27264999Y24030000D03*
X28014999Y23280000D03*
X26264999Y23280000D03*
X27264999Y23280000D03*
X27264999Y22530000D03*
G04 #@! TD*
D15*
G04 #@! TO.N,GND*
X4050000Y24900000D03*
X10900000Y17200000D03*
X7900000Y18950000D03*
X15250000Y17200000D03*
X12250000Y18900000D03*
X35760000Y40640000D03*
X4240000Y37700000D03*
X10870000Y45760000D03*
X18500000Y45750000D03*
X26125000Y45750000D03*
X13950000Y31775000D03*
G04 #@! TO.N,6V*
X4250000Y40700000D03*
X4250000Y39700000D03*
X3850000Y40200000D03*
X12875000Y45750000D03*
X13375000Y46150000D03*
X13875000Y45750000D03*
X21500000Y45750000D03*
X21000000Y46150000D03*
X20500000Y45750000D03*
X28625000Y46150000D03*
X28125000Y45750000D03*
X29125000Y45750000D03*
X36150000Y38125000D03*
X35750000Y38625000D03*
X35750000Y37625000D03*
G04 #@! TO.N,GND*
X10800000Y48150000D03*
X13950000Y48150000D03*
X16150000Y48150000D03*
X18400000Y48150000D03*
X21600000Y48150000D03*
X23800000Y48150000D03*
X26050000Y48150000D03*
X29200000Y48150000D03*
X31650000Y48150000D03*
X600000Y45000000D03*
X600000Y43500000D03*
X34450000Y48150000D03*
X38050000Y43250000D03*
X38050000Y40700000D03*
X38050000Y37550000D03*
X39400000Y45250000D03*
X39400000Y43750000D03*
X10250000Y49400000D03*
X11750000Y49400000D03*
X28250000Y49400000D03*
X29750000Y49400000D03*
X33500000Y14900000D03*
X34700000Y19700000D03*
X12830000Y15090000D03*
X33500000Y16100000D03*
X600000Y40500000D03*
X34250000Y600000D03*
X30900000Y25700000D03*
X29500000Y3450000D03*
X6850000Y14580000D03*
X30900000Y28700000D03*
X10250000Y600000D03*
X35750000Y49400000D03*
X16250000Y19975000D03*
X600000Y33000000D03*
X33500000Y17900000D03*
X4100000Y11400000D03*
X1700000Y21600000D03*
X500000Y21600000D03*
X4700000Y19200000D03*
X39400000Y40750000D03*
X33500000Y18500000D03*
X4700000Y15000000D03*
X11750000Y600000D03*
X11830000Y13640000D03*
X39400000Y25500000D03*
X19250000Y600000D03*
X600000Y27000000D03*
X7250000Y49400000D03*
X31500000Y29900000D03*
X25000000Y9100000D03*
X31500000Y27500000D03*
X4250000Y49400000D03*
X35300000Y19100000D03*
X31500000Y25700000D03*
X33500000Y17300000D03*
X35750000Y25430000D03*
X4700000Y19800000D03*
X6850000Y13200000D03*
X34700000Y19100000D03*
X31650000Y2400000D03*
X39400000Y37750000D03*
X9050000Y22450000D03*
X38150000Y19900000D03*
X31500000Y31100000D03*
X5750000Y49400000D03*
X16250000Y49400000D03*
X23750000Y49400000D03*
X600000Y25500000D03*
X33500000Y16700000D03*
X2900000Y11400000D03*
X28400000Y8900000D03*
X4700000Y12000000D03*
X39400000Y9250000D03*
X25700000Y8400000D03*
X17750000Y600000D03*
X20560000Y27220000D03*
X8700000Y21040000D03*
X4700000Y21600000D03*
X4700000Y18600000D03*
X17100000Y18050000D03*
X30900000Y29900000D03*
X7470000Y15110000D03*
X8750000Y49400000D03*
X4700000Y20400000D03*
X28400000Y8300000D03*
X39400000Y6250000D03*
X33500000Y15500000D03*
X600000Y37500000D03*
X1700000Y11400000D03*
X31500000Y28100000D03*
X35750000Y600000D03*
X30900000Y27500000D03*
X39400000Y7750000D03*
X30900000Y30500000D03*
X9810000Y10380000D03*
X33500000Y19700000D03*
X39400000Y33000000D03*
X6150000Y14580000D03*
X600000Y10500000D03*
X600000Y39000000D03*
X600000Y35390000D03*
X38050000Y30000000D03*
X39400000Y19750000D03*
X23750000Y600000D03*
X29500000Y4250000D03*
X39400000Y12250000D03*
X5750000Y500000D03*
X14750000Y600000D03*
X39400000Y39250000D03*
X4700000Y12600000D03*
X38200000Y44500000D03*
X30900000Y31100000D03*
X28500000Y4250000D03*
X39400000Y13750000D03*
X31530000Y13990000D03*
X33350000Y9750000D03*
X32750000Y49400000D03*
X38150000Y22350000D03*
X1100000Y11400000D03*
X2900000Y21600000D03*
X31500000Y26900000D03*
X31500000Y26300000D03*
X30300000Y31700000D03*
X31500000Y31700000D03*
X31500000Y29300000D03*
X30900000Y29300000D03*
X39400000Y35350000D03*
X600000Y31500000D03*
X600000Y7500000D03*
X28250000Y600000D03*
X4700000Y14400000D03*
X33850000Y10400000D03*
X4700000Y21000000D03*
X1100000Y21600000D03*
X39400000Y31500000D03*
X3500000Y21600000D03*
X28000000Y3850000D03*
X25000000Y8400000D03*
X29750000Y600000D03*
X33450000Y2900000D03*
X2300000Y21600000D03*
X600000Y6000000D03*
X31450000Y10640000D03*
X31250000Y49400000D03*
X4700000Y11400000D03*
X3500000Y11400000D03*
X34500000Y1800000D03*
X39400000Y27750000D03*
X4700000Y17400000D03*
X5530000Y15110000D03*
X4700000Y16200000D03*
X600000Y9000000D03*
X19250000Y49400000D03*
X34100000Y19100000D03*
X33500000Y19100000D03*
X600000Y22500000D03*
X27500000Y3450000D03*
X39400000Y10750000D03*
X12830000Y15900000D03*
X20750000Y49400000D03*
X34250000Y49400000D03*
X6150000Y13200000D03*
X32720000Y12510000D03*
X26750000Y49400000D03*
X30900000Y31700000D03*
X25000000Y7700000D03*
X39400000Y22500000D03*
X39400000Y24000000D03*
X38050000Y33150000D03*
X4700000Y16800000D03*
X31250000Y600000D03*
X26850000Y3000000D03*
X28350000Y1800000D03*
X8750000Y600000D03*
X27800000Y8300000D03*
X500000Y11400000D03*
X35760000Y33070000D03*
X29700000Y31700000D03*
X28500000Y3450000D03*
X13250000Y49400000D03*
X12410000Y14290000D03*
X39400000Y15250000D03*
X2300000Y11400000D03*
X16250000Y600000D03*
X34100000Y19700000D03*
X31500000Y30500000D03*
X30900000Y26900000D03*
X4700000Y13200000D03*
X5450000Y13200000D03*
X22250000Y600000D03*
X27800000Y8900000D03*
X4700000Y15600000D03*
X8990000Y31000000D03*
X30900000Y26300000D03*
X30900000Y28100000D03*
X4700000Y18000000D03*
X24300000Y8400000D03*
X26850000Y8850000D03*
X27500000Y4250000D03*
X4250000Y500000D03*
X25250000Y600000D03*
X7550000Y13200000D03*
X600000Y4500000D03*
X38150000Y25500000D03*
X4100000Y21600000D03*
X11500000Y4250000D03*
X600000Y24000000D03*
X39400000Y16750000D03*
X29000000Y3850000D03*
X39400000Y30000000D03*
X4250000Y30082157D03*
X35300000Y19700000D03*
X600000Y30000000D03*
X39400000Y4750000D03*
X20750000Y600000D03*
X31500000Y28700000D03*
X13550000Y29870000D03*
X39400000Y18250000D03*
G04 #@! TO.N,6V*
X28500000Y30500000D03*
X28500000Y29300000D03*
X27900000Y26300000D03*
X27900000Y28100000D03*
X27900000Y26900000D03*
X28500000Y25700000D03*
X27900000Y31700000D03*
X36260000Y17450000D03*
X28500000Y31100000D03*
X28500000Y31700000D03*
X35750000Y30057157D03*
X28500000Y28700000D03*
X27900000Y30500000D03*
X36150000Y22927157D03*
X28500000Y29900000D03*
X26700000Y31700000D03*
X27300000Y31700000D03*
X35750000Y31057157D03*
X36150000Y30557157D03*
X28500000Y26300000D03*
X27900000Y29300000D03*
X35750000Y23427157D03*
X27900000Y31100000D03*
X27900000Y29900000D03*
X28500000Y27500000D03*
X27900000Y25700000D03*
X28500000Y28100000D03*
X27900000Y28700000D03*
X28500000Y26900000D03*
X35750000Y22427157D03*
X27900000Y27500000D03*
G04 #@! TO.N,3.3V*
X18400000Y16000000D03*
X20050000Y15400000D03*
X6000000Y10390000D03*
X11240000Y15090000D03*
X18400000Y15400000D03*
X4250000Y33072157D03*
X10725000Y21450000D03*
X10875000Y22200000D03*
X9940000Y28130000D03*
X16500000Y18060000D03*
X3245000Y27181250D03*
X17800000Y15400000D03*
X20050000Y14800000D03*
X14290000Y31000000D03*
X4705000Y22681250D03*
X6325000Y25331250D03*
X20730000Y18420000D03*
X8700000Y24080000D03*
X12025000Y21825000D03*
X17800000Y16600000D03*
X12475000Y21400000D03*
X18400000Y14800000D03*
X20560000Y27860000D03*
X12910000Y29870000D03*
X8500000Y4250000D03*
X17800000Y16000000D03*
X5215000Y27181250D03*
X6325000Y24651250D03*
X11190000Y13640000D03*
X2125000Y25331250D03*
X17800000Y14800000D03*
G04 #@! TO.N,SDA*
X4250000Y32072157D03*
X10109301Y23730699D03*
G04 #@! TO.N,SCL*
X4250000Y31082157D03*
X9509300Y23729622D03*
G04 #@! TO.N,BAT_VOLT*
X19960000Y22290000D03*
X31720000Y11440000D03*
G04 #@! TO.N,VBAT*
X32600000Y8300000D03*
X27300000Y12930000D03*
X31500000Y3450000D03*
X32100000Y8700000D03*
X26750000Y12630000D03*
X26200000Y12930000D03*
X32000000Y3850000D03*
X30500000Y3450000D03*
X28240000Y13120000D03*
X32500000Y3450000D03*
X31600000Y9100000D03*
X31500000Y4250000D03*
X32500000Y4250000D03*
X31000000Y3850000D03*
X26770000Y13280000D03*
X32600000Y9100000D03*
X31600000Y8300000D03*
X30500000Y4250000D03*
G04 #@! TO.N,VUSB*
X32980000Y10540000D03*
X24970000Y12600000D03*
X28349916Y13880000D03*
G04 #@! TO.N,SERVO_Y*
X20310000Y23790000D03*
X35750000Y32060000D03*
G04 #@! TO.N,SERVO_X*
X19960000Y23290000D03*
X35760000Y24430000D03*
G04 #@! TO.N,EMG_2*
X10500000Y4250000D03*
X18280003Y20690000D03*
G04 #@! TO.N,EMG_1*
X17680000Y20690000D03*
X9500000Y4250000D03*
G04 #@! TO.N,BAT_STAT*
X20406743Y21889472D03*
X30310000Y13730000D03*
G04 #@! TO.N,D-*
X15032433Y29539950D03*
X20300000Y10871290D03*
G04 #@! TO.N,D+*
X19700000Y10871290D03*
X14432433Y29539950D03*
G04 #@! TO.N,BT_TX*
X9540000Y12150000D03*
X11500000Y24790000D03*
G04 #@! TO.N,BT_RX*
X9940000Y12600000D03*
X11160000Y25290000D03*
G04 #@! TO.N,Net-(J1-PadA7)*
X20252157Y6770000D03*
X19250000Y6770000D03*
G04 #@! TO.N,VBUS*
X32200000Y19100000D03*
X30400000Y17300000D03*
X30400000Y19100000D03*
X30400000Y19700000D03*
X30400000Y18500000D03*
X24900000Y14900000D03*
X30400000Y14900000D03*
X23200000Y18400000D03*
X26700000Y14300000D03*
X31000000Y19100000D03*
X30400000Y16100000D03*
X31000000Y19700000D03*
X30400000Y17900000D03*
X24900000Y15500000D03*
X30400000Y16700000D03*
X23200000Y17800000D03*
X32200000Y19700000D03*
X25500000Y14300000D03*
X24900000Y14300000D03*
X23300000Y15000000D03*
X31600000Y19100000D03*
X31600000Y19700000D03*
X22600000Y18400000D03*
X30400000Y15500000D03*
X26100000Y14300000D03*
G04 #@! TO.N,BT_2*
X11500000Y27790000D03*
X9140000Y12600000D03*
G04 #@! TO.N,BT_1*
X11500000Y28390000D03*
X8740000Y12150000D03*
G04 #@! TO.N,Net-(F1-Pad1)*
X17550000Y8750000D03*
X22260000Y6710000D03*
X17900000Y6550000D03*
X22450000Y8750000D03*
G04 #@! TD*
G04 #@! TA.AperFunction,Conductor*
G04 #@! TO.N,GND*
G36*
X34959214Y48482687D02*
G01*
X34984524Y48438850D01*
X34975734Y48389000D01*
X34970240Y48380801D01*
X34965740Y48374968D01*
X34965735Y48374961D01*
X34964298Y48373098D01*
X34806327Y48103303D01*
X34683917Y47815622D01*
X34599053Y47514718D01*
X34553112Y47205471D01*
X34552439Y47171924D01*
X34547009Y46901456D01*
X34546837Y46892893D01*
X34580331Y46582051D01*
X34619672Y46417551D01*
X34651090Y46286181D01*
X34653050Y46277984D01*
X34677713Y46212887D01*
X34748389Y46026342D01*
X34763816Y45985622D01*
X34910833Y45709704D01*
X34912194Y45707786D01*
X35086987Y45461374D01*
X35091718Y45454704D01*
X35093319Y45452966D01*
X35301942Y45226486D01*
X35301947Y45226482D01*
X35303538Y45224754D01*
X35542860Y45023583D01*
X35805803Y44854452D01*
X35807933Y44853438D01*
X35807939Y44853435D01*
X36085968Y44721120D01*
X36085974Y44721117D01*
X36088106Y44720103D01*
X36385192Y44622713D01*
X36387511Y44622269D01*
X36387513Y44622268D01*
X36497904Y44601110D01*
X36692244Y44563862D01*
X36694585Y44563717D01*
X36694591Y44563716D01*
X37001933Y44544650D01*
X37004286Y44544504D01*
X37054037Y44547765D01*
X37313912Y44564797D01*
X37313916Y44564797D01*
X37316258Y44564951D01*
X37318564Y44565401D01*
X37318569Y44565402D01*
X37620785Y44624421D01*
X37620790Y44624422D01*
X37623103Y44624874D01*
X37919846Y44723300D01*
X37921958Y44724314D01*
X37921965Y44724317D01*
X38078391Y44799432D01*
X38201679Y44858634D01*
X38203655Y44859915D01*
X38203659Y44859917D01*
X38289949Y44915848D01*
X38385753Y44977945D01*
X38435083Y44989289D01*
X38480165Y44966269D01*
X38500001Y44915848D01*
X38500001Y5083545D01*
X38482688Y5035979D01*
X38438851Y5010669D01*
X38389001Y5019459D01*
X38383292Y5023114D01*
X38288574Y5090054D01*
X38288565Y5090060D01*
X38286647Y5091415D01*
X38284574Y5092515D01*
X38284569Y5092518D01*
X38012551Y5236849D01*
X38012550Y5236849D01*
X38010474Y5237951D01*
X37930767Y5267990D01*
X37720123Y5347376D01*
X37720114Y5347379D01*
X37717919Y5348206D01*
X37715625Y5348750D01*
X37715623Y5348751D01*
X37650866Y5364119D01*
X37413726Y5420395D01*
X37170477Y5446176D01*
X37105167Y5453098D01*
X37105165Y5453098D01*
X37102826Y5453346D01*
X37100476Y5453295D01*
X37100469Y5453295D01*
X36950368Y5450019D01*
X36790259Y5446526D01*
X36481092Y5400045D01*
X36478823Y5399401D01*
X36478824Y5399401D01*
X36182607Y5315301D01*
X36182600Y5315298D01*
X36180337Y5314656D01*
X35892870Y5191744D01*
X35890833Y5190547D01*
X35890830Y5190545D01*
X35719889Y5090054D01*
X35623351Y5033302D01*
X35376149Y4841898D01*
X35155271Y4620634D01*
X35075741Y4517548D01*
X34965737Y4374964D01*
X34965733Y4374958D01*
X34964298Y4373098D01*
X34806327Y4103303D01*
X34683917Y3815622D01*
X34599053Y3514718D01*
X34553112Y3205471D01*
X34552268Y3163421D01*
X34547009Y2901456D01*
X34546837Y2892893D01*
X34580331Y2582051D01*
X34580882Y2579749D01*
X34651090Y2286181D01*
X34653050Y2277984D01*
X34763816Y1985622D01*
X34910833Y1709704D01*
X34938163Y1671176D01*
X34976725Y1616814D01*
X34990124Y1568001D01*
X34969013Y1521995D01*
X34923268Y1500322D01*
X34916368Y1500000D01*
X26840131Y1500000D01*
X26825695Y1501422D01*
X26793408Y1507844D01*
X26770743Y1512352D01*
X26744068Y1523401D01*
X26697482Y1554529D01*
X26686268Y1563732D01*
X26563732Y1686268D01*
X26554529Y1697482D01*
X26523401Y1744068D01*
X26512352Y1770744D01*
X26501422Y1825695D01*
X26500000Y1840131D01*
X26500000Y4256176D01*
X29994538Y4256176D01*
X29995221Y4250952D01*
X29995221Y4250950D01*
X30000629Y4209595D01*
X30013121Y4114061D01*
X30070845Y3982874D01*
X30140386Y3900146D01*
X30143032Y3896998D01*
X30160386Y3849447D01*
X30141852Y3800397D01*
X30077499Y3727531D01*
X30016588Y3597794D01*
X29994538Y3456176D01*
X29995221Y3450952D01*
X29995221Y3450950D01*
X30002485Y3395398D01*
X30013121Y3314061D01*
X30070845Y3182874D01*
X30074237Y3178839D01*
X30159678Y3077194D01*
X30159681Y3077191D01*
X30163068Y3073162D01*
X30167455Y3070242D01*
X30277988Y2996664D01*
X30277991Y2996663D01*
X30282377Y2993743D01*
X30419180Y2951003D01*
X30424448Y2950906D01*
X30424451Y2950906D01*
X30484874Y2949799D01*
X30562481Y2948376D01*
X30567564Y2949762D01*
X30567566Y2949762D01*
X30695668Y2984687D01*
X30695670Y2984688D01*
X30700758Y2986075D01*
X30822897Y3061069D01*
X30919078Y3167328D01*
X30932370Y3194763D01*
X30968690Y3230021D01*
X31019177Y3233683D01*
X31060206Y3204037D01*
X31066698Y3192299D01*
X31070845Y3182874D01*
X31074237Y3178839D01*
X31159678Y3077194D01*
X31159681Y3077191D01*
X31163068Y3073162D01*
X31167455Y3070242D01*
X31277988Y2996664D01*
X31277991Y2996663D01*
X31282377Y2993743D01*
X31419180Y2951003D01*
X31424448Y2950906D01*
X31424451Y2950906D01*
X31484874Y2949799D01*
X31562481Y2948376D01*
X31567564Y2949762D01*
X31567566Y2949762D01*
X31695668Y2984687D01*
X31695670Y2984688D01*
X31700758Y2986075D01*
X31822897Y3061069D01*
X31919078Y3167328D01*
X31932370Y3194763D01*
X31968690Y3230021D01*
X32019177Y3233683D01*
X32060206Y3204037D01*
X32066698Y3192299D01*
X32070845Y3182874D01*
X32074237Y3178839D01*
X32159678Y3077194D01*
X32159681Y3077191D01*
X32163068Y3073162D01*
X32167455Y3070242D01*
X32277988Y2996664D01*
X32277991Y2996663D01*
X32282377Y2993743D01*
X32419180Y2951003D01*
X32424448Y2950906D01*
X32424451Y2950906D01*
X32484874Y2949799D01*
X32562481Y2948376D01*
X32567564Y2949762D01*
X32567566Y2949762D01*
X32695668Y2984687D01*
X32695670Y2984688D01*
X32700758Y2986075D01*
X32822897Y3061069D01*
X32919078Y3167328D01*
X32981570Y3296311D01*
X33005349Y3437650D01*
X33005500Y3450000D01*
X32985182Y3591877D01*
X32972870Y3618956D01*
X32928043Y3717549D01*
X32928041Y3717552D01*
X32925860Y3722349D01*
X32922420Y3726341D01*
X32922417Y3726346D01*
X32857071Y3802183D01*
X32839137Y3849518D01*
X32858268Y3900146D01*
X32873918Y3917436D01*
X32919078Y3967328D01*
X32981570Y4096311D01*
X33005349Y4237650D01*
X33005500Y4250000D01*
X32985182Y4391877D01*
X32980322Y4402567D01*
X32928043Y4517549D01*
X32928041Y4517552D01*
X32925860Y4522349D01*
X32922422Y4526339D01*
X32922420Y4526342D01*
X32835741Y4626936D01*
X32832303Y4630926D01*
X32712033Y4708882D01*
X32706985Y4710392D01*
X32706982Y4710393D01*
X32579771Y4748437D01*
X32579770Y4748437D01*
X32574718Y4749948D01*
X32501912Y4750392D01*
X32436666Y4750791D01*
X32436665Y4750791D01*
X32431396Y4750823D01*
X32293589Y4711438D01*
X32172375Y4634958D01*
X32077499Y4527531D01*
X32067714Y4506688D01*
X32067329Y4505869D01*
X32031443Y4470170D01*
X31981005Y4465890D01*
X31939616Y4495032D01*
X31932981Y4506688D01*
X31928043Y4517548D01*
X31928043Y4517549D01*
X31925860Y4522349D01*
X31922422Y4526339D01*
X31922420Y4526342D01*
X31835741Y4626936D01*
X31832303Y4630926D01*
X31712033Y4708882D01*
X31706985Y4710392D01*
X31706982Y4710393D01*
X31579771Y4748437D01*
X31579770Y4748437D01*
X31574718Y4749948D01*
X31501912Y4750392D01*
X31436666Y4750791D01*
X31436665Y4750791D01*
X31431396Y4750823D01*
X31293589Y4711438D01*
X31172375Y4634958D01*
X31077499Y4527531D01*
X31067714Y4506688D01*
X31067329Y4505869D01*
X31031443Y4470170D01*
X30981005Y4465890D01*
X30939616Y4495032D01*
X30932981Y4506688D01*
X30928043Y4517548D01*
X30928043Y4517549D01*
X30925860Y4522349D01*
X30922422Y4526339D01*
X30922420Y4526342D01*
X30835741Y4626936D01*
X30832303Y4630926D01*
X30712033Y4708882D01*
X30706985Y4710392D01*
X30706982Y4710393D01*
X30579771Y4748437D01*
X30579770Y4748437D01*
X30574718Y4749948D01*
X30501912Y4750392D01*
X30436666Y4750791D01*
X30436665Y4750791D01*
X30431396Y4750823D01*
X30293589Y4711438D01*
X30172375Y4634958D01*
X30077499Y4527531D01*
X30016588Y4397794D01*
X29994538Y4256176D01*
X26500000Y4256176D01*
X26500000Y9106176D01*
X31094538Y9106176D01*
X31095221Y9100952D01*
X31095221Y9100950D01*
X31102485Y9045398D01*
X31113121Y8964061D01*
X31170845Y8832874D01*
X31240509Y8750000D01*
X31243032Y8746998D01*
X31260386Y8699447D01*
X31241852Y8650397D01*
X31177499Y8577531D01*
X31116588Y8447794D01*
X31094538Y8306176D01*
X31095221Y8300952D01*
X31095221Y8300950D01*
X31101752Y8251003D01*
X31113121Y8164061D01*
X31170845Y8032874D01*
X31174237Y8028839D01*
X31259678Y7927194D01*
X31259681Y7927191D01*
X31263068Y7923162D01*
X31267455Y7920242D01*
X31377988Y7846664D01*
X31377991Y7846663D01*
X31382377Y7843743D01*
X31519180Y7801003D01*
X31524448Y7800906D01*
X31524451Y7800906D01*
X31584874Y7799799D01*
X31662481Y7798376D01*
X31667564Y7799762D01*
X31667566Y7799762D01*
X31795668Y7834687D01*
X31795670Y7834688D01*
X31800758Y7836075D01*
X31922897Y7911069D01*
X32019078Y8017328D01*
X32032370Y8044763D01*
X32068690Y8080021D01*
X32119177Y8083683D01*
X32160206Y8054037D01*
X32166698Y8042299D01*
X32170845Y8032874D01*
X32174237Y8028839D01*
X32259678Y7927194D01*
X32259681Y7927191D01*
X32263068Y7923162D01*
X32267455Y7920242D01*
X32377988Y7846664D01*
X32377991Y7846663D01*
X32382377Y7843743D01*
X32519180Y7801003D01*
X32524448Y7800906D01*
X32524451Y7800906D01*
X32584874Y7799799D01*
X32662481Y7798376D01*
X32667564Y7799762D01*
X32667566Y7799762D01*
X32795668Y7834687D01*
X32795670Y7834688D01*
X32800758Y7836075D01*
X32922897Y7911069D01*
X33019078Y8017328D01*
X33081570Y8146311D01*
X33098742Y8248376D01*
X33104874Y8284826D01*
X33104874Y8284827D01*
X33105349Y8287650D01*
X33105500Y8300000D01*
X33085182Y8441877D01*
X33066542Y8482874D01*
X33028043Y8567549D01*
X33028041Y8567552D01*
X33025860Y8572349D01*
X33022420Y8576341D01*
X33022417Y8576346D01*
X32957071Y8652183D01*
X32939137Y8699518D01*
X32958268Y8750146D01*
X32973918Y8767436D01*
X33019078Y8817328D01*
X33081570Y8946311D01*
X33105349Y9087650D01*
X33105500Y9100000D01*
X33085182Y9241877D01*
X33080322Y9252567D01*
X33028043Y9367549D01*
X33028041Y9367552D01*
X33025860Y9372349D01*
X33022422Y9376339D01*
X33022420Y9376342D01*
X32935741Y9476936D01*
X32932303Y9480926D01*
X32812033Y9558882D01*
X32806985Y9560392D01*
X32806982Y9560393D01*
X32679771Y9598437D01*
X32679770Y9598437D01*
X32674718Y9599948D01*
X32601912Y9600392D01*
X32536666Y9600791D01*
X32536665Y9600791D01*
X32531396Y9600823D01*
X32393589Y9561438D01*
X32272375Y9484958D01*
X32177499Y9377531D01*
X32167714Y9356688D01*
X32167329Y9355869D01*
X32131443Y9320170D01*
X32081005Y9315890D01*
X32039616Y9345032D01*
X32032981Y9356688D01*
X32028043Y9367548D01*
X32028043Y9367549D01*
X32025860Y9372349D01*
X32022422Y9376339D01*
X32022420Y9376342D01*
X31935741Y9476936D01*
X31932303Y9480926D01*
X31812033Y9558882D01*
X31806985Y9560392D01*
X31806982Y9560393D01*
X31679771Y9598437D01*
X31679770Y9598437D01*
X31674718Y9599948D01*
X31601912Y9600392D01*
X31536666Y9600791D01*
X31536665Y9600791D01*
X31531396Y9600823D01*
X31393589Y9561438D01*
X31272375Y9484958D01*
X31177499Y9377531D01*
X31116588Y9247794D01*
X31094538Y9106176D01*
X26500000Y9106176D01*
X26500000Y10546176D01*
X32474538Y10546176D01*
X32475221Y10540952D01*
X32475221Y10540950D01*
X32481301Y10494452D01*
X32493121Y10404061D01*
X32550845Y10272874D01*
X32554237Y10268839D01*
X32639678Y10167194D01*
X32639681Y10167191D01*
X32643068Y10163162D01*
X32647455Y10160242D01*
X32757988Y10086664D01*
X32757991Y10086663D01*
X32762377Y10083743D01*
X32899180Y10041003D01*
X32904448Y10040906D01*
X32904451Y10040906D01*
X32964874Y10039799D01*
X33042481Y10038376D01*
X33047564Y10039762D01*
X33047566Y10039762D01*
X33175668Y10074687D01*
X33175670Y10074688D01*
X33180758Y10076075D01*
X33302897Y10151069D01*
X33399078Y10257328D01*
X33461570Y10386311D01*
X33485349Y10527650D01*
X33485500Y10540000D01*
X33483870Y10551382D01*
X33465929Y10676662D01*
X33465929Y10676663D01*
X33465182Y10681877D01*
X33440869Y10735351D01*
X33408043Y10807549D01*
X33408041Y10807552D01*
X33405860Y10812349D01*
X33402422Y10816339D01*
X33402420Y10816342D01*
X33315741Y10916936D01*
X33312303Y10920926D01*
X33229361Y10974687D01*
X33196455Y10996016D01*
X33196454Y10996017D01*
X33192033Y10998882D01*
X33186985Y11000392D01*
X33186982Y11000393D01*
X33059771Y11038437D01*
X33059770Y11038437D01*
X33054718Y11039948D01*
X32981912Y11040392D01*
X32916666Y11040791D01*
X32916665Y11040791D01*
X32911396Y11040823D01*
X32773589Y11001438D01*
X32652375Y10924958D01*
X32557499Y10817531D01*
X32496588Y10687794D01*
X32474538Y10546176D01*
X26500000Y10546176D01*
X26500000Y11446176D01*
X31214538Y11446176D01*
X31215221Y11440952D01*
X31215221Y11440950D01*
X31222485Y11385398D01*
X31233121Y11304061D01*
X31290845Y11172874D01*
X31294237Y11168839D01*
X31379678Y11067194D01*
X31379681Y11067191D01*
X31383068Y11063162D01*
X31387455Y11060242D01*
X31497988Y10986664D01*
X31497991Y10986663D01*
X31502377Y10983743D01*
X31639180Y10941003D01*
X31644448Y10940906D01*
X31644451Y10940906D01*
X31704874Y10939799D01*
X31782481Y10938376D01*
X31787564Y10939762D01*
X31787566Y10939762D01*
X31915668Y10974687D01*
X31915670Y10974688D01*
X31920758Y10976075D01*
X32042897Y11051069D01*
X32139078Y11157328D01*
X32201570Y11286311D01*
X32225349Y11427650D01*
X32225500Y11440000D01*
X32205182Y11581877D01*
X32174947Y11648376D01*
X32148043Y11707549D01*
X32148041Y11707552D01*
X32145860Y11712349D01*
X32142422Y11716339D01*
X32142420Y11716342D01*
X32055741Y11816936D01*
X32052303Y11820926D01*
X31932033Y11898882D01*
X31926985Y11900392D01*
X31926982Y11900393D01*
X31799771Y11938437D01*
X31799770Y11938437D01*
X31794718Y11939948D01*
X31721912Y11940392D01*
X31656666Y11940791D01*
X31656665Y11940791D01*
X31651396Y11940823D01*
X31513589Y11901438D01*
X31392375Y11824958D01*
X31297499Y11717531D01*
X31236588Y11587794D01*
X31214538Y11446176D01*
X26500000Y11446176D01*
X26500000Y12083212D01*
X26517313Y12130778D01*
X26561150Y12156088D01*
X26596067Y12153845D01*
X26669180Y12131003D01*
X26674448Y12130906D01*
X26674451Y12130906D01*
X26734874Y12129799D01*
X26812481Y12128376D01*
X26817564Y12129762D01*
X26817566Y12129762D01*
X26945668Y12164687D01*
X26945670Y12164688D01*
X26950758Y12166075D01*
X27011828Y12203572D01*
X27068404Y12238310D01*
X27068405Y12238311D01*
X27072897Y12241069D01*
X27169078Y12347328D01*
X27189067Y12388586D01*
X27225387Y12423844D01*
X27257019Y12430309D01*
X27300994Y12429503D01*
X27362481Y12428376D01*
X27367564Y12429762D01*
X27367566Y12429762D01*
X27495668Y12464687D01*
X27495670Y12464688D01*
X27500758Y12466075D01*
X27561828Y12503572D01*
X27618404Y12538310D01*
X27618405Y12538311D01*
X27622897Y12541069D01*
X27719078Y12647328D01*
X27766027Y12744230D01*
X27802346Y12779487D01*
X27852832Y12783151D01*
X27889266Y12759580D01*
X27899674Y12747198D01*
X27899680Y12747193D01*
X27903068Y12743162D01*
X27907455Y12740242D01*
X28017988Y12666664D01*
X28017991Y12666663D01*
X28022377Y12663743D01*
X28159180Y12621003D01*
X28164448Y12620906D01*
X28164451Y12620906D01*
X28224874Y12619799D01*
X28302481Y12618376D01*
X28307564Y12619762D01*
X28307566Y12619762D01*
X28435668Y12654687D01*
X28435670Y12654688D01*
X28440758Y12656075D01*
X28562897Y12731069D01*
X28659078Y12837328D01*
X28721570Y12966311D01*
X28744053Y13099948D01*
X28744874Y13104826D01*
X28744874Y13104827D01*
X28745349Y13107650D01*
X28745500Y13120000D01*
X28737470Y13176075D01*
X28725929Y13256662D01*
X28725929Y13256663D01*
X28725182Y13261877D01*
X28665860Y13392349D01*
X28662419Y13396342D01*
X28661258Y13398158D01*
X28650216Y13447558D01*
X28673730Y13490239D01*
X28672813Y13491069D01*
X28676323Y13494947D01*
X28676349Y13494975D01*
X28676351Y13494977D01*
X28732971Y13557531D01*
X28768994Y13597328D01*
X28831486Y13726311D01*
X28833145Y13736176D01*
X29804538Y13736176D01*
X29805221Y13730952D01*
X29805221Y13730950D01*
X29811064Y13686268D01*
X29823121Y13594061D01*
X29880845Y13462874D01*
X29889925Y13452072D01*
X29969678Y13357194D01*
X29969681Y13357191D01*
X29973068Y13353162D01*
X29977455Y13350242D01*
X30087988Y13276664D01*
X30087991Y13276663D01*
X30092377Y13273743D01*
X30229180Y13231003D01*
X30234448Y13230906D01*
X30234451Y13230906D01*
X30294874Y13229799D01*
X30372481Y13228376D01*
X30377564Y13229762D01*
X30377566Y13229762D01*
X30505668Y13264687D01*
X30505670Y13264688D01*
X30510758Y13266075D01*
X30632897Y13341069D01*
X30729078Y13447328D01*
X30791570Y13576311D01*
X30815349Y13717650D01*
X30815500Y13730000D01*
X30805694Y13798473D01*
X30795929Y13866662D01*
X30795929Y13866663D01*
X30795182Y13871877D01*
X30778617Y13908310D01*
X30738043Y13997549D01*
X30738041Y13997552D01*
X30735860Y14002349D01*
X30732422Y14006339D01*
X30732420Y14006342D01*
X30645741Y14106936D01*
X30642303Y14110926D01*
X30577766Y14152757D01*
X30526455Y14186016D01*
X30526454Y14186017D01*
X30522033Y14188882D01*
X30516985Y14190392D01*
X30516982Y14190393D01*
X30389771Y14228437D01*
X30389770Y14228437D01*
X30384718Y14229948D01*
X30311912Y14230392D01*
X30246666Y14230791D01*
X30246665Y14230791D01*
X30241396Y14230823D01*
X30103589Y14191438D01*
X29982375Y14114958D01*
X29914144Y14037701D01*
X29906318Y14028839D01*
X29887499Y14007531D01*
X29826588Y13877794D01*
X29804538Y13736176D01*
X28833145Y13736176D01*
X28855265Y13867650D01*
X28855416Y13880000D01*
X28837323Y14006342D01*
X28835845Y14016662D01*
X28835845Y14016663D01*
X28835098Y14021877D01*
X28792777Y14114958D01*
X28777959Y14147549D01*
X28777957Y14147552D01*
X28775776Y14152349D01*
X28772338Y14156339D01*
X28772336Y14156342D01*
X28685657Y14256936D01*
X28682219Y14260926D01*
X28561949Y14338882D01*
X28556901Y14340392D01*
X28556898Y14340393D01*
X28429687Y14378437D01*
X28429686Y14378437D01*
X28424634Y14379948D01*
X28351828Y14380392D01*
X28286582Y14380791D01*
X28286581Y14380791D01*
X28281312Y14380823D01*
X28143505Y14341438D01*
X28022291Y14264958D01*
X27927415Y14157531D01*
X27866504Y14027794D01*
X27844454Y13886176D01*
X27845137Y13880952D01*
X27845137Y13880950D01*
X27850208Y13842172D01*
X27863037Y13744061D01*
X27920761Y13612874D01*
X27924153Y13608839D01*
X27926940Y13604361D01*
X27925608Y13603532D01*
X27940654Y13562296D01*
X27923379Y13514716D01*
X27915911Y13507189D01*
X27912375Y13504958D01*
X27903560Y13494977D01*
X27844996Y13428665D01*
X27817499Y13397531D01*
X27812813Y13387550D01*
X27774381Y13305693D01*
X27738494Y13269994D01*
X27688056Y13265714D01*
X27651336Y13288838D01*
X27635744Y13306933D01*
X27635743Y13306934D01*
X27632303Y13310926D01*
X27512033Y13388882D01*
X27506985Y13390392D01*
X27506982Y13390393D01*
X27379771Y13428437D01*
X27379770Y13428437D01*
X27374718Y13429948D01*
X27298493Y13430413D01*
X27251034Y13448016D01*
X27231581Y13473784D01*
X27214045Y13512352D01*
X27195860Y13552349D01*
X27192422Y13556339D01*
X27192420Y13556342D01*
X27105741Y13656936D01*
X27102303Y13660926D01*
X27030551Y13707434D01*
X26986455Y13736016D01*
X26986454Y13736017D01*
X26982033Y13738882D01*
X26976983Y13740392D01*
X26972198Y13742603D01*
X26973036Y13744417D01*
X26938816Y13769872D01*
X26927124Y13819122D01*
X26949825Y13864365D01*
X26961907Y13873621D01*
X26966880Y13876674D01*
X27022897Y13911069D01*
X27119078Y14017328D01*
X27181570Y14146311D01*
X27205349Y14287650D01*
X27205500Y14300000D01*
X27193930Y14380791D01*
X27185929Y14436662D01*
X27185929Y14436663D01*
X27185182Y14441877D01*
X27180322Y14452567D01*
X27128043Y14567549D01*
X27128041Y14567552D01*
X27125860Y14572349D01*
X27122422Y14576339D01*
X27122420Y14576342D01*
X27035741Y14676936D01*
X27032303Y14680926D01*
X26968823Y14722072D01*
X26916455Y14756016D01*
X26916454Y14756017D01*
X26912033Y14758882D01*
X26906985Y14760392D01*
X26906982Y14760393D01*
X26779771Y14798437D01*
X26779770Y14798437D01*
X26774718Y14799948D01*
X26701912Y14800392D01*
X26636666Y14800791D01*
X26636665Y14800791D01*
X26631396Y14800823D01*
X26493589Y14761438D01*
X26489129Y14758624D01*
X26439614Y14727383D01*
X26390147Y14716643D01*
X26359878Y14727870D01*
X26316455Y14756016D01*
X26316454Y14756017D01*
X26312033Y14758882D01*
X26306985Y14760392D01*
X26306982Y14760393D01*
X26179771Y14798437D01*
X26179770Y14798437D01*
X26174718Y14799948D01*
X26101912Y14800392D01*
X26036666Y14800791D01*
X26036665Y14800791D01*
X26031396Y14800823D01*
X25893589Y14761438D01*
X25889129Y14758624D01*
X25839614Y14727383D01*
X25790147Y14716643D01*
X25759878Y14727870D01*
X25716455Y14756016D01*
X25716454Y14756017D01*
X25712033Y14758882D01*
X25706985Y14760392D01*
X25706982Y14760393D01*
X25579771Y14798437D01*
X25579770Y14798437D01*
X25574718Y14799948D01*
X25477731Y14800540D01*
X25430272Y14818143D01*
X25405230Y14862134D01*
X25405209Y14881931D01*
X25404619Y14881984D01*
X25404874Y14884826D01*
X25405349Y14887650D01*
X25405500Y14900000D01*
X25399503Y14941877D01*
X25385929Y15036662D01*
X25385929Y15036663D01*
X25385182Y15041877D01*
X25326406Y15171148D01*
X25322479Y15221614D01*
X25327172Y15234034D01*
X25381570Y15346311D01*
X25405349Y15487650D01*
X25405500Y15500000D01*
X25399503Y15541877D01*
X25385929Y15636662D01*
X25385929Y15636663D01*
X25385182Y15641877D01*
X25359105Y15699231D01*
X25328043Y15767549D01*
X25328041Y15767552D01*
X25325860Y15772349D01*
X25322422Y15776339D01*
X25322420Y15776342D01*
X25235741Y15876936D01*
X25232303Y15880926D01*
X25172168Y15919904D01*
X25116455Y15956016D01*
X25116454Y15956017D01*
X25112033Y15958882D01*
X25106985Y15960392D01*
X25106982Y15960393D01*
X24979771Y15998437D01*
X24979770Y15998437D01*
X24974718Y15999948D01*
X24901912Y16000392D01*
X24836666Y16000791D01*
X24836665Y16000791D01*
X24831396Y16000823D01*
X24693589Y15961438D01*
X24572375Y15884958D01*
X24477499Y15777531D01*
X24416588Y15647794D01*
X24394538Y15506176D01*
X24395221Y15500952D01*
X24395221Y15500950D01*
X24398620Y15474958D01*
X24413121Y15364061D01*
X24455588Y15267549D01*
X24470845Y15232874D01*
X24469743Y15232389D01*
X24479012Y15188407D01*
X24472735Y15167384D01*
X24463538Y15147794D01*
X24416588Y15047794D01*
X24394538Y14906176D01*
X24395221Y14900952D01*
X24395221Y14900950D01*
X24397701Y14881984D01*
X24413121Y14764061D01*
X24451457Y14676936D01*
X24470845Y14632874D01*
X24469743Y14632389D01*
X24479012Y14588407D01*
X24472735Y14567384D01*
X24416588Y14447794D01*
X24394538Y14306176D01*
X24395221Y14300952D01*
X24395221Y14300950D01*
X24399560Y14267770D01*
X24413121Y14164061D01*
X24470845Y14032874D01*
X24483913Y14017328D01*
X24559678Y13927194D01*
X24559681Y13927191D01*
X24563068Y13923162D01*
X24575361Y13914979D01*
X24677988Y13846664D01*
X24677991Y13846663D01*
X24682377Y13843743D01*
X24819180Y13801003D01*
X24824448Y13800906D01*
X24824451Y13800906D01*
X24884874Y13799799D01*
X24962481Y13798376D01*
X24967564Y13799762D01*
X24967566Y13799762D01*
X25095668Y13834687D01*
X25095670Y13834688D01*
X25100758Y13836075D01*
X25158515Y13871538D01*
X25160895Y13872999D01*
X25210489Y13883134D01*
X25240619Y13871538D01*
X25277985Y13846666D01*
X25277988Y13846665D01*
X25282377Y13843743D01*
X25287409Y13842171D01*
X25287411Y13842170D01*
X25327954Y13829504D01*
X25419180Y13801003D01*
X25424448Y13800906D01*
X25424451Y13800906D01*
X25484874Y13799799D01*
X25562481Y13798376D01*
X25567564Y13799762D01*
X25567566Y13799762D01*
X25695668Y13834687D01*
X25695670Y13834688D01*
X25700758Y13836075D01*
X25758515Y13871538D01*
X25760895Y13872999D01*
X25810489Y13883134D01*
X25840619Y13871538D01*
X25877985Y13846666D01*
X25877988Y13846665D01*
X25882377Y13843743D01*
X25887409Y13842171D01*
X25887411Y13842170D01*
X25927954Y13829504D01*
X26019180Y13801003D01*
X26024448Y13800906D01*
X26024451Y13800906D01*
X26084874Y13799799D01*
X26162481Y13798376D01*
X26167564Y13799762D01*
X26167566Y13799762D01*
X26295668Y13834687D01*
X26295670Y13834688D01*
X26300758Y13836075D01*
X26358515Y13871538D01*
X26360895Y13872999D01*
X26410489Y13883134D01*
X26440619Y13871538D01*
X26477985Y13846666D01*
X26477988Y13846665D01*
X26482377Y13843743D01*
X26492275Y13840651D01*
X26532513Y13809944D01*
X26543600Y13760554D01*
X26520346Y13715592D01*
X26509697Y13707435D01*
X26442375Y13664958D01*
X26382646Y13597328D01*
X26352976Y13563732D01*
X26347499Y13557531D01*
X26331475Y13523401D01*
X26307675Y13472709D01*
X26271788Y13437010D01*
X26240239Y13430159D01*
X26136665Y13430791D01*
X26136664Y13430791D01*
X26131396Y13430823D01*
X26123846Y13428665D01*
X26122067Y13428791D01*
X26121104Y13428659D01*
X26121076Y13428861D01*
X26073354Y13432239D01*
X26058717Y13441283D01*
X26000000Y13500000D01*
X21090131Y13500000D01*
X21075695Y13501422D01*
X21043408Y13507844D01*
X21020743Y13512352D01*
X20994068Y13523401D01*
X20947482Y13554529D01*
X20936268Y13563732D01*
X20813732Y13686268D01*
X20804529Y13697482D01*
X20788438Y13721564D01*
X20773401Y13744069D01*
X20762352Y13770744D01*
X20751422Y13825695D01*
X20750000Y13840131D01*
X20750000Y15006176D01*
X22794538Y15006176D01*
X22795221Y15000952D01*
X22795221Y15000950D01*
X22801353Y14954061D01*
X22813121Y14864061D01*
X22870845Y14732874D01*
X22875461Y14727383D01*
X22959678Y14627194D01*
X22959681Y14627191D01*
X22963068Y14623162D01*
X22975361Y14614979D01*
X23077988Y14546664D01*
X23077991Y14546663D01*
X23082377Y14543743D01*
X23219180Y14501003D01*
X23224448Y14500906D01*
X23224451Y14500906D01*
X23284874Y14499799D01*
X23362481Y14498376D01*
X23367564Y14499762D01*
X23367566Y14499762D01*
X23495668Y14534687D01*
X23495670Y14534688D01*
X23500758Y14536075D01*
X23622897Y14611069D01*
X23719078Y14717328D01*
X23781570Y14846311D01*
X23805349Y14987650D01*
X23805500Y15000000D01*
X23798816Y15046671D01*
X23785929Y15136662D01*
X23785929Y15136663D01*
X23785182Y15141877D01*
X23759105Y15199231D01*
X23728043Y15267549D01*
X23728041Y15267552D01*
X23725860Y15272349D01*
X23722422Y15276339D01*
X23722420Y15276342D01*
X23635741Y15376936D01*
X23632303Y15380926D01*
X23512033Y15458882D01*
X23506985Y15460392D01*
X23506982Y15460393D01*
X23379771Y15498437D01*
X23379770Y15498437D01*
X23374718Y15499948D01*
X23301912Y15500392D01*
X23236666Y15500791D01*
X23236665Y15500791D01*
X23231396Y15500823D01*
X23093589Y15461438D01*
X22972375Y15384958D01*
X22877499Y15277531D01*
X22816588Y15147794D01*
X22794538Y15006176D01*
X20750000Y15006176D01*
X20750000Y17850269D01*
X20767313Y17897835D01*
X20804535Y17921662D01*
X20859553Y17936662D01*
X20925669Y17954687D01*
X20925673Y17954689D01*
X20930758Y17956075D01*
X21035264Y18020242D01*
X21048404Y18028310D01*
X21048405Y18028311D01*
X21052897Y18031069D01*
X21149078Y18137328D01*
X21211570Y18266311D01*
X21232466Y18390513D01*
X21234874Y18404826D01*
X21234874Y18404827D01*
X21235100Y18406176D01*
X22094538Y18406176D01*
X22095221Y18400952D01*
X22095221Y18400950D01*
X22099361Y18369288D01*
X22113121Y18264061D01*
X22170845Y18132874D01*
X22174237Y18128839D01*
X22259678Y18027194D01*
X22259681Y18027191D01*
X22263068Y18023162D01*
X22267455Y18020242D01*
X22377988Y17946664D01*
X22377991Y17946663D01*
X22382377Y17943743D01*
X22519180Y17901003D01*
X22524448Y17900906D01*
X22524451Y17900906D01*
X22623949Y17899082D01*
X22671190Y17880900D01*
X22695691Y17836606D01*
X22695711Y17813710D01*
X22694538Y17806176D01*
X22695221Y17800952D01*
X22695221Y17800950D01*
X22698310Y17777328D01*
X22713121Y17664061D01*
X22770845Y17532874D01*
X22774237Y17528839D01*
X22859678Y17427194D01*
X22859681Y17427191D01*
X22863068Y17423162D01*
X22867455Y17420242D01*
X22977988Y17346664D01*
X22977991Y17346663D01*
X22982377Y17343743D01*
X23119180Y17301003D01*
X23124448Y17300906D01*
X23124451Y17300906D01*
X23184874Y17299799D01*
X23262481Y17298376D01*
X23267564Y17299762D01*
X23267566Y17299762D01*
X23395668Y17334687D01*
X23395670Y17334688D01*
X23400758Y17336075D01*
X23522897Y17411069D01*
X23619078Y17517328D01*
X23681570Y17646311D01*
X23702260Y17769288D01*
X23704874Y17784826D01*
X23704874Y17784827D01*
X23705349Y17787650D01*
X23705500Y17800000D01*
X23698301Y17850269D01*
X23685929Y17936662D01*
X23685929Y17936663D01*
X23685182Y17941877D01*
X23626406Y18071148D01*
X23622479Y18121614D01*
X23627172Y18134034D01*
X23681570Y18246311D01*
X23705349Y18387650D01*
X23705500Y18400000D01*
X23685182Y18541877D01*
X23674673Y18564990D01*
X23628043Y18667549D01*
X23628041Y18667552D01*
X23625860Y18672349D01*
X23622422Y18676339D01*
X23622420Y18676342D01*
X23535741Y18776936D01*
X23532303Y18780926D01*
X23468823Y18822072D01*
X23416455Y18856016D01*
X23416454Y18856017D01*
X23412033Y18858882D01*
X23406985Y18860392D01*
X23406982Y18860393D01*
X23279771Y18898437D01*
X23279770Y18898437D01*
X23274718Y18899948D01*
X23201912Y18900392D01*
X23136666Y18900791D01*
X23136665Y18900791D01*
X23131396Y18900823D01*
X22993589Y18861438D01*
X22989129Y18858624D01*
X22939614Y18827383D01*
X22890147Y18816643D01*
X22859878Y18827870D01*
X22816455Y18856016D01*
X22816454Y18856017D01*
X22812033Y18858882D01*
X22806985Y18860392D01*
X22806982Y18860393D01*
X22679771Y18898437D01*
X22679770Y18898437D01*
X22674718Y18899948D01*
X22601912Y18900392D01*
X22536666Y18900791D01*
X22536665Y18900791D01*
X22531396Y18900823D01*
X22393589Y18861438D01*
X22272375Y18784958D01*
X22210572Y18714979D01*
X22186347Y18687549D01*
X22177499Y18677531D01*
X22116588Y18547794D01*
X22094538Y18406176D01*
X21235100Y18406176D01*
X21235349Y18407650D01*
X21235500Y18420000D01*
X21215182Y18561877D01*
X21197437Y18600906D01*
X21158043Y18687549D01*
X21158041Y18687552D01*
X21155860Y18692349D01*
X21152422Y18696339D01*
X21152420Y18696342D01*
X21065741Y18796936D01*
X21062303Y18800926D01*
X20970558Y18860393D01*
X20946455Y18876016D01*
X20946454Y18876017D01*
X20942033Y18878882D01*
X20936985Y18880392D01*
X20936982Y18880393D01*
X20804718Y18919948D01*
X20805368Y18922123D01*
X20768580Y18942095D01*
X20750000Y18991132D01*
X20750000Y19159869D01*
X20751422Y19174305D01*
X20762352Y19229256D01*
X20773401Y19255932D01*
X20804529Y19302518D01*
X20813732Y19313732D01*
X20936268Y19436268D01*
X20947482Y19445471D01*
X20994068Y19476599D01*
X21020743Y19487648D01*
X21043408Y19492156D01*
X21075695Y19498578D01*
X21090131Y19500000D01*
X22000000Y19500000D01*
X22206176Y19706176D01*
X29894538Y19706176D01*
X29895221Y19700952D01*
X29895221Y19700950D01*
X29902485Y19645398D01*
X29913121Y19564061D01*
X29965302Y19445471D01*
X29970845Y19432874D01*
X29969743Y19432389D01*
X29979012Y19388407D01*
X29972735Y19367384D01*
X29916588Y19247794D01*
X29894538Y19106176D01*
X29895221Y19100952D01*
X29895221Y19100950D01*
X29902485Y19045398D01*
X29913121Y18964061D01*
X29958736Y18860393D01*
X29970845Y18832874D01*
X29969743Y18832389D01*
X29979012Y18788407D01*
X29972735Y18767384D01*
X29916588Y18647794D01*
X29894538Y18506176D01*
X29895221Y18500952D01*
X29895221Y18500950D01*
X29902485Y18445398D01*
X29913121Y18364061D01*
X29923019Y18341567D01*
X29970845Y18232874D01*
X29969743Y18232389D01*
X29979012Y18188407D01*
X29972735Y18167384D01*
X29916588Y18047794D01*
X29894538Y17906176D01*
X29895221Y17900952D01*
X29895221Y17900950D01*
X29897843Y17880900D01*
X29913121Y17764061D01*
X29931475Y17722349D01*
X29970845Y17632874D01*
X29969743Y17632389D01*
X29979012Y17588407D01*
X29972735Y17567384D01*
X29916588Y17447794D01*
X29894538Y17306176D01*
X29895221Y17300952D01*
X29895221Y17300950D01*
X29902485Y17245398D01*
X29913121Y17164061D01*
X29958439Y17061069D01*
X29970845Y17032874D01*
X29969743Y17032389D01*
X29979012Y16988407D01*
X29972735Y16967384D01*
X29916588Y16847794D01*
X29894538Y16706176D01*
X29895221Y16700952D01*
X29895221Y16700950D01*
X29902485Y16645398D01*
X29913121Y16564061D01*
X29957122Y16464061D01*
X29970845Y16432874D01*
X29969743Y16432389D01*
X29979012Y16388407D01*
X29972735Y16367384D01*
X29916588Y16247794D01*
X29894538Y16106176D01*
X29895221Y16100952D01*
X29895221Y16100950D01*
X29902485Y16045398D01*
X29913121Y15964061D01*
X29959401Y15858882D01*
X29970845Y15832874D01*
X29969743Y15832389D01*
X29979012Y15788407D01*
X29972735Y15767384D01*
X29916588Y15647794D01*
X29894538Y15506176D01*
X29895221Y15500952D01*
X29895221Y15500950D01*
X29898620Y15474958D01*
X29913121Y15364061D01*
X29955588Y15267549D01*
X29970845Y15232874D01*
X29969743Y15232389D01*
X29979012Y15188407D01*
X29972735Y15167384D01*
X29963538Y15147794D01*
X29916588Y15047794D01*
X29894538Y14906176D01*
X29895221Y14900952D01*
X29895221Y14900950D01*
X29897701Y14881984D01*
X29913121Y14764061D01*
X29970845Y14632874D01*
X29974237Y14628839D01*
X30059678Y14527194D01*
X30059681Y14527191D01*
X30063068Y14523162D01*
X30075361Y14514979D01*
X30177988Y14446664D01*
X30177991Y14446663D01*
X30182377Y14443743D01*
X30319180Y14401003D01*
X30324448Y14400906D01*
X30324451Y14400906D01*
X30384874Y14399799D01*
X30462481Y14398376D01*
X30467564Y14399762D01*
X30467566Y14399762D01*
X30595668Y14434687D01*
X30595670Y14434688D01*
X30600758Y14436075D01*
X30722897Y14511069D01*
X30819078Y14617328D01*
X30881570Y14746311D01*
X30905349Y14887650D01*
X30905500Y14900000D01*
X30899503Y14941877D01*
X30885929Y15036662D01*
X30885929Y15036663D01*
X30885182Y15041877D01*
X30826406Y15171148D01*
X30822479Y15221614D01*
X30827172Y15234034D01*
X30881570Y15346311D01*
X30905349Y15487650D01*
X30905500Y15500000D01*
X30899503Y15541877D01*
X30885929Y15636662D01*
X30885929Y15636663D01*
X30885182Y15641877D01*
X30826406Y15771148D01*
X30822479Y15821614D01*
X30827172Y15834034D01*
X30881570Y15946311D01*
X30905349Y16087650D01*
X30905500Y16100000D01*
X30899503Y16141877D01*
X30885929Y16236662D01*
X30885929Y16236663D01*
X30885182Y16241877D01*
X30826406Y16371148D01*
X30822479Y16421614D01*
X30827172Y16434034D01*
X30881570Y16546311D01*
X30905349Y16687650D01*
X30905500Y16700000D01*
X30899503Y16741877D01*
X30885929Y16836662D01*
X30885929Y16836663D01*
X30885182Y16841877D01*
X30826406Y16971148D01*
X30822479Y17021614D01*
X30827172Y17034034D01*
X30881570Y17146311D01*
X30905349Y17287650D01*
X30905500Y17300000D01*
X30885182Y17441877D01*
X30878681Y17456176D01*
X35754538Y17456176D01*
X35755221Y17450952D01*
X35755221Y17450950D01*
X35758855Y17423162D01*
X35773121Y17314061D01*
X35830845Y17182874D01*
X35834237Y17178839D01*
X35919678Y17077194D01*
X35919681Y17077191D01*
X35923068Y17073162D01*
X35945380Y17058310D01*
X36037988Y16996664D01*
X36037991Y16996663D01*
X36042377Y16993743D01*
X36179180Y16951003D01*
X36184448Y16950906D01*
X36184451Y16950906D01*
X36244874Y16949799D01*
X36322481Y16948376D01*
X36327564Y16949762D01*
X36327566Y16949762D01*
X36455668Y16984687D01*
X36455670Y16984688D01*
X36460758Y16986075D01*
X36536977Y17032874D01*
X36578404Y17058310D01*
X36578405Y17058311D01*
X36582897Y17061069D01*
X36679078Y17167328D01*
X36741570Y17296311D01*
X36765349Y17437650D01*
X36765500Y17450000D01*
X36753632Y17532874D01*
X36745929Y17586662D01*
X36745929Y17586663D01*
X36745182Y17591877D01*
X36733610Y17617328D01*
X36688043Y17717549D01*
X36688041Y17717552D01*
X36685860Y17722349D01*
X36682422Y17726339D01*
X36682420Y17726342D01*
X36595741Y17826936D01*
X36592303Y17830926D01*
X36532168Y17869904D01*
X36476455Y17906016D01*
X36476454Y17906017D01*
X36472033Y17908882D01*
X36466985Y17910392D01*
X36466982Y17910393D01*
X36339771Y17948437D01*
X36339770Y17948437D01*
X36334718Y17949948D01*
X36261912Y17950392D01*
X36196666Y17950791D01*
X36196665Y17950791D01*
X36191396Y17950823D01*
X36053589Y17911438D01*
X36049129Y17908624D01*
X36037050Y17901003D01*
X35932375Y17834958D01*
X35837499Y17727531D01*
X35776588Y17597794D01*
X35754538Y17456176D01*
X30878681Y17456176D01*
X30826406Y17571148D01*
X30822479Y17621614D01*
X30827172Y17634034D01*
X30881570Y17746311D01*
X30905349Y17887650D01*
X30905500Y17900000D01*
X30897470Y17956075D01*
X30885929Y18036662D01*
X30885929Y18036663D01*
X30885182Y18041877D01*
X30826406Y18171148D01*
X30822479Y18221614D01*
X30827172Y18234034D01*
X30881570Y18346311D01*
X30905349Y18487650D01*
X30905500Y18500000D01*
X30905095Y18502825D01*
X30905095Y18502832D01*
X30903288Y18515450D01*
X30913684Y18564990D01*
X30953491Y18596258D01*
X30977896Y18599927D01*
X31062481Y18598376D01*
X31067564Y18599762D01*
X31067566Y18599762D01*
X31195668Y18634687D01*
X31195670Y18634688D01*
X31200758Y18636075D01*
X31233641Y18656265D01*
X31260895Y18672999D01*
X31310489Y18683134D01*
X31340619Y18671538D01*
X31377985Y18646666D01*
X31377988Y18646665D01*
X31382377Y18643743D01*
X31387409Y18642171D01*
X31387411Y18642170D01*
X31427954Y18629504D01*
X31519180Y18601003D01*
X31524448Y18600906D01*
X31524451Y18600906D01*
X31584874Y18599799D01*
X31662481Y18598376D01*
X31667564Y18599762D01*
X31667566Y18599762D01*
X31795668Y18634687D01*
X31795670Y18634688D01*
X31800758Y18636075D01*
X31833641Y18656265D01*
X31860895Y18672999D01*
X31910489Y18683134D01*
X31940619Y18671538D01*
X31977985Y18646666D01*
X31977988Y18646665D01*
X31982377Y18643743D01*
X31987409Y18642171D01*
X31987411Y18642170D01*
X32027954Y18629504D01*
X32119180Y18601003D01*
X32124448Y18600906D01*
X32124451Y18600906D01*
X32184874Y18599799D01*
X32262481Y18598376D01*
X32267564Y18599762D01*
X32267566Y18599762D01*
X32395668Y18634687D01*
X32395670Y18634688D01*
X32400758Y18636075D01*
X32498912Y18696342D01*
X32518404Y18708310D01*
X32518405Y18708311D01*
X32522897Y18711069D01*
X32619078Y18817328D01*
X32681570Y18946311D01*
X32705349Y19087650D01*
X32705500Y19100000D01*
X32694859Y19174305D01*
X32685929Y19236662D01*
X32685929Y19236663D01*
X32685182Y19241877D01*
X32626406Y19371148D01*
X32622479Y19421614D01*
X32627172Y19434034D01*
X32681570Y19546311D01*
X32705349Y19687650D01*
X32705500Y19700000D01*
X32685182Y19841877D01*
X32680322Y19852567D01*
X32628043Y19967549D01*
X32628041Y19967552D01*
X32625860Y19972349D01*
X32622422Y19976339D01*
X32622420Y19976342D01*
X32535741Y20076936D01*
X32532303Y20080926D01*
X32472168Y20119904D01*
X32416455Y20156016D01*
X32416454Y20156017D01*
X32412033Y20158882D01*
X32406985Y20160392D01*
X32406982Y20160393D01*
X32279771Y20198437D01*
X32279770Y20198437D01*
X32274718Y20199948D01*
X32201912Y20200392D01*
X32136666Y20200791D01*
X32136665Y20200791D01*
X32131396Y20200823D01*
X31993589Y20161438D01*
X31989129Y20158624D01*
X31939614Y20127383D01*
X31890147Y20116643D01*
X31859878Y20127870D01*
X31816455Y20156016D01*
X31816454Y20156017D01*
X31812033Y20158882D01*
X31806985Y20160392D01*
X31806982Y20160393D01*
X31679771Y20198437D01*
X31679770Y20198437D01*
X31674718Y20199948D01*
X31601912Y20200392D01*
X31536666Y20200791D01*
X31536665Y20200791D01*
X31531396Y20200823D01*
X31393589Y20161438D01*
X31389129Y20158624D01*
X31339614Y20127383D01*
X31290147Y20116643D01*
X31259878Y20127870D01*
X31216455Y20156016D01*
X31216454Y20156017D01*
X31212033Y20158882D01*
X31206985Y20160392D01*
X31206982Y20160393D01*
X31079771Y20198437D01*
X31079770Y20198437D01*
X31074718Y20199948D01*
X31001912Y20200392D01*
X30936666Y20200791D01*
X30936665Y20200791D01*
X30931396Y20200823D01*
X30793589Y20161438D01*
X30789129Y20158624D01*
X30739614Y20127383D01*
X30690147Y20116643D01*
X30659878Y20127870D01*
X30616455Y20156016D01*
X30616454Y20156017D01*
X30612033Y20158882D01*
X30606985Y20160392D01*
X30606982Y20160393D01*
X30479771Y20198437D01*
X30479770Y20198437D01*
X30474718Y20199948D01*
X30401912Y20200392D01*
X30336666Y20200791D01*
X30336665Y20200791D01*
X30331396Y20200823D01*
X30193589Y20161438D01*
X30072375Y20084958D01*
X29977499Y19977531D01*
X29916588Y19847794D01*
X29894538Y19706176D01*
X22206176Y19706176D01*
X22500000Y20000000D01*
X22500000Y23433333D01*
X35244538Y23433333D01*
X35245221Y23428109D01*
X35245221Y23428107D01*
X35248383Y23403925D01*
X35263121Y23291218D01*
X35320845Y23160031D01*
X35340784Y23136311D01*
X35409678Y23054351D01*
X35409681Y23054348D01*
X35413068Y23050319D01*
X35506273Y22988276D01*
X35536275Y22947509D01*
X35533053Y22896992D01*
X35504757Y22864094D01*
X35422375Y22812115D01*
X35327499Y22704688D01*
X35266588Y22574951D01*
X35244538Y22433333D01*
X35245221Y22428109D01*
X35245221Y22428107D01*
X35246960Y22414807D01*
X35263121Y22291218D01*
X35320845Y22160031D01*
X35329925Y22149229D01*
X35409678Y22054351D01*
X35409681Y22054348D01*
X35413068Y22050319D01*
X35417455Y22047399D01*
X35527988Y21973821D01*
X35527991Y21973820D01*
X35532377Y21970900D01*
X35669180Y21928160D01*
X35674448Y21928063D01*
X35674451Y21928063D01*
X35734874Y21926956D01*
X35812481Y21925533D01*
X35817564Y21926919D01*
X35817566Y21926919D01*
X35945668Y21961844D01*
X35945670Y21961845D01*
X35950758Y21963232D01*
X36072897Y22038226D01*
X36169078Y22144485D01*
X36231570Y22273468D01*
X36251450Y22391630D01*
X36276414Y22435664D01*
X36304960Y22450746D01*
X36345669Y22461844D01*
X36345673Y22461846D01*
X36350758Y22463232D01*
X36472897Y22538226D01*
X36569078Y22644485D01*
X36631570Y22773468D01*
X36655349Y22914807D01*
X36655500Y22927157D01*
X36635182Y23069034D01*
X36595643Y23155996D01*
X36578043Y23194706D01*
X36578041Y23194709D01*
X36575860Y23199506D01*
X36572422Y23203496D01*
X36572420Y23203499D01*
X36485741Y23304093D01*
X36482303Y23308083D01*
X36362033Y23386039D01*
X36302226Y23403925D01*
X36261615Y23434140D01*
X36250176Y23464332D01*
X36235929Y23563819D01*
X36235929Y23563820D01*
X36235182Y23569034D01*
X36231556Y23577010D01*
X36178043Y23694706D01*
X36178041Y23694709D01*
X36175860Y23699506D01*
X36172422Y23703496D01*
X36172420Y23703499D01*
X36085741Y23804093D01*
X36082303Y23808083D01*
X35996417Y23863752D01*
X35965920Y23904151D01*
X35968526Y23954703D01*
X35997948Y23988910D01*
X36078404Y24038310D01*
X36078405Y24038311D01*
X36082897Y24041069D01*
X36179078Y24147328D01*
X36241570Y24276311D01*
X36265349Y24417650D01*
X36265500Y24430000D01*
X36245182Y24571877D01*
X36215886Y24636311D01*
X36188043Y24697549D01*
X36188041Y24697552D01*
X36185860Y24702349D01*
X36182422Y24706339D01*
X36182420Y24706342D01*
X36095741Y24806936D01*
X36092303Y24810926D01*
X35972033Y24888882D01*
X35966985Y24890392D01*
X35966982Y24890393D01*
X35839771Y24928437D01*
X35839770Y24928437D01*
X35834718Y24929948D01*
X35761912Y24930392D01*
X35696666Y24930791D01*
X35696665Y24930791D01*
X35691396Y24930823D01*
X35553589Y24891438D01*
X35432375Y24814958D01*
X35337499Y24707531D01*
X35276588Y24577794D01*
X35254538Y24436176D01*
X35255221Y24430952D01*
X35255221Y24430950D01*
X35262485Y24375398D01*
X35273121Y24294061D01*
X35330845Y24162874D01*
X35334237Y24158839D01*
X35419678Y24057194D01*
X35419681Y24057191D01*
X35423068Y24053162D01*
X35427455Y24050242D01*
X35513599Y23992899D01*
X35543602Y23952130D01*
X35540379Y23901614D01*
X35512081Y23868715D01*
X35422375Y23812115D01*
X35327499Y23704688D01*
X35266588Y23574951D01*
X35244538Y23433333D01*
X22500000Y23433333D01*
X22500000Y31706176D01*
X26194538Y31706176D01*
X26195221Y31700952D01*
X26195221Y31700950D01*
X26199489Y31668310D01*
X26213121Y31564061D01*
X26240947Y31500823D01*
X26265542Y31444927D01*
X26270845Y31432874D01*
X26274237Y31428839D01*
X26359678Y31327194D01*
X26359681Y31327191D01*
X26363068Y31323162D01*
X26367455Y31320242D01*
X26477988Y31246664D01*
X26477991Y31246663D01*
X26482377Y31243743D01*
X26619180Y31201003D01*
X26624448Y31200906D01*
X26624451Y31200906D01*
X26684874Y31199799D01*
X26762481Y31198376D01*
X26767564Y31199762D01*
X26767566Y31199762D01*
X26895668Y31234687D01*
X26895670Y31234688D01*
X26900758Y31236075D01*
X26960894Y31272999D01*
X27010489Y31283134D01*
X27040619Y31271538D01*
X27077985Y31246666D01*
X27077988Y31246665D01*
X27082377Y31243743D01*
X27087409Y31242171D01*
X27087411Y31242170D01*
X27127954Y31229504D01*
X27219180Y31201003D01*
X27224448Y31200906D01*
X27224451Y31200906D01*
X27323949Y31199082D01*
X27371190Y31180900D01*
X27395691Y31136606D01*
X27395711Y31113710D01*
X27394538Y31106176D01*
X27395221Y31100952D01*
X27395221Y31100950D01*
X27400948Y31057157D01*
X27413121Y30964061D01*
X27434095Y30916394D01*
X27470845Y30832874D01*
X27469743Y30832389D01*
X27479012Y30788407D01*
X27472735Y30767384D01*
X27416588Y30647794D01*
X27394538Y30506176D01*
X27395221Y30500952D01*
X27395221Y30500950D01*
X27402485Y30445398D01*
X27413121Y30364061D01*
X27450448Y30279229D01*
X27470845Y30232874D01*
X27469743Y30232389D01*
X27479012Y30188407D01*
X27472735Y30167384D01*
X27416588Y30047794D01*
X27394538Y29906176D01*
X27395221Y29900952D01*
X27395221Y29900950D01*
X27398461Y29876176D01*
X27413121Y29764061D01*
X27453569Y29672136D01*
X27470845Y29632874D01*
X27469743Y29632389D01*
X27479012Y29588407D01*
X27472735Y29567384D01*
X27416588Y29447794D01*
X27394538Y29306176D01*
X27395221Y29300952D01*
X27395221Y29300950D01*
X27398899Y29272824D01*
X27413121Y29164061D01*
X27423019Y29141567D01*
X27470845Y29032874D01*
X27469743Y29032389D01*
X27479012Y28988407D01*
X27472735Y28967384D01*
X27416588Y28847794D01*
X27394538Y28706176D01*
X27395221Y28700952D01*
X27395221Y28700950D01*
X27399591Y28667531D01*
X27413121Y28564061D01*
X27434727Y28514958D01*
X27470845Y28432874D01*
X27469743Y28432389D01*
X27479012Y28388407D01*
X27472735Y28367384D01*
X27416588Y28247794D01*
X27394538Y28106176D01*
X27395221Y28100952D01*
X27395221Y28100950D01*
X27399591Y28067531D01*
X27413121Y27964061D01*
X27456192Y27866176D01*
X27470845Y27832874D01*
X27469743Y27832389D01*
X27479012Y27788407D01*
X27472735Y27767384D01*
X27416588Y27647794D01*
X27394538Y27506176D01*
X27395221Y27500952D01*
X27395221Y27500950D01*
X27402485Y27445398D01*
X27413121Y27364061D01*
X27470331Y27234042D01*
X27470845Y27232874D01*
X27469743Y27232389D01*
X27479012Y27188407D01*
X27472735Y27167384D01*
X27416588Y27047794D01*
X27394538Y26906176D01*
X27395221Y26900952D01*
X27395221Y26900950D01*
X27402485Y26845398D01*
X27413121Y26764061D01*
X27423019Y26741567D01*
X27470845Y26632874D01*
X27469743Y26632389D01*
X27479012Y26588407D01*
X27472735Y26567384D01*
X27416588Y26447794D01*
X27394538Y26306176D01*
X27395221Y26300952D01*
X27395221Y26300950D01*
X27402485Y26245398D01*
X27413121Y26164061D01*
X27423019Y26141567D01*
X27470845Y26032874D01*
X27469743Y26032389D01*
X27479012Y25988407D01*
X27472735Y25967384D01*
X27416588Y25847794D01*
X27394538Y25706176D01*
X27395221Y25700952D01*
X27395221Y25700950D01*
X27398620Y25674958D01*
X27413121Y25564061D01*
X27470845Y25432874D01*
X27474237Y25428839D01*
X27559678Y25327194D01*
X27559681Y25327191D01*
X27563068Y25323162D01*
X27567455Y25320242D01*
X27677988Y25246664D01*
X27677991Y25246663D01*
X27682377Y25243743D01*
X27819180Y25201003D01*
X27824448Y25200906D01*
X27824451Y25200906D01*
X27884874Y25199799D01*
X27962481Y25198376D01*
X27967564Y25199762D01*
X27967566Y25199762D01*
X28095668Y25234687D01*
X28095670Y25234688D01*
X28100758Y25236075D01*
X28160894Y25272999D01*
X28210489Y25283134D01*
X28240619Y25271538D01*
X28277985Y25246666D01*
X28277988Y25246665D01*
X28282377Y25243743D01*
X28287409Y25242171D01*
X28287411Y25242170D01*
X28327954Y25229504D01*
X28419180Y25201003D01*
X28424448Y25200906D01*
X28424451Y25200906D01*
X28484874Y25199799D01*
X28562481Y25198376D01*
X28567564Y25199762D01*
X28567566Y25199762D01*
X28695668Y25234687D01*
X28695670Y25234688D01*
X28700758Y25236075D01*
X28822897Y25311069D01*
X28919078Y25417328D01*
X28981570Y25546311D01*
X29005349Y25687650D01*
X29005500Y25700000D01*
X28985182Y25841877D01*
X28926406Y25971148D01*
X28922479Y26021614D01*
X28927172Y26034034D01*
X28981570Y26146311D01*
X29005349Y26287650D01*
X29005500Y26300000D01*
X28985182Y26441877D01*
X28926406Y26571148D01*
X28922479Y26621614D01*
X28927172Y26634034D01*
X28981570Y26746311D01*
X29005349Y26887650D01*
X29005500Y26900000D01*
X28985182Y27041877D01*
X28926406Y27171148D01*
X28922479Y27221614D01*
X28927172Y27234034D01*
X28981570Y27346311D01*
X29005349Y27487650D01*
X29005500Y27500000D01*
X28992200Y27592874D01*
X28985929Y27636662D01*
X28985929Y27636663D01*
X28985182Y27641877D01*
X28926406Y27771148D01*
X28922479Y27821614D01*
X28927172Y27834034D01*
X28981570Y27946311D01*
X29005349Y28087650D01*
X29005500Y28100000D01*
X28985182Y28241877D01*
X28926406Y28371148D01*
X28922479Y28421614D01*
X28927172Y28434034D01*
X28981570Y28546311D01*
X29005349Y28687650D01*
X29005500Y28700000D01*
X28985182Y28841877D01*
X28926406Y28971148D01*
X28922479Y29021614D01*
X28927172Y29034034D01*
X28981570Y29146311D01*
X29005349Y29287650D01*
X29005500Y29300000D01*
X28985182Y29441877D01*
X28926406Y29571148D01*
X28922479Y29621614D01*
X28927172Y29634034D01*
X28981570Y29746311D01*
X29005349Y29887650D01*
X29005500Y29900000D01*
X28999474Y29942080D01*
X28985929Y30036662D01*
X28985929Y30036663D01*
X28985182Y30041877D01*
X28926406Y30171148D01*
X28922479Y30221614D01*
X28927172Y30234034D01*
X28981570Y30346311D01*
X29005349Y30487650D01*
X29005500Y30500000D01*
X28998623Y30548018D01*
X28985929Y30636662D01*
X28985929Y30636663D01*
X28985182Y30641877D01*
X28926406Y30771148D01*
X28922479Y30821614D01*
X28927172Y30834034D01*
X28981570Y30946311D01*
X29005349Y31087650D01*
X29005500Y31100000D01*
X28999503Y31141877D01*
X28985929Y31236662D01*
X28985929Y31236663D01*
X28985182Y31241877D01*
X28926406Y31371148D01*
X28922479Y31421614D01*
X28927172Y31434034D01*
X28981570Y31546311D01*
X29005349Y31687650D01*
X29005500Y31700000D01*
X29003870Y31711382D01*
X28985929Y31836662D01*
X28985929Y31836663D01*
X28985182Y31841877D01*
X28955886Y31906311D01*
X28928043Y31967549D01*
X28928041Y31967552D01*
X28925860Y31972349D01*
X28922422Y31976339D01*
X28922420Y31976342D01*
X28845013Y32066176D01*
X35244538Y32066176D01*
X35245221Y32060952D01*
X35245221Y32060950D01*
X35252485Y32005398D01*
X35263121Y31924061D01*
X35320845Y31792874D01*
X35324237Y31788839D01*
X35409678Y31687194D01*
X35409681Y31687191D01*
X35413068Y31683162D01*
X35417455Y31680242D01*
X35508465Y31619660D01*
X35538467Y31578891D01*
X35535245Y31528375D01*
X35506947Y31495476D01*
X35422375Y31442115D01*
X35327499Y31334688D01*
X35266588Y31204951D01*
X35244538Y31063333D01*
X35245221Y31058109D01*
X35245221Y31058107D01*
X35248383Y31033925D01*
X35263121Y30921218D01*
X35320845Y30790031D01*
X35335708Y30772349D01*
X35409678Y30684351D01*
X35409681Y30684348D01*
X35413068Y30680319D01*
X35506273Y30618276D01*
X35536275Y30577509D01*
X35533053Y30526992D01*
X35504757Y30494094D01*
X35422375Y30442115D01*
X35327499Y30334688D01*
X35266588Y30204951D01*
X35244538Y30063333D01*
X35245221Y30058109D01*
X35245221Y30058107D01*
X35249991Y30021630D01*
X35263121Y29921218D01*
X35320845Y29790031D01*
X35324237Y29785996D01*
X35409678Y29684351D01*
X35409681Y29684348D01*
X35413068Y29680319D01*
X35417455Y29677399D01*
X35527988Y29603821D01*
X35527991Y29603820D01*
X35532377Y29600900D01*
X35669180Y29558160D01*
X35674448Y29558063D01*
X35674451Y29558063D01*
X35734874Y29556956D01*
X35812481Y29555533D01*
X35817564Y29556919D01*
X35817566Y29556919D01*
X35945668Y29591844D01*
X35945670Y29591845D01*
X35950758Y29593232D01*
X36072897Y29668226D01*
X36169078Y29774485D01*
X36231570Y29903468D01*
X36249809Y30011877D01*
X36251450Y30021630D01*
X36276414Y30065664D01*
X36304960Y30080746D01*
X36345669Y30091844D01*
X36345673Y30091846D01*
X36350758Y30093232D01*
X36411827Y30130729D01*
X36468404Y30165467D01*
X36468405Y30165468D01*
X36472897Y30168226D01*
X36569078Y30274485D01*
X36631570Y30403468D01*
X36655349Y30544807D01*
X36655500Y30557157D01*
X36642520Y30647794D01*
X36635929Y30693819D01*
X36635929Y30693820D01*
X36635182Y30699034D01*
X36604105Y30767384D01*
X36578043Y30824706D01*
X36578041Y30824709D01*
X36575860Y30829506D01*
X36572422Y30833496D01*
X36572420Y30833499D01*
X36485741Y30934093D01*
X36482303Y30938083D01*
X36362033Y31016039D01*
X36302226Y31033925D01*
X36261615Y31064140D01*
X36250176Y31094332D01*
X36249365Y31100000D01*
X36235182Y31199034D01*
X36218972Y31234687D01*
X36178043Y31324706D01*
X36178041Y31324709D01*
X36175860Y31329506D01*
X36172422Y31333496D01*
X36172420Y31333499D01*
X36085741Y31434093D01*
X36082303Y31438083D01*
X36077884Y31440947D01*
X36077882Y31440949D01*
X35991554Y31496904D01*
X35961055Y31537304D01*
X35963661Y31587856D01*
X35993083Y31622063D01*
X36068404Y31668310D01*
X36068405Y31668311D01*
X36072897Y31671069D01*
X36169078Y31777328D01*
X36231570Y31906311D01*
X36255349Y32047650D01*
X36255500Y32060000D01*
X36245850Y32127383D01*
X36235929Y32196662D01*
X36235929Y32196663D01*
X36235182Y32201877D01*
X36230322Y32212567D01*
X36178043Y32327549D01*
X36178041Y32327552D01*
X36175860Y32332349D01*
X36172422Y32336339D01*
X36172420Y32336342D01*
X36085741Y32436936D01*
X36082303Y32440926D01*
X35962033Y32518882D01*
X35956985Y32520392D01*
X35956982Y32520393D01*
X35829771Y32558437D01*
X35829770Y32558437D01*
X35824718Y32559948D01*
X35751912Y32560392D01*
X35686666Y32560791D01*
X35686665Y32560791D01*
X35681396Y32560823D01*
X35543589Y32521438D01*
X35422375Y32444958D01*
X35327499Y32337531D01*
X35266588Y32207794D01*
X35244538Y32066176D01*
X28845013Y32066176D01*
X28835741Y32076936D01*
X28832303Y32080926D01*
X28772168Y32119904D01*
X28716455Y32156016D01*
X28716454Y32156017D01*
X28712033Y32158882D01*
X28706985Y32160392D01*
X28706982Y32160393D01*
X28579771Y32198437D01*
X28579770Y32198437D01*
X28574718Y32199948D01*
X28501912Y32200392D01*
X28436666Y32200791D01*
X28436665Y32200791D01*
X28431396Y32200823D01*
X28293589Y32161438D01*
X28289129Y32158624D01*
X28239614Y32127383D01*
X28190147Y32116643D01*
X28159878Y32127870D01*
X28116455Y32156016D01*
X28116454Y32156017D01*
X28112033Y32158882D01*
X28106985Y32160392D01*
X28106982Y32160393D01*
X27979771Y32198437D01*
X27979770Y32198437D01*
X27974718Y32199948D01*
X27901912Y32200392D01*
X27836666Y32200791D01*
X27836665Y32200791D01*
X27831396Y32200823D01*
X27693589Y32161438D01*
X27689129Y32158624D01*
X27639614Y32127383D01*
X27590147Y32116643D01*
X27559878Y32127870D01*
X27516455Y32156016D01*
X27516454Y32156017D01*
X27512033Y32158882D01*
X27506985Y32160392D01*
X27506982Y32160393D01*
X27379771Y32198437D01*
X27379770Y32198437D01*
X27374718Y32199948D01*
X27301912Y32200392D01*
X27236666Y32200791D01*
X27236665Y32200791D01*
X27231396Y32200823D01*
X27093589Y32161438D01*
X27089129Y32158624D01*
X27039614Y32127383D01*
X26990147Y32116643D01*
X26959878Y32127870D01*
X26916455Y32156016D01*
X26916454Y32156017D01*
X26912033Y32158882D01*
X26906985Y32160392D01*
X26906982Y32160393D01*
X26779771Y32198437D01*
X26779770Y32198437D01*
X26774718Y32199948D01*
X26701912Y32200392D01*
X26636666Y32200791D01*
X26636665Y32200791D01*
X26631396Y32200823D01*
X26493589Y32161438D01*
X26372375Y32084958D01*
X26277499Y31977531D01*
X26216588Y31847794D01*
X26194538Y31706176D01*
X22500000Y31706176D01*
X22500001Y33000000D01*
X22000001Y33500000D01*
X8840132Y33500000D01*
X8825696Y33501422D01*
X8793409Y33507844D01*
X8770744Y33512352D01*
X8744069Y33523401D01*
X8697483Y33554529D01*
X8686269Y33563732D01*
X8563733Y33686268D01*
X8554530Y33697482D01*
X8523402Y33744068D01*
X8512353Y33770744D01*
X8501423Y33825695D01*
X8500001Y33840131D01*
X8500001Y38631176D01*
X35244538Y38631176D01*
X35245221Y38625952D01*
X35245221Y38625950D01*
X35248383Y38601768D01*
X35263121Y38489061D01*
X35320845Y38357874D01*
X35324237Y38353839D01*
X35409678Y38252194D01*
X35409681Y38252191D01*
X35413068Y38248162D01*
X35506273Y38186119D01*
X35536275Y38145352D01*
X35533053Y38094835D01*
X35504757Y38061937D01*
X35422375Y38009958D01*
X35327499Y37902531D01*
X35266588Y37772794D01*
X35244538Y37631176D01*
X35245221Y37625952D01*
X35245221Y37625950D01*
X35246960Y37612650D01*
X35263121Y37489061D01*
X35320845Y37357874D01*
X35324237Y37353839D01*
X35409678Y37252194D01*
X35409681Y37252191D01*
X35413068Y37248162D01*
X35417455Y37245242D01*
X35527988Y37171664D01*
X35527991Y37171663D01*
X35532377Y37168743D01*
X35669180Y37126003D01*
X35674448Y37125906D01*
X35674451Y37125906D01*
X35734874Y37124799D01*
X35812481Y37123376D01*
X35817564Y37124762D01*
X35817566Y37124762D01*
X35945668Y37159687D01*
X35945670Y37159688D01*
X35950758Y37161075D01*
X36072897Y37236069D01*
X36169078Y37342328D01*
X36231570Y37471311D01*
X36251450Y37589473D01*
X36276414Y37633507D01*
X36304960Y37648589D01*
X36345669Y37659687D01*
X36345673Y37659689D01*
X36350758Y37661075D01*
X36472897Y37736069D01*
X36569078Y37842328D01*
X36631570Y37971311D01*
X36655349Y38112650D01*
X36655500Y38125000D01*
X36635182Y38266877D01*
X36595643Y38353839D01*
X36578043Y38392549D01*
X36578041Y38392552D01*
X36575860Y38397349D01*
X36572422Y38401339D01*
X36572420Y38401342D01*
X36485741Y38501936D01*
X36482303Y38505926D01*
X36362033Y38583882D01*
X36302226Y38601768D01*
X36261615Y38631983D01*
X36250176Y38662175D01*
X36235929Y38761662D01*
X36235929Y38761663D01*
X36235182Y38766877D01*
X36230322Y38777567D01*
X36178043Y38892549D01*
X36178041Y38892552D01*
X36175860Y38897349D01*
X36172422Y38901339D01*
X36172420Y38901342D01*
X36085741Y39001936D01*
X36082303Y39005926D01*
X35962033Y39083882D01*
X35956985Y39085392D01*
X35956982Y39085393D01*
X35829771Y39123437D01*
X35829770Y39123437D01*
X35824718Y39124948D01*
X35751912Y39125392D01*
X35686666Y39125791D01*
X35686665Y39125791D01*
X35681396Y39125823D01*
X35543589Y39086438D01*
X35422375Y39009958D01*
X35327499Y38902531D01*
X35266588Y38772794D01*
X35244538Y38631176D01*
X8500001Y38631176D01*
X8500001Y45756176D01*
X12369538Y45756176D01*
X12370221Y45750952D01*
X12370221Y45750950D01*
X12374660Y45717005D01*
X12388121Y45614061D01*
X12445845Y45482874D01*
X12449237Y45478839D01*
X12534678Y45377194D01*
X12534681Y45377191D01*
X12538068Y45373162D01*
X12542455Y45370242D01*
X12652988Y45296664D01*
X12652991Y45296663D01*
X12657377Y45293743D01*
X12794180Y45251003D01*
X12799448Y45250906D01*
X12799451Y45250906D01*
X12859874Y45249799D01*
X12937481Y45248376D01*
X12942564Y45249762D01*
X12942566Y45249762D01*
X13070668Y45284687D01*
X13070670Y45284688D01*
X13075758Y45286075D01*
X13197897Y45361069D01*
X13294078Y45467328D01*
X13307370Y45494763D01*
X13343690Y45530021D01*
X13394177Y45533683D01*
X13435206Y45504037D01*
X13441698Y45492299D01*
X13445845Y45482874D01*
X13449237Y45478839D01*
X13534678Y45377194D01*
X13534681Y45377191D01*
X13538068Y45373162D01*
X13542455Y45370242D01*
X13652988Y45296664D01*
X13652991Y45296663D01*
X13657377Y45293743D01*
X13794180Y45251003D01*
X13799448Y45250906D01*
X13799451Y45250906D01*
X13859874Y45249799D01*
X13937481Y45248376D01*
X13942564Y45249762D01*
X13942566Y45249762D01*
X14070668Y45284687D01*
X14070670Y45284688D01*
X14075758Y45286075D01*
X14197897Y45361069D01*
X14294078Y45467328D01*
X14356570Y45596311D01*
X14380349Y45737650D01*
X14380500Y45750000D01*
X14379616Y45756176D01*
X19994538Y45756176D01*
X19995221Y45750952D01*
X19995221Y45750950D01*
X19999660Y45717005D01*
X20013121Y45614061D01*
X20070845Y45482874D01*
X20074237Y45478839D01*
X20159678Y45377194D01*
X20159681Y45377191D01*
X20163068Y45373162D01*
X20167455Y45370242D01*
X20277988Y45296664D01*
X20277991Y45296663D01*
X20282377Y45293743D01*
X20419180Y45251003D01*
X20424448Y45250906D01*
X20424451Y45250906D01*
X20484874Y45249799D01*
X20562481Y45248376D01*
X20567564Y45249762D01*
X20567566Y45249762D01*
X20695668Y45284687D01*
X20695670Y45284688D01*
X20700758Y45286075D01*
X20822897Y45361069D01*
X20919078Y45467328D01*
X20932370Y45494763D01*
X20968690Y45530021D01*
X21019177Y45533683D01*
X21060206Y45504037D01*
X21066698Y45492299D01*
X21070845Y45482874D01*
X21074237Y45478839D01*
X21159678Y45377194D01*
X21159681Y45377191D01*
X21163068Y45373162D01*
X21167455Y45370242D01*
X21277988Y45296664D01*
X21277991Y45296663D01*
X21282377Y45293743D01*
X21419180Y45251003D01*
X21424448Y45250906D01*
X21424451Y45250906D01*
X21484874Y45249799D01*
X21562481Y45248376D01*
X21567564Y45249762D01*
X21567566Y45249762D01*
X21695668Y45284687D01*
X21695670Y45284688D01*
X21700758Y45286075D01*
X21822897Y45361069D01*
X21919078Y45467328D01*
X21981570Y45596311D01*
X22005349Y45737650D01*
X22005500Y45750000D01*
X22004616Y45756176D01*
X27619538Y45756176D01*
X27620221Y45750952D01*
X27620221Y45750950D01*
X27624660Y45717005D01*
X27638121Y45614061D01*
X27695845Y45482874D01*
X27699237Y45478839D01*
X27784678Y45377194D01*
X27784681Y45377191D01*
X27788068Y45373162D01*
X27792455Y45370242D01*
X27902988Y45296664D01*
X27902991Y45296663D01*
X27907377Y45293743D01*
X28044180Y45251003D01*
X28049448Y45250906D01*
X28049451Y45250906D01*
X28109874Y45249799D01*
X28187481Y45248376D01*
X28192564Y45249762D01*
X28192566Y45249762D01*
X28320668Y45284687D01*
X28320670Y45284688D01*
X28325758Y45286075D01*
X28447897Y45361069D01*
X28544078Y45467328D01*
X28557370Y45494763D01*
X28593690Y45530021D01*
X28644177Y45533683D01*
X28685206Y45504037D01*
X28691698Y45492299D01*
X28695845Y45482874D01*
X28699237Y45478839D01*
X28784678Y45377194D01*
X28784681Y45377191D01*
X28788068Y45373162D01*
X28792455Y45370242D01*
X28902988Y45296664D01*
X28902991Y45296663D01*
X28907377Y45293743D01*
X29044180Y45251003D01*
X29049448Y45250906D01*
X29049451Y45250906D01*
X29109874Y45249799D01*
X29187481Y45248376D01*
X29192564Y45249762D01*
X29192566Y45249762D01*
X29320668Y45284687D01*
X29320670Y45284688D01*
X29325758Y45286075D01*
X29447897Y45361069D01*
X29544078Y45467328D01*
X29606570Y45596311D01*
X29630349Y45737650D01*
X29630500Y45750000D01*
X29610182Y45891877D01*
X29567559Y45985622D01*
X29553043Y46017549D01*
X29553041Y46017552D01*
X29550860Y46022349D01*
X29547422Y46026339D01*
X29547420Y46026342D01*
X29460741Y46126936D01*
X29457303Y46130926D01*
X29337033Y46208882D01*
X29331985Y46210392D01*
X29331982Y46210393D01*
X29204771Y46248437D01*
X29204770Y46248437D01*
X29199718Y46249948D01*
X29176375Y46250090D01*
X29128916Y46267692D01*
X29109462Y46293460D01*
X29050860Y46422349D01*
X29047422Y46426339D01*
X29047420Y46426342D01*
X28960741Y46526936D01*
X28957303Y46530926D01*
X28837033Y46608882D01*
X28831985Y46610392D01*
X28831982Y46610393D01*
X28704771Y46648437D01*
X28704770Y46648437D01*
X28699718Y46649948D01*
X28626912Y46650392D01*
X28561666Y46650791D01*
X28561665Y46650791D01*
X28556396Y46650823D01*
X28418589Y46611438D01*
X28297375Y46534958D01*
X28202499Y46427531D01*
X28141588Y46297794D01*
X28140414Y46298345D01*
X28113527Y46262662D01*
X28072769Y46250723D01*
X28070573Y46250736D01*
X28061666Y46250791D01*
X28061665Y46250791D01*
X28056396Y46250823D01*
X27918589Y46211438D01*
X27797375Y46134958D01*
X27702499Y46027531D01*
X27641588Y45897794D01*
X27619538Y45756176D01*
X22004616Y45756176D01*
X21985182Y45891877D01*
X21942559Y45985622D01*
X21928043Y46017549D01*
X21928041Y46017552D01*
X21925860Y46022349D01*
X21922422Y46026339D01*
X21922420Y46026342D01*
X21835741Y46126936D01*
X21832303Y46130926D01*
X21712033Y46208882D01*
X21706985Y46210392D01*
X21706982Y46210393D01*
X21579771Y46248437D01*
X21579770Y46248437D01*
X21574718Y46249948D01*
X21551375Y46250090D01*
X21503916Y46267692D01*
X21484462Y46293460D01*
X21425860Y46422349D01*
X21422422Y46426339D01*
X21422420Y46426342D01*
X21335741Y46526936D01*
X21332303Y46530926D01*
X21212033Y46608882D01*
X21206985Y46610392D01*
X21206982Y46610393D01*
X21079771Y46648437D01*
X21079770Y46648437D01*
X21074718Y46649948D01*
X21001912Y46650392D01*
X20936666Y46650791D01*
X20936665Y46650791D01*
X20931396Y46650823D01*
X20793589Y46611438D01*
X20672375Y46534958D01*
X20577499Y46427531D01*
X20516588Y46297794D01*
X20515414Y46298345D01*
X20488527Y46262662D01*
X20447769Y46250723D01*
X20445573Y46250736D01*
X20436666Y46250791D01*
X20436665Y46250791D01*
X20431396Y46250823D01*
X20293589Y46211438D01*
X20172375Y46134958D01*
X20077499Y46027531D01*
X20016588Y45897794D01*
X19994538Y45756176D01*
X14379616Y45756176D01*
X14360182Y45891877D01*
X14317559Y45985622D01*
X14303043Y46017549D01*
X14303041Y46017552D01*
X14300860Y46022349D01*
X14297422Y46026339D01*
X14297420Y46026342D01*
X14210741Y46126936D01*
X14207303Y46130926D01*
X14087033Y46208882D01*
X14081985Y46210392D01*
X14081982Y46210393D01*
X13954771Y46248437D01*
X13954770Y46248437D01*
X13949718Y46249948D01*
X13926375Y46250090D01*
X13878916Y46267692D01*
X13859462Y46293460D01*
X13800860Y46422349D01*
X13797422Y46426339D01*
X13797420Y46426342D01*
X13710741Y46526936D01*
X13707303Y46530926D01*
X13587033Y46608882D01*
X13581985Y46610392D01*
X13581982Y46610393D01*
X13454771Y46648437D01*
X13454770Y46648437D01*
X13449718Y46649948D01*
X13376912Y46650392D01*
X13311666Y46650791D01*
X13311665Y46650791D01*
X13306396Y46650823D01*
X13168589Y46611438D01*
X13047375Y46534958D01*
X12952499Y46427531D01*
X12891588Y46297794D01*
X12890414Y46298345D01*
X12863527Y46262662D01*
X12822769Y46250723D01*
X12820573Y46250736D01*
X12811666Y46250791D01*
X12811665Y46250791D01*
X12806396Y46250823D01*
X12668589Y46211438D01*
X12547375Y46134958D01*
X12452499Y46027531D01*
X12391588Y45897794D01*
X12369538Y45756176D01*
X8500001Y45756176D01*
X8500001Y48159869D01*
X8501423Y48174305D01*
X8512353Y48229256D01*
X8523402Y48255932D01*
X8554530Y48302518D01*
X8563733Y48313732D01*
X8686269Y48436268D01*
X8697483Y48445471D01*
X8744069Y48476599D01*
X8770744Y48487648D01*
X8793409Y48492156D01*
X8825696Y48498578D01*
X8840132Y48500000D01*
X34911648Y48500000D01*
X34959214Y48482687D01*
G37*
G04 #@! TD.AperFunction*
G04 #@! TD*
G04 #@! TA.AperFunction,Conductor*
G04 #@! TO.N,GND*
G36*
X36964594Y49797892D02*
G01*
X36971117Y49796301D01*
X36971125Y49796300D01*
X36975184Y49795310D01*
X37019511Y49794725D01*
X37107904Y49793557D01*
X37111076Y49793447D01*
X37188375Y49789106D01*
X37192511Y49788757D01*
X37432892Y49761673D01*
X37436968Y49761098D01*
X37499523Y49750469D01*
X37503520Y49749674D01*
X37707206Y49703184D01*
X37739359Y49695845D01*
X37743377Y49694808D01*
X37780117Y49684224D01*
X37804306Y49677255D01*
X37808237Y49676002D01*
X38036580Y49596100D01*
X38040396Y49594644D01*
X38099002Y49570368D01*
X38102760Y49568687D01*
X38320713Y49463727D01*
X38324358Y49461844D01*
X38370126Y49436548D01*
X38379886Y49431154D01*
X38383461Y49429045D01*
X38588245Y49300370D01*
X38591696Y49298064D01*
X38643419Y49261364D01*
X38646735Y49258868D01*
X38835820Y49108077D01*
X38838992Y49105399D01*
X38886254Y49063163D01*
X38889270Y49060312D01*
X39060310Y48889272D01*
X39063162Y48886255D01*
X39105390Y48839001D01*
X39108067Y48835830D01*
X39258893Y48646701D01*
X39261364Y48643419D01*
X39291915Y48600362D01*
X39298059Y48591703D01*
X39300365Y48588252D01*
X39429058Y48383438D01*
X39431166Y48379864D01*
X39461837Y48324369D01*
X39463735Y48320697D01*
X39518085Y48207838D01*
X39568677Y48102782D01*
X39570367Y48099006D01*
X39594631Y48040427D01*
X39594637Y48040413D01*
X39596112Y48036549D01*
X39675996Y47808255D01*
X39677249Y47804324D01*
X39694810Y47743371D01*
X39695845Y47739360D01*
X39749668Y47503546D01*
X39750477Y47499475D01*
X39761095Y47436983D01*
X39761676Y47432872D01*
X39788757Y47192513D01*
X39789106Y47188378D01*
X39793447Y47111089D01*
X39793557Y47107931D01*
X39795308Y46975375D01*
X39796284Y46971344D01*
X39796284Y46971342D01*
X39797923Y46964573D01*
X39800000Y46947163D01*
X39800000Y3052942D01*
X39797892Y3035407D01*
X39796301Y3028884D01*
X39796300Y3028876D01*
X39795310Y3024817D01*
X39795236Y3019209D01*
X39793557Y2892096D01*
X39793447Y2888924D01*
X39789106Y2811626D01*
X39788757Y2807490D01*
X39761673Y2567110D01*
X39761092Y2562999D01*
X39750478Y2500533D01*
X39749669Y2496463D01*
X39695842Y2260630D01*
X39694808Y2256623D01*
X39677261Y2195715D01*
X39676000Y2191761D01*
X39641242Y2092428D01*
X39596116Y1963463D01*
X39596113Y1963455D01*
X39594642Y1959599D01*
X39570375Y1901013D01*
X39568686Y1897239D01*
X39491028Y1735978D01*
X39463738Y1679310D01*
X39461832Y1675622D01*
X39431167Y1620138D01*
X39429059Y1616563D01*
X39300372Y1411758D01*
X39298066Y1408307D01*
X39261371Y1356591D01*
X39258891Y1353295D01*
X39108084Y1164187D01*
X39108080Y1164182D01*
X39105401Y1161010D01*
X39063162Y1113745D01*
X39060311Y1110729D01*
X38889289Y939706D01*
X38886273Y936854D01*
X38838985Y894595D01*
X38835813Y891918D01*
X38646713Y741115D01*
X38643422Y738638D01*
X38591683Y701926D01*
X38588272Y699647D01*
X38466129Y622899D01*
X38383459Y570954D01*
X38379884Y568845D01*
X38324385Y538172D01*
X38320698Y536268D01*
X38102775Y431320D01*
X38099005Y429633D01*
X38062037Y414320D01*
X38040414Y405364D01*
X38036537Y403884D01*
X37808253Y324004D01*
X37804298Y322743D01*
X37743391Y305196D01*
X37739372Y304159D01*
X37636580Y280697D01*
X37503519Y250326D01*
X37499468Y249522D01*
X37468227Y244213D01*
X37436995Y238907D01*
X37432885Y238326D01*
X37192511Y211243D01*
X37188376Y210894D01*
X37134314Y207858D01*
X37111075Y206553D01*
X37107928Y206443D01*
X37030209Y205417D01*
X36979525Y204747D01*
X36979523Y204747D01*
X36975376Y204692D01*
X36971345Y203716D01*
X36971343Y203716D01*
X36968661Y203067D01*
X36964571Y202077D01*
X36947164Y200000D01*
X3052942Y200000D01*
X3035407Y202108D01*
X3028884Y203699D01*
X3028876Y203700D01*
X3024817Y204690D01*
X2980283Y205278D01*
X2892096Y206443D01*
X2888924Y206553D01*
X2811626Y210894D01*
X2807490Y211243D01*
X2567110Y238327D01*
X2562999Y238908D01*
X2500533Y249522D01*
X2496463Y250331D01*
X2260630Y304158D01*
X2256623Y305192D01*
X2195702Y322743D01*
X2191761Y324000D01*
X2052575Y372703D01*
X1963442Y403892D01*
X1959599Y405358D01*
X1900998Y429632D01*
X1897239Y431314D01*
X1679298Y536268D01*
X1675622Y538168D01*
X1620138Y568833D01*
X1616563Y570941D01*
X1411758Y699628D01*
X1408307Y701934D01*
X1393011Y712787D01*
X1356591Y738629D01*
X1353288Y741114D01*
X1353276Y741124D01*
X1164176Y891925D01*
X1161010Y894599D01*
X1158183Y897126D01*
X1113745Y936838D01*
X1110729Y939689D01*
X939706Y1110711D01*
X936854Y1113727D01*
X894595Y1161015D01*
X891918Y1164187D01*
X808762Y1268460D01*
X741114Y1353288D01*
X738638Y1356578D01*
X701926Y1408317D01*
X699647Y1411728D01*
X570954Y1616541D01*
X568845Y1620116D01*
X538172Y1675615D01*
X536268Y1679302D01*
X431320Y1897225D01*
X429625Y1901013D01*
X405364Y1959586D01*
X403884Y1963463D01*
X324004Y2191747D01*
X322743Y2195702D01*
X305196Y2256609D01*
X304159Y2260628D01*
X260447Y2452139D01*
X250326Y2496481D01*
X249520Y2500540D01*
X238907Y2563005D01*
X238326Y2567115D01*
X211243Y2807489D01*
X210894Y2811624D01*
X206553Y2888913D01*
X206443Y2892085D01*
X206404Y2895074D01*
X596790Y2895074D01*
X629601Y2590561D01*
X655216Y2483455D01*
X698920Y2300716D01*
X700840Y2292686D01*
X701675Y2290482D01*
X807240Y2011847D01*
X809350Y2006277D01*
X810455Y2004203D01*
X810456Y2004201D01*
X834228Y1959586D01*
X953374Y1735978D01*
X1130575Y1486170D01*
X1338082Y1260903D01*
X1572531Y1063828D01*
X1830120Y898141D01*
X2106675Y766527D01*
X2397711Y671121D01*
X2400030Y670677D01*
X2400032Y670676D01*
X2507691Y650042D01*
X2698511Y613468D01*
X2700852Y613323D01*
X2700858Y613322D01*
X2983272Y595802D01*
X2994930Y595079D01*
X3001845Y594650D01*
X3004198Y594504D01*
X3099572Y600755D01*
X3307472Y614381D01*
X3307476Y614381D01*
X3309818Y614535D01*
X3312122Y614985D01*
X3312130Y614986D01*
X3608097Y672784D01*
X3608102Y672785D01*
X3610415Y673237D01*
X3901116Y769659D01*
X3903228Y770673D01*
X3903235Y770676D01*
X4063932Y847842D01*
X4177209Y902237D01*
X4179185Y903518D01*
X4179189Y903520D01*
X4417358Y1057894D01*
X4434219Y1068823D01*
X4436023Y1070350D01*
X4666171Y1265184D01*
X4666173Y1265186D01*
X4667978Y1266714D01*
X4874697Y1492705D01*
X5003492Y1675622D01*
X5049670Y1741204D01*
X5049671Y1741205D01*
X5051026Y1743130D01*
X5056547Y1753578D01*
X5132443Y1897225D01*
X5194105Y2013930D01*
X5234537Y2121782D01*
X5300788Y2298510D01*
X5301615Y2300716D01*
X5371813Y2598838D01*
X5403562Y2903463D01*
X5405500Y3000000D01*
X5401804Y3057932D01*
X5386152Y3303310D01*
X5386151Y3303317D01*
X5386002Y3305654D01*
X5344288Y3521256D01*
X5328271Y3604044D01*
X5328270Y3604048D01*
X5327824Y3606353D01*
X5261790Y3806609D01*
X5232649Y3894982D01*
X5232647Y3894987D01*
X5231910Y3897222D01*
X5099814Y4173546D01*
X5091890Y4185819D01*
X8049044Y4185819D01*
X8087851Y4056058D01*
X8090924Y4051459D01*
X8129962Y3993035D01*
X8163098Y3943443D01*
X8268132Y3857932D01*
X8273261Y3855854D01*
X8273262Y3855854D01*
X8298425Y3845662D01*
X8393666Y3807086D01*
X8453730Y3801884D01*
X8523089Y3795876D01*
X8523092Y3795876D01*
X8528601Y3795399D01*
X8661008Y3823905D01*
X8699858Y3845662D01*
X8774357Y3887383D01*
X8774360Y3887385D01*
X8779179Y3890084D01*
X8782994Y3894083D01*
X8868849Y3984082D01*
X8868851Y3984085D01*
X8872667Y3988085D01*
X8933206Y4109243D01*
X8933208Y4109255D01*
X8962894Y4147251D01*
X9012407Y4157775D01*
X9057101Y4134010D01*
X9073005Y4105698D01*
X9087851Y4056058D01*
X9090924Y4051459D01*
X9129962Y3993035D01*
X9163098Y3943443D01*
X9268132Y3857932D01*
X9273261Y3855854D01*
X9273262Y3855854D01*
X9298425Y3845662D01*
X9393666Y3807086D01*
X9453730Y3801884D01*
X9523089Y3795876D01*
X9523092Y3795876D01*
X9528601Y3795399D01*
X9661008Y3823905D01*
X9699858Y3845662D01*
X9774357Y3887383D01*
X9774360Y3887385D01*
X9779179Y3890084D01*
X9782994Y3894083D01*
X9868849Y3984082D01*
X9868851Y3984085D01*
X9872667Y3988085D01*
X9933206Y4109243D01*
X9933208Y4109255D01*
X9962894Y4147251D01*
X10012407Y4157775D01*
X10057101Y4134010D01*
X10073005Y4105698D01*
X10087851Y4056058D01*
X10090924Y4051459D01*
X10129962Y3993035D01*
X10163098Y3943443D01*
X10268132Y3857932D01*
X10273261Y3855854D01*
X10273262Y3855854D01*
X10298425Y3845662D01*
X10393666Y3807086D01*
X10453730Y3801884D01*
X10523089Y3795876D01*
X10523092Y3795876D01*
X10528601Y3795399D01*
X10661008Y3823905D01*
X10699858Y3845662D01*
X10774357Y3887383D01*
X10774360Y3887385D01*
X10779179Y3890084D01*
X10782994Y3894083D01*
X10868849Y3984082D01*
X10868851Y3984085D01*
X10872667Y3988085D01*
X10933206Y4109243D01*
X10934113Y4114692D01*
X10934114Y4114695D01*
X10954967Y4239981D01*
X10955444Y4242845D01*
X10955500Y4250000D01*
X10935364Y4383935D01*
X10876735Y4506029D01*
X10872982Y4510089D01*
X10872980Y4510092D01*
X10788553Y4601424D01*
X10788552Y4601424D01*
X10784798Y4605486D01*
X10667681Y4673513D01*
X10662294Y4674762D01*
X10662293Y4674762D01*
X10541127Y4702847D01*
X10541126Y4702847D01*
X10535738Y4704096D01*
X10456481Y4698484D01*
X10406156Y4694921D01*
X10406155Y4694921D01*
X10400636Y4694530D01*
X10274319Y4645662D01*
X10269972Y4642235D01*
X10172299Y4565236D01*
X10172297Y4565234D01*
X10167955Y4561811D01*
X10164811Y4557262D01*
X10164810Y4557261D01*
X10129401Y4506029D01*
X10090948Y4450392D01*
X10089282Y4445124D01*
X10089280Y4445120D01*
X10072814Y4393052D01*
X10041964Y4352920D01*
X9992536Y4342006D01*
X9947656Y4365418D01*
X9936689Y4384571D01*
X9935364Y4383935D01*
X9913787Y4428868D01*
X9876735Y4506029D01*
X9872982Y4510089D01*
X9872980Y4510092D01*
X9788553Y4601424D01*
X9788552Y4601424D01*
X9784798Y4605486D01*
X9667681Y4673513D01*
X9662294Y4674762D01*
X9662293Y4674762D01*
X9541127Y4702847D01*
X9541126Y4702847D01*
X9535738Y4704096D01*
X9456481Y4698484D01*
X9406156Y4694921D01*
X9406155Y4694921D01*
X9400636Y4694530D01*
X9274319Y4645662D01*
X9269972Y4642235D01*
X9172299Y4565236D01*
X9172297Y4565234D01*
X9167955Y4561811D01*
X9164811Y4557262D01*
X9164810Y4557261D01*
X9129401Y4506029D01*
X9090948Y4450392D01*
X9089282Y4445124D01*
X9089280Y4445120D01*
X9072814Y4393052D01*
X9041964Y4352920D01*
X8992536Y4342006D01*
X8947656Y4365418D01*
X8936689Y4384571D01*
X8935364Y4383935D01*
X8913787Y4428868D01*
X8876735Y4506029D01*
X8872982Y4510089D01*
X8872980Y4510092D01*
X8788553Y4601424D01*
X8788552Y4601424D01*
X8784798Y4605486D01*
X8667681Y4673513D01*
X8662294Y4674762D01*
X8662293Y4674762D01*
X8541127Y4702847D01*
X8541126Y4702847D01*
X8535738Y4704096D01*
X8456481Y4698484D01*
X8406156Y4694921D01*
X8406155Y4694921D01*
X8400636Y4694530D01*
X8274319Y4645662D01*
X8269972Y4642235D01*
X8172299Y4565236D01*
X8172297Y4565234D01*
X8167955Y4561811D01*
X8164811Y4557262D01*
X8164810Y4557261D01*
X8129401Y4506029D01*
X8090948Y4450392D01*
X8089282Y4445124D01*
X8089281Y4445122D01*
X8058251Y4347005D01*
X8050108Y4321256D01*
X8049044Y4185819D01*
X5091890Y4185819D01*
X4933678Y4430846D01*
X4827038Y4557261D01*
X4737716Y4663146D01*
X4737714Y4663148D01*
X4736194Y4664950D01*
X4734461Y4666541D01*
X4734455Y4666547D01*
X4586101Y4802726D01*
X4510565Y4872064D01*
X4341002Y4991899D01*
X4262364Y5047475D01*
X4262363Y5047476D01*
X4260448Y5048829D01*
X4258375Y5049929D01*
X4258370Y5049932D01*
X3991975Y5191279D01*
X3991974Y5191279D01*
X3989898Y5192381D01*
X3911781Y5221821D01*
X3705504Y5299561D01*
X3705495Y5299564D01*
X3703300Y5300391D01*
X3701006Y5300935D01*
X3701004Y5300936D01*
X3637409Y5316028D01*
X3405301Y5371110D01*
X3221580Y5390582D01*
X3103073Y5403142D01*
X3103071Y5403142D01*
X3100732Y5403390D01*
X3098382Y5403339D01*
X3098375Y5403339D01*
X2951385Y5400131D01*
X2794530Y5396709D01*
X2491658Y5351174D01*
X2489389Y5350530D01*
X2489390Y5350530D01*
X2199298Y5268169D01*
X2199291Y5268166D01*
X2197028Y5267524D01*
X1915414Y5147115D01*
X1651383Y4991899D01*
X1409214Y4804392D01*
X1192834Y4587634D01*
X1191400Y4585775D01*
X1191398Y4585773D01*
X1007189Y4347005D01*
X1007185Y4346999D01*
X1005750Y4345139D01*
X850995Y4080837D01*
X731078Y3799014D01*
X647942Y3504237D01*
X602936Y3201287D01*
X602889Y3198926D01*
X596990Y2905021D01*
X596790Y2895074D01*
X206404Y2895074D01*
X206373Y2897440D01*
X204692Y3024624D01*
X202077Y3035429D01*
X200000Y3052836D01*
X200000Y6183511D01*
X16583683Y6183511D01*
X16584989Y6178637D01*
X16619646Y6049295D01*
X16619647Y6049291D01*
X16620952Y6044423D01*
X16694251Y5920481D01*
X16798180Y5820816D01*
X16802623Y5818434D01*
X16802624Y5818433D01*
X16920640Y5755154D01*
X16920642Y5755153D01*
X16925083Y5752772D01*
X17065609Y5721361D01*
X17145919Y5725570D01*
X17204372Y5728633D01*
X17204373Y5728633D01*
X17209406Y5728897D01*
X17214183Y5730505D01*
X17214185Y5730505D01*
X17254976Y5744233D01*
X17345879Y5774825D01*
X17418688Y5824306D01*
X17460803Y5852927D01*
X17460805Y5852929D01*
X17464974Y5855762D01*
X17468226Y5859611D01*
X17468229Y5859613D01*
X17554664Y5961896D01*
X17557916Y5965744D01*
X17617858Y6096669D01*
X17618875Y6096203D01*
X17646056Y6132540D01*
X17695337Y6144101D01*
X17714356Y6139209D01*
X17793666Y6107086D01*
X17853730Y6101884D01*
X17923089Y6095876D01*
X17923092Y6095876D01*
X17928601Y6095399D01*
X18061008Y6123905D01*
X18076427Y6132540D01*
X18174357Y6187383D01*
X18174360Y6187385D01*
X18179179Y6190084D01*
X18182994Y6194083D01*
X18268849Y6284082D01*
X18268851Y6284085D01*
X18272667Y6288085D01*
X18333206Y6409243D01*
X18334113Y6414692D01*
X18334114Y6414695D01*
X18351672Y6520184D01*
X18355444Y6542845D01*
X18355500Y6550000D01*
X18351583Y6576058D01*
X18336186Y6678466D01*
X18335364Y6683935D01*
X18327400Y6700521D01*
X18324856Y6705819D01*
X18799044Y6705819D01*
X18837851Y6576058D01*
X18840924Y6571459D01*
X18908677Y6470060D01*
X18913098Y6463443D01*
X19018132Y6377932D01*
X19143666Y6327086D01*
X19197146Y6322454D01*
X19273089Y6315876D01*
X19273092Y6315876D01*
X19278601Y6315399D01*
X19411008Y6343905D01*
X19415835Y6346608D01*
X19524357Y6407383D01*
X19524360Y6407385D01*
X19529179Y6410084D01*
X19576749Y6459950D01*
X19618849Y6504082D01*
X19618851Y6504085D01*
X19622667Y6508085D01*
X19683206Y6629243D01*
X19683635Y6631823D01*
X19714022Y6670710D01*
X19763535Y6681231D01*
X19808228Y6657464D01*
X19824128Y6629158D01*
X19840008Y6576058D01*
X19843081Y6571459D01*
X19910834Y6470060D01*
X19915255Y6463443D01*
X20020289Y6377932D01*
X20145823Y6327086D01*
X20199303Y6322454D01*
X20275246Y6315876D01*
X20275249Y6315876D01*
X20280758Y6315399D01*
X20413165Y6343905D01*
X20417992Y6346608D01*
X20526514Y6407383D01*
X20526517Y6407385D01*
X20531336Y6410084D01*
X20578906Y6459950D01*
X20621006Y6504082D01*
X20621008Y6504085D01*
X20624824Y6508085D01*
X20685363Y6629243D01*
X20686270Y6634692D01*
X20686271Y6634695D01*
X20688122Y6645819D01*
X21809044Y6645819D01*
X21847851Y6516058D01*
X21850924Y6511459D01*
X21919223Y6409243D01*
X21923098Y6403443D01*
X22028132Y6317932D01*
X22033261Y6315854D01*
X22033262Y6315854D01*
X22089600Y6293035D01*
X22153666Y6267086D01*
X22213730Y6261884D01*
X22283089Y6255876D01*
X22283092Y6255876D01*
X22288601Y6255399D01*
X22288571Y6255056D01*
X22333867Y6241725D01*
X22361880Y6199563D01*
X22363371Y6191440D01*
X22363736Y6188555D01*
X22363683Y6183511D01*
X22364989Y6178637D01*
X22399646Y6049295D01*
X22399647Y6049291D01*
X22400952Y6044423D01*
X22474251Y5920481D01*
X22578180Y5820816D01*
X22582623Y5818434D01*
X22582624Y5818433D01*
X22700640Y5755154D01*
X22700642Y5755153D01*
X22705083Y5752772D01*
X22845609Y5721361D01*
X22925919Y5725570D01*
X22984372Y5728633D01*
X22984373Y5728633D01*
X22989406Y5728897D01*
X22994183Y5730505D01*
X22994185Y5730505D01*
X23034976Y5744233D01*
X23125879Y5774825D01*
X23198688Y5824306D01*
X23240803Y5852927D01*
X23240805Y5852929D01*
X23244974Y5855762D01*
X23248226Y5859611D01*
X23248229Y5859613D01*
X23334664Y5961896D01*
X23337916Y5965744D01*
X23397858Y6096669D01*
X23398647Y6101648D01*
X23419959Y6236204D01*
X23419959Y6236210D01*
X23420384Y6238890D01*
X23420500Y6250000D01*
X23419808Y6255056D01*
X23407637Y6343905D01*
X23400958Y6392662D01*
X23343771Y6524813D01*
X23289712Y6591570D01*
X23256326Y6632799D01*
X23256324Y6632801D01*
X23253152Y6636718D01*
X23135779Y6720131D01*
X23131032Y6721840D01*
X23131030Y6721841D01*
X23005047Y6767197D01*
X23005046Y6767197D01*
X23000297Y6768907D01*
X22995265Y6769277D01*
X22995263Y6769277D01*
X22935356Y6773676D01*
X22856690Y6779453D01*
X22785760Y6765151D01*
X22735712Y6772720D01*
X22702237Y6810690D01*
X22697958Y6826688D01*
X22696188Y6838461D01*
X22696186Y6838468D01*
X22695364Y6843935D01*
X22685136Y6865236D01*
X22639129Y6961043D01*
X22636735Y6966029D01*
X22632982Y6970089D01*
X22632980Y6970092D01*
X22548553Y7061424D01*
X22548552Y7061424D01*
X22544798Y7065486D01*
X22427681Y7133513D01*
X22422294Y7134762D01*
X22422293Y7134762D01*
X22301127Y7162847D01*
X22301126Y7162847D01*
X22295738Y7164096D01*
X22216481Y7158484D01*
X22166156Y7154921D01*
X22166155Y7154921D01*
X22160636Y7154530D01*
X22034319Y7105662D01*
X22029972Y7102235D01*
X21932299Y7025236D01*
X21932297Y7025234D01*
X21927955Y7021811D01*
X21924811Y7017262D01*
X21924810Y7017261D01*
X21888774Y6965121D01*
X21850948Y6910392D01*
X21849282Y6905124D01*
X21849281Y6905122D01*
X21811775Y6786528D01*
X21810108Y6781256D01*
X21809847Y6748058D01*
X21809240Y6670710D01*
X21809044Y6645819D01*
X20688122Y6645819D01*
X20704650Y6745117D01*
X20707601Y6762845D01*
X20707657Y6770000D01*
X20706292Y6779083D01*
X20688343Y6898466D01*
X20687521Y6903935D01*
X20684421Y6910392D01*
X20631286Y7021043D01*
X20628892Y7026029D01*
X20625139Y7030089D01*
X20625137Y7030092D01*
X20540710Y7121424D01*
X20540709Y7121424D01*
X20536955Y7125486D01*
X20419838Y7193513D01*
X20414451Y7194762D01*
X20414450Y7194762D01*
X20293284Y7222847D01*
X20293283Y7222847D01*
X20287895Y7224096D01*
X20208638Y7218484D01*
X20158313Y7214921D01*
X20158312Y7214921D01*
X20152793Y7214530D01*
X20026476Y7165662D01*
X20022129Y7162235D01*
X19924456Y7085236D01*
X19924454Y7085234D01*
X19920112Y7081811D01*
X19916968Y7077262D01*
X19916967Y7077261D01*
X19881558Y7026029D01*
X19843105Y6970392D01*
X19841438Y6965122D01*
X19841438Y6965121D01*
X19823877Y6909594D01*
X19793027Y6869462D01*
X19743598Y6858550D01*
X19698719Y6881962D01*
X19685978Y6904230D01*
X19685364Y6903935D01*
X19680079Y6914941D01*
X19626735Y7026029D01*
X19622982Y7030089D01*
X19622980Y7030092D01*
X19538553Y7121424D01*
X19538552Y7121424D01*
X19534798Y7125486D01*
X19417681Y7193513D01*
X19412294Y7194762D01*
X19412293Y7194762D01*
X19291127Y7222847D01*
X19291126Y7222847D01*
X19285738Y7224096D01*
X19206481Y7218484D01*
X19156156Y7214921D01*
X19156155Y7214921D01*
X19150636Y7214530D01*
X19024319Y7165662D01*
X19019972Y7162235D01*
X18922299Y7085236D01*
X18922297Y7085234D01*
X18917955Y7081811D01*
X18914811Y7077262D01*
X18914810Y7077261D01*
X18879401Y7026029D01*
X18840948Y6970392D01*
X18839282Y6965124D01*
X18839281Y6965122D01*
X18802531Y6848919D01*
X18800108Y6841256D01*
X18799620Y6779083D01*
X18799314Y6740149D01*
X18799044Y6705819D01*
X18324856Y6705819D01*
X18303452Y6750392D01*
X18276735Y6806029D01*
X18272982Y6810089D01*
X18272980Y6810092D01*
X18188553Y6901424D01*
X18188552Y6901424D01*
X18184798Y6905486D01*
X18067681Y6973513D01*
X18062294Y6974762D01*
X18062293Y6974762D01*
X17941127Y7002847D01*
X17941126Y7002847D01*
X17935738Y7004096D01*
X17856481Y6998484D01*
X17806156Y6994921D01*
X17806155Y6994921D01*
X17800636Y6994530D01*
X17674319Y6945662D01*
X17669972Y6942235D01*
X17572299Y6865236D01*
X17572297Y6865234D01*
X17567955Y6861811D01*
X17564811Y6857262D01*
X17564810Y6857261D01*
X17506482Y6772868D01*
X17490948Y6750392D01*
X17489281Y6745121D01*
X17489279Y6745117D01*
X17488956Y6744096D01*
X17488467Y6743460D01*
X17486845Y6740149D01*
X17486174Y6740478D01*
X17458105Y6703964D01*
X17408676Y6693053D01*
X17375536Y6706090D01*
X17355779Y6720131D01*
X17351032Y6721840D01*
X17351030Y6721841D01*
X17225047Y6767197D01*
X17225046Y6767197D01*
X17220297Y6768907D01*
X17215265Y6769277D01*
X17215263Y6769277D01*
X17155356Y6773676D01*
X17076690Y6779453D01*
X17071746Y6778456D01*
X17071744Y6778456D01*
X16940485Y6751990D01*
X16940484Y6751990D01*
X16935536Y6750992D01*
X16807236Y6685620D01*
X16701243Y6588153D01*
X16625364Y6465774D01*
X16585191Y6327497D01*
X16583683Y6183511D01*
X200000Y6183511D01*
X200000Y8685819D01*
X17099044Y8685819D01*
X17137851Y8556058D01*
X17140924Y8551459D01*
X17179962Y8493035D01*
X17213098Y8443443D01*
X17318132Y8357932D01*
X17443666Y8307086D01*
X17503730Y8301884D01*
X17573089Y8295876D01*
X17573092Y8295876D01*
X17578601Y8295399D01*
X17711008Y8323905D01*
X17715835Y8326608D01*
X17824357Y8387383D01*
X17824360Y8387385D01*
X17829179Y8390084D01*
X17884469Y8448043D01*
X17918849Y8484082D01*
X17918851Y8484085D01*
X17922667Y8488085D01*
X17983206Y8609243D01*
X17984113Y8614692D01*
X17984114Y8614695D01*
X17995952Y8685819D01*
X21999044Y8685819D01*
X22037851Y8556058D01*
X22040924Y8551459D01*
X22079962Y8493035D01*
X22113098Y8443443D01*
X22218132Y8357932D01*
X22343666Y8307086D01*
X22403730Y8301884D01*
X22473089Y8295876D01*
X22473092Y8295876D01*
X22478601Y8295399D01*
X22611008Y8323905D01*
X22615835Y8326608D01*
X22724357Y8387383D01*
X22724360Y8387385D01*
X22729179Y8390084D01*
X22784469Y8448043D01*
X22818849Y8484082D01*
X22818851Y8484085D01*
X22822667Y8488085D01*
X22883206Y8609243D01*
X22884113Y8614692D01*
X22884114Y8614695D01*
X22904967Y8739981D01*
X22905444Y8742845D01*
X22905500Y8750000D01*
X22885364Y8883935D01*
X22826735Y9006029D01*
X22822982Y9010089D01*
X22822980Y9010092D01*
X22738553Y9101424D01*
X22738552Y9101424D01*
X22734798Y9105486D01*
X22617681Y9173513D01*
X22612294Y9174762D01*
X22612293Y9174762D01*
X22491127Y9202847D01*
X22491126Y9202847D01*
X22485738Y9204096D01*
X22406481Y9198484D01*
X22356156Y9194921D01*
X22356155Y9194921D01*
X22350636Y9194530D01*
X22224319Y9145662D01*
X22219972Y9142235D01*
X22122299Y9065236D01*
X22122297Y9065234D01*
X22117955Y9061811D01*
X22114811Y9057262D01*
X22114810Y9057261D01*
X22079401Y9006029D01*
X22040948Y8950392D01*
X22039282Y8945124D01*
X22039281Y8945122D01*
X22018201Y8878466D01*
X22000108Y8821256D01*
X21999571Y8752868D01*
X21999157Y8700159D01*
X21999044Y8685819D01*
X17995952Y8685819D01*
X18004967Y8739981D01*
X18005444Y8742845D01*
X18005500Y8750000D01*
X17985364Y8883935D01*
X17926735Y9006029D01*
X17922982Y9010089D01*
X17922980Y9010092D01*
X17838553Y9101424D01*
X17838552Y9101424D01*
X17834798Y9105486D01*
X17717681Y9173513D01*
X17712294Y9174762D01*
X17712293Y9174762D01*
X17591127Y9202847D01*
X17591126Y9202847D01*
X17585738Y9204096D01*
X17506481Y9198484D01*
X17456156Y9194921D01*
X17456155Y9194921D01*
X17450636Y9194530D01*
X17324319Y9145662D01*
X17319972Y9142235D01*
X17222299Y9065236D01*
X17222297Y9065234D01*
X17217955Y9061811D01*
X17214811Y9057262D01*
X17214810Y9057261D01*
X17179401Y9006029D01*
X17140948Y8950392D01*
X17139282Y8945124D01*
X17139281Y8945122D01*
X17118201Y8878466D01*
X17100108Y8821256D01*
X17099571Y8752868D01*
X17099157Y8700159D01*
X17099044Y8685819D01*
X200000Y8685819D01*
X200000Y10325819D01*
X5549044Y10325819D01*
X5587851Y10196058D01*
X5590924Y10191459D01*
X5629962Y10133035D01*
X5663098Y10083443D01*
X5768132Y9997932D01*
X5893666Y9947086D01*
X5953730Y9941884D01*
X6023089Y9935876D01*
X6023092Y9935876D01*
X6028601Y9935399D01*
X6161008Y9963905D01*
X6165835Y9966608D01*
X6274357Y10027383D01*
X6274360Y10027385D01*
X6279179Y10030084D01*
X6343096Y10097086D01*
X6368849Y10124082D01*
X6368851Y10124085D01*
X6372667Y10128085D01*
X6433206Y10249243D01*
X6434113Y10254692D01*
X6434114Y10254695D01*
X6454967Y10379981D01*
X6455444Y10382845D01*
X6455500Y10390000D01*
X6454111Y10399243D01*
X6439559Y10496033D01*
X6435364Y10523935D01*
X6431086Y10532845D01*
X6379129Y10641043D01*
X6376735Y10646029D01*
X6372982Y10650089D01*
X6372980Y10650092D01*
X6288553Y10741424D01*
X6288552Y10741424D01*
X6284798Y10745486D01*
X6178707Y10807109D01*
X19249044Y10807109D01*
X19287851Y10677348D01*
X19290924Y10672749D01*
X19342914Y10594941D01*
X19363098Y10564733D01*
X19468132Y10479222D01*
X19473261Y10477144D01*
X19473262Y10477144D01*
X19499472Y10466528D01*
X19593666Y10428376D01*
X19653730Y10423174D01*
X19723089Y10417166D01*
X19723092Y10417166D01*
X19728601Y10416689D01*
X19861008Y10445195D01*
X19879813Y10455726D01*
X19918057Y10477144D01*
X19964605Y10503212D01*
X20014565Y10511348D01*
X20047483Y10496033D01*
X20068132Y10479222D01*
X20073261Y10477144D01*
X20073262Y10477144D01*
X20099472Y10466528D01*
X20193666Y10428376D01*
X20253730Y10423174D01*
X20323089Y10417166D01*
X20323092Y10417166D01*
X20328601Y10416689D01*
X20461008Y10445195D01*
X20465835Y10447898D01*
X20574357Y10508673D01*
X20574360Y10508675D01*
X20579179Y10511374D01*
X20582994Y10515373D01*
X20668849Y10605372D01*
X20668851Y10605375D01*
X20672667Y10609375D01*
X20733206Y10730533D01*
X20734113Y10735982D01*
X20734114Y10735985D01*
X20750581Y10834921D01*
X20755444Y10864135D01*
X20755500Y10871290D01*
X20735364Y11005225D01*
X20676735Y11127319D01*
X20672982Y11131379D01*
X20672980Y11131382D01*
X20588553Y11222714D01*
X20588552Y11222714D01*
X20584798Y11226776D01*
X20467681Y11294803D01*
X20462294Y11296052D01*
X20462293Y11296052D01*
X20341127Y11324137D01*
X20341126Y11324137D01*
X20335738Y11325386D01*
X20256481Y11319774D01*
X20206156Y11316211D01*
X20206155Y11316211D01*
X20200636Y11315820D01*
X20074319Y11266952D01*
X20046491Y11245014D01*
X19998420Y11229164D01*
X19963512Y11239140D01*
X19921530Y11263525D01*
X19867681Y11294803D01*
X19862294Y11296052D01*
X19862293Y11296052D01*
X19741127Y11324137D01*
X19741126Y11324137D01*
X19735738Y11325386D01*
X19656481Y11319774D01*
X19606156Y11316211D01*
X19606155Y11316211D01*
X19600636Y11315820D01*
X19474319Y11266952D01*
X19469972Y11263525D01*
X19372299Y11186526D01*
X19372297Y11186524D01*
X19367955Y11183101D01*
X19364811Y11178552D01*
X19364810Y11178551D01*
X19329401Y11127319D01*
X19290948Y11071682D01*
X19289282Y11066414D01*
X19289281Y11066412D01*
X19256739Y10963513D01*
X19250108Y10942546D01*
X19250065Y10937016D01*
X19249244Y10832533D01*
X19249044Y10807109D01*
X6178707Y10807109D01*
X6167681Y10813513D01*
X6162294Y10814762D01*
X6162293Y10814762D01*
X6041127Y10842847D01*
X6041126Y10842847D01*
X6035738Y10844096D01*
X5956481Y10838484D01*
X5906156Y10834921D01*
X5906155Y10834921D01*
X5900636Y10834530D01*
X5774319Y10785662D01*
X5769972Y10782235D01*
X5672299Y10705236D01*
X5672297Y10705234D01*
X5667955Y10701811D01*
X5664811Y10697262D01*
X5664810Y10697261D01*
X5629401Y10646029D01*
X5590948Y10590392D01*
X5589282Y10585124D01*
X5589281Y10585122D01*
X5551775Y10466528D01*
X5550108Y10461256D01*
X5549044Y10325819D01*
X200000Y10325819D01*
X200000Y11621000D01*
X217313Y11668566D01*
X261150Y11693876D01*
X274000Y11695000D01*
X4400000Y11695000D01*
X4400000Y12085819D01*
X8289044Y12085819D01*
X8327851Y11956058D01*
X8330924Y11951459D01*
X8397291Y11852134D01*
X8403098Y11843443D01*
X8508132Y11757932D01*
X8633666Y11707086D01*
X8693730Y11701884D01*
X8763089Y11695876D01*
X8763092Y11695876D01*
X8768601Y11695399D01*
X8901008Y11723905D01*
X8950838Y11751811D01*
X9014357Y11787383D01*
X9014360Y11787385D01*
X9019179Y11790084D01*
X9022994Y11794083D01*
X9022998Y11794086D01*
X9084550Y11858610D01*
X9129909Y11881078D01*
X9179099Y11869133D01*
X9196210Y11852051D01*
X9196302Y11852134D01*
X9198037Y11850228D01*
X9199622Y11848645D01*
X9203098Y11843443D01*
X9308132Y11757932D01*
X9433666Y11707086D01*
X9493730Y11701884D01*
X9563089Y11695876D01*
X9563092Y11695876D01*
X9568601Y11695399D01*
X9701008Y11723905D01*
X9750838Y11751811D01*
X9814357Y11787383D01*
X9814360Y11787385D01*
X9819179Y11790084D01*
X9870081Y11843443D01*
X9908849Y11884082D01*
X9908851Y11884085D01*
X9912667Y11888085D01*
X9973206Y12009243D01*
X9988626Y12101881D01*
X10013513Y12145958D01*
X10046046Y12162072D01*
X10095597Y12172740D01*
X10101008Y12173905D01*
X10105835Y12176608D01*
X10214357Y12237383D01*
X10214360Y12237385D01*
X10219179Y12240084D01*
X10222994Y12244083D01*
X10308849Y12334082D01*
X10308851Y12334085D01*
X10312667Y12338085D01*
X10373206Y12459243D01*
X10374113Y12464692D01*
X10374114Y12464695D01*
X10394967Y12589981D01*
X10395444Y12592845D01*
X10395500Y12600000D01*
X10375364Y12733935D01*
X10362808Y12760084D01*
X10341267Y12804941D01*
X10316735Y12856029D01*
X10312982Y12860089D01*
X10312980Y12860092D01*
X10228553Y12951424D01*
X10228552Y12951424D01*
X10224798Y12955486D01*
X10107681Y13023513D01*
X10102294Y13024762D01*
X10102293Y13024762D01*
X9981127Y13052847D01*
X9981126Y13052847D01*
X9975738Y13054096D01*
X9896481Y13048484D01*
X9846156Y13044921D01*
X9846155Y13044921D01*
X9840636Y13044530D01*
X9714319Y12995662D01*
X9709972Y12992235D01*
X9612299Y12915236D01*
X9612297Y12915234D01*
X9607955Y12911811D01*
X9604811Y12907262D01*
X9604810Y12907261D01*
X9599386Y12899413D01*
X9558099Y12870127D01*
X9507647Y12874231D01*
X9484173Y12891255D01*
X9424798Y12955486D01*
X9307681Y13023513D01*
X9302294Y13024762D01*
X9302293Y13024762D01*
X9181127Y13052847D01*
X9181126Y13052847D01*
X9175738Y13054096D01*
X9096481Y13048484D01*
X9046156Y13044921D01*
X9046155Y13044921D01*
X9040636Y13044530D01*
X8914319Y12995662D01*
X8909972Y12992235D01*
X8812299Y12915236D01*
X8812297Y12915234D01*
X8807955Y12911811D01*
X8804811Y12907262D01*
X8804810Y12907261D01*
X8772207Y12860088D01*
X8730948Y12800392D01*
X8729282Y12795124D01*
X8729281Y12795122D01*
X8691775Y12676528D01*
X8690108Y12671256D01*
X8690065Y12665729D01*
X8690047Y12663440D01*
X8689448Y12661833D01*
X8689199Y12660262D01*
X8688881Y12660312D01*
X8672364Y12616010D01*
X8639895Y12596445D01*
X8640636Y12594530D01*
X8514319Y12545662D01*
X8504514Y12537932D01*
X8412299Y12465236D01*
X8412297Y12465234D01*
X8407955Y12461811D01*
X8404811Y12457262D01*
X8404810Y12457261D01*
X8390156Y12436058D01*
X8330948Y12350392D01*
X8329282Y12345124D01*
X8329281Y12345122D01*
X8311833Y12289950D01*
X8290108Y12221256D01*
X8289044Y12085819D01*
X4400000Y12085819D01*
X4400000Y13575819D01*
X10739044Y13575819D01*
X10777851Y13446058D01*
X10780924Y13441459D01*
X10839688Y13353513D01*
X10853098Y13333443D01*
X10958132Y13247932D01*
X11083666Y13197086D01*
X11143730Y13191884D01*
X11213089Y13185876D01*
X11213092Y13185876D01*
X11218601Y13185399D01*
X11351008Y13213905D01*
X11400838Y13241811D01*
X11464357Y13277383D01*
X11464360Y13277385D01*
X11469179Y13280084D01*
X11520081Y13333443D01*
X11558849Y13374082D01*
X11558851Y13374085D01*
X11562667Y13378085D01*
X11623206Y13499243D01*
X11624113Y13504692D01*
X11624114Y13504695D01*
X11644967Y13629981D01*
X11645444Y13632845D01*
X11645500Y13640000D01*
X11625364Y13773935D01*
X11605252Y13815819D01*
X11569129Y13891043D01*
X11566735Y13896029D01*
X11562982Y13900089D01*
X11562980Y13900092D01*
X11478553Y13991424D01*
X11478552Y13991424D01*
X11474798Y13995486D01*
X11357681Y14063513D01*
X11352294Y14064762D01*
X11352293Y14064762D01*
X11231127Y14092847D01*
X11231126Y14092847D01*
X11225738Y14094096D01*
X11146481Y14088484D01*
X11096156Y14084921D01*
X11096155Y14084921D01*
X11090636Y14084530D01*
X10964319Y14035662D01*
X10959972Y14032235D01*
X10862299Y13955236D01*
X10862297Y13955234D01*
X10857955Y13951811D01*
X10854811Y13947262D01*
X10854810Y13947261D01*
X10819401Y13896029D01*
X10780948Y13840392D01*
X10779282Y13835124D01*
X10779281Y13835122D01*
X10758201Y13768466D01*
X10740108Y13711256D01*
X10739751Y13665819D01*
X10739170Y13591811D01*
X10739044Y13575819D01*
X4400000Y13575819D01*
X4400000Y19500000D01*
X7350000Y19500000D01*
X7350000Y16600000D01*
X7792712Y16600000D01*
X7807148Y16598578D01*
X7814584Y16597099D01*
X7862102Y16587647D01*
X7888773Y16576600D01*
X7929184Y16549598D01*
X7949597Y16529185D01*
X7976600Y16488773D01*
X7987648Y16462100D01*
X7998578Y16407148D01*
X8000000Y16392712D01*
X8000000Y14950000D01*
X8975000Y14950000D01*
X8975000Y15025819D01*
X10789044Y15025819D01*
X10827851Y14896058D01*
X10830924Y14891459D01*
X10896816Y14792845D01*
X10903098Y14783443D01*
X11008132Y14697932D01*
X11013261Y14695854D01*
X11013262Y14695854D01*
X11112927Y14655486D01*
X11133666Y14647086D01*
X11193730Y14641884D01*
X11263089Y14635876D01*
X11263092Y14635876D01*
X11268601Y14635399D01*
X11401008Y14663905D01*
X11405835Y14666608D01*
X11514357Y14727383D01*
X11514360Y14727385D01*
X11519179Y14730084D01*
X11526812Y14738085D01*
X11608849Y14824082D01*
X11608851Y14824085D01*
X11612667Y14828085D01*
X11673206Y14949243D01*
X11674113Y14954692D01*
X11674114Y14954695D01*
X11694967Y15079981D01*
X11695444Y15082845D01*
X11695500Y15090000D01*
X11694017Y15099868D01*
X11678743Y15201459D01*
X11675364Y15223935D01*
X11616735Y15346029D01*
X11612982Y15350089D01*
X11612980Y15350092D01*
X11528553Y15441424D01*
X11528552Y15441424D01*
X11524798Y15445486D01*
X11407681Y15513513D01*
X11402294Y15514762D01*
X11402293Y15514762D01*
X11281127Y15542847D01*
X11281126Y15542847D01*
X11275738Y15544096D01*
X11202651Y15538921D01*
X11146156Y15534921D01*
X11146155Y15534921D01*
X11140636Y15534530D01*
X11014319Y15485662D01*
X11009972Y15482235D01*
X10912299Y15405236D01*
X10912297Y15405234D01*
X10907955Y15401811D01*
X10904811Y15397262D01*
X10904810Y15397261D01*
X10834092Y15294941D01*
X10830948Y15290392D01*
X10829282Y15285124D01*
X10829281Y15285122D01*
X10808201Y15218466D01*
X10790108Y15161256D01*
X10789630Y15100392D01*
X10789108Y15033935D01*
X10789044Y15025819D01*
X8975000Y15025819D01*
X8975000Y16392712D01*
X8976422Y16407148D01*
X8987352Y16462100D01*
X8998400Y16488773D01*
X9025403Y16529185D01*
X9032037Y16535819D01*
X17349044Y16535819D01*
X17387851Y16406058D01*
X17399880Y16388055D01*
X17431305Y16341024D01*
X17443336Y16291856D01*
X17430652Y16257839D01*
X17390948Y16200392D01*
X17389282Y16195124D01*
X17389281Y16195122D01*
X17351775Y16076528D01*
X17350108Y16071256D01*
X17350065Y16065726D01*
X17349188Y15954096D01*
X17349044Y15935819D01*
X17387851Y15806058D01*
X17390924Y15801459D01*
X17431305Y15741024D01*
X17443336Y15691856D01*
X17430652Y15657839D01*
X17390948Y15600392D01*
X17389282Y15595124D01*
X17389281Y15595122D01*
X17354664Y15485662D01*
X17350108Y15471256D01*
X17349906Y15445486D01*
X17349199Y15355486D01*
X17349044Y15335819D01*
X17387851Y15206058D01*
X17390924Y15201459D01*
X17431305Y15141024D01*
X17443336Y15091856D01*
X17430652Y15057839D01*
X17408522Y15025819D01*
X17390948Y15000392D01*
X17389282Y14995124D01*
X17389281Y14995122D01*
X17356497Y14891459D01*
X17350108Y14871256D01*
X17349596Y14806058D01*
X17349188Y14754096D01*
X17349044Y14735819D01*
X17387851Y14606058D01*
X17390924Y14601459D01*
X17458455Y14500392D01*
X17463098Y14493443D01*
X17568132Y14407932D01*
X17573261Y14405854D01*
X17573262Y14405854D01*
X17679028Y14363015D01*
X17693666Y14357086D01*
X17753730Y14351884D01*
X17823089Y14345876D01*
X17823092Y14345876D01*
X17828601Y14345399D01*
X17961008Y14373905D01*
X18064605Y14431922D01*
X18114565Y14440058D01*
X18147483Y14424743D01*
X18168132Y14407932D01*
X18173261Y14405854D01*
X18173262Y14405854D01*
X18279028Y14363015D01*
X18293666Y14357086D01*
X18353730Y14351884D01*
X18423089Y14345876D01*
X18423092Y14345876D01*
X18428601Y14345399D01*
X18561008Y14373905D01*
X18565835Y14376608D01*
X18674357Y14437383D01*
X18674360Y14437385D01*
X18679179Y14440084D01*
X18695398Y14457086D01*
X18768849Y14534082D01*
X18768851Y14534085D01*
X18772667Y14538085D01*
X18833206Y14659243D01*
X18834113Y14664692D01*
X18834114Y14664695D01*
X18849851Y14759243D01*
X18855444Y14792845D01*
X18855500Y14800000D01*
X18851880Y14824082D01*
X18841750Y14891459D01*
X18835364Y14933935D01*
X18805983Y14995122D01*
X18779129Y15051044D01*
X18779128Y15051045D01*
X18776735Y15056029D01*
X18773977Y15059012D01*
X18761715Y15107465D01*
X18773058Y15137890D01*
X18772667Y15138085D01*
X18833206Y15259243D01*
X18834113Y15264692D01*
X18834114Y15264695D01*
X18854967Y15389981D01*
X18855444Y15392845D01*
X18855500Y15400000D01*
X18835364Y15533935D01*
X18831085Y15542847D01*
X18779129Y15651044D01*
X18779128Y15651045D01*
X18776735Y15656029D01*
X18773977Y15659012D01*
X18761715Y15707465D01*
X18773058Y15737890D01*
X18772667Y15738085D01*
X18833206Y15859243D01*
X18834113Y15864692D01*
X18834114Y15864695D01*
X18854967Y15989981D01*
X18855444Y15992845D01*
X18855500Y16000000D01*
X18835364Y16133935D01*
X18776735Y16256029D01*
X18772982Y16260089D01*
X18772980Y16260092D01*
X18688553Y16351424D01*
X18688552Y16351424D01*
X18684798Y16355486D01*
X18567681Y16423513D01*
X18562294Y16424762D01*
X18562293Y16424762D01*
X18441127Y16452847D01*
X18441126Y16452847D01*
X18435738Y16454096D01*
X18323559Y16446153D01*
X18274888Y16460063D01*
X18246546Y16502003D01*
X18245336Y16532118D01*
X18246872Y16541347D01*
X18255444Y16592845D01*
X18255500Y16600000D01*
X18235364Y16733935D01*
X18176735Y16856029D01*
X18172982Y16860089D01*
X18172980Y16860092D01*
X18088553Y16951424D01*
X18088552Y16951424D01*
X18084798Y16955486D01*
X17967681Y17023513D01*
X17962294Y17024762D01*
X17962293Y17024762D01*
X17841127Y17052847D01*
X17841126Y17052847D01*
X17835738Y17054096D01*
X17756481Y17048484D01*
X17706156Y17044921D01*
X17706155Y17044921D01*
X17700636Y17044530D01*
X17574319Y16995662D01*
X17569972Y16992235D01*
X17472299Y16915236D01*
X17472297Y16915234D01*
X17467955Y16911811D01*
X17464811Y16907262D01*
X17464810Y16907261D01*
X17429401Y16856029D01*
X17390948Y16800392D01*
X17389282Y16795124D01*
X17389281Y16795122D01*
X17351775Y16676528D01*
X17350108Y16671256D01*
X17349044Y16535819D01*
X9032037Y16535819D01*
X9045816Y16549598D01*
X9086227Y16576600D01*
X9112898Y16587647D01*
X9160416Y16597099D01*
X9167852Y16598578D01*
X9182288Y16600000D01*
X10050000Y16600000D01*
X10050000Y16900000D01*
X10400000Y16900000D01*
X10400000Y16600000D01*
X14300000Y16600000D01*
X14300000Y16900000D01*
X14650000Y16900000D01*
X14650000Y16600000D01*
X15850000Y16600000D01*
X15850000Y17995819D01*
X16049044Y17995819D01*
X16087851Y17866058D01*
X16090924Y17861459D01*
X16159223Y17759243D01*
X16163098Y17753443D01*
X16268132Y17667932D01*
X16273261Y17665854D01*
X16273262Y17665854D01*
X16341821Y17638085D01*
X16393666Y17617086D01*
X16453730Y17611884D01*
X16523089Y17605876D01*
X16523092Y17605876D01*
X16528601Y17605399D01*
X16661008Y17633905D01*
X16690448Y17650392D01*
X16774357Y17697383D01*
X16774360Y17697385D01*
X16779179Y17700084D01*
X16784878Y17706058D01*
X16868849Y17794082D01*
X16868851Y17794085D01*
X16872667Y17798085D01*
X16933206Y17919243D01*
X16934113Y17924692D01*
X16934114Y17924695D01*
X16954967Y18049981D01*
X16955444Y18052845D01*
X16955500Y18060000D01*
X16935364Y18193935D01*
X16932832Y18199209D01*
X16879129Y18311043D01*
X16876735Y18316029D01*
X16872982Y18320089D01*
X16872980Y18320092D01*
X16788553Y18411424D01*
X16788552Y18411424D01*
X16784798Y18415486D01*
X16667681Y18483513D01*
X16662294Y18484762D01*
X16662293Y18484762D01*
X16541127Y18512847D01*
X16541126Y18512847D01*
X16535738Y18514096D01*
X16456481Y18508484D01*
X16406156Y18504921D01*
X16406155Y18504921D01*
X16400636Y18504530D01*
X16274319Y18455662D01*
X16269972Y18452235D01*
X16172299Y18375236D01*
X16172297Y18375234D01*
X16167955Y18371811D01*
X16164811Y18367262D01*
X16164810Y18367261D01*
X16129401Y18316029D01*
X16090948Y18260392D01*
X16089282Y18255124D01*
X16089281Y18255122D01*
X16051775Y18136528D01*
X16050108Y18131256D01*
X16049044Y17995819D01*
X15850000Y17995819D01*
X15850000Y19400000D01*
X15257288Y19400000D01*
X15242852Y19401422D01*
X15222903Y19405390D01*
X15187898Y19412353D01*
X15161227Y19423400D01*
X15120815Y19450403D01*
X15100402Y19470816D01*
X15093781Y19480725D01*
X15073400Y19511227D01*
X15062352Y19537900D01*
X15051422Y19592852D01*
X15050000Y19607288D01*
X15050000Y19916818D01*
X15051229Y19930246D01*
X15060694Y19981539D01*
X15070279Y20006627D01*
X15097426Y20051162D01*
X15105464Y20061989D01*
X15216661Y20186268D01*
X15609943Y20625819D01*
X17229044Y20625819D01*
X17267851Y20496058D01*
X17270924Y20491459D01*
X17309962Y20433035D01*
X17343098Y20383443D01*
X17448132Y20297932D01*
X17453261Y20295854D01*
X17453262Y20295854D01*
X17525468Y20266608D01*
X17573666Y20247086D01*
X17633730Y20241884D01*
X17703089Y20235876D01*
X17703092Y20235876D01*
X17708601Y20235399D01*
X17841008Y20263905D01*
X17944607Y20321923D01*
X17994567Y20330059D01*
X18027484Y20314745D01*
X18048135Y20297932D01*
X18053264Y20295854D01*
X18053265Y20295854D01*
X18125471Y20266608D01*
X18173669Y20247086D01*
X18233733Y20241884D01*
X18303092Y20235876D01*
X18303095Y20235876D01*
X18308604Y20235399D01*
X18441011Y20263905D01*
X18453223Y20270744D01*
X18554360Y20327383D01*
X18554363Y20327385D01*
X18559182Y20330084D01*
X18562997Y20334083D01*
X18648852Y20424082D01*
X18648854Y20424085D01*
X18652670Y20428085D01*
X18713209Y20549243D01*
X18714116Y20554692D01*
X18714117Y20554695D01*
X18734970Y20679981D01*
X18735447Y20682845D01*
X18735503Y20690000D01*
X18715367Y20823935D01*
X18656738Y20946029D01*
X18652985Y20950089D01*
X18652983Y20950092D01*
X18568556Y21041424D01*
X18568555Y21041424D01*
X18564801Y21045486D01*
X18447684Y21113513D01*
X18442297Y21114762D01*
X18442296Y21114762D01*
X18321130Y21142847D01*
X18321129Y21142847D01*
X18315741Y21144096D01*
X18236484Y21138484D01*
X18186159Y21134921D01*
X18186158Y21134921D01*
X18180639Y21134530D01*
X18054322Y21085662D01*
X18049975Y21082235D01*
X18026495Y21063725D01*
X17978422Y21047873D01*
X17943514Y21057849D01*
X17892192Y21087659D01*
X17847681Y21113513D01*
X17842294Y21114762D01*
X17842293Y21114762D01*
X17721127Y21142847D01*
X17721126Y21142847D01*
X17715738Y21144096D01*
X17636481Y21138484D01*
X17586156Y21134921D01*
X17586155Y21134921D01*
X17580636Y21134530D01*
X17454319Y21085662D01*
X17449972Y21082235D01*
X17352299Y21005236D01*
X17352297Y21005234D01*
X17347955Y21001811D01*
X17344811Y20997262D01*
X17344810Y20997261D01*
X17308966Y20945399D01*
X17270948Y20890392D01*
X17269282Y20885124D01*
X17269281Y20885122D01*
X17248201Y20818466D01*
X17230108Y20761256D01*
X17229044Y20625819D01*
X15609943Y20625819D01*
X15866660Y20912738D01*
X15900000Y20950000D01*
X15900000Y21050000D01*
X14750000Y21050000D01*
X14691049Y20989084D01*
X13346775Y19600000D01*
X13314126Y19566263D01*
X13302816Y19556707D01*
X13301139Y19555556D01*
X13255675Y19524363D01*
X13228545Y19512864D01*
X13220462Y19511222D01*
X13172524Y19501482D01*
X13157790Y19500000D01*
X7350000Y19500000D01*
X4400000Y19500000D01*
X4400000Y21295000D01*
X274000Y21295000D01*
X226434Y21312313D01*
X201124Y21356150D01*
X200000Y21369000D01*
X200000Y21385819D01*
X10274044Y21385819D01*
X10312851Y21256058D01*
X10315924Y21251459D01*
X10354962Y21193035D01*
X10388098Y21143443D01*
X10493132Y21057932D01*
X10498261Y21055854D01*
X10498262Y21055854D01*
X10567276Y21027901D01*
X10618666Y21007086D01*
X10678730Y21001884D01*
X10748089Y20995876D01*
X10748092Y20995876D01*
X10753601Y20995399D01*
X10886008Y21023905D01*
X10890835Y21026608D01*
X10999357Y21087383D01*
X10999360Y21087385D01*
X11004179Y21090084D01*
X11007994Y21094083D01*
X11093849Y21184082D01*
X11093851Y21184085D01*
X11097667Y21188085D01*
X11158206Y21309243D01*
X11159113Y21314692D01*
X11159114Y21314695D01*
X11178794Y21432932D01*
X11180444Y21442845D01*
X11180500Y21450000D01*
X11160364Y21583935D01*
X11101735Y21706029D01*
X11097979Y21710092D01*
X11094872Y21714664D01*
X11097314Y21716324D01*
X11082100Y21753137D01*
X11084528Y21760819D01*
X11574044Y21760819D01*
X11612851Y21631058D01*
X11615924Y21626459D01*
X11682696Y21526528D01*
X11688098Y21518443D01*
X11793132Y21432932D01*
X11798261Y21430854D01*
X11798262Y21430854D01*
X11913538Y21384163D01*
X11918666Y21382086D01*
X11952644Y21379143D01*
X11962540Y21378286D01*
X12008434Y21356933D01*
X12027051Y21325766D01*
X12062851Y21206058D01*
X12065924Y21201459D01*
X12133717Y21100000D01*
X12138098Y21093443D01*
X12243132Y21007932D01*
X12248261Y21005854D01*
X12248262Y21005854D01*
X12289666Y20989084D01*
X12368666Y20957086D01*
X12428730Y20951884D01*
X12498089Y20945876D01*
X12498092Y20945876D01*
X12503601Y20945399D01*
X12636008Y20973905D01*
X12640835Y20976608D01*
X12749357Y21037383D01*
X12749360Y21037385D01*
X12754179Y21040084D01*
X12761609Y21047873D01*
X12843849Y21134082D01*
X12843851Y21134085D01*
X12847667Y21138085D01*
X12908206Y21259243D01*
X12909113Y21264692D01*
X12909114Y21264695D01*
X12927130Y21372934D01*
X12930444Y21392845D01*
X12930500Y21400000D01*
X12925258Y21434871D01*
X12920565Y21466080D01*
X12910364Y21533935D01*
X12851735Y21656029D01*
X12847982Y21660089D01*
X12847980Y21660092D01*
X12763553Y21751424D01*
X12763552Y21751424D01*
X12759798Y21755486D01*
X12642681Y21823513D01*
X12540981Y21847086D01*
X12523867Y21851053D01*
X12481439Y21878660D01*
X12467399Y21912140D01*
X12463499Y21938085D01*
X12460364Y21958935D01*
X12453824Y21972556D01*
X12423795Y22035089D01*
X12401735Y22081029D01*
X12397982Y22085089D01*
X12397980Y22085092D01*
X12313553Y22176424D01*
X12313552Y22176424D01*
X12309798Y22180486D01*
X12192681Y22248513D01*
X12187294Y22249762D01*
X12187293Y22249762D01*
X12066127Y22277847D01*
X12066126Y22277847D01*
X12060738Y22279096D01*
X11981481Y22273484D01*
X11931156Y22269921D01*
X11931155Y22269921D01*
X11925636Y22269530D01*
X11799319Y22220662D01*
X11794972Y22217235D01*
X11697299Y22140236D01*
X11697297Y22140234D01*
X11692955Y22136811D01*
X11689811Y22132262D01*
X11689810Y22132261D01*
X11654401Y22081029D01*
X11615948Y22025392D01*
X11614282Y22020124D01*
X11614281Y22020122D01*
X11580131Y21912140D01*
X11575108Y21896256D01*
X11574567Y21827416D01*
X11574537Y21823513D01*
X11574044Y21760819D01*
X11084528Y21760819D01*
X11097359Y21801401D01*
X11119874Y21820871D01*
X11149352Y21837380D01*
X11149355Y21837383D01*
X11154179Y21840084D01*
X11164643Y21851053D01*
X11243849Y21934082D01*
X11243851Y21934085D01*
X11247667Y21938085D01*
X11308206Y22059243D01*
X11309113Y22064692D01*
X11309114Y22064695D01*
X11329967Y22189981D01*
X11330444Y22192845D01*
X11330500Y22200000D01*
X11327094Y22222659D01*
X11313931Y22310207D01*
X11310364Y22333935D01*
X11305739Y22343568D01*
X11276267Y22404941D01*
X11251735Y22456029D01*
X11247982Y22460089D01*
X11247980Y22460092D01*
X11163553Y22551424D01*
X11163552Y22551424D01*
X11159798Y22555486D01*
X11042681Y22623513D01*
X11037294Y22624762D01*
X11037293Y22624762D01*
X10916127Y22652847D01*
X10916126Y22652847D01*
X10910738Y22654096D01*
X10831481Y22648484D01*
X10781156Y22644921D01*
X10781155Y22644921D01*
X10775636Y22644530D01*
X10649319Y22595662D01*
X10644972Y22592235D01*
X10547299Y22515236D01*
X10547297Y22515234D01*
X10542955Y22511811D01*
X10539811Y22507262D01*
X10539810Y22507261D01*
X10482462Y22424285D01*
X10465948Y22400392D01*
X10464282Y22395124D01*
X10464281Y22395122D01*
X10427192Y22277847D01*
X10425108Y22271256D01*
X10424044Y22135819D01*
X10462851Y22006058D01*
X10465924Y22001458D01*
X10465925Y22001457D01*
X10507626Y21939048D01*
X10519658Y21889879D01*
X10497270Y21844480D01*
X10491911Y21839822D01*
X10397299Y21765236D01*
X10397297Y21765234D01*
X10392955Y21761811D01*
X10389811Y21757262D01*
X10389810Y21757261D01*
X10380485Y21743769D01*
X10315948Y21650392D01*
X10314282Y21645124D01*
X10314281Y21645122D01*
X10276775Y21526528D01*
X10275108Y21521256D01*
X10274675Y21466080D01*
X10274133Y21397099D01*
X10274044Y21385819D01*
X200000Y21385819D01*
X200000Y22617069D01*
X4254044Y22617069D01*
X4292851Y22487308D01*
X4295924Y22482709D01*
X4354448Y22395122D01*
X4368098Y22374693D01*
X4473132Y22289182D01*
X4478261Y22287104D01*
X4478262Y22287104D01*
X4582317Y22244958D01*
X4598666Y22238336D01*
X4657792Y22233215D01*
X4728089Y22227126D01*
X4728092Y22227126D01*
X4733601Y22226649D01*
X4866008Y22255155D01*
X4884884Y22265726D01*
X4979357Y22318633D01*
X4979360Y22318635D01*
X4984179Y22321334D01*
X5005389Y22343568D01*
X5073849Y22415332D01*
X5073851Y22415335D01*
X5077667Y22419335D01*
X5138206Y22540493D01*
X5139113Y22545942D01*
X5139114Y22545945D01*
X5155006Y22641424D01*
X5160444Y22674095D01*
X5160500Y22681250D01*
X5159537Y22687659D01*
X5148995Y22757778D01*
X5140364Y22815185D01*
X5130658Y22835399D01*
X5090031Y22920002D01*
X5081735Y22937279D01*
X5077982Y22941339D01*
X5077980Y22941342D01*
X4993553Y23032674D01*
X4993552Y23032674D01*
X4989798Y23036736D01*
X4872681Y23104763D01*
X4867294Y23106012D01*
X4867293Y23106012D01*
X4746127Y23134097D01*
X4746126Y23134097D01*
X4740738Y23135346D01*
X4661481Y23129734D01*
X4611156Y23126171D01*
X4611155Y23126171D01*
X4605636Y23125780D01*
X4479319Y23076912D01*
X4474972Y23073485D01*
X4377299Y22996486D01*
X4377297Y22996484D01*
X4372955Y22993061D01*
X4369811Y22988512D01*
X4369810Y22988511D01*
X4322460Y22920002D01*
X4295948Y22881642D01*
X4294282Y22876374D01*
X4294281Y22876372D01*
X4273201Y22809716D01*
X4255108Y22752506D01*
X4254802Y22713513D01*
X4254095Y22623513D01*
X4254044Y22617069D01*
X200000Y22617069D01*
X200000Y23225819D01*
X19509044Y23225819D01*
X19547851Y23096058D01*
X19550924Y23091459D01*
X19619712Y22988511D01*
X19623098Y22983443D01*
X19728132Y22897932D01*
X19733261Y22895854D01*
X19733262Y22895854D01*
X19825972Y22858303D01*
X19863559Y22824400D01*
X19870561Y22774268D01*
X19843699Y22731364D01*
X19824893Y22720702D01*
X19734319Y22685662D01*
X19725043Y22678349D01*
X19632299Y22605236D01*
X19632297Y22605234D01*
X19627955Y22601811D01*
X19624811Y22597262D01*
X19624810Y22597261D01*
X19589401Y22546029D01*
X19550948Y22490392D01*
X19549282Y22485124D01*
X19549281Y22485122D01*
X19513253Y22371200D01*
X19510108Y22361256D01*
X19509773Y22318633D01*
X19509139Y22237859D01*
X19509044Y22225819D01*
X19547851Y22096058D01*
X19550924Y22091459D01*
X19595069Y22025392D01*
X19623098Y21983443D01*
X19728132Y21897932D01*
X19733261Y21895854D01*
X19733262Y21895854D01*
X19848537Y21849163D01*
X19848540Y21849162D01*
X19853666Y21847086D01*
X19901710Y21842925D01*
X19947604Y21821573D01*
X19966220Y21790406D01*
X19994594Y21695530D01*
X19997667Y21690931D01*
X20036705Y21632507D01*
X20069841Y21582915D01*
X20174875Y21497404D01*
X20300409Y21446558D01*
X20360473Y21441356D01*
X20429832Y21435348D01*
X20429835Y21435348D01*
X20435344Y21434871D01*
X20567751Y21463377D01*
X20572578Y21466080D01*
X20681100Y21526855D01*
X20681103Y21526857D01*
X20685922Y21529556D01*
X20689737Y21533555D01*
X20775592Y21623554D01*
X20775594Y21623557D01*
X20779410Y21627557D01*
X20839949Y21748715D01*
X20840856Y21754164D01*
X20840857Y21754167D01*
X20856323Y21847086D01*
X20862187Y21882317D01*
X20862243Y21889472D01*
X20860431Y21901528D01*
X20851800Y21958935D01*
X20842107Y22023407D01*
X20838970Y22029941D01*
X20785872Y22140515D01*
X20783478Y22145501D01*
X20779725Y22149561D01*
X20779723Y22149564D01*
X20695296Y22240896D01*
X20695295Y22240896D01*
X20691541Y22244958D01*
X20574424Y22312985D01*
X20569037Y22314234D01*
X20569036Y22314234D01*
X20455174Y22340626D01*
X20412745Y22368232D01*
X20398705Y22401713D01*
X20396186Y22418466D01*
X20395364Y22423935D01*
X20336735Y22546029D01*
X20332982Y22550089D01*
X20332980Y22550092D01*
X20248553Y22641424D01*
X20248552Y22641424D01*
X20244798Y22645486D01*
X20127681Y22713513D01*
X20110586Y22717475D01*
X20068159Y22745081D01*
X20053402Y22793502D01*
X20073221Y22840079D01*
X20111722Y22861906D01*
X20121008Y22863905D01*
X20141036Y22875121D01*
X20234357Y22927383D01*
X20234360Y22927385D01*
X20239179Y22930084D01*
X20249919Y22941342D01*
X20328849Y23024082D01*
X20328851Y23024085D01*
X20332667Y23028085D01*
X20393206Y23149243D01*
X20394113Y23154692D01*
X20394114Y23154695D01*
X20407499Y23235111D01*
X20415444Y23282845D01*
X20415491Y23288785D01*
X20415500Y23290000D01*
X20416216Y23289994D01*
X20429364Y23336018D01*
X20463120Y23361804D01*
X20465598Y23362740D01*
X20471008Y23363905D01*
X20522920Y23392977D01*
X20584357Y23427383D01*
X20584360Y23427385D01*
X20589179Y23430084D01*
X20592994Y23434083D01*
X20678849Y23524082D01*
X20678851Y23524085D01*
X20682667Y23528085D01*
X20743206Y23649243D01*
X20744113Y23654692D01*
X20744114Y23654695D01*
X20758141Y23738968D01*
X20765444Y23782845D01*
X20765500Y23790000D01*
X20745364Y23923935D01*
X20686735Y24046029D01*
X20682982Y24050089D01*
X20682980Y24050092D01*
X20598553Y24141424D01*
X20598552Y24141424D01*
X20594798Y24145486D01*
X20477681Y24213513D01*
X20472294Y24214762D01*
X20472293Y24214762D01*
X20351127Y24242847D01*
X20351126Y24242847D01*
X20345738Y24244096D01*
X20266481Y24238484D01*
X20216156Y24234921D01*
X20216155Y24234921D01*
X20210636Y24234530D01*
X20084319Y24185662D01*
X20079972Y24182235D01*
X19982299Y24105236D01*
X19982297Y24105234D01*
X19977955Y24101811D01*
X19974811Y24097262D01*
X19974810Y24097261D01*
X19939401Y24046029D01*
X19900948Y23990392D01*
X19899282Y23985124D01*
X19899281Y23985122D01*
X19866497Y23881459D01*
X19860108Y23861256D01*
X19860065Y23855726D01*
X19859503Y23784228D01*
X19841817Y23736799D01*
X19812205Y23715794D01*
X19749218Y23691426D01*
X19734319Y23685662D01*
X19729972Y23682235D01*
X19632299Y23605236D01*
X19632297Y23605234D01*
X19627955Y23601811D01*
X19624811Y23597262D01*
X19624810Y23597261D01*
X19579070Y23531081D01*
X19550948Y23490392D01*
X19549282Y23485124D01*
X19549281Y23485122D01*
X19511775Y23366528D01*
X19510108Y23361256D01*
X19509654Y23303439D01*
X19509431Y23275021D01*
X19509044Y23225819D01*
X200000Y23225819D01*
X200000Y24015819D01*
X8249044Y24015819D01*
X8287851Y23886058D01*
X8290924Y23881459D01*
X8356951Y23782643D01*
X8363098Y23773443D01*
X8468132Y23687932D01*
X8473261Y23685854D01*
X8473262Y23685854D01*
X8575863Y23644297D01*
X8593666Y23637086D01*
X8653730Y23631884D01*
X8723089Y23625876D01*
X8723092Y23625876D01*
X8728601Y23625399D01*
X8861008Y23653905D01*
X8952400Y23705087D01*
X9002361Y23713223D01*
X9045863Y23687342D01*
X9059455Y23661725D01*
X9070319Y23625399D01*
X9097151Y23535680D01*
X9100224Y23531081D01*
X9141850Y23468784D01*
X9172398Y23423065D01*
X9277432Y23337554D01*
X9402966Y23286708D01*
X9463030Y23281506D01*
X9532389Y23275498D01*
X9532392Y23275498D01*
X9537901Y23275021D01*
X9670308Y23303527D01*
X9774689Y23361983D01*
X9824649Y23370119D01*
X9857566Y23354805D01*
X9863454Y23350012D01*
X9877433Y23338631D01*
X10002967Y23287785D01*
X10060003Y23282845D01*
X10132390Y23276575D01*
X10132393Y23276575D01*
X10137902Y23276098D01*
X10270309Y23304604D01*
X10275136Y23307307D01*
X10383658Y23368082D01*
X10383661Y23368084D01*
X10388480Y23370783D01*
X10409652Y23392977D01*
X10478150Y23464781D01*
X10478152Y23464784D01*
X10481968Y23468784D01*
X10542507Y23589942D01*
X10543414Y23595391D01*
X10543415Y23595394D01*
X10558027Y23683186D01*
X10564745Y23723544D01*
X10564801Y23730699D01*
X10544665Y23864634D01*
X10486036Y23986728D01*
X10482283Y23990788D01*
X10482281Y23990791D01*
X10397854Y24082123D01*
X10397853Y24082123D01*
X10394099Y24086185D01*
X10276982Y24154212D01*
X10271595Y24155461D01*
X10271594Y24155461D01*
X10150428Y24183546D01*
X10150427Y24183546D01*
X10145039Y24184795D01*
X10065782Y24179183D01*
X10015457Y24175620D01*
X10015456Y24175620D01*
X10009937Y24175229D01*
X9883620Y24126361D01*
X9879273Y24122934D01*
X9855007Y24103804D01*
X9806935Y24087951D01*
X9772028Y24097928D01*
X9676981Y24153135D01*
X9671594Y24154384D01*
X9671593Y24154384D01*
X9550427Y24182469D01*
X9550426Y24182469D01*
X9545038Y24183718D01*
X9465781Y24178106D01*
X9415456Y24174543D01*
X9415455Y24174543D01*
X9409936Y24174152D01*
X9283619Y24125284D01*
X9279272Y24121857D01*
X9263039Y24109060D01*
X9214966Y24093208D01*
X9167951Y24111965D01*
X9144048Y24156172D01*
X9135364Y24213935D01*
X9126434Y24232533D01*
X9079129Y24331043D01*
X9076735Y24336029D01*
X9072982Y24340089D01*
X9072980Y24340092D01*
X8988553Y24431424D01*
X8988552Y24431424D01*
X8984798Y24435486D01*
X8867681Y24503513D01*
X8862294Y24504762D01*
X8862293Y24504762D01*
X8741127Y24532847D01*
X8741126Y24532847D01*
X8735738Y24534096D01*
X8656481Y24528484D01*
X8606156Y24524921D01*
X8606155Y24524921D01*
X8600636Y24524530D01*
X8474319Y24475662D01*
X8469972Y24472235D01*
X8372299Y24395236D01*
X8372297Y24395234D01*
X8367955Y24391811D01*
X8364811Y24387262D01*
X8364810Y24387261D01*
X8297065Y24289243D01*
X8290948Y24280392D01*
X8289282Y24275124D01*
X8289281Y24275122D01*
X8257349Y24174152D01*
X8250108Y24151256D01*
X8249735Y24103804D01*
X8249218Y24037932D01*
X8249044Y24015819D01*
X200000Y24015819D01*
X200000Y25267069D01*
X1674044Y25267069D01*
X1712851Y25137308D01*
X1715924Y25132709D01*
X1780715Y25035743D01*
X1788098Y25024693D01*
X1893132Y24939182D01*
X1898261Y24937104D01*
X1898262Y24937104D01*
X1977141Y24905155D01*
X2018666Y24888336D01*
X2078730Y24883134D01*
X2148089Y24877126D01*
X2148092Y24877126D01*
X2153601Y24876649D01*
X2268687Y24901426D01*
X2280597Y24903990D01*
X2286008Y24905155D01*
X2297056Y24911342D01*
X2399357Y24968633D01*
X2399360Y24968635D01*
X2404179Y24971334D01*
X2414764Y24982430D01*
X2493849Y25065332D01*
X2493851Y25065335D01*
X2497667Y25069335D01*
X2558206Y25190493D01*
X2559113Y25195942D01*
X2559114Y25195945D01*
X2570952Y25267069D01*
X5874044Y25267069D01*
X5912851Y25137308D01*
X5915924Y25132709D01*
X5983484Y25031598D01*
X5995515Y24982430D01*
X5982830Y24948412D01*
X5931767Y24874530D01*
X5915948Y24851642D01*
X5914282Y24846374D01*
X5914281Y24846372D01*
X5893201Y24779716D01*
X5875108Y24722506D01*
X5874575Y24654695D01*
X5874115Y24596058D01*
X5874044Y24587069D01*
X5912851Y24457308D01*
X5915924Y24452709D01*
X5954962Y24394285D01*
X5988098Y24344693D01*
X6093132Y24259182D01*
X6098261Y24257104D01*
X6098262Y24257104D01*
X6205884Y24213513D01*
X6218666Y24208336D01*
X6278730Y24203134D01*
X6348089Y24197126D01*
X6348092Y24197126D01*
X6353601Y24196649D01*
X6486008Y24225155D01*
X6490835Y24227858D01*
X6599357Y24288633D01*
X6599360Y24288635D01*
X6604179Y24291334D01*
X6607994Y24295333D01*
X6693849Y24385332D01*
X6693851Y24385335D01*
X6697667Y24389335D01*
X6758206Y24510493D01*
X6759113Y24515942D01*
X6759114Y24515945D01*
X6779967Y24641231D01*
X6780444Y24644095D01*
X6780500Y24651250D01*
X6760364Y24785185D01*
X6754077Y24798279D01*
X6706223Y24897932D01*
X6701735Y24907279D01*
X6686338Y24923935D01*
X6670823Y24940720D01*
X6651248Y24987401D01*
X6666259Y25035743D01*
X6671618Y25042029D01*
X6675434Y25046029D01*
X6697667Y25069335D01*
X6758206Y25190493D01*
X6759113Y25195942D01*
X6759114Y25195945D01*
X6764086Y25225819D01*
X10709044Y25225819D01*
X10747851Y25096058D01*
X10750924Y25091459D01*
X10817549Y24991748D01*
X10823098Y24983443D01*
X10928132Y24897932D01*
X10979500Y24877126D01*
X11003396Y24867447D01*
X11040983Y24833544D01*
X11049613Y24798279D01*
X11049170Y24741811D01*
X11049044Y24725819D01*
X11087851Y24596058D01*
X11090924Y24591459D01*
X11151196Y24501256D01*
X11163098Y24483443D01*
X11268132Y24397932D01*
X11273261Y24395854D01*
X11273262Y24395854D01*
X11299240Y24385332D01*
X11393666Y24347086D01*
X11453730Y24341884D01*
X11523089Y24335876D01*
X11523092Y24335876D01*
X11528601Y24335399D01*
X11661008Y24363905D01*
X11699269Y24385332D01*
X11774357Y24427383D01*
X11774360Y24427385D01*
X11779179Y24430084D01*
X11784332Y24435486D01*
X11868849Y24524082D01*
X11868851Y24524085D01*
X11872667Y24528085D01*
X11933206Y24649243D01*
X11934113Y24654692D01*
X11934114Y24654695D01*
X11954967Y24779981D01*
X11955444Y24782845D01*
X11955500Y24790000D01*
X11935364Y24923935D01*
X11929041Y24937104D01*
X11886980Y25024693D01*
X11876735Y25046029D01*
X11872982Y25050089D01*
X11872980Y25050092D01*
X11788553Y25141424D01*
X11788552Y25141424D01*
X11784798Y25145486D01*
X11667681Y25213513D01*
X11662291Y25214762D01*
X11662211Y25214794D01*
X11624358Y25248401D01*
X11615454Y25284183D01*
X11615477Y25287102D01*
X11615500Y25290000D01*
X11595364Y25423935D01*
X11536735Y25546029D01*
X11532982Y25550089D01*
X11532980Y25550092D01*
X11448553Y25641424D01*
X11448552Y25641424D01*
X11444798Y25645486D01*
X11327681Y25713513D01*
X11322294Y25714762D01*
X11322293Y25714762D01*
X11201127Y25742847D01*
X11201126Y25742847D01*
X11195738Y25744096D01*
X11116481Y25738484D01*
X11066156Y25734921D01*
X11066155Y25734921D01*
X11060636Y25734530D01*
X10934319Y25685662D01*
X10929972Y25682235D01*
X10832299Y25605236D01*
X10832297Y25605234D01*
X10827955Y25601811D01*
X10824811Y25597262D01*
X10824810Y25597261D01*
X10754562Y25495621D01*
X10750948Y25490392D01*
X10749282Y25485124D01*
X10749281Y25485122D01*
X10720287Y25393443D01*
X10710108Y25361256D01*
X10709839Y25326998D01*
X10709198Y25245399D01*
X10709044Y25225819D01*
X6764086Y25225819D01*
X6773801Y25284183D01*
X6780444Y25324095D01*
X6780500Y25331250D01*
X6760364Y25465185D01*
X6750791Y25485122D01*
X6704129Y25582293D01*
X6701735Y25587279D01*
X6697982Y25591339D01*
X6697980Y25591342D01*
X6613553Y25682674D01*
X6613552Y25682674D01*
X6609798Y25686736D01*
X6492681Y25754763D01*
X6487294Y25756012D01*
X6487293Y25756012D01*
X6366127Y25784097D01*
X6366126Y25784097D01*
X6360738Y25785346D01*
X6281481Y25779734D01*
X6231156Y25776171D01*
X6231155Y25776171D01*
X6225636Y25775780D01*
X6099319Y25726912D01*
X6094972Y25723485D01*
X5997299Y25646486D01*
X5997297Y25646484D01*
X5992955Y25643061D01*
X5989811Y25638512D01*
X5989810Y25638511D01*
X5922445Y25541043D01*
X5915948Y25531642D01*
X5914282Y25526374D01*
X5914281Y25526372D01*
X5876775Y25407778D01*
X5875108Y25402506D01*
X5874618Y25340084D01*
X5874098Y25273905D01*
X5874044Y25267069D01*
X2570952Y25267069D01*
X2573801Y25284183D01*
X2580444Y25324095D01*
X2580500Y25331250D01*
X2560364Y25465185D01*
X2550791Y25485122D01*
X2504129Y25582293D01*
X2501735Y25587279D01*
X2497982Y25591339D01*
X2497980Y25591342D01*
X2413553Y25682674D01*
X2413552Y25682674D01*
X2409798Y25686736D01*
X2292681Y25754763D01*
X2287294Y25756012D01*
X2287293Y25756012D01*
X2166127Y25784097D01*
X2166126Y25784097D01*
X2160738Y25785346D01*
X2081481Y25779734D01*
X2031156Y25776171D01*
X2031155Y25776171D01*
X2025636Y25775780D01*
X1899319Y25726912D01*
X1894972Y25723485D01*
X1797299Y25646486D01*
X1797297Y25646484D01*
X1792955Y25643061D01*
X1789811Y25638512D01*
X1789810Y25638511D01*
X1722445Y25541043D01*
X1715948Y25531642D01*
X1714282Y25526374D01*
X1714281Y25526372D01*
X1676775Y25407778D01*
X1675108Y25402506D01*
X1674618Y25340084D01*
X1674098Y25273905D01*
X1674044Y25267069D01*
X200000Y25267069D01*
X200000Y27117069D01*
X2794044Y27117069D01*
X2832851Y26987308D01*
X2835924Y26982709D01*
X2874962Y26924285D01*
X2908098Y26874693D01*
X3013132Y26789182D01*
X3018261Y26787104D01*
X3018262Y26787104D01*
X3090468Y26757858D01*
X3138666Y26738336D01*
X3198730Y26733134D01*
X3268089Y26727126D01*
X3268092Y26727126D01*
X3273601Y26726649D01*
X3406008Y26755155D01*
X3413308Y26759243D01*
X3519357Y26818633D01*
X3519360Y26818635D01*
X3524179Y26821334D01*
X3592397Y26892845D01*
X3613849Y26915332D01*
X3613851Y26915335D01*
X3617667Y26919335D01*
X3678206Y27040493D01*
X3679113Y27045942D01*
X3679114Y27045945D01*
X3690952Y27117069D01*
X4764044Y27117069D01*
X4802851Y26987308D01*
X4805924Y26982709D01*
X4844962Y26924285D01*
X4878098Y26874693D01*
X4983132Y26789182D01*
X4988261Y26787104D01*
X4988262Y26787104D01*
X5060468Y26757858D01*
X5108666Y26738336D01*
X5168730Y26733134D01*
X5238089Y26727126D01*
X5238092Y26727126D01*
X5243601Y26726649D01*
X5376008Y26755155D01*
X5383308Y26759243D01*
X5489357Y26818633D01*
X5489360Y26818635D01*
X5494179Y26821334D01*
X5562397Y26892845D01*
X5583849Y26915332D01*
X5583851Y26915335D01*
X5587667Y26919335D01*
X5648206Y27040493D01*
X5649113Y27045942D01*
X5649114Y27045945D01*
X5669967Y27171231D01*
X5670444Y27174095D01*
X5670500Y27181250D01*
X5650364Y27315185D01*
X5640658Y27335399D01*
X5607044Y27405399D01*
X5591735Y27437279D01*
X5587982Y27441339D01*
X5587980Y27441342D01*
X5503553Y27532674D01*
X5503552Y27532674D01*
X5499798Y27536736D01*
X5382681Y27604763D01*
X5377294Y27606012D01*
X5377293Y27606012D01*
X5256127Y27634097D01*
X5256126Y27634097D01*
X5250738Y27635346D01*
X5171481Y27629734D01*
X5121156Y27626171D01*
X5121155Y27626171D01*
X5115636Y27625780D01*
X4989319Y27576912D01*
X4969349Y27561169D01*
X4887299Y27496486D01*
X4887297Y27496484D01*
X4882955Y27493061D01*
X4879811Y27488512D01*
X4879810Y27488511D01*
X4830445Y27417086D01*
X4805948Y27381642D01*
X4804282Y27376374D01*
X4804281Y27376372D01*
X4783201Y27309716D01*
X4765108Y27252506D01*
X4764044Y27117069D01*
X3690952Y27117069D01*
X3699967Y27171231D01*
X3700444Y27174095D01*
X3700500Y27181250D01*
X3680364Y27315185D01*
X3670658Y27335399D01*
X3637044Y27405399D01*
X3621735Y27437279D01*
X3617982Y27441339D01*
X3617980Y27441342D01*
X3533553Y27532674D01*
X3533552Y27532674D01*
X3529798Y27536736D01*
X3412681Y27604763D01*
X3407294Y27606012D01*
X3407293Y27606012D01*
X3286127Y27634097D01*
X3286126Y27634097D01*
X3280738Y27635346D01*
X3201481Y27629734D01*
X3151156Y27626171D01*
X3151155Y27626171D01*
X3145636Y27625780D01*
X3019319Y27576912D01*
X2999349Y27561169D01*
X2917299Y27496486D01*
X2917297Y27496484D01*
X2912955Y27493061D01*
X2909811Y27488512D01*
X2909810Y27488511D01*
X2860445Y27417086D01*
X2835948Y27381642D01*
X2834282Y27376374D01*
X2834281Y27376372D01*
X2813201Y27309716D01*
X2795108Y27252506D01*
X2794044Y27117069D01*
X200000Y27117069D01*
X200000Y28065819D01*
X9489044Y28065819D01*
X9527851Y27936058D01*
X9530924Y27931459D01*
X9593315Y27838085D01*
X9603098Y27823443D01*
X9708132Y27737932D01*
X9713261Y27735854D01*
X9713262Y27735854D01*
X9785468Y27706608D01*
X9833666Y27687086D01*
X9893730Y27681884D01*
X9963089Y27675876D01*
X9963092Y27675876D01*
X9968601Y27675399D01*
X10101008Y27703905D01*
X10105835Y27706608D01*
X10214357Y27767383D01*
X10214360Y27767385D01*
X10219179Y27770084D01*
X10228620Y27779981D01*
X10308849Y27864082D01*
X10308851Y27864085D01*
X10312667Y27868085D01*
X10373206Y27989243D01*
X10374113Y27994692D01*
X10374114Y27994695D01*
X10389955Y28089868D01*
X10395444Y28122845D01*
X10395500Y28130000D01*
X10375364Y28263935D01*
X10356830Y28302533D01*
X10345648Y28325819D01*
X11049044Y28325819D01*
X11087851Y28196058D01*
X11090924Y28191459D01*
X11131305Y28131024D01*
X11143336Y28081856D01*
X11130652Y28047839D01*
X11096843Y27998921D01*
X11090948Y27990392D01*
X11089282Y27985124D01*
X11089281Y27985122D01*
X11051775Y27866528D01*
X11050108Y27861256D01*
X11049637Y27801347D01*
X11049123Y27735854D01*
X11049044Y27725819D01*
X11087851Y27596058D01*
X11090924Y27591459D01*
X11159712Y27488511D01*
X11163098Y27483443D01*
X11268132Y27397932D01*
X11273261Y27395854D01*
X11273262Y27395854D01*
X11388538Y27349163D01*
X11393666Y27347086D01*
X11453730Y27341884D01*
X11523089Y27335876D01*
X11523092Y27335876D01*
X11528601Y27335399D01*
X11661008Y27363905D01*
X11665835Y27366608D01*
X11774357Y27427383D01*
X11774360Y27427385D01*
X11779179Y27430084D01*
X11815284Y27467932D01*
X11868849Y27524082D01*
X11868851Y27524085D01*
X11872667Y27528085D01*
X11933206Y27649243D01*
X11934113Y27654692D01*
X11934114Y27654695D01*
X11953320Y27770084D01*
X11955444Y27782845D01*
X11955500Y27790000D01*
X11954626Y27795819D01*
X20109044Y27795819D01*
X20147851Y27666058D01*
X20150924Y27661459D01*
X20211196Y27571256D01*
X20223098Y27553443D01*
X20328132Y27467932D01*
X20453666Y27417086D01*
X20513730Y27411884D01*
X20583089Y27405876D01*
X20583092Y27405876D01*
X20588601Y27405399D01*
X20703260Y27430084D01*
X20715597Y27432740D01*
X20721008Y27433905D01*
X20734288Y27441342D01*
X20834357Y27497383D01*
X20834360Y27497385D01*
X20839179Y27500084D01*
X20865891Y27528085D01*
X20928849Y27594082D01*
X20928851Y27594085D01*
X20932667Y27598085D01*
X20993206Y27719243D01*
X20994113Y27724692D01*
X20994114Y27724695D01*
X21014967Y27849981D01*
X21015444Y27852845D01*
X21015500Y27860000D01*
X21014285Y27868085D01*
X20996186Y27988466D01*
X20995364Y27993935D01*
X20975252Y28035819D01*
X20939129Y28111043D01*
X20936735Y28116029D01*
X20932982Y28120089D01*
X20932980Y28120092D01*
X20848553Y28211424D01*
X20848552Y28211424D01*
X20844798Y28215486D01*
X20727681Y28283513D01*
X20722294Y28284762D01*
X20722293Y28284762D01*
X20601127Y28312847D01*
X20601126Y28312847D01*
X20595738Y28314096D01*
X20516481Y28308484D01*
X20466156Y28304921D01*
X20466155Y28304921D01*
X20460636Y28304530D01*
X20334319Y28255662D01*
X20329972Y28252235D01*
X20232299Y28175236D01*
X20232297Y28175234D01*
X20227955Y28171811D01*
X20224811Y28167262D01*
X20224810Y28167261D01*
X20154699Y28065819D01*
X20150948Y28060392D01*
X20149282Y28055124D01*
X20149281Y28055122D01*
X20118959Y27959243D01*
X20110108Y27931256D01*
X20109580Y27864082D01*
X20109234Y27819950D01*
X20109044Y27795819D01*
X11954626Y27795819D01*
X11954017Y27799868D01*
X11943016Y27873035D01*
X11935364Y27923935D01*
X11931849Y27931256D01*
X11879129Y28041044D01*
X11879128Y28041045D01*
X11876735Y28046029D01*
X11873977Y28049012D01*
X11861715Y28097465D01*
X11873058Y28127890D01*
X11872667Y28128085D01*
X11873624Y28130000D01*
X11933206Y28249243D01*
X11934113Y28254692D01*
X11934114Y28254695D01*
X11954967Y28379981D01*
X11955444Y28382845D01*
X11955500Y28390000D01*
X11954017Y28399868D01*
X11940727Y28488263D01*
X11935364Y28523935D01*
X11912028Y28572533D01*
X11879129Y28641043D01*
X11876735Y28646029D01*
X11872982Y28650089D01*
X11872980Y28650092D01*
X11788553Y28741424D01*
X11788552Y28741424D01*
X11784798Y28745486D01*
X11667681Y28813513D01*
X11662294Y28814762D01*
X11662293Y28814762D01*
X11541127Y28842847D01*
X11541126Y28842847D01*
X11535738Y28844096D01*
X11456481Y28838484D01*
X11406156Y28834921D01*
X11406155Y28834921D01*
X11400636Y28834530D01*
X11274319Y28785662D01*
X11269972Y28782235D01*
X11172299Y28705236D01*
X11172297Y28705234D01*
X11167955Y28701811D01*
X11164811Y28697262D01*
X11164810Y28697261D01*
X11129401Y28646029D01*
X11090948Y28590392D01*
X11089282Y28585124D01*
X11089281Y28585122D01*
X11069393Y28522235D01*
X11050108Y28461256D01*
X11049626Y28399868D01*
X11049116Y28334941D01*
X11049044Y28325819D01*
X10345648Y28325819D01*
X10319129Y28381043D01*
X10316735Y28386029D01*
X10312982Y28390089D01*
X10312980Y28390092D01*
X10228553Y28481424D01*
X10228552Y28481424D01*
X10224798Y28485486D01*
X10107681Y28553513D01*
X10102294Y28554762D01*
X10102293Y28554762D01*
X9981127Y28582847D01*
X9981126Y28582847D01*
X9975738Y28584096D01*
X9896481Y28578484D01*
X9846156Y28574921D01*
X9846155Y28574921D01*
X9840636Y28574530D01*
X9714319Y28525662D01*
X9709972Y28522235D01*
X9612299Y28445236D01*
X9612297Y28445234D01*
X9607955Y28441811D01*
X9604811Y28437262D01*
X9604810Y28437261D01*
X9572146Y28390000D01*
X9530948Y28330392D01*
X9529282Y28325124D01*
X9529281Y28325122D01*
X9491775Y28206528D01*
X9490108Y28201256D01*
X9489841Y28167261D01*
X9489228Y28089209D01*
X9489044Y28065819D01*
X200000Y28065819D01*
X200000Y29805819D01*
X12459044Y29805819D01*
X12497851Y29676058D01*
X12500924Y29671459D01*
X12548760Y29599868D01*
X12573098Y29563443D01*
X12678132Y29477932D01*
X12683261Y29475854D01*
X12683262Y29475854D01*
X12755468Y29446608D01*
X12803666Y29427086D01*
X12863730Y29421884D01*
X12933089Y29415876D01*
X12933092Y29415876D01*
X12938601Y29415399D01*
X13071008Y29443905D01*
X13075835Y29446608D01*
X13127905Y29475769D01*
X13981477Y29475769D01*
X14020284Y29346008D01*
X14023357Y29341409D01*
X14062395Y29282985D01*
X14095531Y29233393D01*
X14200565Y29147882D01*
X14205694Y29145804D01*
X14205695Y29145804D01*
X14320971Y29099113D01*
X14326099Y29097036D01*
X14386163Y29091834D01*
X14455522Y29085826D01*
X14455525Y29085826D01*
X14461034Y29085349D01*
X14593441Y29113855D01*
X14697038Y29171872D01*
X14746998Y29180008D01*
X14779916Y29164693D01*
X14800565Y29147882D01*
X14805694Y29145804D01*
X14805695Y29145804D01*
X14920971Y29099113D01*
X14926099Y29097036D01*
X14986163Y29091834D01*
X15055522Y29085826D01*
X15055525Y29085826D01*
X15061034Y29085349D01*
X15193441Y29113855D01*
X15198268Y29116558D01*
X15306790Y29177333D01*
X15306793Y29177335D01*
X15311612Y29180034D01*
X15315427Y29184033D01*
X15401282Y29274032D01*
X15401284Y29274035D01*
X15405100Y29278035D01*
X15465639Y29399193D01*
X15466546Y29404642D01*
X15466547Y29404645D01*
X15482418Y29500000D01*
X15487877Y29532795D01*
X15487933Y29539950D01*
X15483710Y29568043D01*
X15468619Y29668416D01*
X15467797Y29673885D01*
X15409168Y29795979D01*
X15405415Y29800039D01*
X15405413Y29800042D01*
X15320986Y29891374D01*
X15320985Y29891374D01*
X15317231Y29895436D01*
X15200114Y29963463D01*
X15194727Y29964712D01*
X15194726Y29964712D01*
X15073560Y29992797D01*
X15073559Y29992797D01*
X15068171Y29994046D01*
X14988914Y29988434D01*
X14938589Y29984871D01*
X14938588Y29984871D01*
X14933069Y29984480D01*
X14806752Y29935612D01*
X14778924Y29913674D01*
X14730853Y29897824D01*
X14695945Y29907800D01*
X14653963Y29932185D01*
X14600114Y29963463D01*
X14594727Y29964712D01*
X14594726Y29964712D01*
X14473560Y29992797D01*
X14473559Y29992797D01*
X14468171Y29994046D01*
X14388914Y29988434D01*
X14338589Y29984871D01*
X14338588Y29984871D01*
X14333069Y29984480D01*
X14206752Y29935612D01*
X14202405Y29932185D01*
X14104732Y29855186D01*
X14104730Y29855184D01*
X14100388Y29851761D01*
X14097244Y29847212D01*
X14097243Y29847211D01*
X14061834Y29795979D01*
X14023381Y29740342D01*
X14021715Y29735074D01*
X14021714Y29735072D01*
X13984208Y29616478D01*
X13982541Y29611206D01*
X13982498Y29605676D01*
X13981747Y29510084D01*
X13981477Y29475769D01*
X13127905Y29475769D01*
X13184357Y29507383D01*
X13184360Y29507385D01*
X13189179Y29510084D01*
X13210844Y29532795D01*
X13278849Y29604082D01*
X13278851Y29604085D01*
X13282667Y29608085D01*
X13343206Y29729243D01*
X13344113Y29734692D01*
X13344114Y29734695D01*
X13357499Y29815111D01*
X13365444Y29862845D01*
X13365500Y29870000D01*
X13364320Y29877853D01*
X13348230Y29984871D01*
X13345364Y30003935D01*
X13286735Y30126029D01*
X13282982Y30130089D01*
X13282980Y30130092D01*
X13198553Y30221424D01*
X13198552Y30221424D01*
X13194798Y30225486D01*
X13077681Y30293513D01*
X13072294Y30294762D01*
X13072293Y30294762D01*
X12951127Y30322847D01*
X12951126Y30322847D01*
X12945738Y30324096D01*
X12866481Y30318484D01*
X12816156Y30314921D01*
X12816155Y30314921D01*
X12810636Y30314530D01*
X12684319Y30265662D01*
X12679972Y30262235D01*
X12582299Y30185236D01*
X12582297Y30185234D01*
X12577955Y30181811D01*
X12574811Y30177262D01*
X12574810Y30177261D01*
X12541049Y30128413D01*
X12500948Y30070392D01*
X12499282Y30065124D01*
X12499281Y30065122D01*
X12461775Y29946528D01*
X12460108Y29941256D01*
X12459845Y29907800D01*
X12459280Y29835819D01*
X12459044Y29805819D01*
X200000Y29805819D01*
X200000Y33007976D01*
X3799044Y33007976D01*
X3837851Y32878215D01*
X3840924Y32873616D01*
X3879962Y32815192D01*
X3913098Y32765600D01*
X4018132Y32680089D01*
X4023261Y32678011D01*
X4023262Y32678011D01*
X4115972Y32640460D01*
X4153559Y32606557D01*
X4160561Y32556425D01*
X4133699Y32513521D01*
X4114893Y32502859D01*
X4024319Y32467819D01*
X4019972Y32464392D01*
X3922299Y32387393D01*
X3922297Y32387391D01*
X3917955Y32383968D01*
X3914811Y32379419D01*
X3914810Y32379418D01*
X3879401Y32328186D01*
X3840948Y32272549D01*
X3839282Y32267281D01*
X3839281Y32267279D01*
X3801775Y32148685D01*
X3800108Y32143413D01*
X3799044Y32007976D01*
X3837851Y31878215D01*
X3840924Y31873616D01*
X3909319Y31771256D01*
X3913098Y31765600D01*
X4018132Y31680089D01*
X4103344Y31645575D01*
X4140931Y31611672D01*
X4147933Y31561540D01*
X4121071Y31518636D01*
X4102263Y31507973D01*
X4024319Y31477819D01*
X4019972Y31474392D01*
X3922299Y31397393D01*
X3922297Y31397391D01*
X3917955Y31393968D01*
X3914811Y31389419D01*
X3914810Y31389418D01*
X3862123Y31313186D01*
X3840948Y31282549D01*
X3839282Y31277281D01*
X3839281Y31277279D01*
X3812024Y31191092D01*
X3800108Y31153413D01*
X3799955Y31133935D01*
X3799296Y31050002D01*
X3799044Y31017976D01*
X3837851Y30888215D01*
X3840924Y30883616D01*
X3896883Y30799868D01*
X3913098Y30775600D01*
X4018132Y30690089D01*
X4023261Y30688011D01*
X4023262Y30688011D01*
X4095468Y30658765D01*
X4143666Y30639243D01*
X4203730Y30634041D01*
X4273089Y30628033D01*
X4273092Y30628033D01*
X4278601Y30627556D01*
X4411008Y30656062D01*
X4427127Y30665089D01*
X4524357Y30719540D01*
X4524360Y30719542D01*
X4529179Y30722241D01*
X4540475Y30734082D01*
X4618849Y30816239D01*
X4618851Y30816242D01*
X4622667Y30820242D01*
X4680417Y30935819D01*
X13839044Y30935819D01*
X13877851Y30806058D01*
X13880924Y30801459D01*
X13948455Y30700392D01*
X13953098Y30693443D01*
X14058132Y30607932D01*
X14063261Y30605854D01*
X14063262Y30605854D01*
X14178538Y30559163D01*
X14183666Y30557086D01*
X14243730Y30551884D01*
X14313089Y30545876D01*
X14313092Y30545876D01*
X14318601Y30545399D01*
X14451008Y30573905D01*
X14455835Y30576608D01*
X14564357Y30637383D01*
X14564360Y30637385D01*
X14569179Y30640084D01*
X14616749Y30689950D01*
X14658849Y30734082D01*
X14658851Y30734085D01*
X14662667Y30738085D01*
X14723206Y30859243D01*
X14724113Y30864692D01*
X14724114Y30864695D01*
X14744967Y30989981D01*
X14745444Y30992845D01*
X14745500Y31000000D01*
X14742798Y31017976D01*
X14733788Y31077905D01*
X14725364Y31133935D01*
X14666735Y31256029D01*
X14662982Y31260089D01*
X14662980Y31260092D01*
X14578553Y31351424D01*
X14578552Y31351424D01*
X14574798Y31355486D01*
X14457681Y31423513D01*
X14452294Y31424762D01*
X14452293Y31424762D01*
X14331127Y31452847D01*
X14331126Y31452847D01*
X14325738Y31454096D01*
X14246481Y31448484D01*
X14196156Y31444921D01*
X14196155Y31444921D01*
X14190636Y31444530D01*
X14064319Y31395662D01*
X14059972Y31392235D01*
X13962299Y31315236D01*
X13962297Y31315234D01*
X13957955Y31311811D01*
X13954811Y31307262D01*
X13954810Y31307261D01*
X13904131Y31233935D01*
X13880948Y31200392D01*
X13879282Y31195124D01*
X13879281Y31195122D01*
X13841775Y31076528D01*
X13840108Y31071256D01*
X13839648Y31012678D01*
X13839088Y30941400D01*
X13839044Y30935819D01*
X4680417Y30935819D01*
X4683206Y30941400D01*
X4684113Y30946849D01*
X4684114Y30946852D01*
X4704967Y31072138D01*
X4705444Y31075002D01*
X4705500Y31082157D01*
X4702818Y31100000D01*
X4692105Y31171256D01*
X4685364Y31216092D01*
X4666187Y31256029D01*
X4629129Y31333200D01*
X4626735Y31338186D01*
X4622982Y31342246D01*
X4622980Y31342249D01*
X4538553Y31433581D01*
X4538552Y31433581D01*
X4534798Y31437643D01*
X4417681Y31505670D01*
X4412295Y31506918D01*
X4408556Y31508399D01*
X4370704Y31542006D01*
X4363310Y31592082D01*
X4389834Y31635196D01*
X4407774Y31645366D01*
X4411008Y31646062D01*
X4478007Y31683583D01*
X4524357Y31709540D01*
X4524360Y31709542D01*
X4529179Y31712241D01*
X4584469Y31770200D01*
X4618849Y31806239D01*
X4618851Y31806242D01*
X4622667Y31810242D01*
X4683206Y31931400D01*
X4684113Y31936849D01*
X4684114Y31936852D01*
X4704967Y32062138D01*
X4705444Y32065002D01*
X4705500Y32072157D01*
X4685364Y32206092D01*
X4626735Y32328186D01*
X4622982Y32332246D01*
X4622980Y32332249D01*
X4538553Y32423581D01*
X4538552Y32423581D01*
X4534798Y32427643D01*
X4417681Y32495670D01*
X4400586Y32499632D01*
X4358159Y32527238D01*
X4343402Y32575659D01*
X4363221Y32622236D01*
X4401722Y32644063D01*
X4411008Y32646062D01*
X4415835Y32648765D01*
X4524357Y32709540D01*
X4524360Y32709542D01*
X4529179Y32712241D01*
X4532994Y32716240D01*
X4618849Y32806239D01*
X4618851Y32806242D01*
X4622667Y32810242D01*
X4683206Y32931400D01*
X4684113Y32936849D01*
X4684114Y32936852D01*
X4704967Y33062138D01*
X4705444Y33065002D01*
X4705500Y33072157D01*
X4685364Y33206092D01*
X4626735Y33328186D01*
X4622982Y33332246D01*
X4622980Y33332249D01*
X4538553Y33423581D01*
X4538552Y33423581D01*
X4534798Y33427643D01*
X4417681Y33495670D01*
X4412294Y33496919D01*
X4412293Y33496919D01*
X4291127Y33525004D01*
X4291126Y33525004D01*
X4285738Y33526253D01*
X4206481Y33520641D01*
X4156156Y33517078D01*
X4156155Y33517078D01*
X4150636Y33516687D01*
X4024319Y33467819D01*
X4019972Y33464392D01*
X3922299Y33387393D01*
X3922297Y33387391D01*
X3917955Y33383968D01*
X3914811Y33379419D01*
X3914810Y33379418D01*
X3879401Y33328186D01*
X3840948Y33272549D01*
X3839282Y33267281D01*
X3839281Y33267279D01*
X3818201Y33200623D01*
X3800108Y33143413D01*
X3799044Y33007976D01*
X200000Y33007976D01*
X200000Y40135819D01*
X3399044Y40135819D01*
X3437851Y40006058D01*
X3440924Y40001459D01*
X3468565Y39960092D01*
X3513098Y39893443D01*
X3618132Y39807932D01*
X3623261Y39805854D01*
X3623262Y39805854D01*
X3738535Y39759164D01*
X3738537Y39759164D01*
X3743666Y39757086D01*
X3744437Y39757019D01*
X3784921Y39730224D01*
X3799435Y39685625D01*
X3799044Y39635819D01*
X3837851Y39506058D01*
X3840924Y39501459D01*
X3879962Y39443035D01*
X3913098Y39393443D01*
X4018132Y39307932D01*
X4143666Y39257086D01*
X4203730Y39251884D01*
X4273089Y39245876D01*
X4273092Y39245876D01*
X4278601Y39245399D01*
X4411008Y39273905D01*
X4415835Y39276608D01*
X4524357Y39337383D01*
X4524360Y39337385D01*
X4529179Y39340084D01*
X4584469Y39398043D01*
X4618849Y39434082D01*
X4618851Y39434085D01*
X4622667Y39438085D01*
X4683206Y39559243D01*
X4684113Y39564692D01*
X4684114Y39564695D01*
X4704967Y39689981D01*
X4705444Y39692845D01*
X4705500Y39700000D01*
X4685364Y39833935D01*
X4626735Y39956029D01*
X4622982Y39960089D01*
X4622980Y39960092D01*
X4538553Y40051424D01*
X4538552Y40051424D01*
X4534798Y40055486D01*
X4417681Y40123513D01*
X4400587Y40127475D01*
X4358159Y40155081D01*
X4343402Y40203502D01*
X4363221Y40250079D01*
X4401722Y40271906D01*
X4411008Y40273905D01*
X4415835Y40276608D01*
X4524357Y40337383D01*
X4524360Y40337385D01*
X4529179Y40340084D01*
X4532994Y40344083D01*
X4618849Y40434082D01*
X4618851Y40434085D01*
X4622667Y40438085D01*
X4683206Y40559243D01*
X4684113Y40564692D01*
X4684114Y40564695D01*
X4704967Y40689981D01*
X4705444Y40692845D01*
X4705500Y40700000D01*
X4685364Y40833935D01*
X4626735Y40956029D01*
X4622982Y40960089D01*
X4622980Y40960092D01*
X4538553Y41051424D01*
X4538552Y41051424D01*
X4534798Y41055486D01*
X4417681Y41123513D01*
X4412294Y41124762D01*
X4412293Y41124762D01*
X4291127Y41152847D01*
X4291126Y41152847D01*
X4285738Y41154096D01*
X4206481Y41148484D01*
X4156156Y41144921D01*
X4156155Y41144921D01*
X4150636Y41144530D01*
X4024319Y41095662D01*
X4019972Y41092235D01*
X3922299Y41015236D01*
X3922297Y41015234D01*
X3917955Y41011811D01*
X3914811Y41007262D01*
X3914810Y41007261D01*
X3879401Y40956029D01*
X3840948Y40900392D01*
X3839282Y40895124D01*
X3839281Y40895122D01*
X3818201Y40828466D01*
X3800108Y40771256D01*
X3800065Y40765727D01*
X3799653Y40713348D01*
X3781967Y40665919D01*
X3749848Y40646566D01*
X3750636Y40644530D01*
X3624319Y40595662D01*
X3619972Y40592235D01*
X3522299Y40515236D01*
X3522297Y40515234D01*
X3517955Y40511811D01*
X3514811Y40507262D01*
X3514810Y40507261D01*
X3466999Y40438085D01*
X3440948Y40400392D01*
X3439282Y40395124D01*
X3439281Y40395122D01*
X3401775Y40276528D01*
X3400108Y40271256D01*
X3399044Y40135819D01*
X200000Y40135819D01*
X200000Y46895074D01*
X596790Y46895074D01*
X629601Y46590561D01*
X660393Y46461811D01*
X698920Y46300716D01*
X700840Y46292686D01*
X701675Y46290482D01*
X807240Y46011847D01*
X809350Y46006277D01*
X953374Y45735978D01*
X1130575Y45486170D01*
X1338082Y45260903D01*
X1572531Y45063828D01*
X1830120Y44898141D01*
X2106675Y44766527D01*
X2397711Y44671121D01*
X2400030Y44670677D01*
X2400032Y44670676D01*
X2507691Y44650042D01*
X2698511Y44613468D01*
X2700852Y44613323D01*
X2700858Y44613322D01*
X3001845Y44594650D01*
X3004198Y44594504D01*
X3051153Y44597582D01*
X3307472Y44614381D01*
X3307476Y44614381D01*
X3309818Y44614535D01*
X3312122Y44614985D01*
X3312130Y44614986D01*
X3608097Y44672784D01*
X3608102Y44672785D01*
X3610415Y44673237D01*
X3901116Y44769659D01*
X3903228Y44770673D01*
X3903235Y44770676D01*
X4166565Y44897126D01*
X4177209Y44902237D01*
X4179185Y44903518D01*
X4179189Y44903520D01*
X4417358Y45057894D01*
X4434219Y45068823D01*
X4667978Y45266714D01*
X4874697Y45492705D01*
X5045990Y45735978D01*
X5049670Y45741204D01*
X5049671Y45741205D01*
X5051026Y45743130D01*
X5092305Y45821256D01*
X5160534Y45950392D01*
X5194105Y46013930D01*
X5228428Y46105486D01*
X5300788Y46298510D01*
X5301615Y46300716D01*
X5371813Y46598838D01*
X5403562Y46903463D01*
X5405500Y47000000D01*
X5393940Y47181213D01*
X5386152Y47303310D01*
X5386151Y47303317D01*
X5386002Y47305654D01*
X5327824Y47606353D01*
X5283965Y47739360D01*
X5232649Y47894982D01*
X5232647Y47894987D01*
X5231910Y47897222D01*
X5099814Y48173546D01*
X4933678Y48430846D01*
X4932158Y48432648D01*
X4875342Y48500000D01*
X8000001Y48500000D01*
X8000001Y33500000D01*
X8500001Y33000000D01*
X21659870Y33000000D01*
X21674306Y32998578D01*
X21706593Y32992156D01*
X21729258Y32987648D01*
X21755933Y32976599D01*
X21802519Y32945471D01*
X21813733Y32936268D01*
X21936269Y32813732D01*
X21945472Y32802518D01*
X21976600Y32755932D01*
X21987649Y32729256D01*
X21998579Y32674305D01*
X22000001Y32659869D01*
X22000001Y31300000D01*
X22150001Y31150000D01*
X22350001Y31150000D01*
X22517239Y31317238D01*
X22534680Y31330173D01*
X22557690Y31342473D01*
X22599832Y31350855D01*
X22614384Y31349421D01*
X22654070Y31332982D01*
X22665371Y31323708D01*
X22689241Y31287985D01*
X22696815Y31263016D01*
X22700001Y31241536D01*
X22700001Y30800000D01*
X22700000Y30300000D01*
X22700000Y29408464D01*
X22696814Y29386984D01*
X22689240Y29362015D01*
X22665370Y29326292D01*
X22657492Y29319827D01*
X22654069Y29317018D01*
X22614383Y29300579D01*
X22599831Y29299145D01*
X22557689Y29307527D01*
X22534679Y29319827D01*
X22517238Y29332762D01*
X22350000Y29500000D01*
X22150000Y29500000D01*
X22000000Y29350000D01*
X22000000Y25400000D01*
X22150000Y25250000D01*
X22350000Y25250000D01*
X22541813Y25441813D01*
X22553027Y25451016D01*
X22593471Y25478040D01*
X22620145Y25489088D01*
X22652985Y25495621D01*
X22695737Y25491410D01*
X22699717Y25489762D01*
X22737035Y25455564D01*
X22739764Y25449712D01*
X22744368Y25438596D01*
X22750000Y25410280D01*
X22750000Y21089720D01*
X22744368Y21061404D01*
X22739764Y21050288D01*
X22705567Y21012966D01*
X22699730Y21010243D01*
X22695737Y21008590D01*
X22652985Y21004379D01*
X22620145Y21010912D01*
X22593471Y21021960D01*
X22553027Y21048984D01*
X22541813Y21058187D01*
X22350000Y21250000D01*
X22150000Y21250000D01*
X22000000Y21100000D01*
X22000000Y20340131D01*
X21998578Y20325695D01*
X21987648Y20270744D01*
X21976599Y20244068D01*
X21945471Y20197482D01*
X21936268Y20186268D01*
X21813732Y20063732D01*
X21802518Y20054529D01*
X21755932Y20023401D01*
X21729257Y20012352D01*
X21706592Y20007844D01*
X21674305Y20001422D01*
X21659869Y20000000D01*
X20750000Y20000000D01*
X20250000Y19500000D01*
X20250000Y15909136D01*
X20232687Y15861570D01*
X20188850Y15836260D01*
X20159292Y15837047D01*
X20085738Y15854096D01*
X20006481Y15848484D01*
X19956156Y15844921D01*
X19956155Y15844921D01*
X19950636Y15844530D01*
X19824319Y15795662D01*
X19819972Y15792235D01*
X19722299Y15715236D01*
X19722297Y15715234D01*
X19717955Y15711811D01*
X19714811Y15707262D01*
X19714810Y15707261D01*
X19709245Y15699209D01*
X19640948Y15600392D01*
X19639282Y15595124D01*
X19639281Y15595122D01*
X19604664Y15485662D01*
X19600108Y15471256D01*
X19599906Y15445486D01*
X19599199Y15355486D01*
X19599044Y15335819D01*
X19637851Y15206058D01*
X19640924Y15201459D01*
X19681305Y15141024D01*
X19693336Y15091856D01*
X19680652Y15057839D01*
X19658522Y15025819D01*
X19640948Y15000392D01*
X19639282Y14995124D01*
X19639281Y14995122D01*
X19606497Y14891459D01*
X19600108Y14871256D01*
X19599596Y14806058D01*
X19599188Y14754096D01*
X19599044Y14735819D01*
X19637851Y14606058D01*
X19640924Y14601459D01*
X19708455Y14500392D01*
X19713098Y14493443D01*
X19818132Y14407932D01*
X19823261Y14405854D01*
X19823262Y14405854D01*
X19929028Y14363015D01*
X19943666Y14357086D01*
X20003730Y14351884D01*
X20073089Y14345876D01*
X20073092Y14345876D01*
X20078601Y14345399D01*
X20160425Y14363015D01*
X20210570Y14356102D01*
X20244539Y14318573D01*
X20250000Y14290673D01*
X20250000Y13500000D01*
X20750000Y13000000D01*
X24557807Y13000000D01*
X24605373Y12982687D01*
X24630683Y12938850D01*
X24621893Y12889000D01*
X24618682Y12883926D01*
X24602207Y12860088D01*
X24560948Y12800392D01*
X24559282Y12795124D01*
X24559281Y12795122D01*
X24521775Y12676528D01*
X24520108Y12671256D01*
X24519044Y12535819D01*
X24557851Y12406058D01*
X24560924Y12401459D01*
X24613053Y12323443D01*
X24633098Y12293443D01*
X24738132Y12207932D01*
X24863666Y12157086D01*
X24923730Y12151884D01*
X24993089Y12145876D01*
X24993092Y12145876D01*
X24998601Y12145399D01*
X25131008Y12173905D01*
X25135835Y12176608D01*
X25244357Y12237383D01*
X25244360Y12237385D01*
X25249179Y12240084D01*
X25252994Y12244083D01*
X25338849Y12334082D01*
X25338851Y12334085D01*
X25342667Y12338085D01*
X25403206Y12459243D01*
X25404113Y12464692D01*
X25404114Y12464695D01*
X25424967Y12589981D01*
X25425444Y12592845D01*
X25425500Y12600000D01*
X25405364Y12733935D01*
X25392808Y12760084D01*
X25371267Y12804941D01*
X25346735Y12856029D01*
X25328487Y12875770D01*
X25308913Y12922451D01*
X25323924Y12970793D01*
X25366497Y12998176D01*
X25382828Y13000000D01*
X25659869Y13000000D01*
X25674305Y12998578D01*
X25689926Y12995471D01*
X25733201Y12969212D01*
X25749488Y12922312D01*
X25749044Y12865819D01*
X25750628Y12860524D01*
X25750628Y12860521D01*
X25753463Y12851043D01*
X25787851Y12736058D01*
X25790924Y12731459D01*
X25837447Y12661833D01*
X25863098Y12623443D01*
X25956184Y12547659D01*
X25968132Y12537932D01*
X25967380Y12537008D01*
X25995797Y12502416D01*
X26000000Y12477832D01*
X26000000Y1500000D01*
X26500000Y1000000D01*
X35650019Y1000000D01*
X35690050Y988237D01*
X35830120Y898141D01*
X36106675Y766527D01*
X36397711Y671121D01*
X36400030Y670677D01*
X36400032Y670676D01*
X36507691Y650042D01*
X36698511Y613468D01*
X36700852Y613323D01*
X36700858Y613322D01*
X36983272Y595802D01*
X36994930Y595079D01*
X37001845Y594650D01*
X37004198Y594504D01*
X37099572Y600755D01*
X37307472Y614381D01*
X37307476Y614381D01*
X37309818Y614535D01*
X37312122Y614985D01*
X37312130Y614986D01*
X37608097Y672784D01*
X37608102Y672785D01*
X37610415Y673237D01*
X37901116Y769659D01*
X37903228Y770673D01*
X37903235Y770676D01*
X38063932Y847842D01*
X38177209Y902237D01*
X38179185Y903518D01*
X38179189Y903520D01*
X38417358Y1057894D01*
X38434219Y1068823D01*
X38436023Y1070350D01*
X38666171Y1265184D01*
X38666173Y1265186D01*
X38667978Y1266714D01*
X38874697Y1492705D01*
X39003492Y1675622D01*
X39049670Y1741204D01*
X39049671Y1741205D01*
X39051026Y1743130D01*
X39056547Y1753578D01*
X39132443Y1897225D01*
X39194105Y2013930D01*
X39234537Y2121782D01*
X39300788Y2298510D01*
X39301615Y2300716D01*
X39371813Y2598838D01*
X39403562Y2903463D01*
X39405500Y3000000D01*
X39401804Y3057932D01*
X39386152Y3303310D01*
X39386151Y3303317D01*
X39386002Y3305654D01*
X39344288Y3521256D01*
X39328271Y3604044D01*
X39328270Y3604048D01*
X39327824Y3606353D01*
X39261790Y3806609D01*
X39232649Y3894982D01*
X39232647Y3894987D01*
X39231910Y3897222D01*
X39099814Y4173546D01*
X39095310Y4180521D01*
X39011834Y4309804D01*
X39000001Y4349944D01*
X39000001Y45647225D01*
X39013495Y45689828D01*
X39049670Y45741204D01*
X39049671Y45741205D01*
X39051026Y45743130D01*
X39092305Y45821256D01*
X39160534Y45950392D01*
X39194105Y46013930D01*
X39228428Y46105486D01*
X39300788Y46298510D01*
X39301615Y46300716D01*
X39371813Y46598838D01*
X39403562Y46903463D01*
X39405500Y47000000D01*
X39393940Y47181213D01*
X39386152Y47303310D01*
X39386151Y47303317D01*
X39386002Y47305654D01*
X39327824Y47606353D01*
X39283965Y47739360D01*
X39232649Y47894982D01*
X39232647Y47894987D01*
X39231910Y47897222D01*
X39099814Y48173546D01*
X38933678Y48430846D01*
X38932158Y48432648D01*
X38737716Y48663146D01*
X38737714Y48663148D01*
X38736194Y48664950D01*
X38734461Y48666541D01*
X38734455Y48666547D01*
X38586101Y48802726D01*
X38510565Y48872064D01*
X38341002Y48991899D01*
X38262364Y49047475D01*
X38262363Y49047476D01*
X38260448Y49048829D01*
X38258375Y49049929D01*
X38258370Y49049932D01*
X37991975Y49191279D01*
X37991974Y49191279D01*
X37989898Y49192381D01*
X37911781Y49221821D01*
X37705504Y49299561D01*
X37705495Y49299564D01*
X37703300Y49300391D01*
X37701006Y49300935D01*
X37701004Y49300936D01*
X37637409Y49316028D01*
X37405301Y49371110D01*
X37209190Y49391895D01*
X37103073Y49403142D01*
X37103071Y49403142D01*
X37100732Y49403390D01*
X37098382Y49403339D01*
X37098375Y49403339D01*
X36951385Y49400131D01*
X36794530Y49396709D01*
X36491658Y49351174D01*
X36489389Y49350530D01*
X36489390Y49350530D01*
X36199298Y49268169D01*
X36199291Y49268166D01*
X36197028Y49267524D01*
X35915414Y49147115D01*
X35913377Y49145918D01*
X35913374Y49145916D01*
X35682526Y49010207D01*
X35645024Y49000000D01*
X8500001Y49000000D01*
X8000001Y48500000D01*
X4875342Y48500000D01*
X4737716Y48663146D01*
X4737714Y48663148D01*
X4736194Y48664950D01*
X4734461Y48666541D01*
X4734455Y48666547D01*
X4586101Y48802726D01*
X4510565Y48872064D01*
X4341002Y48991899D01*
X4262364Y49047475D01*
X4262363Y49047476D01*
X4260448Y49048829D01*
X4258375Y49049929D01*
X4258370Y49049932D01*
X3991975Y49191279D01*
X3991974Y49191279D01*
X3989898Y49192381D01*
X3911781Y49221821D01*
X3705504Y49299561D01*
X3705495Y49299564D01*
X3703300Y49300391D01*
X3701006Y49300935D01*
X3701004Y49300936D01*
X3637409Y49316028D01*
X3405301Y49371110D01*
X3209190Y49391895D01*
X3103073Y49403142D01*
X3103071Y49403142D01*
X3100732Y49403390D01*
X3098382Y49403339D01*
X3098375Y49403339D01*
X2951385Y49400131D01*
X2794530Y49396709D01*
X2491658Y49351174D01*
X2489389Y49350530D01*
X2489390Y49350530D01*
X2199298Y49268169D01*
X2199291Y49268166D01*
X2197028Y49267524D01*
X1915414Y49147115D01*
X1913377Y49145918D01*
X1913374Y49145916D01*
X1844437Y49105390D01*
X1651383Y48991899D01*
X1409214Y48804392D01*
X1192834Y48587634D01*
X1191400Y48585775D01*
X1191398Y48585773D01*
X1007189Y48347005D01*
X1007185Y48346999D01*
X1005750Y48345139D01*
X850995Y48080837D01*
X731078Y47799014D01*
X647942Y47504237D01*
X602936Y47201287D01*
X601062Y47107917D01*
X596990Y46905021D01*
X596790Y46895074D01*
X200000Y46895074D01*
X200000Y46947059D01*
X202108Y46964594D01*
X203699Y46971117D01*
X203700Y46971125D01*
X204690Y46975184D01*
X206443Y47107917D01*
X206553Y47111076D01*
X210894Y47188375D01*
X211243Y47192511D01*
X238327Y47432892D01*
X238902Y47436968D01*
X249531Y47499523D01*
X250326Y47503520D01*
X304155Y47739360D01*
X305192Y47743377D01*
X320566Y47796741D01*
X322746Y47804307D01*
X323998Y47808237D01*
X403900Y48036580D01*
X405363Y48040413D01*
X429632Y48099002D01*
X431313Y48102760D01*
X536273Y48320713D01*
X538156Y48324358D01*
X568846Y48379886D01*
X570955Y48383461D01*
X699630Y48588245D01*
X701936Y48591696D01*
X738636Y48643419D01*
X741132Y48646735D01*
X891923Y48835820D01*
X894601Y48838992D01*
X936837Y48886254D01*
X939688Y48889270D01*
X1110728Y49060310D01*
X1113745Y49063162D01*
X1160999Y49105390D01*
X1164170Y49108067D01*
X1353299Y49258893D01*
X1356597Y49261376D01*
X1408304Y49298064D01*
X1411748Y49300365D01*
X1616562Y49429058D01*
X1620136Y49431166D01*
X1640562Y49442455D01*
X1675631Y49461837D01*
X1679304Y49463735D01*
X1679310Y49463738D01*
X1897229Y49568682D01*
X1900994Y49570367D01*
X1959593Y49594639D01*
X1963459Y49596115D01*
X2191755Y49676000D01*
X2195676Y49677249D01*
X2256629Y49694810D01*
X2260634Y49695843D01*
X2378547Y49722757D01*
X2496454Y49749668D01*
X2500525Y49750477D01*
X2563017Y49761095D01*
X2567128Y49761676D01*
X2807487Y49788757D01*
X2811622Y49789106D01*
X2855358Y49791562D01*
X2888928Y49793448D01*
X2892069Y49793557D01*
X2972890Y49794624D01*
X3020476Y49795253D01*
X3020478Y49795253D01*
X3024625Y49795308D01*
X3028656Y49796284D01*
X3028658Y49796284D01*
X3031340Y49796933D01*
X3035430Y49797923D01*
X3052837Y49800000D01*
X36947059Y49800000D01*
X36964594Y49797892D01*
G37*
G04 #@! TD.AperFunction*
G04 #@! TD*
G04 #@! TA.AperFunction,Conductor*
G04 #@! TO.N,GND*
G36*
X11057148Y19198578D02*
G01*
X11077097Y19194610D01*
X11112102Y19187647D01*
X11138773Y19176600D01*
X11179184Y19149598D01*
X11199597Y19129185D01*
X11226600Y19088773D01*
X11237648Y19062100D01*
X11248578Y19007148D01*
X11250000Y18992712D01*
X11250000Y17107288D01*
X11248578Y17092852D01*
X11237648Y17037900D01*
X11226600Y17011227D01*
X11199598Y16970816D01*
X11179185Y16950403D01*
X11138773Y16923400D01*
X11112102Y16912353D01*
X11077097Y16905390D01*
X11057148Y16901422D01*
X11042712Y16900000D01*
X7857288Y16900000D01*
X7842852Y16901422D01*
X7822903Y16905390D01*
X7787898Y16912353D01*
X7761227Y16923400D01*
X7720815Y16950403D01*
X7700402Y16970816D01*
X7673400Y17011227D01*
X7662352Y17037900D01*
X7651422Y17092852D01*
X7650000Y17107288D01*
X7650000Y18992712D01*
X7651422Y19007148D01*
X7662352Y19062100D01*
X7673400Y19088773D01*
X7700403Y19129185D01*
X7720816Y19149598D01*
X7761227Y19176600D01*
X7787898Y19187647D01*
X7822903Y19194610D01*
X7842852Y19198578D01*
X7857288Y19200000D01*
X11042712Y19200000D01*
X11057148Y19198578D01*
G37*
G04 #@! TD.AperFunction*
G04 #@! TD*
G04 #@! TA.AperFunction,Conductor*
G04 #@! TO.N,GND*
G36*
X15407148Y19198578D02*
G01*
X15427097Y19194610D01*
X15462102Y19187647D01*
X15488773Y19176600D01*
X15529184Y19149598D01*
X15549597Y19129185D01*
X15576600Y19088773D01*
X15587648Y19062100D01*
X15598578Y19007148D01*
X15600000Y18992712D01*
X15600000Y17107288D01*
X15598578Y17092852D01*
X15587648Y17037900D01*
X15576600Y17011227D01*
X15549598Y16970816D01*
X15529185Y16950403D01*
X15488773Y16923400D01*
X15462102Y16912353D01*
X15427097Y16905390D01*
X15407148Y16901422D01*
X15392712Y16900000D01*
X12207288Y16900000D01*
X12192852Y16901422D01*
X12172903Y16905390D01*
X12137898Y16912353D01*
X12111227Y16923400D01*
X12070815Y16950403D01*
X12050402Y16970816D01*
X12023400Y17011227D01*
X12012352Y17037900D01*
X12001422Y17092852D01*
X12000000Y17107288D01*
X12000000Y18992712D01*
X12001422Y19007148D01*
X12012352Y19062100D01*
X12023400Y19088773D01*
X12050403Y19129185D01*
X12070816Y19149598D01*
X12111227Y19176600D01*
X12137898Y19187647D01*
X12172903Y19194610D01*
X12192852Y19198578D01*
X12207288Y19200000D01*
X15392712Y19200000D01*
X15407148Y19198578D01*
G37*
G04 #@! TD.AperFunction*
G04 #@! TD*
M02*
