G04 #@! TF.GenerationSoftware,KiCad,Pcbnew,(5.99.0-7554-g937713dbbc)*
G04 #@! TF.CreationDate,2020-12-16T08:12:25+03:00*
G04 #@! TF.ProjectId,BioniX,42696f6e-6958-42e6-9b69-6361645f7063,rev?*
G04 #@! TF.SameCoordinates,PX6422c40PY5a995c0*
G04 #@! TF.FileFunction,Soldermask,Bot*
G04 #@! TF.FilePolarity,Negative*
%FSLAX46Y46*%
G04 Gerber Fmt 4.6, Leading zero omitted, Abs format (unit mm)*
G04 Created by KiCad (PCBNEW (5.99.0-7554-g937713dbbc)) date 2020-12-16 08:12:25*
%MOMM*%
%LPD*%
G01*
G04 APERTURE LIST*
%ADD10C,0.650000*%
%ADD11O,1.000000X2.100000*%
%ADD12O,1.000000X1.600000*%
%ADD13C,0.700000*%
%ADD14C,4.400000*%
G04 APERTURE END LIST*
D10*
G04 #@! TO.C,J1*
X17110000Y6250000D03*
X22890000Y6250000D03*
D11*
X15680000Y6780000D03*
X24320000Y6780000D03*
D12*
X15680000Y2600000D03*
X24320000Y2600000D03*
G04 #@! TD*
D13*
G04 #@! TO.C,H4*
X38650000Y47000000D03*
X38166726Y48166726D03*
X35833274Y45833274D03*
X37000000Y45350000D03*
X38166726Y45833274D03*
D14*
X37000000Y47000000D03*
D13*
X35350000Y47000000D03*
X35833274Y48166726D03*
X37000000Y48650000D03*
G04 #@! TD*
G04 #@! TO.C,H1*
X4650000Y3000000D03*
X3000000Y1350000D03*
X3000000Y4650000D03*
D14*
X3000000Y3000000D03*
D13*
X4166726Y4166726D03*
X4166726Y1833274D03*
X1833274Y1833274D03*
X1350000Y3000000D03*
X1833274Y4166726D03*
G04 #@! TD*
G04 #@! TO.C,H2*
X35833274Y4166726D03*
X35350000Y3000000D03*
X35833274Y1833274D03*
X38166726Y1833274D03*
X38166726Y4166726D03*
X38650000Y3000000D03*
X37000000Y1350000D03*
X37000000Y4650000D03*
D14*
X37000000Y3000000D03*
G04 #@! TD*
D13*
G04 #@! TO.C,H3*
X1350000Y47000000D03*
X4166726Y45833274D03*
X4166726Y48166726D03*
X3000000Y45350000D03*
X3000000Y48650000D03*
X1833274Y45833274D03*
X1833274Y48166726D03*
X4650000Y47000000D03*
D14*
X3000000Y47000000D03*
G04 #@! TD*
M02*
