M48
; DRILL file {KiCad (5.99.0-7554-g937713dbbc)} date Wednesday, December 16, 2020 at 08:12:27 AM
; FORMAT={-:-/ absolute / metric / decimal}
; #@! TF.CreationDate,2020-12-16T08:12:27+03:00
; #@! TF.GenerationSoftware,Kicad,Pcbnew,(5.99.0-7554-g937713dbbc)
FMAT,2
METRIC
T1C0.300
T2C0.400
T3C0.600
T4C2.200
T5C0.650
%
G90
G05
T1
X0.5Y21.6
X0.5Y11.4
X0.6Y45.0
X0.6Y43.5
X0.6Y40.5
X0.6Y39.0
X0.6Y37.5
X0.6Y35.39
X0.6Y33.0
X0.6Y31.5
X0.6Y30.0
X0.6Y27.0
X0.6Y25.5
X0.6Y24.0
X0.6Y22.5
X0.6Y10.5
X0.6Y9.0
X0.6Y7.5
X0.6Y6.0
X0.6Y4.5
X1.1Y21.6
X1.1Y11.4
X1.7Y21.6
X1.7Y11.4
X2.125Y25.331
X2.3Y21.6
X2.3Y11.4
X2.9Y21.6
X2.9Y11.4
X3.245Y27.181
X3.5Y21.6
X3.5Y11.4
X3.85Y40.2
X4.05Y24.9
X4.1Y21.6
X4.1Y11.4
X4.24Y37.7
X4.25Y49.4
X4.25Y40.7
X4.25Y39.7
X4.25Y33.072
X4.25Y32.072
X4.25Y31.082
X4.25Y30.082
X4.25Y0.5
X4.7Y21.6
X4.7Y21.0
X4.7Y20.4
X4.7Y19.8
X4.7Y19.2
X4.7Y18.6
X4.7Y18.0
X4.7Y17.4
X4.7Y16.8
X4.7Y16.2
X4.7Y15.6
X4.7Y15.0
X4.7Y14.4
X4.7Y13.2
X4.7Y12.6
X4.7Y12.0
X4.7Y11.4
X4.705Y22.681
X5.215Y27.181
X5.45Y13.2
X5.53Y15.11
X5.75Y49.4
X5.75Y0.5
X6.0Y10.39
X6.15Y14.58
X6.15Y13.2
X6.325Y25.331
X6.325Y24.651
X6.85Y14.58
X6.85Y13.2
X7.25Y49.4
X7.47Y15.11
X7.55Y13.2
X7.9Y18.95
X8.5Y4.25
X8.7Y24.08
X8.7Y21.04
X8.74Y12.15
X8.75Y49.4
X8.75Y0.6
X8.99Y31.0
X9.05Y22.45
X9.14Y12.6
X9.5Y4.25
X9.509Y23.73
X9.54Y12.15
X9.81Y10.38
X9.94Y28.13
X9.94Y12.6
X10.109Y23.731
X10.25Y49.4
X10.25Y0.6
X10.5Y4.25
X10.725Y21.45
X10.8Y48.15
X10.87Y45.76
X10.875Y22.2
X10.9Y17.2
X11.16Y25.29
X11.19Y13.64
X11.24Y15.09
X11.5Y28.39
X11.5Y27.79
X11.5Y24.79
X11.5Y4.25
X11.75Y49.4
X11.75Y0.6
X11.83Y13.64
X12.025Y21.825
X12.25Y18.9
X12.41Y14.29
X12.475Y21.4
X12.83Y15.9
X12.83Y15.09
X12.875Y45.75
X12.91Y29.87
X13.25Y49.4
X13.375Y46.15
X13.55Y29.87
X13.73Y24.04
X13.73Y23.04
X13.875Y45.75
X13.95Y48.15
X13.95Y31.775
X14.29Y31.0
X14.432Y29.54
X14.73Y23.04
X14.75Y0.6
X15.032Y29.54
X15.25Y17.2
X16.15Y48.15
X16.25Y49.4
X16.25Y19.975
X16.25Y0.6
X16.5Y18.06
X16.73Y27.04
X17.1Y18.05
X17.55Y8.75
X17.68Y20.69
X17.73Y27.04
X17.73Y26.04
X17.75Y0.6
X17.8Y16.6
X17.8Y16.0
X17.8Y15.4
X17.8Y14.8
X17.9Y6.55
X18.28Y20.69
X18.4Y48.15
X18.4Y16.0
X18.4Y15.4
X18.4Y14.8
X18.5Y45.75
X19.25Y49.4
X19.25Y6.77
X19.25Y0.6
X19.7Y10.871
X19.96Y23.29
X19.96Y22.29
X20.05Y15.4
X20.05Y14.8
X20.252Y6.77
X20.3Y10.871
X20.31Y23.79
X20.407Y21.889
X20.5Y45.75
X20.56Y27.86
X20.56Y27.22
X20.73Y18.42
X20.75Y49.4
X20.75Y0.6
X21.0Y46.15
X21.03Y16.77
X21.03Y15.97
X21.5Y45.75
X21.6Y48.15
X21.73Y16.37
X22.25Y0.6
X22.26Y6.71
X22.43Y16.77
X22.43Y15.97
X22.45Y8.75
X22.6Y18.4
X23.2Y18.4
X23.2Y17.8
X23.3Y15.0
X23.75Y49.4
X23.75Y0.6
X23.8Y48.15
X24.3Y8.4
X24.9Y15.5
X24.9Y14.9
X24.9Y14.3
X24.97Y12.6
X25.0Y9.1
X25.0Y8.4
X25.0Y7.7
X25.25Y0.6
X25.5Y14.3
X25.515Y23.28
X25.7Y8.4
X26.05Y48.15
X26.1Y14.3
X26.125Y45.75
X26.2Y12.93
X26.265Y24.03
X26.265Y23.28
X26.265Y22.53
X26.7Y31.7
X26.7Y14.3
X26.75Y49.4
X26.75Y12.63
X26.77Y13.28
X26.85Y8.85
X26.85Y3.0
X27.265Y24.03
X27.265Y23.28
X27.265Y22.53
X27.3Y31.7
X27.3Y12.93
X27.5Y4.25
X27.5Y3.45
X27.8Y8.9
X27.8Y8.3
X27.9Y31.7
X27.9Y31.1
X27.9Y30.5
X27.9Y29.9
X27.9Y29.3
X27.9Y28.7
X27.9Y28.1
X27.9Y27.5
X27.9Y26.9
X27.9Y26.3
X27.9Y25.7
X28.0Y3.85
X28.015Y23.28
X28.125Y45.75
X28.24Y13.12
X28.25Y49.4
X28.25Y0.6
X28.35Y13.88
X28.35Y1.8
X28.4Y8.9
X28.4Y8.3
X28.5Y31.7
X28.5Y31.1
X28.5Y30.5
X28.5Y29.9
X28.5Y29.3
X28.5Y28.7
X28.5Y28.1
X28.5Y27.5
X28.5Y26.9
X28.5Y26.3
X28.5Y25.7
X28.5Y4.25
X28.5Y3.45
X28.625Y46.15
X29.0Y3.85
X29.125Y45.75
X29.2Y48.15
X29.2Y11.84
X29.2Y11.04
X29.5Y4.25
X29.5Y3.45
X29.7Y31.7
X29.75Y49.4
X29.75Y0.6
X30.0Y11.44
X30.3Y31.7
X30.31Y13.73
X30.4Y19.7
X30.4Y19.1
X30.4Y18.5
X30.4Y17.9
X30.4Y17.3
X30.4Y16.7
X30.4Y16.1
X30.4Y15.5
X30.4Y14.9
X30.5Y4.25
X30.5Y3.45
X30.8Y11.84
X30.8Y11.04
X30.9Y31.7
X30.9Y31.1
X30.9Y30.5
X30.9Y29.9
X30.9Y29.3
X30.9Y28.7
X30.9Y28.1
X30.9Y27.5
X30.9Y26.9
X30.9Y26.3
X30.9Y25.7
X31.0Y19.7
X31.0Y19.1
X31.0Y3.85
X31.25Y49.4
X31.25Y0.6
X31.45Y10.64
X31.5Y31.7
X31.5Y31.1
X31.5Y30.5
X31.5Y29.9
X31.5Y29.3
X31.5Y28.7
X31.5Y28.1
X31.5Y27.5
X31.5Y26.9
X31.5Y26.3
X31.5Y25.7
X31.5Y4.25
X31.5Y3.45
X31.53Y13.99
X31.6Y19.7
X31.6Y19.1
X31.6Y9.1
X31.6Y8.3
X31.65Y48.15
X31.65Y2.4
X31.72Y11.44
X32.0Y3.85
X32.1Y8.7
X32.2Y19.7
X32.2Y19.1
X32.5Y4.25
X32.5Y3.45
X32.6Y9.1
X32.6Y8.3
X32.72Y12.51
X32.75Y49.4
X32.98Y10.54
X33.35Y9.75
X33.45Y2.9
X33.5Y19.7
X33.5Y19.1
X33.5Y18.5
X33.5Y17.9
X33.5Y17.3
X33.5Y16.7
X33.5Y16.1
X33.5Y15.5
X33.5Y14.9
X33.85Y10.4
X34.1Y19.7
X34.1Y19.1
X34.25Y49.4
X34.25Y0.6
X34.45Y48.15
X34.5Y1.8
X34.7Y19.7
X34.7Y19.1
X35.3Y19.7
X35.3Y19.1
X35.75Y49.4
X35.75Y38.625
X35.75Y37.625
X35.75Y32.06
X35.75Y31.057
X35.75Y30.057
X35.75Y25.43
X35.75Y23.427
X35.75Y22.427
X35.75Y0.6
X35.76Y40.64
X35.76Y33.07
X35.76Y24.43
X36.15Y38.125
X36.15Y30.557
X36.15Y22.927
X36.26Y17.45
X38.05Y43.25
X38.05Y40.7
X38.05Y37.55
X38.05Y33.15
X38.05Y30.0
X38.15Y25.5
X38.15Y22.35
X38.15Y19.9
X38.2Y44.5
X39.4Y45.25
X39.4Y43.75
X39.4Y40.75
X39.4Y39.25
X39.4Y37.75
X39.4Y35.35
X39.4Y33.0
X39.4Y31.5
X39.4Y30.0
X39.4Y27.75
X39.4Y25.5
X39.4Y24.0
X39.4Y22.5
X39.4Y19.75
X39.4Y18.25
X39.4Y16.75
X39.4Y15.25
X39.4Y13.75
X39.4Y12.25
X39.4Y10.75
X39.4Y9.25
X39.4Y7.75
X39.4Y6.25
X39.4Y4.75
T2
X1.35Y47.0
X1.35Y3.0
X1.833Y48.167
X1.833Y45.833
X1.833Y4.167
X1.833Y1.833
X3.0Y48.65
X3.0Y45.35
X3.0Y4.65
X3.0Y1.35
X4.167Y48.167
X4.167Y45.833
X4.167Y4.167
X4.167Y1.833
X4.65Y47.0
X4.65Y3.0
X35.35Y47.0
X35.35Y3.0
X35.833Y48.167
X35.833Y45.833
X35.833Y4.167
X35.833Y1.833
X37.0Y48.65
X37.0Y45.35
X37.0Y4.65
X37.0Y1.35
X38.167Y48.167
X38.167Y45.833
X38.167Y4.167
X38.167Y1.833
X38.65Y47.0
X38.65Y3.0
T4
X3.0Y47.0
X3.0Y3.0
X37.0Y47.0
X37.0Y3.0
T5
X17.11Y6.25
X22.89Y6.25
T3
G00X15.68Y7.33
M15
G01X15.68Y6.23
M16
G05
G00X15.68Y2.9
M15
G01X15.68Y2.3
M16
G05
G00X24.32Y7.33
M15
G01X24.32Y6.23
M16
G05
G00X24.32Y2.9
M15
G01X24.32Y2.3
M16
G05
T0
M30
