G04 #@! TF.GenerationSoftware,KiCad,Pcbnew,(5.99.0-7554-g937713dbbc)*
G04 #@! TF.CreationDate,2020-12-16T08:12:25+03:00*
G04 #@! TF.ProjectId,BioniX,42696f6e-6958-42e6-9b69-6361645f7063,rev?*
G04 #@! TF.SameCoordinates,PX6422c40PY5a995c0*
G04 #@! TF.FileFunction,Copper,L4,Bot*
G04 #@! TF.FilePolarity,Positive*
%FSLAX46Y46*%
G04 Gerber Fmt 4.6, Leading zero omitted, Abs format (unit mm)*
G04 Created by KiCad (PCBNEW (5.99.0-7554-g937713dbbc)) date 2020-12-16 08:12:25*
%MOMM*%
%LPD*%
G01*
G04 APERTURE LIST*
G04 #@! TA.AperFunction,ComponentPad*
%ADD10C,0.500000*%
G04 #@! TD*
G04 #@! TA.AperFunction,ComponentPad*
%ADD11O,1.000000X2.100000*%
G04 #@! TD*
G04 #@! TA.AperFunction,ComponentPad*
%ADD12O,1.000000X1.600000*%
G04 #@! TD*
G04 #@! TA.AperFunction,ComponentPad*
%ADD13C,0.700000*%
G04 #@! TD*
G04 #@! TA.AperFunction,ComponentPad*
%ADD14C,4.400000*%
G04 #@! TD*
G04 #@! TA.AperFunction,ViaPad*
%ADD15C,0.500000*%
G04 #@! TD*
G04 #@! TA.AperFunction,Conductor*
%ADD16C,0.100000*%
G04 #@! TD*
G04 APERTURE END LIST*
D10*
G04 #@! TO.P,U1,49,VSS*
G04 #@! TO.N,GND*
X13730000Y24040000D03*
X17730000Y26040000D03*
X13730000Y23040000D03*
X16730000Y27040000D03*
X14730000Y23040000D03*
X17730000Y27040000D03*
G04 #@! TD*
G04 #@! TO.P,U4,11,PGND*
G04 #@! TO.N,GND*
X21730000Y16370000D03*
X22430000Y15970000D03*
X21030000Y15970000D03*
X21030000Y16770000D03*
X22430000Y16770000D03*
G04 #@! TD*
G04 #@! TO.P,U3,11,EP*
G04 #@! TO.N,GND*
X30800000Y11840000D03*
X30800000Y11040000D03*
X30000000Y11440000D03*
X29200000Y11040000D03*
X29200000Y11840000D03*
G04 #@! TD*
D11*
G04 #@! TO.P,J1,S1,SHIELD*
G04 #@! TO.N,GND*
X15680000Y6780000D03*
X24320000Y6780000D03*
D12*
X15680000Y2600000D03*
X24320000Y2600000D03*
G04 #@! TD*
D13*
G04 #@! TO.P,H4,*
G04 #@! TO.N,*
X38650000Y47000000D03*
X38166726Y48166726D03*
X35833274Y45833274D03*
X37000000Y45350000D03*
X38166726Y45833274D03*
D14*
X37000000Y47000000D03*
D13*
X35350000Y47000000D03*
X35833274Y48166726D03*
X37000000Y48650000D03*
G04 #@! TD*
G04 #@! TO.P,H1,*
G04 #@! TO.N,*
X4650000Y3000000D03*
X3000000Y1350000D03*
X3000000Y4650000D03*
D14*
X3000000Y3000000D03*
D13*
X4166726Y4166726D03*
X4166726Y1833274D03*
X1833274Y1833274D03*
X1350000Y3000000D03*
X1833274Y4166726D03*
G04 #@! TD*
G04 #@! TO.P,H2,*
G04 #@! TO.N,*
X35833274Y4166726D03*
X35350000Y3000000D03*
X35833274Y1833274D03*
X38166726Y1833274D03*
X38166726Y4166726D03*
X38650000Y3000000D03*
X37000000Y1350000D03*
X37000000Y4650000D03*
D14*
X37000000Y3000000D03*
G04 #@! TD*
D13*
G04 #@! TO.P,H3,*
G04 #@! TO.N,*
X1350000Y47000000D03*
X4166726Y45833274D03*
X4166726Y48166726D03*
X3000000Y45350000D03*
X3000000Y48650000D03*
X1833274Y45833274D03*
X1833274Y48166726D03*
X4650000Y47000000D03*
D14*
X3000000Y47000000D03*
G04 #@! TD*
D10*
G04 #@! TO.P,U5,21,PGND*
G04 #@! TO.N,GND*
X25514999Y23280000D03*
X26264999Y22530000D03*
X26264999Y24030000D03*
X27264999Y24030000D03*
X28014999Y23280000D03*
X26264999Y23280000D03*
X27264999Y23280000D03*
X27264999Y22530000D03*
G04 #@! TD*
D15*
G04 #@! TO.N,GND*
X4050000Y24900000D03*
X10900000Y17200000D03*
X7900000Y18950000D03*
X15250000Y17200000D03*
X12250000Y18900000D03*
X35760000Y40640000D03*
X4240000Y37700000D03*
X10870000Y45760000D03*
X18500000Y45750000D03*
X26125000Y45750000D03*
X13950000Y31775000D03*
G04 #@! TO.N,6V*
X4250000Y40700000D03*
X4250000Y39700000D03*
X3850000Y40200000D03*
X12875000Y45750000D03*
X13375000Y46150000D03*
X13875000Y45750000D03*
X21500000Y45750000D03*
X21000000Y46150000D03*
X20500000Y45750000D03*
X28625000Y46150000D03*
X28125000Y45750000D03*
X29125000Y45750000D03*
X36150000Y38125000D03*
X35750000Y38625000D03*
X35750000Y37625000D03*
G04 #@! TO.N,GND*
X10800000Y48150000D03*
X13950000Y48150000D03*
X16150000Y48150000D03*
X18400000Y48150000D03*
X21600000Y48150000D03*
X23800000Y48150000D03*
X26050000Y48150000D03*
X29200000Y48150000D03*
X31650000Y48150000D03*
X600000Y45000000D03*
X600000Y43500000D03*
X34450000Y48150000D03*
X38050000Y43250000D03*
X38050000Y40700000D03*
X38050000Y37550000D03*
X39400000Y45250000D03*
X39400000Y43750000D03*
X10250000Y49400000D03*
X11750000Y49400000D03*
X28250000Y49400000D03*
X29750000Y49400000D03*
X33500000Y14900000D03*
X34700000Y19700000D03*
X12830000Y15090000D03*
X33500000Y16100000D03*
X600000Y40500000D03*
X34250000Y600000D03*
X30900000Y25700000D03*
X29500000Y3450000D03*
X6850000Y14580000D03*
X30900000Y28700000D03*
X10250000Y600000D03*
X35750000Y49400000D03*
X16250000Y19975000D03*
X600000Y33000000D03*
X33500000Y17900000D03*
X4100000Y11400000D03*
X1700000Y21600000D03*
X500000Y21600000D03*
X4700000Y19200000D03*
X39400000Y40750000D03*
X33500000Y18500000D03*
X4700000Y15000000D03*
X11750000Y600000D03*
X11830000Y13640000D03*
X39400000Y25500000D03*
X19250000Y600000D03*
X600000Y27000000D03*
X7250000Y49400000D03*
X31500000Y29900000D03*
X25000000Y9100000D03*
X31500000Y27500000D03*
X4250000Y49400000D03*
X35300000Y19100000D03*
X31500000Y25700000D03*
X33500000Y17300000D03*
X35750000Y25430000D03*
X4700000Y19800000D03*
X6850000Y13200000D03*
X34700000Y19100000D03*
X31650000Y2400000D03*
X39400000Y37750000D03*
X9050000Y22450000D03*
X38150000Y19900000D03*
X31500000Y31100000D03*
X5750000Y49400000D03*
X16250000Y49400000D03*
X23750000Y49400000D03*
X600000Y25500000D03*
X33500000Y16700000D03*
X2900000Y11400000D03*
X28400000Y8900000D03*
X4700000Y12000000D03*
X39400000Y9250000D03*
X25700000Y8400000D03*
X17750000Y600000D03*
X20560000Y27220000D03*
X8700000Y21040000D03*
X4700000Y21600000D03*
X4700000Y18600000D03*
X17100000Y18050000D03*
X30900000Y29900000D03*
X7470000Y15110000D03*
X8750000Y49400000D03*
X4700000Y20400000D03*
X28400000Y8300000D03*
X39400000Y6250000D03*
X33500000Y15500000D03*
X600000Y37500000D03*
X1700000Y11400000D03*
X31500000Y28100000D03*
X35750000Y600000D03*
X30900000Y27500000D03*
X39400000Y7750000D03*
X30900000Y30500000D03*
X9810000Y10380000D03*
X33500000Y19700000D03*
X39400000Y33000000D03*
X6150000Y14580000D03*
X600000Y10500000D03*
X600000Y39000000D03*
X600000Y35390000D03*
X38050000Y30000000D03*
X39400000Y19750000D03*
X23750000Y600000D03*
X29500000Y4250000D03*
X39400000Y12250000D03*
X5750000Y500000D03*
X14750000Y600000D03*
X39400000Y39250000D03*
X4700000Y12600000D03*
X38200000Y44500000D03*
X30900000Y31100000D03*
X28500000Y4250000D03*
X39400000Y13750000D03*
X31530000Y13990000D03*
X33350000Y9750000D03*
X32750000Y49400000D03*
X38150000Y22350000D03*
X1100000Y11400000D03*
X2900000Y21600000D03*
X31500000Y26900000D03*
X31500000Y26300000D03*
X30300000Y31700000D03*
X31500000Y31700000D03*
X31500000Y29300000D03*
X30900000Y29300000D03*
X39400000Y35350000D03*
X600000Y31500000D03*
X600000Y7500000D03*
X28250000Y600000D03*
X4700000Y14400000D03*
X33850000Y10400000D03*
X4700000Y21000000D03*
X1100000Y21600000D03*
X39400000Y31500000D03*
X3500000Y21600000D03*
X28000000Y3850000D03*
X25000000Y8400000D03*
X29750000Y600000D03*
X33450000Y2900000D03*
X2300000Y21600000D03*
X600000Y6000000D03*
X31450000Y10640000D03*
X31250000Y49400000D03*
X4700000Y11400000D03*
X3500000Y11400000D03*
X34500000Y1800000D03*
X39400000Y27750000D03*
X4700000Y17400000D03*
X5530000Y15110000D03*
X4700000Y16200000D03*
X600000Y9000000D03*
X19250000Y49400000D03*
X34100000Y19100000D03*
X33500000Y19100000D03*
X600000Y22500000D03*
X27500000Y3450000D03*
X39400000Y10750000D03*
X12830000Y15900000D03*
X20750000Y49400000D03*
X34250000Y49400000D03*
X6150000Y13200000D03*
X32720000Y12510000D03*
X26750000Y49400000D03*
X30900000Y31700000D03*
X25000000Y7700000D03*
X39400000Y22500000D03*
X39400000Y24000000D03*
X38050000Y33150000D03*
X4700000Y16800000D03*
X31250000Y600000D03*
X26850000Y3000000D03*
X28350000Y1800000D03*
X8750000Y600000D03*
X27800000Y8300000D03*
X500000Y11400000D03*
X35760000Y33070000D03*
X29700000Y31700000D03*
X28500000Y3450000D03*
X13250000Y49400000D03*
X12410000Y14290000D03*
X39400000Y15250000D03*
X2300000Y11400000D03*
X16250000Y600000D03*
X34100000Y19700000D03*
X31500000Y30500000D03*
X30900000Y26900000D03*
X4700000Y13200000D03*
X5450000Y13200000D03*
X22250000Y600000D03*
X27800000Y8900000D03*
X4700000Y15600000D03*
X8990000Y31000000D03*
X30900000Y26300000D03*
X30900000Y28100000D03*
X4700000Y18000000D03*
X24300000Y8400000D03*
X26850000Y8850000D03*
X27500000Y4250000D03*
X4250000Y500000D03*
X25250000Y600000D03*
X7550000Y13200000D03*
X600000Y4500000D03*
X38150000Y25500000D03*
X4100000Y21600000D03*
X11500000Y4250000D03*
X600000Y24000000D03*
X39400000Y16750000D03*
X29000000Y3850000D03*
X39400000Y30000000D03*
X4250000Y30082157D03*
X35300000Y19700000D03*
X600000Y30000000D03*
X39400000Y4750000D03*
X20750000Y600000D03*
X31500000Y28700000D03*
X13550000Y29870000D03*
X39400000Y18250000D03*
G04 #@! TO.N,6V*
X28500000Y30500000D03*
X28500000Y29300000D03*
X27900000Y26300000D03*
X27900000Y28100000D03*
X27900000Y26900000D03*
X28500000Y25700000D03*
X27900000Y31700000D03*
X36260000Y17450000D03*
X28500000Y31100000D03*
X28500000Y31700000D03*
X35750000Y30057157D03*
X28500000Y28700000D03*
X27900000Y30500000D03*
X36150000Y22927157D03*
X28500000Y29900000D03*
X26700000Y31700000D03*
X27300000Y31700000D03*
X35750000Y31057157D03*
X36150000Y30557157D03*
X28500000Y26300000D03*
X27900000Y29300000D03*
X35750000Y23427157D03*
X27900000Y31100000D03*
X27900000Y29900000D03*
X28500000Y27500000D03*
X27900000Y25700000D03*
X28500000Y28100000D03*
X27900000Y28700000D03*
X28500000Y26900000D03*
X35750000Y22427157D03*
X27900000Y27500000D03*
G04 #@! TO.N,3.3V*
X18400000Y16000000D03*
X20050000Y15400000D03*
X6000000Y10390000D03*
X11240000Y15090000D03*
X18400000Y15400000D03*
X4250000Y33072157D03*
X10725000Y21450000D03*
X10875000Y22200000D03*
X9940000Y28130000D03*
X16500000Y18060000D03*
X3245000Y27181250D03*
X17800000Y15400000D03*
X20050000Y14800000D03*
X14290000Y31000000D03*
X4705000Y22681250D03*
X6325000Y25331250D03*
X20730000Y18420000D03*
X8700000Y24080000D03*
X12025000Y21825000D03*
X17800000Y16600000D03*
X12475000Y21400000D03*
X18400000Y14800000D03*
X20560000Y27860000D03*
X12910000Y29870000D03*
X8500000Y4250000D03*
X17800000Y16000000D03*
X5215000Y27181250D03*
X6325000Y24651250D03*
X11190000Y13640000D03*
X2125000Y25331250D03*
X17800000Y14800000D03*
G04 #@! TO.N,SDA*
X4250000Y32072157D03*
X10109301Y23730699D03*
G04 #@! TO.N,SCL*
X4250000Y31082157D03*
X9509300Y23729622D03*
G04 #@! TO.N,BAT_VOLT*
X19960000Y22290000D03*
X31720000Y11440000D03*
G04 #@! TO.N,VBAT*
X32600000Y8300000D03*
X27300000Y12930000D03*
X31500000Y3450000D03*
X32100000Y8700000D03*
X26750000Y12630000D03*
X26200000Y12930000D03*
X32000000Y3850000D03*
X30500000Y3450000D03*
X28240000Y13120000D03*
X32500000Y3450000D03*
X31600000Y9100000D03*
X31500000Y4250000D03*
X32500000Y4250000D03*
X31000000Y3850000D03*
X26770000Y13280000D03*
X32600000Y9100000D03*
X31600000Y8300000D03*
X30500000Y4250000D03*
G04 #@! TO.N,VUSB*
X32980000Y10540000D03*
X24970000Y12600000D03*
X28349916Y13880000D03*
G04 #@! TO.N,SERVO_Y*
X20310000Y23790000D03*
X35750000Y32060000D03*
G04 #@! TO.N,SERVO_X*
X19960000Y23290000D03*
X35760000Y24430000D03*
G04 #@! TO.N,EMG_2*
X10500000Y4250000D03*
X18280003Y20690000D03*
G04 #@! TO.N,EMG_1*
X17680000Y20690000D03*
X9500000Y4250000D03*
G04 #@! TO.N,BAT_STAT*
X20406743Y21889472D03*
X30310000Y13730000D03*
G04 #@! TO.N,D-*
X15032433Y29539950D03*
X20300000Y10871290D03*
G04 #@! TO.N,D+*
X19700000Y10871290D03*
X14432433Y29539950D03*
G04 #@! TO.N,BT_TX*
X9540000Y12150000D03*
X11500000Y24790000D03*
G04 #@! TO.N,BT_RX*
X9940000Y12600000D03*
X11160000Y25290000D03*
G04 #@! TO.N,Net-(J1-PadA7)*
X20252157Y6770000D03*
X19250000Y6770000D03*
G04 #@! TO.N,VBUS*
X32200000Y19100000D03*
X30400000Y17300000D03*
X30400000Y19100000D03*
X30400000Y19700000D03*
X30400000Y18500000D03*
X24900000Y14900000D03*
X30400000Y14900000D03*
X23200000Y18400000D03*
X26700000Y14300000D03*
X31000000Y19100000D03*
X30400000Y16100000D03*
X31000000Y19700000D03*
X30400000Y17900000D03*
X24900000Y15500000D03*
X30400000Y16700000D03*
X23200000Y17800000D03*
X32200000Y19700000D03*
X25500000Y14300000D03*
X24900000Y14300000D03*
X23300000Y15000000D03*
X31600000Y19100000D03*
X31600000Y19700000D03*
X22600000Y18400000D03*
X30400000Y15500000D03*
X26100000Y14300000D03*
G04 #@! TO.N,BT_2*
X11500000Y27790000D03*
X9140000Y12600000D03*
G04 #@! TO.N,BT_1*
X11500000Y28390000D03*
X8740000Y12150000D03*
G04 #@! TO.N,Net-(F1-Pad1)*
X17550000Y8750000D03*
X22260000Y6710000D03*
X17900000Y6550000D03*
X22450000Y8750000D03*
G04 #@! TD*
D16*
G04 #@! TO.N,BAT_STAT*
X30310000Y13730000D02*
X29722846Y14317154D01*
X29722846Y14317154D02*
X29722846Y14558586D01*
X29722846Y14558586D02*
X22391960Y21889472D01*
X22391960Y21889472D02*
X20715889Y21889472D01*
X20715889Y21889472D02*
X20406743Y21889472D01*
G04 #@! TO.N,SERVO_Y*
X33500000Y29810000D02*
X33500000Y24612856D01*
X22640498Y22489502D02*
X21043354Y22489502D01*
X20360001Y23172855D02*
X20360001Y23739999D01*
X33500000Y24612856D02*
X28927154Y20040010D01*
X28927154Y20040010D02*
X25089990Y20040010D01*
X35750000Y32060000D02*
X33500000Y29810000D01*
X25089990Y20040010D02*
X22640498Y22489502D01*
X21043354Y22489502D02*
X20360001Y23172855D01*
X20360001Y23739999D02*
X20310000Y23790000D01*
G04 #@! TO.N,SERVO_X*
X19960000Y23290000D02*
X20960508Y22289492D01*
X20960508Y22289492D02*
X22557652Y22289492D01*
X22557652Y22289492D02*
X25007144Y19840000D01*
X25007144Y19840000D02*
X29010000Y19840000D01*
X29010000Y19840000D02*
X33600000Y24430000D01*
X33600000Y24430000D02*
X35760000Y24430000D01*
X33710000Y24430000D02*
X33600000Y24430000D01*
G04 #@! TO.N,SDA*
X10109301Y23730699D02*
X9709310Y24130690D01*
X9709310Y25905703D02*
X4650001Y30965012D01*
X4650001Y30965012D02*
X4650001Y31274158D01*
X4650001Y31274158D02*
X4250000Y31674159D01*
X9709310Y24130690D02*
X9709310Y25905703D01*
X4250000Y31674159D02*
X4250000Y31730000D01*
X4250000Y31730000D02*
X4250000Y32072157D01*
G04 #@! TO.N,SCL*
X9509300Y23729622D02*
X9509300Y25822857D01*
X9509300Y25822857D02*
X4250000Y31082157D01*
G04 #@! TO.N,BAT_VOLT*
X29922856Y14400000D02*
X30192856Y14130000D01*
X19960000Y22290000D02*
X20570000Y22290000D01*
X30192856Y14130000D02*
X30490000Y14130000D01*
X20798735Y22089482D02*
X22474806Y22089482D01*
X20570527Y22289473D02*
X20598744Y22289473D01*
X20598744Y22289473D02*
X20798735Y22089482D01*
X20570000Y22290000D02*
X20570527Y22289473D01*
X30490000Y14130000D02*
X31720000Y12900000D01*
X22474806Y22089482D02*
X29922856Y14641432D01*
X29922856Y14641432D02*
X29922856Y14400000D01*
X31720000Y12900000D02*
X31720000Y11440000D01*
G04 #@! TO.N,VUSB*
X31519990Y11831992D02*
X31519990Y12817154D01*
X31319999Y11632001D02*
X31519990Y11831992D01*
X31319999Y11247999D02*
X31319999Y11632001D01*
X29560000Y13880000D02*
X28349916Y13880000D01*
X28349916Y13880000D02*
X26250000Y13880000D01*
X32980000Y10540000D02*
X32620000Y10900000D01*
X31912001Y11039999D02*
X31527999Y11039999D01*
X26250000Y13880000D02*
X24970000Y12600000D01*
X31527999Y11039999D02*
X31319999Y11247999D01*
X31007144Y13330000D02*
X30110000Y13330000D01*
X30110000Y13330000D02*
X29560000Y13880000D01*
X31519990Y12817154D02*
X31007144Y13330000D01*
X32620000Y10900000D02*
X32052000Y10900000D01*
X32052000Y10900000D02*
X31912001Y11039999D01*
G04 #@! TO.N,EMG_2*
X16970000Y13010000D02*
X16970000Y16637144D01*
X18090000Y17757144D02*
X18090000Y20200000D01*
X18280003Y20390003D02*
X18280003Y20690000D01*
X10100010Y4649990D02*
X10100010Y6140010D01*
X18090000Y20200000D02*
X18280003Y20390003D01*
X10500000Y4250000D02*
X10100010Y4649990D01*
X16970000Y16637144D02*
X18090000Y17757144D01*
X10100010Y6140010D02*
X16970000Y13010000D01*
G04 #@! TO.N,EMG_1*
X17889990Y17839990D02*
X17889990Y20180010D01*
X17889990Y20180010D02*
X17680000Y20390000D01*
X16769990Y13092846D02*
X16769990Y16719990D01*
X9900000Y6222856D02*
X16769990Y13092846D01*
X16769990Y16719990D02*
X17889990Y17839990D01*
X9900000Y4650000D02*
X9900000Y6222856D01*
X17680000Y20390000D02*
X17680000Y20690000D01*
X9500000Y4250000D02*
X9900000Y4650000D01*
G04 #@! TO.N,D-*
X20300000Y10871290D02*
X20100000Y11071290D01*
X20100000Y11071290D02*
X20100000Y12201422D01*
X19330000Y22042856D02*
X14832433Y26540423D01*
X14832433Y29339950D02*
X15032433Y29539950D01*
X20100000Y12201422D02*
X19330000Y12971422D01*
X19330000Y12971422D02*
X19330000Y22042856D01*
X14832433Y26540423D02*
X14832433Y29339950D01*
G04 #@! TO.N,D+*
X14632425Y26670415D02*
X14632433Y26670423D01*
X14632425Y26457575D02*
X14632425Y26670415D01*
X14632433Y26670423D02*
X14632433Y29339950D01*
X19900000Y12118578D02*
X19247166Y12771412D01*
X19700000Y10871290D02*
X19900000Y11071290D01*
X14632433Y29339950D02*
X14432433Y29539950D01*
X19129990Y12888576D02*
X19129990Y21960010D01*
X19129990Y21960010D02*
X14632425Y26457575D01*
X19247154Y12771412D02*
X19129990Y12888576D01*
X19900000Y11071290D02*
X19900000Y12118578D01*
X19247166Y12771412D02*
X19247154Y12771412D01*
G04 #@! TO.N,BT_TX*
X10340001Y12792001D02*
X10140010Y12991992D01*
X10340001Y12407999D02*
X10340001Y12792001D01*
X10082002Y12150000D02*
X10340001Y12407999D01*
X11110010Y23317154D02*
X11110010Y24710010D01*
X10140010Y12991992D02*
X10140010Y22347154D01*
X11190000Y24790000D02*
X11500000Y24790000D01*
X9540000Y12150000D02*
X10082002Y12150000D01*
X10140010Y22347154D02*
X11110010Y23317154D01*
X11110010Y24710010D02*
X11190000Y24790000D01*
G04 #@! TO.N,BT_RX*
X9940000Y12600000D02*
X9940000Y22430000D01*
X10910000Y25040000D02*
X11160000Y25290000D01*
X10910000Y23400000D02*
X10910000Y25040000D01*
X9940000Y22430000D02*
X10910000Y23400000D01*
G04 #@! TO.N,Net-(J1-PadA7)*
X20252157Y6770000D02*
X19250000Y6770000D01*
G04 #@! TO.N,BT_2*
X9739990Y22512846D02*
X10710000Y23482856D01*
X11067998Y27790000D02*
X11500000Y27790000D01*
X9739988Y13529988D02*
X9739990Y13529990D01*
X9140000Y12600000D02*
X9140000Y12909146D01*
X10710000Y27432002D02*
X11067998Y27790000D01*
X10710000Y23482856D02*
X10710000Y27432002D01*
X9739988Y13509134D02*
X9739988Y13529988D01*
X9739990Y13529990D02*
X9739990Y22512846D01*
X9140000Y12909146D02*
X9739988Y13509134D01*
G04 #@! TO.N,BT_1*
X9539980Y22595692D02*
X10509990Y23565702D01*
X11140000Y28390000D02*
X11500000Y28390000D01*
X10509990Y27514848D02*
X10980000Y27984858D01*
X9539980Y13591982D02*
X9539980Y22595692D01*
X10980000Y27984858D02*
X10980000Y28230000D01*
X8739999Y12792001D02*
X9539980Y13591982D01*
X10509990Y23565702D02*
X10509990Y27514848D01*
X8740000Y12150000D02*
X8739999Y12792001D01*
X10980000Y28230000D02*
X11140000Y28390000D01*
G04 #@! TD*
M02*
